<svg width="64" height="64" viewBox="0 0 64 64" fill="none" xmlns="http://www.w3.org/2000/svg">
<path d="M60.25 31.9316C60.25 32.1694 60.0081 32.7836 58.5486 33.6078C57.1897 34.3752 55.1405 35.1074 52.5002 35.7381C47.2393 36.9947 39.9074 37.7842 31.7642 37.7842C23.6209 37.7842 16.289 36.9947 11.0281 35.7381C8.38783 35.1074 6.33859 34.3752 4.97977 33.6078C3.52024 32.7836 3.27832 32.1694 3.27832 31.9316C3.27832 31.6939 3.52024 31.0797 4.97977 30.2554C6.33859 29.4881 8.38783 28.7558 11.0281 28.1252C16.289 26.8686 23.6209 26.0791 31.7642 26.0791C39.9074 26.0791 47.2393 26.8686 52.5002 28.1252C55.1405 28.7558 57.1897 29.4881 58.5486 30.2554C60.0081 31.0797 60.25 31.6939 60.25 31.9316Z" stroke="#52C6D3" stroke-width="2.5"/>
<path d="M52.4994 11.4106C52.5604 11.4715 52.6663 11.6224 52.6869 12.0146C52.7082 12.4186 52.631 12.9892 52.4008 13.7427C51.9409 15.2482 50.9526 17.224 49.4642 19.5573C46.4987 24.206 41.7033 30.0343 35.7796 35.958C29.9317 41.8059 24.204 46.3998 19.6407 49.1834C17.3505 50.5805 15.4138 51.4842 13.9387 51.8849C12.3559 52.3149 11.7682 52.0512 11.6082 51.8912C11.4544 51.7374 11.1921 51.1657 11.6373 49.5964C12.0519 48.1347 12.9752 46.2154 14.3934 43.9419C17.2187 39.4125 21.8536 33.7208 27.698 27.8764C33.6152 21.9593 39.502 17.2302 44.2093 14.3291C46.5714 12.8733 48.5781 11.9145 50.1073 11.4755C50.8727 11.2559 51.4558 11.185 51.8711 11.2114C52.2773 11.2372 52.4364 11.3475 52.4994 11.4106Z" stroke="#52C6D3" stroke-width="2.5"/>
<path d="M60 31.5C60 46.9314 46.9969 59.5 31.5 59.5C16.0693 59.5 4 46.9977 4 31.5C4 16.1015 16.969 4 32.5 4C47.964 4 60 16.036 60 31.5Z" stroke="#52C6D3" stroke-width="3"/>
<path d="M8.05486 31.6955C8.05486 33.9046 6.25305 35.7065 4.04391 35.7065C1.83477 35.7065 0.0126953 33.902 0.0126953 31.6928C0.0126953 29.4837 1.8396 27.7065 4.04874 27.7065C6.25788 27.7065 8.05486 29.4864 8.05486 31.6955Z" fill="#52C6D3"/>
<path d="M21.1797 37.0287C21.1797 38.1333 20.2835 39.0342 19.1847 39.0342C18.0859 39.0342 17.1797 38.1319 17.1797 37.0273C17.1797 35.9228 18.0884 35.0342 19.1871 35.0342C20.2859 35.0342 21.1797 35.9241 21.1797 37.0287Z" fill="#52C6D3"/>
<path d="M31.1367 26.2816C31.1367 27.3862 30.2405 28.2871 29.1418 28.2871C28.043 28.2871 27.1367 27.3848 27.1367 26.2803C27.1367 25.1757 28.0454 24.2871 29.1442 24.2871C30.2429 24.2871 31.1367 25.177 31.1367 26.2816Z" fill="#52C6D3"/>
<path d="M46.2158 27.1908C46.2158 28.2954 45.3196 29.1963 44.2209 29.1963C43.1221 29.1963 42.2158 28.294 42.2158 27.1894C42.2158 26.0849 43.1245 25.1963 44.2233 25.1963C45.322 25.1963 46.2158 26.0862 46.2158 27.1908Z" fill="#52C6D3"/>
<path d="M36.3633 37.701C36.3633 38.8056 35.4671 39.7065 34.3683 39.7065C33.2695 39.7065 32.3633 38.8043 32.3633 37.6997C32.3633 36.5951 33.2719 35.7065 34.3707 35.7065C35.4695 35.7065 36.3633 36.5965 36.3633 37.701Z" fill="#52C6D3"/>
<path d="M16.2551 12.0959C16.2551 14.305 14.4532 16.1069 12.2441 16.1069C10.035 16.1069 8.21289 14.3023 8.21289 12.0932C8.21289 9.88407 10.0398 8.10693 12.2489 8.10693C14.4581 8.10693 16.2551 9.88676 16.2551 12.0959Z" fill="#52C6D3"/>
<path d="M16.2072 51.2814C16.2072 53.4906 14.4054 55.2924 12.1963 55.2924C9.98712 55.2924 8.16504 53.4879 8.16504 51.2788C8.16504 49.0696 9.99195 47.2925 12.2011 47.2925C14.4102 47.2925 16.2072 49.0723 16.2072 51.2814Z" fill="#52C6D3"/>
<path d="M35.9406 59.405C35.9406 61.6141 34.1388 63.4159 31.9297 63.4159C29.7205 63.4159 27.8984 61.6114 27.8984 59.4023C27.8984 57.1931 29.7253 55.416 31.9345 55.416C34.1436 55.416 35.9406 57.1958 35.9406 59.405Z" fill="#52C6D3"/>
<path d="M55.6965 51.3054C55.6965 53.5145 53.8947 55.3163 51.6855 55.3163C49.4764 55.3163 47.6543 53.5118 47.6543 51.3027C47.6543 49.0935 49.4812 47.3164 51.6903 47.3164C53.8995 47.3164 55.6965 49.0962 55.6965 51.3054Z" fill="#52C6D3"/>
<path d="M36 4C36 6.20914 34.2052 8.01172 31.9961 8.01172C29.787 8.01172 27.918 6.20914 27.918 4C27.918 1.79086 29.7909 0 32 0C34.2091 0 36 1.79086 36 4Z" fill="#52C6D3"/>
<path d="M55.7229 12.1277C55.7229 14.3368 53.8987 16.1406 51.6895 16.1406C49.4804 16.1406 47.6641 14.3491 47.6641 12.1399C47.6641 9.9308 49.4882 8.12302 51.6974 8.12302C53.9065 8.12302 55.7229 9.91854 55.7229 12.1277Z" fill="#52C6D3"/>
<path d="M63.8919 31.7249C63.8919 33.934 62.0676 35.7378 59.8585 35.7378C57.6493 35.7378 55.833 33.9462 55.833 31.7371C55.833 29.528 57.6572 27.7202 59.8663 27.7202C62.0754 27.7202 63.8919 29.5157 63.8919 31.7249Z" fill="#52C6D3"/>
</svg>
