<svg width="1440" height="13479" viewBox="0 0 1440 13479" fill="none" xmlns="http://www.w3.org/2000/svg">
<g clip-path="url(#clip0_344_3140)">
<rect width="1440" height="13479" fill="#0C121D"/>
<g opacity="0.75">
<path opacity="0.1" d="M1987.4 2425.14C2890.36 2797.43 1535.54 3845.88 1342.58 3177.31C1247.61 2847.7 580.302 2988.63 621.219 2639.83C661.631 2291.27 958.66 2294.56 1255.18 2148.57C1624.96 1966.46 1741.39 2323.6 1987.4 2425.14Z" stroke="#FCE7DF" stroke-width="3.53606" stroke-miterlimit="10"/>
<path opacity="0.1" d="M1994.73 2406.95C2838.08 2795.16 1584.04 3827.94 1342.83 3192.97C1225.63 2884.07 568.938 2949.49 630.061 2612.55C690.679 2276.12 978.616 2250.86 1269.08 2136.19C1630.77 1993.74 1757.31 2297.84 1994.73 2406.95Z" stroke="#FADBCF" stroke-width="3.53606" stroke-miterlimit="10"/>
<path opacity="0.1" d="M2002.31 2389.02C2785.8 2790.61 1633.8 3810.52 1343.34 3208.63C1204.17 2920.44 557.319 2910.08 638.901 2585.27C719.726 2260.96 998.569 2207.16 1283.22 2124.07C1636.32 2020.76 1773.22 2271.57 2002.31 2389.02Z" stroke="#F8D0BF" stroke-width="3.53606" stroke-miterlimit="10"/>
<path opacity="0.2" d="M2009.63 2370.84C2733.51 2784.05 1684.56 3793.6 1343.58 3224.54C1183.2 2957.06 545.95 2870.68 647.738 2557.99C748.768 2245.81 1018.27 2163.47 1297.11 2111.69C1641.88 2047.79 1788.88 2244.8 2009.63 2370.84Z" stroke="#F7C4AF" stroke-width="3.53606" stroke-miterlimit="10"/>
<path opacity="0.2" d="M2017.21 2352.9C2681.73 2775.21 1736.85 3776.42 1343.84 3240.2C1163.25 2993.69 534.334 2831.28 656.834 2530.71C777.817 2230.65 1037.97 2119.52 1311.26 2099.57C1647.18 2074.81 1804.54 2217.77 2017.21 2352.9Z" stroke="#F5B89F" stroke-width="3.53606" stroke-miterlimit="10"/>
<path opacity="0.3" d="M2024.53 2334.71C2630.46 2763.84 1790.39 3758.99 1344.09 3255.86C1143.8 3030.06 522.967 2791.88 665.673 2503.43C806.862 2215.5 1057.42 2075.57 1325.15 2087.19C1652.23 2101.59 1820.2 2189.99 2024.53 2334.71Z" stroke="#F3AC8F" stroke-width="3.53606" stroke-miterlimit="10"/>
<path opacity="0.3" d="M2032.11 2316.53C2580.2 2750.2 1844.95 3740.55 1344.35 3271.77C1124.86 3065.92 511.351 2752.73 674.514 2476.16C835.91 2200.34 1076.87 2031.37 1339.29 2075.07C1657.29 2127.85 1836.11 2161.7 2032.11 2316.53Z" stroke="#F2A080" stroke-width="3.53606" stroke-miterlimit="10"/>
<path opacity="0.3" d="M2039.43 2298.6C2531.45 2734.29 1900.52 3720.85 1344.6 3287.43C1106.17 3101.28 499.985 2713.33 683.355 2448.63C864.957 2185.19 1096.32 1986.92 1353.19 2062.69C1662.34 2154.12 1852.02 2132.65 2039.43 2298.6Z" stroke="#F09470" stroke-width="3.53606" stroke-miterlimit="10"/>
<path opacity="0.4" d="M2047.01 2280.41C2483.97 2716.36 1956.59 3700.14 1345.1 3303.09C1087.73 3136.14 488.364 2673.92 692.193 2421.35C894.001 2170.03 1116.02 1942.21 1367.33 2050.57C1667.64 2179.88 1868.69 2102.85 2047.01 2280.41Z" stroke="#EE8860" stroke-width="3.53606" stroke-miterlimit="10"/>
<path opacity="0.4" d="M2054.34 2262.48C2438.5 2696.66 2012.91 3677.92 1345.36 3318.75C1069.54 3170.49 477.001 2634.52 701.036 2394.07C923.05 2154.88 1135.72 1897.26 1381.22 2038.19C1672.95 2205.65 1886.12 2072.29 2054.34 2262.48Z" stroke="#EC7C50" stroke-width="3.53606" stroke-miterlimit="10"/>
<path opacity="0.5" d="M2061.91 2244.29C2395.06 2675.44 2069.24 3654.42 1345.61 3334.66C1051.11 3204.33 465.382 2595.12 710.128 2366.79C952.095 2139.73 1155.67 1852.29 1395.37 2026.07C1678.76 2231.16 1904.81 2040.97 2061.91 2244.29Z" stroke="#EB7140" stroke-width="3.53606" stroke-miterlimit="10"/>
<path opacity="0.5" d="M2069.24 2226.36C2354.14 2653.72 2125.31 3629.92 1345.86 3350.32C1032.67 3237.93 454.014 2555.72 718.966 2339.51C981.14 2124.82 1175.88 1807.34 1409.26 2013.69C1684.56 2256.67 1924.76 2009.14 2069.24 2226.36Z" stroke="#E96530" stroke-width="3.53606" stroke-miterlimit="10"/>
<path opacity="0.5" d="M2076.82 2208.18C2315.5 2632 2180.62 3604.67 1346.11 3365.98C1013.72 3271.01 442.397 2516.57 727.808 2312.24C1010.19 2109.67 1196.08 1762.63 1423.4 2001.57C1690.63 2282.43 1946.49 1976.82 2076.82 2208.18Z" stroke="#E75920" stroke-width="3.53606" stroke-miterlimit="10"/>
<path opacity="0.6" d="M2084.14 2189.99C2279.63 2611.03 2235.69 3578.4 1346.62 3381.9C994.781 3304.1 430.779 2477.17 736.648 2284.96C1039.23 2094.52 1216.54 1717.67 1437.55 1989.19C1696.94 2308.2 1970.23 1944.23 2084.14 2189.99Z" stroke="#E64D10" stroke-width="3.53606" stroke-miterlimit="10"/>
<path opacity="0.6" d="M2091.72 2172.06C2246.04 2591.84 2289.99 3551.88 1346.87 3397.55C975.332 3336.68 419.412 2437.77 745.488 2257.43C1068.28 2079.36 1237 1672.97 1451.44 1977.07C1703.26 2333.96 1995.99 1911.9 2091.72 2172.06Z" stroke="#E44100" stroke-width="3.53606" stroke-miterlimit="10"/>
<path d="M1587.07 3432.66C898.296 4832.94 33.4764 2332.95 944.77 2361.74C1400.92 2376.14 1245.59 1311.28 1692.14 1397.91C2138.44 1484.54 1978.06 1925.79 2141.22 2421.35C2345.3 3040.16 1765.14 3070.72 1587.07 3432.66Z" stroke="#E914BB" stroke-width="3.53606" stroke-miterlimit="10"/>
<path opacity="0.9" d="M1606.77 3447.56C910.673 4759.95 42.8222 2405.69 925.827 2358.46C1364.3 2334.97 1295.85 1303.95 1722.2 1417.11C2148.29 1530.01 2025.54 1964.94 2152.08 2444.33C2311.96 3042.18 1790.39 3101.28 1606.77 3447.56Z" stroke="#EA23BF" stroke-width="3.53606" stroke-miterlimit="10"/>
<path opacity="0.9" d="M1626.22 3462.72C924.563 4686.7 50.6503 2479.44 906.882 2355.17C1327.17 2294.3 1346.36 1296.38 1752.51 1436.3C2158.4 1575.72 2071.26 2004.35 2162.69 2467.57C2276.85 3044.71 1816.16 3131.34 1626.22 3462.72Z" stroke="#EC31C3" stroke-width="3.53606" stroke-miterlimit="10"/>
<path opacity="0.8" d="M1645.67 3477.62C940.728 4613.46 57.2183 2554.46 887.94 2352.14C1289.28 2254.4 1396.63 1288.8 1782.56 1455.5C2168.25 1621.19 2117.73 2043.5 2173.55 2490.81C2242.76 3046.73 1842.17 3161.4 1645.67 3477.62Z" stroke="#ED40C8" stroke-width="3.53606" stroke-miterlimit="10"/>
<path opacity="0.7" d="M1665.37 3492.52C958.914 4540.46 62.7752 2630.99 868.997 2348.86C1250.89 2215.25 1446.89 1281.22 1812.87 1474.69C2178.35 1666.65 2164.46 2082.39 2184.16 2513.79C2208.66 3048.5 1868.44 3191.2 1665.37 3492.52Z" stroke="#EF4FCC" stroke-width="3.53606" stroke-miterlimit="10"/>
<path opacity="0.7" d="M1684.82 3507.68C979.625 4467.72 67.5738 2709.29 850.054 2345.58C1212.5 2177.11 1497.41 1273.9 1842.93 1493.89C2188.2 1712.37 2211.44 2121.29 2195.02 2537.03C2174.81 3050.26 1895.47 3220.75 1684.82 3507.68Z" stroke="#F05DD0" stroke-width="3.53606" stroke-miterlimit="10"/>
<path opacity="0.6" d="M1704.52 3522.58C1003.11 4395.73 72.625 2789.86 831.11 2342.54C1174.11 2139.98 1547.67 1266.32 1873.24 1513.09C2198.3 1757.83 2258.42 2159.93 2205.63 2560.01C2140.97 3051.78 1923 3250.3 1704.52 3522.58Z" stroke="#F16CD4" stroke-width="3.53606" stroke-miterlimit="10"/>
<path opacity="0.6" d="M1723.97 3537.48C1029.38 4325.01 78.6864 2872.2 812.167 2339.26C1136.22 2103.86 1597.93 1258.74 1903.55 1532.28C2208.15 1803.29 2305.39 2198.58 2216.49 2583.25C2107.63 3053.04 1951.28 3279.85 1723.97 3537.48Z" stroke="#F37BD9" stroke-width="3.53606" stroke-miterlimit="10"/>
<path opacity="0.5" d="M1743.41 3552.63C1058.43 4255.55 85.7587 2956.05 793.224 2335.98C1098.84 2068.25 1648.45 1251.42 1933.6 1551.48C2218.26 1849.01 2352.88 2237.22 2227.1 2606.49C2074.54 3054.55 1980.08 3309.66 1743.41 3552.63Z" stroke="#F48ADD" stroke-width="3.53606" stroke-miterlimit="10"/>
<path opacity="0.4" d="M1763.12 3567.54C1090.25 4187.86 94.3472 3041.17 774.281 2332.69C1061.97 2033.14 1698.71 1243.84 1963.91 1570.67C2228.11 1894.47 2400.62 2275.86 2237.96 2629.47C2041.71 3056.07 2009.88 3339.97 1763.12 3567.54Z" stroke="#F598E1" stroke-width="3.53606" stroke-miterlimit="10"/>
<path opacity="0.4" d="M1782.57 3582.44C1124.86 4122.45 104.704 3126.79 755.339 2329.66C1025.85 1998.28 1748.97 1236.26 1993.97 1589.87C2238.21 1939.94 2448.61 2314.51 2248.57 2652.71C2009.13 3057.59 2040.45 3370.78 1782.57 3582.44Z" stroke="#F7A7E5" stroke-width="3.53606" stroke-miterlimit="10"/>
<path opacity="0.3" d="M1802.01 3597.34C1161.99 4059.81 116.321 3212.92 736.395 2326.38C990.234 1963.43 1799.49 1228.68 2024.28 1609.06C2248.31 1985.66 2496.6 2353.66 2259.43 2675.69C1976.79 3059.61 2072.02 3402.61 1802.01 3597.34Z" stroke="#F8B6EA" stroke-width="3.53606" stroke-miterlimit="10"/>
<path opacity="0.3" d="M1821.71 3612.5C1200.63 4000.2 129.708 3298.8 717.704 2323.1C955.378 1928.57 1849.75 1221.36 2054.34 1628.26C2258.16 2031.12 2544.84 2392.81 2270.03 2698.93C1944.46 3061.63 2104.35 3435.95 1821.71 3612.5Z" stroke="#FAC4EE" stroke-width="3.53606" stroke-miterlimit="10"/>
<path opacity="0.2" d="M1841.16 3627.4C1240.54 3944.13 144.107 3384.67 698.763 2319.81C920.777 1893.46 1900.01 1213.78 2084.65 1647.45C2268.27 2076.58 2592.83 2432.21 2280.9 2721.91C1912.14 3064.15 2137.43 3471.3 1841.16 3627.4Z" stroke="#FBD3F2" stroke-width="3.53606" stroke-miterlimit="10"/>
<path opacity="0.1" d="M1860.86 3642.3C1280.19 3891.84 159.512 3469.79 679.818 2316.78C886.425 1858.36 1950.27 1206.2 2114.95 1666.65C2278.12 2122.3 2641.07 2471.86 2291.5 2745.15C1880.06 3066.93 2171.28 3509.19 1860.86 3642.3Z" stroke="#FCE2F7" stroke-width="3.53606" stroke-miterlimit="10"/>
<path opacity="0.1" d="M1880.31 3657.45C1318.58 3843.35 175.677 3554.66 660.875 2313.5C852.58 1822.74 2000.79 1198.88 2145.01 1685.85C2288.22 2167.76 2689.06 2511.77 2302.36 2768.39C1847.48 3069.71 2204.87 3550.11 1880.31 3657.45Z" stroke="#FEF0FB" stroke-width="3.53606" stroke-miterlimit="10"/>
<path opacity="0.1" d="M810.398 3118.96C-625.243 2895.43 1037.97 1009.95 1523.92 1872C1763.37 2296.32 2695.88 1886.65 2742.6 2381.69C2789.83 2876.49 2354.65 2967.67 1965.17 3265.21C1479.98 3635.73 1200.63 3179.83 810.398 3118.96Z" stroke="#F83BFF" stroke-width="3.53606" stroke-miterlimit="10"/>
<path opacity="0.1" d="M804.841 3146.49C-548.965 2881.54 972.047 1050.11 1518.62 1850.27C1784.33 2238.98 2724.92 1937.41 2738.06 2422.36C2751.95 2906.54 2338.48 3034.6 1948.5 3286.42C1463.31 3600.12 1184.72 3220.75 804.841 3146.49Z" stroke="#F949FF" stroke-width="3.53606" stroke-miterlimit="10"/>
<path opacity="0.1" d="M799.539 3173.77C-471.675 2870.43 904.358 1089.77 1513.57 1828.8C1804.29 2181.4 2753.72 1987.93 2733.26 2463.02C2714.06 2936.85 2322.57 3101.28 1931.84 3307.89C1446.64 3564.5 1169.06 3261.92 799.539 3173.77Z" stroke="#F957FF" stroke-width="3.53606" stroke-miterlimit="10"/>
<path opacity="0.1" d="M794.234 3201.05C-393.883 2862.35 834.646 1129.42 1508.27 1807.08C1823.23 2124.07 2782.51 2038.7 2728.71 2503.44C2676.18 2967.16 2307.16 3167.96 1914.91 3329.36C1430.47 3528.89 1153.9 3303.85 794.234 3201.05Z" stroke="#FA65FF" stroke-width="3.53606" stroke-miterlimit="10"/>
<path opacity="0.1" d="M788.676 3228.58C-316.09 2857.55 763.166 1169.58 1502.96 1785.36C1841.41 2066.99 2811.3 2089.21 2723.91 2544.1C2638.29 2997.48 2291.75 3234.9 1898.24 3350.83C1414.56 3493.28 1139.25 3346.28 788.676 3228.58Z" stroke="#FA73FF" stroke-width="3.53606" stroke-miterlimit="10"/>
<path opacity="0.2" d="M783.371 3255.86C-238.046 2856.03 689.918 1211.25 1497.91 1763.64C1858.84 2010.66 2840.1 2139.98 2719.36 2584.76C2600.4 3027.78 2276.6 3302.08 1881.32 3372.29C1398.9 3458.17 1124.6 3389.47 783.371 3255.86Z" stroke="#FB81FF" stroke-width="3.53606" stroke-miterlimit="10"/>
<path opacity="0.2" d="M778.067 3283.39C-160.505 2858.3 615.661 1254.44 1492.6 1742.17C1875.51 1955.09 2868.89 2190.74 2714.57 2625.43C2562.52 3058.09 2261.45 3369.52 1864.65 3393.76C1383.24 3423.31 1109.95 3433.67 778.067 3283.39Z" stroke="#FB8FFF" stroke-width="3.53606" stroke-miterlimit="10"/>
<path opacity="0.2" d="M772.513 3310.67C-83.9718 2864.11 540.396 1299.66 1487.3 1720.45C1891.93 1900.28 2897.69 2241.26 2710.02 2665.84C2524.63 3088.4 2246.55 3437.21 1847.73 3415.23C1367.83 3388.71 1095.05 3478.63 772.513 3310.67Z" stroke="#FC9DFF" stroke-width="3.53606" stroke-miterlimit="10"/>
<path opacity="0.3" d="M767.207 3337.95C-8.95822 2873.71 464.874 1346.89 1482 1698.73C1908.34 1846.23 2926.48 2292.03 2705.22 2706.51C2486.74 3118.71 2231.39 3505.15 1831.06 3436.7C1352.17 3354.62 1079.9 3525.11 767.207 3337.95Z" stroke="#FCABFF" stroke-width="3.53606" stroke-miterlimit="10"/>
<path opacity="0.3" d="M761.65 3365.48C64.2884 2886.34 389.353 1395.89 1476.94 1677.26C1924.76 1792.94 2955.27 2342.54 2700.67 2747.17C2448.86 3149.02 2216.23 3573.6 1814.39 3458.17C1336.51 3321.02 1063.73 3572.84 761.65 3365.48Z" stroke="#FDB9FF" stroke-width="3.53606" stroke-miterlimit="10"/>
<path opacity="0.3" d="M756.348 3392.75C134.759 2901.75 314.593 1446.66 1471.64 1655.54C1941.43 1740.4 2984.07 2393.31 2695.88 2787.83C2410.97 3179.33 2200.83 3642.05 1797.47 3479.64C1320.35 3287.43 1046.31 3621.84 756.348 3392.75Z" stroke="#FDC7FF" stroke-width="3.53606" stroke-miterlimit="10"/>
<path opacity="0.3" d="M751.043 3420.28C202.196 2918.92 240.84 1498.69 1466.34 1633.81C1958.61 1688.12 3012.86 2444.08 2691.33 2828.25C2373.34 3209.64 2185.17 3710.75 1780.79 3501.11C1304.18 3253.84 1027.36 3672.61 751.043 3420.28Z" stroke="#FED5FF" stroke-width="3.53606" stroke-miterlimit="10"/>
<path opacity="0.3" d="M745.485 3447.56C265.844 2937.36 167.844 1551.73 1461.03 1612.09C1976.03 1636.34 3041.65 2494.59 2686.53 2868.91C2335.45 3239.94 2169.26 3779.19 1763.87 3522.32C1287.51 3220.5 1005.89 3724.39 745.485 3447.56Z" stroke="#FEE3FF" stroke-width="3.53606" stroke-miterlimit="10"/>
<path opacity="0.4" d="M740.184 3474.84C325.707 2955.54 95.6103 1605.53 1455.98 1590.62C1993.97 1584.56 3070.45 2545.36 2681.99 2909.57C2297.57 3270.25 2153.09 3847.89 1747.2 3543.79C1270.59 3186.9 981.646 3777.43 740.184 3474.84Z" stroke="#FFF1FF" stroke-width="3.53606" stroke-miterlimit="10"/>
<path opacity="0.4" d="M734.878 3502.37C381.019 2971.96 24.382 1659.58 1450.68 1568.9C2012.41 1533.29 3099.24 2595.88 2677.19 2950.24C2259.68 3300.57 2136.67 3916.35 1730.53 3565.27C1253.67 3153.31 953.861 3830.72 734.878 3502.37Z" stroke="white" stroke-width="3.53606" stroke-miterlimit="10"/>
</g>
<g opacity="0.75">
<path opacity="0.1" d="M389.793 4475.57C1340.28 4867.46 -85.8474 5971.08 -288.972 5267.33C-388.938 4920.37 -1091.37 5068.72 -1048.29 4701.56C-1005.76 4334.66 -693.093 4338.11 -380.962 4184.44C8.27033 3992.75 130.836 4368.69 389.793 4475.57Z" stroke="#FCE7DF" stroke-width="3.72217" stroke-miterlimit="10"/>
<path opacity="0.1" d="M397.504 4456.43C1285.24 4865.07 -34.7995 5952.21 -288.705 5283.81C-412.068 4958.65 -1103.33 5027.51 -1038.99 4672.84C-975.179 4318.71 -672.088 4292.12 -366.339 4171.42C14.3863 4021.47 147.587 4341.57 397.504 4456.43Z" stroke="#FADBCF" stroke-width="3.72217" stroke-miterlimit="10"/>
<path opacity="0.1" d="M405.481 4437.55C1230.21 4860.28 17.5774 5933.86 -288.172 5300.29C-434.666 4996.94 -1115.56 4986.04 -1029.68 4644.13C-944.604 4302.75 -651.084 4246.12 -351.449 4158.65C20.2361 4049.91 164.337 4313.92 405.481 4437.55Z" stroke="#F8D0BF" stroke-width="3.72217" stroke-miterlimit="10"/>
<path opacity="0.2" d="M413.187 4418.41C1175.17 4853.37 71.013 5916.05 -287.91 5317.05C-456.737 5035.49 -1127.53 4944.56 -1020.38 4615.42C-914.032 4286.8 -630.35 4200.13 -336.83 4145.63C26.0812 4078.36 180.817 4285.74 413.187 4418.41Z" stroke="#F7C4AF" stroke-width="3.72217" stroke-miterlimit="10"/>
<path opacity="0.2" d="M421.166 4399.53C1120.67 4844.06 126.051 5897.97 -287.641 5333.53C-477.738 5074.04 -1139.75 4903.09 -1010.81 4586.7C-883.454 4270.85 -609.609 4153.87 -321.939 4132.86C31.6677 4106.81 197.304 4257.29 421.166 4399.53Z" stroke="#F5B89F" stroke-width="3.72217" stroke-miterlimit="10"/>
<path opacity="0.3" d="M428.875 4380.39C1066.7 4832.1 182.414 5879.62 -287.377 5350.01C-498.211 5112.32 -1151.72 4861.61 -1001.5 4557.99C-852.88 4254.9 -589.138 4107.6 -307.317 4119.83C36.9839 4134.99 213.787 4228.04 428.875 4380.39Z" stroke="#F3AC8F" stroke-width="3.72217" stroke-miterlimit="10"/>
<path opacity="0.3" d="M436.853 4361.24C1013.79 4817.74 239.844 5860.22 -287.109 5366.76C-518.149 5150.08 -1163.95 4820.4 -992.194 4529.27C-822.304 4238.94 -568.665 4061.08 -292.426 4107.07C42.3031 4162.64 230.539 4198.27 436.853 4361.24Z" stroke="#F2A080" stroke-width="3.72217" stroke-miterlimit="10"/>
<path opacity="0.3" d="M444.563 4342.37C962.477 4800.99 298.335 5839.48 -286.843 5383.25C-537.823 5187.3 -1175.91 4778.93 -982.889 4500.29C-791.729 4222.99 -548.192 4014.28 -277.803 4094.05C47.6208 4190.29 247.288 4167.69 444.563 4342.37Z" stroke="#F09470" stroke-width="3.72217" stroke-miterlimit="10"/>
<path opacity="0.4" d="M452.537 4323.22C912.491 4782.11 357.356 5817.68 -286.313 5399.73C-557.234 5223.99 -1188.14 4737.45 -973.585 4471.58C-761.156 4207.04 -527.457 3967.23 -262.917 4081.28C53.2018 4217.41 264.834 4136.32 452.537 4323.22Z" stroke="#EE8860" stroke-width="3.72217" stroke-miterlimit="10"/>
<path opacity="0.4" d="M460.25 4304.35C864.638 4761.38 416.648 5794.28 -286.045 5416.22C-576.374 5260.15 -1200.1 4695.98 -964.277 4442.87C-730.578 4191.09 -506.716 3919.9 -248.291 4068.26C58.7877 4244.53 283.181 4104.15 460.25 4304.35Z" stroke="#EC7C50" stroke-width="3.72217" stroke-miterlimit="10"/>
<path opacity="0.5" d="M468.225 4285.21C818.907 4739.04 475.936 5769.55 -285.78 5432.96C-595.783 5295.77 -1212.33 4654.5 -954.707 4414.15C-700.004 4175.14 -485.713 3872.58 -233.404 4055.49C64.9018 4271.38 302.855 4071.18 468.225 4285.21Z" stroke="#EB7140" stroke-width="3.72217" stroke-miterlimit="10"/>
<path opacity="0.5" d="M475.934 4266.33C775.835 4716.18 534.957 5743.76 -285.516 5449.45C-615.194 5331.14 -1224.3 4613.02 -945.403 4385.44C-669.431 4159.45 -464.446 3825.25 -218.782 4042.47C71.015 4298.23 323.857 4037.68 475.934 4266.33Z" stroke="#E96530" stroke-width="3.72217" stroke-miterlimit="10"/>
<path opacity="0.5" d="M483.912 4247.19C735.158 4693.32 593.184 5717.18 -285.248 5465.93C-635.132 5365.97 -1236.53 4571.81 -936.096 4356.73C-638.855 4143.5 -443.175 3778.19 -203.892 4029.71C77.3974 4325.35 346.723 4003.65 483.912 4247.19Z" stroke="#E75920" stroke-width="3.72217" stroke-miterlimit="10"/>
<path opacity="0.6" d="M491.622 4228.05C697.405 4671.25 651.144 5689.53 -284.716 5482.68C-655.072 5400.8 -1248.76 4530.34 -926.79 4328.01C-608.279 4127.55 -421.639 3730.87 -189.003 4016.68C84.0445 4352.47 371.715 3969.35 491.622 4228.05Z" stroke="#E64D10" stroke-width="3.72217" stroke-miterlimit="10"/>
<path opacity="0.6" d="M499.598 4209.17C662.044 4651.04 708.305 5661.61 -284.451 5499.16C-675.545 5435.09 -1260.72 4488.86 -917.486 4299.03C-577.705 4111.59 -400.104 3683.81 -174.381 4003.92C90.6906 4379.59 398.833 3935.32 499.598 4209.17Z" stroke="#E44100" stroke-width="3.72217" stroke-miterlimit="10"/>
<path d="M-31.6095 5536.12C-756.635 7010.1 -1666.97 4378.53 -707.715 4408.84C-227.555 4423.99 -391.065 3303.08 78.9921 3394.28C548.783 3485.47 379.956 3949.94 551.708 4471.58C766.53 5122.96 155.828 5155.13 -31.6095 5536.12Z" stroke="#E914BB" stroke-width="3.72217" stroke-miterlimit="10"/>
<path opacity="0.9" d="M-10.871 5551.81C-743.607 6933.26 -1657.13 4455.1 -727.655 4405.38C-266.105 4380.65 -338.156 3295.37 110.631 3414.48C559.153 3533.33 429.94 3991.15 563.141 4495.77C731.436 5125.09 182.416 5187.3 -10.871 5551.81Z" stroke="#EA23BF" stroke-width="3.72217" stroke-miterlimit="10"/>
<path opacity="0.9" d="M9.59927 5567.76C-728.986 6856.16 -1648.89 4532.73 -747.596 4401.92C-305.19 4337.85 -284.984 3287.4 142.534 3434.69C569.786 3581.45 478.061 4032.63 574.306 4520.24C694.479 5127.75 209.533 5218.94 9.59927 5567.76Z" stroke="#EC31C3" stroke-width="3.72217" stroke-miterlimit="10"/>
<path opacity="0.8" d="M30.0717 5583.45C-711.969 6779.06 -1641.98 4611.69 -767.536 4398.73C-345.07 4295.84 -232.075 3279.42 174.173 3454.9C580.155 3629.31 526.981 4073.84 585.739 4544.69C658.587 5129.87 236.918 5250.58 30.0717 5583.45Z" stroke="#ED40C8" stroke-width="3.72217" stroke-miterlimit="10"/>
<path opacity="0.7" d="M50.8097 5599.13C-692.827 6702.23 -1636.13 4692.25 -787.476 4395.28C-385.482 4254.63 -179.167 3271.45 206.077 3475.1C590.79 3677.16 576.167 4114.78 596.905 4568.89C622.695 5131.74 264.569 5281.95 50.8097 5599.13Z" stroke="#EF4FCC" stroke-width="3.72217" stroke-miterlimit="10"/>
<path opacity="0.7" d="M71.2812 5615.09C-671.026 6625.65 -1631.08 4774.67 -807.417 4391.82C-425.894 4214.49 -125.994 3263.74 237.715 3495.31C601.159 3725.29 625.619 4155.73 608.337 4593.35C587.068 5133.6 293.016 5313.06 71.2812 5615.09Z" stroke="#F05DD0" stroke-width="3.72217" stroke-miterlimit="10"/>
<path opacity="0.6" d="M92.0183 5630.77C-646.301 6549.88 -1625.76 4859.48 -827.358 4388.63C-466.307 4175.4 -73.0864 3255.76 269.619 3515.51C611.793 3773.14 675.07 4196.41 619.503 4617.54C551.441 5135.19 321.995 5344.16 92.0183 5630.77Z" stroke="#F16CD4" stroke-width="3.72217" stroke-miterlimit="10"/>
<path opacity="0.6" d="M112.49 5646.46C-618.65 6475.44 -1619.38 4946.16 -847.298 4385.17C-506.188 4137.38 -20.1785 3247.78 301.523 3535.72C622.162 3821 724.521 4237.08 630.935 4642C516.346 5136.52 351.773 5375.27 112.49 5646.46Z" stroke="#F37BD9" stroke-width="3.72217" stroke-miterlimit="10"/>
<path opacity="0.5" d="M132.962 5662.41C-588.075 6402.32 -1611.94 5034.42 -867.238 4381.72C-545.536 4099.89 32.9956 3240.07 333.162 3555.93C632.797 3869.12 774.505 4277.76 642.102 4666.46C481.517 5138.11 382.082 5406.64 132.962 5662.41Z" stroke="#F48ADD" stroke-width="3.72217" stroke-miterlimit="10"/>
<path opacity="0.4" d="M153.701 5678.1C-554.575 6331.07 -1602.9 5124.02 -887.177 4378.26C-584.352 4062.94 85.9044 3232.1 365.067 3576.13C643.166 3916.98 824.755 4318.44 653.535 4690.66C446.955 5139.71 413.455 5438.55 153.701 5678.1Z" stroke="#F598E1" stroke-width="3.72217" stroke-miterlimit="10"/>
<path opacity="0.4" d="M174.175 5693.78C-518.149 6262.21 -1592 5214.15 -907.116 4375.07C-622.37 4026.25 138.814 3224.12 396.707 3596.34C653.803 3964.83 875.272 4359.12 664.704 4715.12C412.659 5141.31 445.627 5470.98 174.175 5693.78Z" stroke="#F7A7E5" stroke-width="3.72217" stroke-miterlimit="10"/>
<path opacity="0.3" d="M194.645 5709.47C-479.067 6196.28 -1579.77 5304.82 -927.057 4371.61C-659.858 3989.56 191.987 3216.15 428.61 3616.54C664.436 4012.96 925.786 4400.33 676.135 4739.31C378.627 5143.43 478.86 5504.48 194.645 5709.47Z" stroke="#F8B6EA" stroke-width="3.72217" stroke-miterlimit="10"/>
<path opacity="0.3" d="M215.383 5725.42C-438.389 6133.53 -1565.68 5395.21 -946.732 4368.16C-696.549 3952.87 244.894 3208.44 460.249 3636.75C674.805 4060.81 976.567 4441.54 687.301 4763.77C344.595 5145.56 512.891 5539.58 215.383 5725.42Z" stroke="#FAC4EE" stroke-width="3.72217" stroke-miterlimit="10"/>
<path opacity="0.2" d="M235.857 5741.1C-396.38 6074.5 -1550.52 5485.6 -966.67 4364.7C-732.971 3915.91 297.804 3200.46 492.155 3656.95C685.442 4108.67 1027.08 4483.01 698.735 4787.96C310.566 5148.21 547.721 5576.8 235.857 5741.1Z" stroke="#FBD3F2" stroke-width="3.72217" stroke-miterlimit="10"/>
<path opacity="0.1" d="M256.593 5756.79C-354.641 6019.47 -1534.3 5575.2 -986.612 4361.51C-769.131 3878.96 350.71 3192.48 524.057 3677.16C695.809 4156.79 1077.86 4524.75 709.9 4812.42C276.799 5151.14 583.346 5616.68 256.593 5756.79Z" stroke="#FCE2F7" stroke-width="3.72217" stroke-miterlimit="10"/>
<path opacity="0.1" d="M277.064 5772.74C-314.229 5968.42 -1517.29 5664.54 -1006.55 4358.05C-804.758 3841.47 403.884 3184.77 555.695 3697.37C706.443 4204.65 1128.38 4566.76 721.332 4836.88C242.501 5154.07 618.706 5659.75 277.064 5772.74Z" stroke="#FEF0FB" stroke-width="3.72217" stroke-miterlimit="10"/>
<path opacity="0.1" d="M-849.159 5205.91C-2360.36 4970.62 -609.61 2985.9 -98.0779 3893.32C153.966 4339.98 1135.56 3908.74 1184.74 4429.84C1234.46 4950.68 776.366 5046.66 366.396 5359.85C-144.339 5749.88 -438.391 5269.99 -849.159 5205.91Z" stroke="#F83BFF" stroke-width="3.72217" stroke-miterlimit="10"/>
<path opacity="0.1" d="M-855.008 5234.89C-2280.07 4955.99 -679.003 3028.17 -103.662 3870.45C176.033 4279.62 1166.13 3962.17 1179.96 4472.64C1194.58 4982.31 759.35 5117.11 348.848 5382.18C-161.887 5712.39 -455.141 5313.05 -855.008 5234.89Z" stroke="#F949FF" stroke-width="3.72217" stroke-miterlimit="10"/>
<path opacity="0.1" d="M-860.589 5263.6C-2198.71 4944.29 -750.254 3069.91 -108.977 3847.85C197.039 4219 1196.44 4015.35 1174.91 4515.45C1154.7 5014.22 742.602 5187.3 331.303 5404.78C-179.432 5674.9 -471.623 5356.39 -860.589 5263.6Z" stroke="#F957FF" stroke-width="3.72217" stroke-miterlimit="10"/>
<path opacity="0.1" d="M-866.175 5292.32C-2116.82 4935.79 -823.636 3111.66 -114.562 3824.99C216.977 4158.65 1226.75 4068.79 1170.12 4557.99C1114.82 5046.12 726.382 5257.49 313.487 5427.38C-196.45 5637.42 -487.577 5400.53 -866.175 5292.32Z" stroke="#FA65FF" stroke-width="3.72217" stroke-miterlimit="10"/>
<path opacity="0.1" d="M-872.024 5321.3C-2034.94 4930.74 -898.876 3153.93 -120.145 3802.12C236.12 4098.57 1257.06 4121.96 1165.07 4600.79C1074.94 5078.03 710.165 5327.95 295.94 5449.98C-213.199 5599.93 -502.997 5445.2 -872.024 5321.3Z" stroke="#FA73FF" stroke-width="3.72217" stroke-miterlimit="10"/>
<path opacity="0.2" d="M-877.609 5350.01C-1952.78 4929.14 -975.98 3197.8 -125.464 3779.25C254.463 4039.27 1287.37 4175.4 1160.28 4643.59C1035.06 5109.93 694.211 5398.66 278.125 5472.58C-229.685 5562.97 -518.419 5490.65 -877.609 5350.01Z" stroke="#FB81FF" stroke-width="3.72217" stroke-miterlimit="10"/>
<path opacity="0.2" d="M-883.191 5378.99C-1871.16 4931.53 -1054.15 3243.26 -131.047 3756.65C272.011 3980.78 1317.67 4228.84 1155.23 4686.4C995.176 5141.83 678.259 5469.65 260.579 5495.17C-246.168 5526.28 -533.839 5537.18 -883.191 5378.99Z" stroke="#FB8FFF" stroke-width="3.72217" stroke-miterlimit="10"/>
<path opacity="0.2" d="M-889.038 5407.7C-1790.6 4937.65 -1133.37 3290.85 -136.628 3733.79C289.295 3923.09 1347.99 4282.01 1150.45 4728.94C955.297 5173.74 662.575 5540.9 242.768 5517.77C-262.384 5489.86 -549.523 5584.51 -889.038 5407.7Z" stroke="#FC9DFF" stroke-width="3.72217" stroke-miterlimit="10"/>
<path opacity="0.3" d="M-894.623 5436.42C-1711.64 4947.75 -1212.87 3340.57 -142.213 3710.93C306.575 3866.2 1378.29 4335.46 1145.39 4771.75C915.415 5205.65 646.622 5612.43 225.219 5540.38C-278.87 5453.97 -565.477 5633.43 -894.623 5436.42Z" stroke="#FCABFF" stroke-width="3.72217" stroke-miterlimit="10"/>
<path opacity="0.3" d="M-900.473 5465.4C-1634.54 4961.05 -1292.36 3392.15 -147.531 3688.33C323.856 3810.1 1408.6 4388.63 1140.61 4814.55C875.534 5237.55 630.669 5684.48 207.671 5562.97C-295.354 5418.61 -582.493 5683.68 -900.473 5465.4Z" stroke="#FDB9FF" stroke-width="3.72217" stroke-miterlimit="10"/>
<path opacity="0.3" d="M-906.054 5494.11C-1560.36 4977.26 -1371.06 3445.59 -153.112 3665.46C341.405 3754.79 1438.91 4442.07 1135.56 4857.36C835.656 5269.45 614.453 5756.53 189.859 5585.57C-312.368 5383.24 -600.836 5735.26 -906.054 5494.11Z" stroke="#FDC7FF" stroke-width="3.72217" stroke-miterlimit="10"/>
<path opacity="0.3" d="M-911.638 5523.09C-1489.37 4995.34 -1448.69 3500.36 -158.696 3642.6C359.483 3699.76 1469.22 4495.51 1130.77 4899.89C796.041 5301.36 597.968 5828.84 172.312 5608.17C-329.384 5347.88 -620.777 5788.69 -911.638 5523.09Z" stroke="#FED5FF" stroke-width="3.72217" stroke-miterlimit="10"/>
<path opacity="0.3" d="M-917.489 5551.81C-1422.37 5014.75 -1525.53 3556.19 -164.281 3619.73C377.826 3645.26 1499.53 4548.68 1125.72 4942.7C756.159 5333.26 581.216 5900.89 154.496 5630.5C-346.933 5312.79 -643.378 5843.2 -917.489 5551.81Z" stroke="#FEE3FF" stroke-width="3.72217" stroke-miterlimit="10"/>
<path opacity="0.4" d="M-923.068 5580.52C-1359.36 5033.89 -1601.57 3612.82 -169.595 3597.13C396.707 3590.75 1529.84 4602.12 1120.93 4985.5C716.282 5365.16 564.205 5973.21 136.953 5653.1C-364.743 5277.43 -668.897 5899.03 -923.068 5580.52Z" stroke="#FFF1FF" stroke-width="3.72217" stroke-miterlimit="10"/>
<path opacity="0.4" d="M-928.654 5609.5C-1301.14 5051.18 -1676.54 3669.72 -175.18 3574.27C416.113 3536.78 1560.15 4655.3 1115.88 5028.31C676.399 5397.07 546.921 6045.26 119.403 5675.7C-382.559 5242.07 -698.145 5955.13 -928.654 5609.5Z" stroke="white" stroke-width="3.72217" stroke-miterlimit="10"/>
</g>
<g opacity="0.75">
<path opacity="0.1" d="M1183.17 6165.86C1404.05 5161.77 2738.55 6374.58 2080.76 6696.82C1756.43 6855.52 2024.51 7521.51 1655.44 7542.86C1286.73 7564.67 1235.84 7256.16 1030.3 6975.46C773.933 6625.43 1122.88 6439.44 1183.17 6165.86Z" stroke="#FCE7DF" stroke-width="3.72217" stroke-miterlimit="10"/>
<path opacity="0.1" d="M1162.98 6161.59C1411.26 5216.38 2711.1 6327.59 2096.95 6693.7C1798.15 6871.65 1986 7540.45 1625.55 7538.68C1265.71 7537.33 1186.9 7243.46 1014.93 6963.32C801.15 6614.42 1093.26 6427.65 1162.98 6161.59Z" stroke="#FADBCF" stroke-width="3.72217" stroke-miterlimit="10"/>
<path opacity="0.1" d="M1143 6157.01C1416.1 5271.41 2683.94 6279.19 2113.09 6690.31C1839.78 6887.26 1947.28 7559.7 1595.65 7534.5C1244.69 7509.99 1137.95 7230.77 999.779 6950.87C828.148 6603.72 1063.12 6415.96 1143 6157.01Z" stroke="#F8D0BF" stroke-width="3.72217" stroke-miterlimit="10"/>
<path opacity="0.2" d="M1122.81 6152.75C1418.85 5326.81 2657.12 6229.66 2129.54 6687.15C1881.58 6902.3 1908.52 7578.69 1565.76 7530.32C1223.68 7482.66 1089.06 7218.33 984.414 6938.74C855.152 6593.02 1032.51 6404.62 1122.81 6152.75Z" stroke="#F7C4AF" stroke-width="3.72217" stroke-miterlimit="10"/>
<path opacity="0.2" d="M1102.83 6148.17C1419.15 5382.1 2629.76 6178.6 2145.73 6684.02C1923.19 6916.29 1869.79 7597.93 1535.82 7525.88C1202.65 7455.31 1039.9 7205.94 969.258 6926.29C882.195 6582.58 1001.63 6393.33 1102.83 6148.17Z" stroke="#F5B89F" stroke-width="3.72217" stroke-miterlimit="10"/>
<path opacity="0.3" d="M1082.64 6143.9C1416.74 5437.33 2601.9 6126.28 2161.91 6680.9C1964.45 6929.8 1831.02 7616.92 1505.93 7521.7C1181.63 7427.97 990.782 7193.81 953.888 6914.15C909.025 6572.45 969.964 6382.17 1082.64 6143.9Z" stroke="#F3AC8F" stroke-width="3.72217" stroke-miterlimit="10"/>
<path opacity="0.3" d="M1062.41 6139.37C1411.79 5491.92 2572.82 6073.09 2178.36 6677.72C2005.09 6942.88 1792.56 7636.11 1476.03 7517.53C1160.62 7400.63 941.407 7181.73 938.735 6901.7C935.332 6562.41 937.731 6370.85 1062.41 6139.37Z" stroke="#F2A080" stroke-width="3.72217" stroke-miterlimit="10"/>
<path opacity="0.3" d="M1042.48 6135.05C1404.2 5545.37 2542.24 6019.09 2194.55 6674.6C2045.16 6955.79 1753.8 7655.1 1445.88 7513.39C1139.6 7373.29 891.77 7169.7 923.366 6889.56C961.64 6552.37 904.712 6359.66 1042.48 6135.05Z" stroke="#F09470" stroke-width="3.72217" stroke-miterlimit="10"/>
<path opacity="0.4" d="M1022.24 6130.52C1394.29 5597.87 2510.52 5964.75 2210.69 6671.22C2084.67 6968.54 1715.07 7674.35 1415.99 7509.22C1118.58 7345.95 841.824 7157.45 908.212 6877.12C987.376 6542.17 870.768 6347.83 1022.24 6130.52Z" stroke="#EE8860" stroke-width="3.72217" stroke-miterlimit="10"/>
<path opacity="0.4" d="M1002.31 6126.2C1382.18 5648.6 2477.18 5910.42 2226.88 6668.09C2123.6 6981.11 1676.31 7693.33 1386.09 7505.04C1097.56 7318.61 791.62 7145.24 892.846 6864.98C1013.12 6531.95 835.904 6335.35 1002.31 6126.2Z" stroke="#EC7C50" stroke-width="3.72217" stroke-miterlimit="10"/>
<path opacity="0.5" d="M982.076 6121.67C1368.12 5697.51 2442.53 5856.33 2243.33 6664.92C2162.06 6994.03 1637.58 7712.58 1356.15 7500.6C1076.54 7291.27 741.365 7132.77 877.691 6852.53C1038.5 6521.27 800.019 6321.7 982.076 6121.67Z" stroke="#EB7140" stroke-width="3.72217" stroke-miterlimit="10"/>
<path opacity="0.5" d="M962.147 6117.36C1353.09 5743.9 2406.89 5802.68 2259.52 6661.8C2200.25 7007.01 1598.82 7731.56 1326.26 7496.42C1055.78 7263.88 691.066 7120.05 862.322 6840.4C1063.88 6510.59 763.381 6306.83 962.147 6117.36Z" stroke="#E96530" stroke-width="3.72217" stroke-miterlimit="10"/>
<path opacity="0.5" d="M941.912 6112.83C1337.63 5787.93 2370.6 5749.95 2275.7 6658.67C2238.01 7020.6 1560.36 7750.76 1296.37 7492.24C1034.76 7236.54 641.03 7107.27 847.17 6827.95C1089.48 6499.59 725.898 6290.22 941.912 6112.83Z" stroke="#E75920" stroke-width="3.72217" stroke-miterlimit="10"/>
<path opacity="0.6" d="M921.722 6108.56C1322.46 5828.94 2333.3 5697.68 2292.11 6655.24C2275.78 7034.19 1521.64 7770.01 1266.47 7488.06C1013.75 7209.2 590.685 7094.28 831.756 6815.55C1115.03 6488.34 687.783 6271.57 921.722 6108.56Z" stroke="#E64D10" stroke-width="3.72217" stroke-miterlimit="10"/>
<path opacity="0.6" d="M901.744 6103.98C1308.7 5867.27 2295.88 5646.23 2308.29 6652.11C2313.1 7048.39 1482.87 7788.99 1236.32 7483.93C992.724 7181.86 540.599 7081.24 816.647 6803.36C1140.58 6477.08 649.557 6250.77 901.744 6103.98Z" stroke="#E44100" stroke-width="3.72217" stroke-miterlimit="10"/>
<path d="M2300.78 6396.7C3878.27 6854.75 1444.75 8208.23 1308.03 7258.28C1239.57 6782.78 164.09 7138.45 172.274 6659.7C180.503 6181.21 667.237 6266.82 1151.12 6007.1C1755.3 5682.43 1893.03 6278.26 2300.78 6396.7Z" stroke="#E914BB" stroke-width="3.72217" stroke-miterlimit="10"/>
<path opacity="0.9" d="M2312.63 6373.55C3800.34 6855.27 1518.45 8185.24 1308.09 7278.52C1203.59 6828.28 147.309 7087.69 186.678 6625.04C225.831 6162.69 699.14 6210.44 1172.96 5991.64C1763.49 5716.62 1920.1 6246.49 2312.63 6373.55Z" stroke="#EA23BF" stroke-width="3.72217" stroke-miterlimit="10"/>
<path opacity="0.9" d="M2324.79 6350.62C3721.87 6854.25 1593.48 8163.65 1308.15 7298.76C1168.22 6874.2 130.222 7036.71 201.038 6590.11C271.377 6143.86 731.631 6155.85 1195.11 5976.39C1772.53 5752.55 1946.55 6214.3 2324.79 6350.62Z" stroke="#EC31C3" stroke-width="3.72217" stroke-miterlimit="10"/>
<path opacity="0.8" d="M2336.68 6327.73C3642.98 6850.89 1670.04 8143.13 1308.47 7318.95C1133.78 6920.77 113.179 6985.99 215.443 6555.44C316.705 6125.34 763.719 6100.51 1217.22 5960.89C1780.86 5787.53 1972.95 6181.83 2336.68 6327.73Z" stroke="#ED40C8" stroke-width="3.72217" stroke-miterlimit="10"/>
<path opacity="0.7" d="M2348.53 6304.59C3563.99 6845.38 1748.36 8123.38 1308.53 7339.19C1100.21 6967.72 96.1374 6935.27 229.802 6520.51C361.989 6106.56 795.5 6044.97 1239.11 5945.69C1788.92 5822.55 1999.04 6149.15 2348.53 6304.59Z" stroke="#EF4FCC" stroke-width="3.72217" stroke-miterlimit="10"/>
<path opacity="0.7" d="M2360.68 6281.66C3484.8 6837.2 1828.65 8104.09 1308.58 7359.42C1067.69 7014.49 79.31 6884.24 244.207 6485.85C407.579 6087.99 827.234 5989.16 1261.21 5930.18C1796.94 5857.32 2024.74 6115.74 2360.68 6281.66Z" stroke="#F05DD0" stroke-width="3.72217" stroke-miterlimit="10"/>
<path opacity="0.6" d="M2372.53 6258.51C3405.88 6826.01 1911.25 8084.13 1308.9 7379.62C1036.22 7061.08 62.2682 6833.52 258.566 6450.92C452.862 6069.21 858.707 5933.39 1283.1 5914.99C1804.7 5892.13 2050.34 6081.8 2372.53 6258.51Z" stroke="#F16CD4" stroke-width="3.72217" stroke-miterlimit="10"/>
<path opacity="0.6" d="M2384.42 6235.63C3327.77 6811.71 1995.5 8062.79 1308.96 7399.85C1005.7 7106.95 45.2254 6782.8 272.925 6415.99C498.19 6050.69 890.18 5877.63 1305.2 5899.48C1812.1 5926.46 2075.8 6047.07 2384.42 6235.63Z" stroke="#F37BD9" stroke-width="3.72217" stroke-miterlimit="10"/>
<path opacity="0.5" d="M2396.57 6212.7C3250.45 6794.29 2081.13 8040.13 1309.02 7420.09C975.618 7152.21 28.3984 6731.78 287.329 6381.32C543.734 6031.86 921.56 5821.34 1327.35 5884.23C1819.72 5960.48 2101.43 6011.77 2396.57 6212.7Z" stroke="#F48ADD" stroke-width="3.72217" stroke-miterlimit="10"/>
<path opacity="0.4" d="M2408.42 6189.55C3174.47 6773.67 2167.8 8015.67 1309.08 7440.33C945.965 7196.86 11.3566 6681.06 301.689 6346.39C589.064 6013.33 952.895 5764.79 1349.19 5868.77C1827.29 5994.24 2127.41 5975.34 2408.42 6189.55Z" stroke="#F598E1" stroke-width="3.72217" stroke-miterlimit="10"/>
<path opacity="0.4" d="M2420.31 6166.66C3100.33 6749.76 2254.67 7989.29 1309.4 7460.52C916.434 7240.67 -5.68577 6630.34 316.094 6311.73C634.346 5994.55 984.183 5707.98 1371.34 5853.53C1834.82 6027.74 2153.76 5938.02 2420.31 6166.66Z" stroke="#F7A7E5" stroke-width="3.72217" stroke-miterlimit="10"/>
<path opacity="0.3" d="M2432.21 6143.78C3028.61 6722.72 2341.83 7961.5 1309.46 7480.75C886.811 7283.96 -22.7741 6579.36 330.453 6276.8C679.891 5975.72 1015.99 5651.07 1393.18 5838.07C1842.82 6060.88 2180.98 5899.48 2432.21 6143.78Z" stroke="#F8B6EA" stroke-width="3.72217" stroke-miterlimit="10"/>
<path opacity="0.3" d="M2444.32 6120.59C2959.75 6693.56 2428.4 7931.93 1309.47 7500.73C857.05 7326.46 -39.5544 6528.59 344.858 6242.13C725.22 5957.2 1047.76 5593.91 1415.33 5822.83C1850.83 6094.03 2209.64 5859.87 2444.32 6120.59Z" stroke="#FAC4EE" stroke-width="3.72217" stroke-miterlimit="10"/>
<path opacity="0.2" d="M2456.21 6097.7C2894.33 6662.44 2514.79 7901.3 1309.53 7520.97C826.977 7368.75 -56.6005 6477.87 359.213 6207.2C770.499 5938.41 1079.83 5536.96 1437.17 5807.36C1859.35 6127.08 2240.24 5819.1 2456.21 6097.7Z" stroke="#FBD3F2" stroke-width="3.72217" stroke-miterlimit="10"/>
<path opacity="0.1" d="M2468.06 6074.55C2832.88 6630.89 2600.21 7869.77 1309.85 7541.16C796.864 7410.78 -73.64 6427.15 373.575 6172.28C816.092 5919.85 1112.12 5479.7 1459.32 5792.12C1868.1 6159.82 2273.33 5777.09 2468.06 6074.55Z" stroke="#FCE2F7" stroke-width="3.72217" stroke-miterlimit="10"/>
<path opacity="0.1" d="M2480.21 6051.62C2775.6 6599.95 2685.23 7837.5 1309.91 7561.4C766.133 7452.37 -90.4662 6376.13 387.981 6137.61C861.376 5901.06 1144.72 5422.66 1481.42 5776.62C1876.93 6193.09 2309.61 5734.79 2480.21 6051.62Z" stroke="#FEF0FB" stroke-width="3.72217" stroke-miterlimit="10"/>
<path opacity="0.1" d="M2117.56 7259.17C2148.25 8788.27 -110.323 7408.76 694.477 6747.43C1090.58 6421.65 495.445 5529.86 1000.09 5390.93C1504.38 5251.52 1678.45 5685.99 2058.08 6035.35C2530.87 6470.59 2109.33 6843.51 2117.56 7259.17Z" stroke="#F83BFF" stroke-width="3.72217" stroke-miterlimit="10"/>
<path opacity="0.1" d="M2147.11 7259.89C2119.91 8711.73 -56.647 7469.76 672.924 6756.9C1027.31 6410.4 542.759 5490.47 1043.07 5388.21C1542.46 5285.31 1750.79 5690.51 2083.11 6048.75C2496.99 6494.39 2154.65 6852.53 2147.11 7259.89Z" stroke="#F949FF" stroke-width="3.72217" stroke-miterlimit="10"/>
<path opacity="0.1" d="M2176.35 7260.4C2094.26 8633.64 -3.16589 7532.67 651.593 6766.05C963.969 6400.24 589.862 5451.38 1086.1 5385.75C1580.81 5319.04 1822.82 5694.82 2108.42 6062.1C2463.12 6518.17 2200.19 6861.23 2176.35 7260.4Z" stroke="#F957FF" stroke-width="3.72217" stroke-miterlimit="10"/>
<path opacity="0.1" d="M2205.6 7260.92C2071.66 8554.48 50.6869 7597.69 630.048 6775.52C901.074 6391.08 637.23 5412.26 1128.83 5383.08C1619.15 5352.77 1894.76 5698.6 2133.77 6075.72C2429.16 6541.44 2246.43 6869.28 2205.6 7260.92Z" stroke="#FA65FF" stroke-width="3.72217" stroke-miterlimit="10"/>
<path opacity="0.1" d="M2235.16 7261.65C2052.47 8474.71 105.385 7664.45 608.502 6784.99C838.577 6382.66 684.334 5373.17 1171.86 5380.62C1657.5 5386.51 1966.96 5702.34 2159.07 6089.08C2395.16 6564.45 2293.09 6876.71 2235.16 7261.65Z" stroke="#FA73FF" stroke-width="3.72217" stroke-miterlimit="10"/>
<path opacity="0.2" d="M2264.4 7262.16C2036.63 8394.09 161.971 7732.77 586.903 6794.2C776.999 6374.89 731.694 5334.05 1214.85 5377.9C1695.84 5420.24 2039.38 5705.77 2184.42 6102.7C2361.62 6587.1 2340.54 6884.01 2264.4 7262.16Z" stroke="#FB81FF" stroke-width="3.72217" stroke-miterlimit="10"/>
<path opacity="0.2" d="M2293.91 7262.63C2024.81 8313.29 220.318 7801.85 565.618 6803.62C716.35 6367.77 779.06 5294.92 1257.88 5375.44C1734.19 5453.98 2112.05 5709.15 2209.72 6116.06C2328.35 6609.7 2389.04 6891.11 2293.91 7262.63Z" stroke="#FB8FFF" stroke-width="3.72217" stroke-miterlimit="10"/>
<path opacity="0.2" d="M2323.21 7263.4C2016.85 8232.89 280.943 7871.61 544.069 6813.09C656.531 6360.77 826.162 5255.83 1300.6 5372.77C1772.53 5487.71 2184.95 5712.23 2235.07 6129.67C2295.29 6632 2438.37 6898.34 2323.21 7263.4Z" stroke="#FC9DFF" stroke-width="3.72217" stroke-miterlimit="10"/>
<path opacity="0.3" d="M2352.46 7263.91C2013.09 8153.37 343.712 7941.26 522.524 6822.56C597.502 6353.63 873.53 5216.71 1343.64 5370.31C1810.88 5521.44 2258.15 5715.52 2260.37 6143.03C2262.81 6654.47 2489.32 6905.55 2352.46 7263.91Z" stroke="#FCABFF" stroke-width="3.72217" stroke-miterlimit="10"/>
<path opacity="0.3" d="M2382.01 7264.64C2012.79 8075.13 408.311 8010.59 501.192 6831.72C539.254 6346.35 920.633 5177.62 1386.62 5367.59C1849.22 5555.18 2331.88 5718.72 2285.68 6156.39C2230.85 6676.84 2541.76 6913.59 2382.01 7264.64Z" stroke="#FDB9FF" stroke-width="3.72217" stroke-miterlimit="10"/>
<path opacity="0.3" d="M2411.26 7265.15C2015.88 7999.26 474.603 8078.81 479.642 6841.19C481.745 6338.67 967.996 5138.49 1429.65 5365.13C1887.57 5588.91 2405.65 5722.18 2311.02 6170C2198.98 6699.74 2595.74 6922.7 2411.26 7265.15Z" stroke="#FDC7FF" stroke-width="3.72217" stroke-miterlimit="10"/>
<path opacity="0.3" d="M2440.77 7265.62C2021.35 7926.22 542.02 8145.76 458.093 6850.66C424.406 6330.43 1015.36 5099.37 1472.38 5362.46C1925.86 5622.39 2479.73 5725.85 2336.33 6183.36C2167.11 6722.63 2651.83 6933.05 2440.77 7265.62Z" stroke="#FED5FF" stroke-width="3.72217" stroke-miterlimit="10"/>
<path opacity="0.3" d="M2470.06 7266.39C2028.84 7856.87 610.348 8211.73 436.547 6860.13C367.546 6321.83 1062.46 5060.29 1515.41 5360C1964.21 5656.12 2553.6 5729.84 2361.41 6197.03C2135.6 6746.01 2709.43 6945.85 2470.06 7266.39Z" stroke="#FEE3FF" stroke-width="3.72217" stroke-miterlimit="10"/>
<path opacity="0.4" d="M2499.31 7266.9C2036.74 7791.49 679.321 8276.78 415.214 6869.29C310.592 6312.7 1109.83 5021.15 1558.39 5357.28C2002.55 5689.85 2627.77 5734.03 2386.71 6210.38C2103.87 6769.69 2768.84 6961.28 2499.31 7266.9Z" stroke="#FFF1FF" stroke-width="3.72217" stroke-miterlimit="10"/>
<path opacity="0.4" d="M2528.82 7267.37C2043.66 7731.15 748.375 8340.74 393.669 6878.76C254.074 6302.96 1156.93 4982.07 1601.43 5354.82C2040.9 5723.59 2701.73 5738.54 2412.02 6223.74C2072.14 6793.38 2829.17 6980.35 2528.82 7267.37Z" stroke="white" stroke-width="3.72217" stroke-miterlimit="10"/>
</g>
<g opacity="0.75">
<path opacity="0.1" d="M193.187 8341.16C1220.89 8312.58 366.949 9900.84 -104.858 9340.55C-337.303 9064.25 -918.66 9485.48 -1028.65 9132.54C-1139.02 8780.05 -851.986 8656.04 -629.345 8388.7C-351.731 8055.26 -86.8535 8348.85 193.187 8341.16Z" stroke="#FCE7DF" stroke-width="3.72217" stroke-miterlimit="10"/>
<path opacity="0.1" d="M192.447 8320.54C1169.65 8332.78 405.907 9862.84 -97.9077 9355.5C-342.859 9108.63 -946.349 9452.7 -1031.83 9102.52C-1117.58 8753.05 -851.504 8605.48 -621.283 8370.85C-334.463 8079.01 -82.5795 8317.26 192.447 8320.54Z" stroke="#FADBCF" stroke-width="3.72217" stroke-miterlimit="10"/>
<path opacity="0.1" d="M192.055 8300.05C1117.42 8350.79 446.293 9824.77 -90.7179 9370.34C-347.933 9152.79 -974.392 9419.78 -1035.01 9072.5C-1096.13 8726.04 -851.024 8554.92 -612.872 8353.13C-317.55 8102.62 -78.5247 8285.19 192.055 8300.05Z" stroke="#F8D0BF" stroke-width="3.72217" stroke-miterlimit="10"/>
<path opacity="0.2" d="M191.31 8279.43C1064.33 8366.86 487.865 9786.77 -83.6648 9385.54C-352.415 9196.99 -1002.19 9386.76 -1038.19 9042.49C-1074.69 8699.03 -850.79 8504.47 -604.815 8335.29C-300.638 8126.23 -74.9313 8252.74 191.31 8279.43Z" stroke="#F7C4AF" stroke-width="3.72217" stroke-miterlimit="10"/>
<path opacity="0.2" d="M190.921 8258.94C1010.76 8380.53 530.79 9747.86 -76.7156 9400.49C-355.921 9240.75 -1030.23 9353.84 -1041.12 9012.36C-1053.25 8672.02 -850.66 8453.77 -596.402 8317.57C-283.965 8149.95 -71.4417 8220.05 190.921 8258.94Z" stroke="#F5B89F" stroke-width="3.72217" stroke-miterlimit="10"/>
<path opacity="0.3" d="M190.177 8238.31C956.583 8391.55 574.819 9708.18 -69.7692 9415.44C-359.052 9284.05 -1058.03 9320.82 -1044.3 8982.35C-1031.81 8645.01 -850.775 8403.18 -588.344 8299.72C-267.645 8173.53 -68.2791 8186.63 190.177 8238.31Z" stroke="#F3AC8F" stroke-width="3.72217" stroke-miterlimit="10"/>
<path opacity="0.3" d="M189.679 8217.58C902.411 8399.95 619.389 9667.09 -62.7118 9430.63C-361.911 9326.65 -1085.97 9288.15 -1047.48 8952.33C-1010.36 8618 -850.995 8352.35 -579.931 8282.01C-251.54 8196.63 -65.0873 8152.61 189.679 8217.58Z" stroke="#F2A080" stroke-width="3.72217" stroke-miterlimit="10"/>
<path opacity="0.3" d="M189.045 8197.2C848.722 8405.52 664.389 9624.36 -55.7645 9445.58C-364.745 9368.66 -1113.77 9255.12 -1050.76 8922.07C-988.918 8590.99 -851.326 8301.27 -571.872 8264.16C-235.436 8219.72 -62.222 8117.86 189.045 8197.2Z" stroke="#F09470" stroke-width="3.72217" stroke-miterlimit="10"/>
<path opacity="0.4" d="M188.543 8176.47C795.38 8408.61 709.439 9580.43 -48.5762 9460.42C-367.554 9410.07 -1141.81 9222.21 -1053.94 8892.05C-967.477 8563.98 -851.524 8249.85 -563.463 8246.45C-219.307 8242.23 -58.954 8082.07 188.543 8176.47Z" stroke="#EE8860" stroke-width="3.72217" stroke-miterlimit="10"/>
<path opacity="0.4" d="M187.914 8156.09C743.23 8409.13 754.09 9534.95 -41.6244 9475.38C-370.331 9450.89 -1169.61 9189.18 -1057.12 8862.04C-946.029 8536.98 -851.823 8198.18 -555.399 8228.6C-203.172 8264.73 -55.2753 8045.22 187.914 8156.09Z" stroke="#EC7C50" stroke-width="3.72217" stroke-miterlimit="10"/>
<path opacity="0.5" d="M187.412 8135.36C692.369 8407.32 798.195 9488.24 -34.5706 9490.57C-373.573 9491.33 -1197.65 9156.27 -1060.05 8831.91C-924.588 8509.96 -851.886 8146.4 -546.99 8210.88C-186.666 8286.77 -50.7132 8007.1 187.412 8135.36Z" stroke="#EB7140" stroke-width="3.72217" stroke-miterlimit="10"/>
<path opacity="0.5" d="M186.776 8114.98C643.719 8403.95 841.623 9440.67 -27.6255 9505.52C-376.923 9531.53 -1225.45 9123.24 -1063.23 8801.9C-903.039 8483.2 -851.706 8094.52 -538.932 8193.03C-170.16 8308.82 -45.153 7967.95 186.776 8114.98Z" stroke="#E96530" stroke-width="3.72217" stroke-miterlimit="10"/>
<path opacity="0.5" d="M186.279 8094.24C597.261 8399.61 884.003 9392.7 -20.6754 9520.47C-380.971 9571.46 -1253.38 9090.57 -1066.41 8771.88C-881.593 8456.19 -851.413 8042.88 -530.519 8175.32C-153.297 8331 -38.1041 7927.56 186.279 8094.24Z" stroke="#E75920" stroke-width="3.72217" stroke-miterlimit="10"/>
<path opacity="0.6" d="M185.537 8073.62C553.796 8394.81 925.706 9343.87 -13.3761 9535.55C-385.02 9611.38 -1281.43 9057.66 -1069.59 8741.87C-860.149 8429.18 -850.988 7990.89 -522.215 8157.36C-136.194 8353.07 -29.2225 7886.07 185.537 8073.62Z" stroke="#E64D10" stroke-width="3.72217" stroke-miterlimit="10"/>
<path opacity="0.6" d="M185.143 8053.13C513.272 8390.73 966.569 9295.12 -6.43133 9550.5C-389.775 9651.04 -1309.23 9024.63 -1072.88 8711.61C-838.708 8402.17 -850.457 7939.13 -514.05 8139.76C-119.095 8375.14 -18.2926 7843.95 185.143 8053.13Z" stroke="#E44100" stroke-width="3.72217" stroke-miterlimit="10"/>
<path d="M239.583 9481.43C176.761 11122.9 -1725.23 9089.07 -836.579 8726.6C-391.767 8545.14 -997.054 7587.65 -530.544 7479.77C-64.2765 7372 -29.589 7864.98 339.482 8271.66C800.672 8779.35 255.853 9057.14 239.583 9481.43Z" stroke="#E914BB" stroke-width="3.72217" stroke-miterlimit="10"/>
<path opacity="0.9" d="M264.908 9487.32C157.41 11047.4 -1685.1 9155.02 -856.201 8731.55C-444.611 8521.23 -951.856 7559.08 -493.422 7485.36C-35.3388 7411.5 32.8348 7882.3 359.767 8289.11C769.477 8795.57 293.226 9075.71 264.908 9487.32Z" stroke="#EA23BF" stroke-width="3.72217" stroke-miterlimit="10"/>
<path opacity="0.9" d="M290.098 9493.57C139.408 10971 -1645.99 9222.59 -875.823 8736.5C-497.726 8498.02 -906.523 7530.17 -456.058 7490.84C-6.05082 7451.14 93.6659 7900.62 379.916 8306.92C736.797 8813.03 330.869 9093.58 290.098 9493.57Z" stroke="#EC31C3" stroke-width="3.72217" stroke-miterlimit="10"/>
<path opacity="0.8" d="M315.181 9499.57C123.592 10893.6 -1607.56 9291.92 -895.337 8741.7C-551.244 8475.87 -861.433 7501.37 -418.936 7496.43C22.8868 7490.64 155.118 7918.37 400.309 8324.62C704.873 8829.57 368.754 9111.35 315.181 9499.57Z" stroke="#ED40C8" stroke-width="3.72217" stroke-miterlimit="10"/>
<path opacity="0.7" d="M340.506 9505.47C109.829 10815.7 -1569.45 9363.13 -914.959 8746.65C-604.924 8454.66 -816.343 7472.56 -381.571 7501.92C52.0675 7530.03 216.705 7935.77 420.351 8342.18C672.841 8845.87 406.775 9128.76 340.506 9505.47Z" stroke="#EF4FCC" stroke-width="3.72217" stroke-miterlimit="10"/>
<path opacity="0.7" d="M365.696 9511.71C98.6005 10736.8 -1531.31 9436.37 -934.581 8751.6C-658.172 8434.42 -770.903 7443.89 -344.449 7507.51C81.1126 7569.78 278.535 7953.06 440.744 8359.87C641.051 8862.06 445.416 9145.61 365.696 9511.71Z" stroke="#F05DD0" stroke-width="3.72217" stroke-miterlimit="10"/>
<path opacity="0.6" d="M391.02 9517.61C90.3678 10657.6 -1491.96 9511.69 -954.096 8756.8C-710.987 8415.15 -725.815 7415.08 -307.086 7512.99C110.292 7609.17 340.255 7970.1 460.784 8377.43C609.152 8878.01 484.541 9162.24 391.02 9517.61Z" stroke="#F16CD4" stroke-width="3.72217" stroke-miterlimit="10"/>
<path opacity="0.6" d="M416.103 9523.61C85.3492 10578.3 -1450.88 9588.27 -973.718 8761.75C-762.884 8396.64 -680.725 7386.28 -269.721 7518.47C139.23 7648.67 401.977 7987.15 481.177 8395.13C577.633 8893.5 524.396 9178.55 416.103 9523.61Z" stroke="#F37BD9" stroke-width="3.72217" stroke-miterlimit="10"/>
<path opacity="0.5" d="M441.292 9529.86C83.5421 10499.1 -1408.18 9665.88 -993.341 8766.7C-814.078 8378.4 -635.284 7357.6 -232.6 7524.06C168.518 7688.31 464.184 8003.98 501.327 8412.93C546.463 8909.12 564.845 9194.88 441.292 9529.86Z" stroke="#F48ADD" stroke-width="3.72217" stroke-miterlimit="10"/>
<path opacity="0.4" d="M466.619 9535.75C85.1654 10420.4 -1363.48 9744.06 -1012.96 8771.66C-864.57 8360.43 -590.194 7328.8 -195.234 7529.54C197.456 7727.81 526.635 8020.7 521.612 8430.38C515.538 8924.64 606.483 9211.26 466.619 9535.75Z" stroke="#F598E1" stroke-width="3.72217" stroke-miterlimit="10"/>
<path opacity="0.4" d="M491.703 9541.76C90.4346 10342.6 -1316.86 9821.96 -1032.47 8776.85C-914.223 8342.37 -545.102 7299.99 -158.111 7535.13C226.638 7767.2 589.33 8037.32 541.764 8448.19C484.857 8940.04 649.067 9227.81 491.703 9541.76Z" stroke="#F7A7E5" stroke-width="3.72217" stroke-miterlimit="10"/>
<path opacity="0.3" d="M516.784 9547.76C99.3186 10266.5 -1268.81 9899.81 -1052.1 8781.81C-963.394 8324.1 -499.771 7271.08 -120.747 7540.62C255.925 7806.84 652.238 8054.42 562.048 8465.64C454.632 8955.83 693.051 9244.9 516.784 9547.76Z" stroke="#F8B6EA" stroke-width="3.72217" stroke-miterlimit="10"/>
<path opacity="0.3" d="M542.217 9553.9C110.959 10192.6 -1219.17 9976.66 -1071.48 8786.65C-1011.84 8305.51 -454.573 7242.52 -83.6256 7546.21C284.863 7846.34 715.391 8071.41 582.197 8483.44C424.408 8971.61 738.415 9263.12 542.217 9553.9Z" stroke="#FAC4EE" stroke-width="3.72217" stroke-miterlimit="10"/>
<path opacity="0.2" d="M567.3 9559.9C125.328 10121.6 -1168.56 10053.1 -1091.1 8791.6C-1060.14 8286.56 -409.483 7213.71 -46.2606 7551.69C314.044 7885.73 778.409 8088.75 602.482 8500.89C394.4 8987.88 785.372 9282.95 567.3 9559.9Z" stroke="#FBD3F2" stroke-width="3.72217" stroke-miterlimit="10"/>
<path opacity="0.1" d="M592.624 9565.8C141.076 10054.4 -1117.3 10128.3 -1110.61 8796.8C-1108.21 8267.51 -364.394 7184.9 -8.8965 7557.17C343.089 7925.48 841.777 8106.23 622.632 8518.7C364.743 9004.29 834.139 9304.89 592.624 9565.8Z" stroke="#FCE2F7" stroke-width="3.72217" stroke-miterlimit="10"/>
<path opacity="0.1" d="M617.814 9572.04C157.231 9991.31 -1065.42 10203 -1130.23 8801.75C-1156 8247.75 -318.953 7156.23 28.2247 7562.76C372.269 7964.87 905.01 8124.06 643.024 8536.39C334.6 9020.91 883.961 9329.86 617.814 9572.04Z" stroke="#FEF0FB" stroke-width="3.72217" stroke-miterlimit="10"/>
<path opacity="0.1" d="M-641.594 9512.29C-2117.85 9912 -1325.71 7386.78 -489.328 8007.68C-77.4015 8313.21 643.924 7520.01 900.809 7976.05C1158.07 8431.64 778.622 8705.64 531.483 9158.51C223.543 9722.56 -240.277 9403.75 -641.594 9512.29Z" stroke="#F83BFF" stroke-width="3.72217" stroke-miterlimit="10"/>
<path opacity="0.1" d="M-635.152 9541.14C-2050.45 9865.98 -1371.91 7453.62 -503.731 7989.06C-81.7916 8249.1 693.589 7556.39 913.846 8017.1C1134.51 8476.76 791.732 8776.93 524.534 9186.05C192.263 9695.44 -238.062 9449.91 -635.152 9541.14Z" stroke="#F949FF" stroke-width="3.72217" stroke-miterlimit="10"/>
<path opacity="0.1" d="M-628.572 9569.64C-1980.88 9822.2 -1420.03 7520.73 -517.779 7970.58C-87.2579 8185.18 742.908 7592.64 926.643 8058.26C1111.05 8522.13 804.981 8847.86 517.697 9213.83C160.987 9668.33 -235.493 9496.2 -628.572 9569.64Z" stroke="#F957FF" stroke-width="3.72217" stroke-miterlimit="10"/>
<path opacity="0.1" d="M-621.994 9598.15C-1909.53 9781.13 -1470.09 7588.71 -532.18 7951.97C-93.5894 8121.94 792.332 7629.13 939.573 8099.07C1087.6 8567.5 818.713 8918.58 510.616 9241.72C130.195 9641.01 -232.115 9543.01 -621.994 9598.15Z" stroke="#FA65FF" stroke-width="3.72217" stroke-miterlimit="10"/>
<path opacity="0.1" d="M-615.549 9627C-1836.78 9743.21 -1521.63 7657.94 -546.579 7933.35C-100.541 8059.26 841.649 7665.38 952.369 8140.23C1064.14 8612.87 832.555 8989.54 503.778 9269.51C99.6458 9613.58 -228.034 9590.09 -615.549 9627Z" stroke="#FA73FF" stroke-width="3.72217" stroke-miterlimit="10"/>
<path opacity="0.2" d="M-608.975 9655.5C-1762.38 9708.33 -1574.23 7729.37 -560.741 7914.62C-107.9 7997.63 891.07 7701.87 965.404 8181.28C1040.68 8658.23 846.743 9060.63 496.693 9297.39C69.5521 9586.52 -223.633 9637.89 -608.975 9655.5Z" stroke="#FB81FF" stroke-width="3.72217" stroke-miterlimit="10"/>
<path opacity="0.2" d="M-602.288 9684.25C-1686.84 9677.32 -1627.14 7802.7 -575.033 7896.25C-115.66 7937.06 940.495 7738.36 978.2 8222.44C1017.23 8703.6 861.044 9131.97 489.855 9325.18C39.5707 9559.71 -218.796 9686.67 -602.288 9684.25Z" stroke="#FB8FFF" stroke-width="3.72217" stroke-miterlimit="10"/>
<path opacity="0.2" d="M-595.95 9712.86C-1610.76 9650.14 -1680.16 7878.4 -589.431 7877.63C-123.337 7877.32 989.813 7774.61 991.132 8263.24C993.772 8748.96 875.697 9203.44 482.775 9353.06C9.94161 9533.03 -213.875 9736.28 -595.95 9712.86Z" stroke="#FC9DFF" stroke-width="3.72217" stroke-miterlimit="10"/>
<path opacity="0.3" d="M-589.371 9741.36C-1534.51 9627.25 -1732.56 7956.15 -603.831 7859.01C-130.69 7818.32 1039.24 7811.1 1003.93 8304.4C970.317 8794.33 890.214 9275.27 475.937 9380.85C-19.7152 9506.94 -208.55 9787.46 -589.371 9741.36Z" stroke="#FCABFF" stroke-width="3.72217" stroke-miterlimit="10"/>
<path opacity="0.3" d="M-582.928 9770.22C-1458.67 9608.04 -1784.2 8035.61 -617.881 7840.53C-137.721 7760.04 1088.55 7847.35 1016.97 8345.46C946.86 8839.7 904.945 9347.58 469.098 9408.63C-49.1573 9481.35 -203.657 9840.29 -582.928 9770.22Z" stroke="#FDB9FF" stroke-width="3.72217" stroke-miterlimit="10"/>
<path opacity="0.3" d="M-576.348 9798.72C-1384.31 9592.68 -1834.36 8116.43 -632.28 7821.91C-144.182 7702.38 1137.98 7883.84 1029.76 8386.61C923.406 8885.06 919.437 9420 462.018 9436.52C-79.0828 9455.96 -199.436 9894.87 -576.348 9798.72Z" stroke="#FDC7FF" stroke-width="3.72217" stroke-miterlimit="10"/>
<path opacity="0.3" d="M-569.663 9827.46C-1312.1 9580.32 -1883.01 8198.04 -646.682 7803.3C-150.052 7644.75 1187.4 7920.33 1042.69 8427.42C900.191 8930.32 933.79 9492.77 455.178 9464.3C-109.011 9430.58 -195.918 9951.8 -569.663 9827.46Z" stroke="#FED5FF" stroke-width="3.72217" stroke-miterlimit="10"/>
<path opacity="0.3" d="M-563.329 9856.07C-1243.01 9570.8 -1930.49 8280.3 -661.084 7784.68C-155.463 7587.5 1236.72 7956.58 1055.49 8468.58C876.734 8975.69 947.793 9565.4 447.987 9491.95C-139.317 9405.65 -194.396 10010.8 -563.329 9856.07Z" stroke="#FEE3FF" stroke-width="3.72217" stroke-miterlimit="10"/>
<path opacity="0.4" d="M-556.747 9884.57C-1177.65 9562.66 -1976.92 8362.96 -675.13 7766.2C-160.383 7530.03 1286.15 7993.07 1068.53 8509.63C853.281 9021.05 961.665 9638.38 441.152 9519.73C-169.97 9380.6 -195 10072.2 -556.747 9884.57Z" stroke="#FFF1FF" stroke-width="3.72217" stroke-miterlimit="10"/>
<path opacity="0.4" d="M-550.062 9913.32C-1117.43 9554.77 -2022.27 8445.44 -689.532 7747.58C-164.607 7472.84 1335.46 8029.33 1081.32 8550.79C829.824 9066.43 975.182 9711.24 434.312 9547.52C-200.627 9355.54 -198.901 10135.3 -550.062 9913.32Z" stroke="white" stroke-width="3.72217" stroke-miterlimit="10"/>
</g>
<g opacity="0.75">
<path opacity="0.1" d="M1228.61 10252.1C1620.5 9301.65 2724.12 10727.8 2020.37 10930.9C1673.41 11030.9 1821.76 11733.3 1454.6 11690.2C1087.7 11647.7 1091.15 11335 937.481 11022.9C745.79 10633.7 1121.73 10511.1 1228.61 10252.1Z" stroke="#FCE7DF" stroke-width="3.72217" stroke-miterlimit="10"/>
<path opacity="0.1" d="M1209.47 10244.4C1618.11 9356.69 2705.25 10676.7 2036.85 10930.6C1711.69 11054 1780.55 11745.3 1425.88 11680.9C1071.75 11617.1 1045.16 11314 924.455 11008.3C774.505 10627.5 1094.61 10494.3 1209.47 10244.4Z" stroke="#FADBCF" stroke-width="3.72217" stroke-miterlimit="10"/>
<path opacity="0.1" d="M1190.59 10236.4C1613.32 9411.72 2686.9 10624.4 2053.33 10930.1C1749.98 11076.6 1739.08 11757.5 1397.17 11671.6C1055.79 11586.5 999.162 11293 911.691 10993.4C802.951 10621.7 1066.96 10477.6 1190.59 10236.4Z" stroke="#F8D0BF" stroke-width="3.72217" stroke-miterlimit="10"/>
<path opacity="0.2" d="M1171.45 10228.7C1606.41 9466.76 2669.09 10570.9 2070.09 10929.8C1788.53 11098.7 1697.6 11769.5 1368.46 11662.3C1039.84 11556 953.17 11272.3 898.667 10978.8C831.402 10615.8 1038.78 10461.1 1171.45 10228.7Z" stroke="#F7C4AF" stroke-width="3.72217" stroke-miterlimit="10"/>
<path opacity="0.2" d="M1152.57 10220.8C1597.1 9521.26 2651.01 10515.9 2086.57 10929.6C1827.08 11119.7 1656.13 11781.7 1339.74 11652.7C1023.89 11525.4 906.906 11251.5 885.902 10963.9C859.847 10610.3 1010.33 10444.6 1152.57 10220.8Z" stroke="#F5B89F" stroke-width="3.72217" stroke-miterlimit="10"/>
<path opacity="0.3" d="M1133.43 10213.1C1585.14 9575.23 2632.66 10459.5 2103.05 10929.3C1865.36 11140.1 1614.65 11793.6 1311.03 11643.4C1007.94 11494.8 860.644 11231.1 872.874 10949.2C888.029 10604.9 981.083 10428.1 1133.43 10213.1Z" stroke="#F3AC8F" stroke-width="3.72217" stroke-miterlimit="10"/>
<path opacity="0.3" d="M1114.28 10205.1C1570.78 9628.14 2613.26 10402.1 2119.8 10929C1903.12 11160.1 1573.44 11805.9 1282.31 11634.1C991.984 11464.2 814.117 11210.6 860.113 10934.4C915.68 10599.6 951.306 10411.4 1114.28 10205.1Z" stroke="#F2A080" stroke-width="3.72217" stroke-miterlimit="10"/>
<path opacity="0.3" d="M1095.41 10197.4C1554.03 9679.45 2592.52 10343.6 2136.29 10928.8C1940.34 11179.8 1531.97 11817.8 1253.33 11624.8C976.032 11433.7 767.325 11190.1 847.086 10919.7C943.33 10594.3 920.732 10394.6 1095.41 10197.4Z" stroke="#F09470" stroke-width="3.72217" stroke-miterlimit="10"/>
<path opacity="0.4" d="M1076.26 10189.4C1535.15 9729.44 2570.72 10284.6 2152.77 10928.2C1977.03 11199.2 1490.49 11830.1 1224.62 11615.5C960.079 11403.1 720.265 11169.4 834.323 10904.8C970.448 10588.7 889.358 10377.1 1076.26 10189.4Z" stroke="#EE8860" stroke-width="3.72217" stroke-miterlimit="10"/>
<path opacity="0.4" d="M1057.39 10181.7C1514.42 9777.29 2547.32 10225.3 2169.26 10928C2013.19 11218.3 1449.02 11842 1195.91 11606.2C944.131 11372.5 672.944 11148.6 821.299 10890.2C997.571 10583.1 857.191 10358.7 1057.39 10181.7Z" stroke="#EC7C50" stroke-width="3.72217" stroke-miterlimit="10"/>
<path opacity="0.5" d="M1038.25 10173.7C1492.08 9823.02 2522.59 10166 2186 10927.7C2048.81 11237.7 1407.54 11854.3 1167.19 11596.6C928.176 11341.9 625.616 11127.6 808.534 10875.3C1024.42 10577 824.221 10339.1 1038.25 10173.7Z" stroke="#EB7140" stroke-width="3.72217" stroke-miterlimit="10"/>
<path opacity="0.5" d="M1019.37 10166C1469.22 9866.09 2496.8 10107 2202.49 10927.4C2084.18 11257.1 1366.06 11866.2 1138.48 11587.3C912.489 11311.4 578.292 11106.4 795.507 10860.7C1051.27 10570.9 790.721 10318.1 1019.37 10166Z" stroke="#E96530" stroke-width="3.72217" stroke-miterlimit="10"/>
<path opacity="0.5" d="M1000.23 10158C1446.36 9906.77 2470.22 10048.7 2218.97 10927.2C2119.01 11277.1 1324.85 11878.5 1109.77 11578C896.539 11280.8 531.234 11085.1 782.747 10845.8C1078.39 10564.5 756.691 10295.2 1000.23 10158Z" stroke="#E75920" stroke-width="3.72217" stroke-miterlimit="10"/>
<path opacity="0.6" d="M981.086 10150.3C1424.29 9944.52 2442.57 9990.79 2235.72 10926.6C2153.84 11297 1283.38 11890.7 1081.05 11568.7C880.587 11250.2 483.91 11063.6 769.72 10830.9C1105.51 10557.9 722.395 10270.2 981.086 10150.3Z" stroke="#E64D10" stroke-width="3.72217" stroke-miterlimit="10"/>
<path opacity="0.6" d="M962.207 10142.3C1404.08 9979.89 2414.65 9933.62 2252.2 10926.4C2188.13 11317.5 1241.9 11902.7 1052.07 11559.4C864.633 11219.6 436.849 11042 756.956 10816.3C1132.63 10551.2 688.361 10243.1 962.207 10142.3Z" stroke="#E44100" stroke-width="3.72217" stroke-miterlimit="10"/>
<path d="M2289.16 10673.5C3763.14 11398.6 1131.57 12308.9 1161.88 11349.6C1177.03 10869.5 56.125 11033 147.318 10562.9C238.511 10093.1 702.985 10262 1224.62 10090.2C1876 9875.4 1908.17 10486.1 2289.16 10673.5Z" stroke="#E914BB" stroke-width="3.72217" stroke-miterlimit="10"/>
<path opacity="0.9" d="M2304.85 10652.8C3686.3 11385.5 1208.14 12299.1 1158.42 11369.6C1133.69 10908 48.4137 10980.1 167.523 10531.3C286.367 10082.8 744.194 10212 1248.81 10078.8C1878.13 9910.49 1940.34 10459.5 2304.85 10652.8Z" stroke="#EA23BF" stroke-width="3.72217" stroke-miterlimit="10"/>
<path opacity="0.9" d="M2320.8 10632.3C3609.2 11370.9 1285.77 12290.8 1154.96 11389.5C1090.89 10947.1 40.439 10926.9 187.731 10499.4C334.49 10072.1 785.671 10163.9 1273.28 10067.6C1880.79 9947.45 1971.98 10432.4 2320.8 10632.3Z" stroke="#EC31C3" stroke-width="3.72217" stroke-miterlimit="10"/>
<path opacity="0.8" d="M2336.49 10611.9C3532.1 11353.9 1364.73 12283.9 1151.77 11409.5C1048.88 10987 32.4628 10874 207.937 10467.8C382.347 10061.8 826.88 10114.9 1297.73 10056.2C1882.91 9983.34 2003.62 10405 2336.49 10611.9Z" stroke="#ED40C8" stroke-width="3.72217" stroke-miterlimit="10"/>
<path opacity="0.7" d="M2352.17 10591.1C3455.27 11334.8 1445.29 12278.1 1148.32 11429.4C1007.67 11027.4 24.487 10821.1 228.143 10435.9C430.204 10051.1 867.825 10065.8 1321.93 10045C1884.77 10019.2 2034.99 10377.4 2352.17 10591.1Z" stroke="#EF4FCC" stroke-width="3.72217" stroke-miterlimit="10"/>
<path opacity="0.7" d="M2368.12 10570.6C3378.69 11313 1527.71 12273 1144.86 11449.3C967.525 11067.8 16.7764 10767.9 248.349 10404.2C478.326 10040.8 908.768 10016.3 1346.39 10033.6C1886.64 10054.9 2066.1 10348.9 2368.12 10570.6Z" stroke="#F05DD0" stroke-width="3.72217" stroke-miterlimit="10"/>
<path opacity="0.6" d="M2383.81 10549.9C3302.92 11288.2 1612.52 12267.7 1141.67 11469.3C928.442 11108.2 8.80037 10715 268.555 10372.3C526.182 10030.1 949.446 9966.86 1370.58 10022.4C1888.23 10090.5 2097.2 10319.9 2383.81 10549.9Z" stroke="#F16CD4" stroke-width="3.72217" stroke-miterlimit="10"/>
<path opacity="0.6" d="M2399.5 10529.4C3228.48 11260.6 1699.2 12261.3 1138.21 11489.2C890.422 11148.1 0.823339 10662.1 288.76 10340.4C574.038 10019.8 990.123 9917.41 1395.04 10011C1889.56 10125.6 2128.31 10290.2 2399.5 10529.4Z" stroke="#F37BD9" stroke-width="3.72217" stroke-miterlimit="10"/>
<path opacity="0.5" d="M2415.45 10509C3155.36 11230 1787.46 12253.9 1134.76 11509.2C852.934 11187.5 -6.88713 10608.9 308.966 10308.8C622.16 10009.1 1030.8 9867.42 1419.5 9999.83C1891.15 10160.4 2159.68 10259.8 2415.45 10509Z" stroke="#F48ADD" stroke-width="3.72217" stroke-miterlimit="10"/>
<path opacity="0.4" d="M2431.14 10488.2C3084.11 11196.5 1877.06 12244.8 1131.3 11529.1C815.979 11226.3 -14.8622 10556 329.173 10276.9C670.017 9998.76 1071.48 9817.17 1443.7 9988.39C1892.75 10195 2191.59 10228.5 2431.14 10488.2Z" stroke="#F598E1" stroke-width="3.72217" stroke-miterlimit="10"/>
<path opacity="0.4" d="M2446.82 10467.8C3015.25 11160.1 1967.19 12233.9 1128.11 11549C779.289 11264.3 -22.8384 10503.1 349.379 10245.2C717.874 9988.13 1112.16 9766.66 1468.16 9977.23C1894.35 10229.3 2224.02 10196.3 2446.82 10467.8Z" stroke="#F7A7E5" stroke-width="3.72217" stroke-miterlimit="10"/>
<path opacity="0.3" d="M2462.51 10447.3C2949.32 11121 2057.86 12221.7 1124.65 11569C742.6 11301.8 -30.8144 10449.9 369.585 10213.3C765.996 9977.49 1153.37 9716.14 1492.35 9965.79C1896.47 10263.3 2257.52 10163.1 2462.51 10447.3Z" stroke="#F8B6EA" stroke-width="3.72217" stroke-miterlimit="10"/>
<path opacity="0.3" d="M2478.46 10426.5C2886.57 11080.3 2148.25 12207.6 1121.2 11588.7C705.91 11338.5 -38.5247 10397 389.791 10181.7C813.852 9967.12 1194.58 9665.36 1516.81 9954.63C1898.6 10297.3 2292.62 10129 2478.46 10426.5Z" stroke="#FAC4EE" stroke-width="3.72217" stroke-miterlimit="10"/>
<path opacity="0.2" d="M2494.14 10406.1C2827.54 11038.3 2238.64 12192.4 1117.74 11608.6C668.951 11374.9 -46.5038 10344.1 409.994 10149.8C861.706 9956.49 1236.05 9614.85 1541 9943.19C1901.25 10331.4 2329.84 10094.2 2494.14 10406.1Z" stroke="#FBD3F2" stroke-width="3.72217" stroke-miterlimit="10"/>
<path opacity="0.1" d="M2509.83 10385.3C2772.51 10996.6 2328.24 12176.2 1114.55 11628.5C631.997 11411.1 -54.4774 10291.2 430.202 10117.9C909.831 9946.12 1277.79 9564.07 1565.46 9932.03C1904.18 10365.1 2369.72 10058.6 2509.83 10385.3Z" stroke="#FCE2F7" stroke-width="3.72217" stroke-miterlimit="10"/>
<path opacity="0.1" d="M2525.78 10364.9C2721.46 10956.2 2417.58 12159.2 1111.09 11648.5C594.51 11446.7 -62.1873 10238 450.409 10086.2C957.688 9935.49 1319.8 9513.55 1589.92 9920.6C1907.11 10399.4 2412.79 10023.2 2525.78 10364.9Z" stroke="#FEF0FB" stroke-width="3.72217" stroke-miterlimit="10"/>
<path opacity="0.1" d="M1958.95 11491.1C1723.66 13002.3 -261.057 11251.5 646.355 10740C1093.02 10488 661.776 9506.37 1182.88 9457.19C1703.72 9407.47 1799.7 9865.56 2112.89 10275.5C2502.92 10786.3 2023.03 11080.3 1958.95 11491.1Z" stroke="#F83BFF" stroke-width="3.72217" stroke-miterlimit="10"/>
<path opacity="0.1" d="M1987.93 11496.9C1709.03 12922 -218.788 11320.9 623.486 10745.6C1032.66 10465.9 715.211 9475.8 1225.68 9461.97C1735.35 9447.35 1870.15 9882.58 2135.22 10293.1C2465.43 10803.8 2066.09 11097.1 1987.93 11496.9Z" stroke="#F949FF" stroke-width="3.72217" stroke-miterlimit="10"/>
<path opacity="0.1" d="M2016.64 11502.5C1697.33 12840.6 -177.045 11392.2 600.888 10750.9C972.042 10444.9 768.386 9445.49 1268.49 9467.02C1767.26 9487.23 1940.34 9899.33 2157.82 10310.6C2427.94 10821.4 2109.43 11113.6 2016.64 11502.5Z" stroke="#F957FF" stroke-width="3.72217" stroke-miterlimit="10"/>
<path opacity="0.1" d="M2045.36 11508.1C1688.83 12758.8 -135.302 11465.6 578.026 10756.5C911.692 10425 821.828 9415.18 1311.03 9471.81C1799.16 9527.11 2010.53 9915.55 2180.42 10328.4C2390.46 10838.4 2153.57 11129.5 2045.36 11508.1Z" stroke="#FA65FF" stroke-width="3.72217" stroke-miterlimit="10"/>
<path opacity="0.1" d="M2074.34 11514C1683.78 12676.9 -93.0263 11540.8 555.163 10762.1C851.607 10405.8 875.004 9384.87 1353.83 9476.86C1831.07 9566.99 2080.99 9931.76 2203.02 10346C2352.97 10855.1 2198.24 11144.9 2074.34 11514Z" stroke="#FA73FF" stroke-width="3.72217" stroke-miterlimit="10"/>
<path opacity="0.2" d="M2103.05 11519.5C1682.18 12594.7 -49.1628 11617.9 532.293 10767.4C792.314 10387.5 928.439 9354.56 1396.63 9481.65C1862.97 9606.87 2151.7 9947.72 2225.61 10363.8C2316.01 10871.6 2243.69 11160.3 2103.05 11519.5Z" stroke="#FB81FF" stroke-width="3.72217" stroke-miterlimit="10"/>
<path opacity="0.2" d="M2132.03 11525.1C1684.57 12513.1 -3.69882 11696.1 509.695 10773C733.823 10369.9 981.879 9324.25 1439.44 9486.7C1894.87 9646.75 2222.69 9963.67 2248.21 10381.4C2279.32 10888.1 2290.22 11175.8 2132.03 11525.1Z" stroke="#FB8FFF" stroke-width="3.72217" stroke-miterlimit="10"/>
<path opacity="0.2" d="M2160.74 11531C1690.69 12432.5 43.8917 11775.3 486.83 10778.6C676.129 10352.6 1035.05 9293.94 1481.98 9491.48C1926.78 9686.63 2293.94 9979.35 2270.81 10399.2C2242.9 10904.3 2337.55 11191.5 2160.74 11531Z" stroke="#FC9DFF" stroke-width="3.72217" stroke-miterlimit="10"/>
<path opacity="0.3" d="M2189.46 11536.6C1700.79 12353.6 93.6121 11854.8 463.968 10784.1C619.236 10335.4 1088.5 9263.64 1524.79 9496.54C1958.69 9726.51 2365.47 9995.31 2293.42 10416.7C2207.01 10920.8 2386.47 11207.4 2189.46 11536.6Z" stroke="#FCABFF" stroke-width="3.72217" stroke-miterlimit="10"/>
<path opacity="0.3" d="M2218.44 11542.4C1714.09 12276.5 145.191 11934.3 441.369 10789.5C563.137 10318.1 1141.67 9233.33 1567.59 9501.32C1990.59 9766.39 2437.52 10011.3 2316.01 10434.3C2171.65 10937.3 2436.72 11224.4 2218.44 11542.4Z" stroke="#FDB9FF" stroke-width="3.72217" stroke-miterlimit="10"/>
<path opacity="0.3" d="M2247.15 11548C1730.3 12202.3 198.629 12013 418.503 10795C507.835 10300.5 1195.11 9203.02 1610.4 9506.37C2022.49 9806.27 2509.57 10027.5 2338.61 10452.1C2136.28 10954.3 2488.3 11242.8 2247.15 11548Z" stroke="#FDC7FF" stroke-width="3.72217" stroke-miterlimit="10"/>
<path opacity="0.3" d="M2276.13 11553.6C1748.38 12131.3 253.397 12090.6 395.637 10800.6C452.799 10282.4 1248.55 9172.71 1652.93 9511.16C2054.4 9845.89 2581.88 10044 2361.21 10469.6C2100.92 10971.3 2541.73 11262.7 2276.13 11553.6Z" stroke="#FED5FF" stroke-width="3.72217" stroke-miterlimit="10"/>
<path opacity="0.3" d="M2304.85 11559.4C1767.79 12064.3 309.23 12167.5 372.773 10806.2C398.297 10264.1 1301.72 9142.4 1695.74 9516.21C2086.3 9885.77 2653.93 10060.7 2383.54 10487.4C2065.83 10988.9 2596.24 11285.3 2304.85 11559.4Z" stroke="#FEE3FF" stroke-width="3.72217" stroke-miterlimit="10"/>
<path opacity="0.4" d="M2333.56 11565C1786.93 12001.3 365.86 12243.5 350.174 10811.5C343.793 10245.2 1355.16 9112.09 1738.54 9520.99C2118.2 9925.65 2726.25 10077.7 2406.14 10505C2030.47 11006.7 2652.07 11310.8 2333.56 11565Z" stroke="#FFF1FF" stroke-width="3.72217" stroke-miterlimit="10"/>
<path opacity="0.4" d="M2362.54 11570.6C1804.22 11943.1 422.759 12318.5 327.312 10817.1C289.824 10225.8 1408.34 9081.78 1781.35 9526.05C2150.11 9965.53 2798.3 10095 2428.74 10522.5C1995.11 11024.5 2708.17 11340.1 2362.54 11570.6Z" stroke="white" stroke-width="3.72217" stroke-miterlimit="10"/>
</g>
<g opacity="0.75">
<path opacity="0.1" d="M1103.79 13267.6C2054.28 13659.5 628.153 14763.1 425.028 14059.3C325.062 13712.4 -377.365 13860.7 -334.294 13493.6C-291.755 13126.7 20.9072 13130.1 333.038 12976.4C722.27 12784.7 844.836 13160.7 1103.79 13267.6Z" stroke="#FCE7DF" stroke-width="3.72217" stroke-miterlimit="10"/>
<path opacity="0.1" d="M1111.5 13248.4C1999.24 13657.1 679.2 14744.2 425.295 14075.8C301.932 13750.7 -389.328 13819.5 -324.988 13464.8C-261.179 13110.7 41.9118 13084.1 347.661 12963.4C728.386 12813.5 861.587 13133.6 1111.5 13248.4Z" stroke="#FADBCF" stroke-width="3.72217" stroke-miterlimit="10"/>
<path opacity="0.1" d="M1119.48 13229.5C1944.21 13652.3 731.577 14725.9 425.828 14092.3C279.334 13788.9 -401.557 13778 -315.682 13436.1C-230.604 13094.8 62.9162 13038.1 362.551 12950.7C734.236 12841.9 878.337 13105.9 1119.48 13229.5Z" stroke="#F8D0BF" stroke-width="3.72217" stroke-miterlimit="10"/>
<path opacity="0.2" d="M1127.19 13210.4C1889.17 13645.4 785.013 14708.1 426.09 14109C257.263 13827.5 -413.525 13736.6 -306.38 13407.4C-200.032 13078.8 83.65 12992.1 377.17 12937.6C740.081 12870.4 894.817 13077.7 1127.19 13210.4Z" stroke="#F7C4AF" stroke-width="3.72217" stroke-miterlimit="10"/>
<path opacity="0.2" d="M1135.17 13191.5C1834.67 13636.1 840.051 14690 426.359 14125.5C236.262 13866 -425.752 13695.1 -296.806 13378.7C-169.454 13062.8 104.391 12945.9 392.061 12924.9C745.668 12898.8 911.304 13049.3 1135.17 13191.5Z" stroke="#F5B89F" stroke-width="3.72217" stroke-miterlimit="10"/>
<path opacity="0.3" d="M1142.88 13172.4C1780.7 13624.1 896.414 14671.6 426.623 14142C215.789 13904.3 -437.718 13653.6 -287.501 13350C-138.88 13046.9 124.862 12899.6 406.683 12911.8C750.984 12927 927.787 13020 1142.88 13172.4Z" stroke="#F3AC8F" stroke-width="3.72217" stroke-miterlimit="10"/>
<path opacity="0.3" d="M1150.85 13153.2C1727.79 13609.7 953.844 14652.2 426.891 14158.8C195.851 13942.1 -449.946 13612.4 -278.194 13321.3C-108.304 13030.9 145.335 12853.1 421.574 12899.1C756.303 12954.6 944.539 12990.3 1150.85 13153.2Z" stroke="#F2A080" stroke-width="3.72217" stroke-miterlimit="10"/>
<path opacity="0.3" d="M1158.56 13134.4C1676.48 13593 1012.34 14631.5 427.157 14175.2C176.177 13979.3 -461.91 13570.9 -268.889 13292.3C-77.7285 13015 165.808 12806.3 436.197 12886C761.621 12982.3 961.288 12959.7 1158.56 13134.4Z" stroke="#F09470" stroke-width="3.72217" stroke-miterlimit="10"/>
<path opacity="0.4" d="M1166.54 13115.2C1626.49 13574.1 1071.36 14609.7 427.687 14191.7C156.766 14016 -474.142 13529.4 -259.585 13263.6C-47.1558 12999 186.543 12759.2 451.083 12873.3C767.202 13009.4 978.834 12928.3 1166.54 13115.2Z" stroke="#EE8860" stroke-width="3.72217" stroke-miterlimit="10"/>
<path opacity="0.4" d="M1174.25 13096.4C1578.64 13553.4 1130.65 14586.3 427.955 14208.2C137.626 14052.2 -486.103 13488 -250.277 13234.9C-16.5781 12983.1 207.284 12711.9 465.709 12860.3C772.788 13036.5 997.181 12896.2 1174.25 13096.4Z" stroke="#EC7C50" stroke-width="3.72217" stroke-miterlimit="10"/>
<path opacity="0.5" d="M1182.23 13077.2C1532.91 13531 1189.94 14561.6 428.22 14225C118.217 14087.8 -498.334 13446.5 -240.707 13206.2C13.9959 12967.1 228.287 12664.6 480.596 12847.5C778.902 13063.4 1016.85 12863.2 1182.23 13077.2Z" stroke="#EB7140" stroke-width="3.72217" stroke-miterlimit="10"/>
<path opacity="0.5" d="M1189.93 13058.3C1489.83 13508.2 1248.96 14535.8 428.484 14241.4C98.8065 14123.1 -510.3 13405 -231.403 13177.4C44.5691 12951.4 249.554 12617.3 495.218 12834.5C785.015 13090.2 1037.86 12829.7 1189.93 13058.3Z" stroke="#E96530" stroke-width="3.72217" stroke-miterlimit="10"/>
<path opacity="0.5" d="M1197.91 13039.2C1449.16 13485.3 1307.18 14509.2 428.752 14257.9C78.8676 14158 -522.529 13363.8 -222.096 13148.7C75.1455 12935.5 270.825 12570.2 510.108 12821.7C791.397 13117.4 1060.72 12795.7 1197.91 13039.2Z" stroke="#E75920" stroke-width="3.72217" stroke-miterlimit="10"/>
<path opacity="0.6" d="M1205.62 13020C1411.4 13463.2 1365.14 14481.5 429.284 14274.7C58.9281 14192.8 -534.758 13322.3 -212.79 13120C105.721 12919.5 292.361 12522.9 524.997 12808.7C798.045 13144.5 1085.71 12761.4 1205.62 13020Z" stroke="#E64D10" stroke-width="3.72217" stroke-miterlimit="10"/>
<path opacity="0.6" d="M1213.6 13001.2C1376.04 13443 1422.3 14453.6 429.549 14291.2C38.4554 14227.1 -546.723 13280.9 -203.486 13091C136.295 12903.6 313.896 12475.8 539.619 12795.9C804.691 13171.6 1112.83 12727.3 1213.6 13001.2Z" stroke="#E44100" stroke-width="3.72217" stroke-miterlimit="10"/>
<path d="M682.391 14328.1C-42.6351 15802.1 -952.971 13170.5 6.285 13200.8C486.445 13216 322.935 12095.1 792.992 12186.3C1262.78 12277.5 1093.96 12741.9 1265.71 13263.6C1480.53 13915 869.828 13947.1 682.391 14328.1Z" stroke="#E914BB" stroke-width="3.72217" stroke-miterlimit="10"/>
<path opacity="0.9" d="M703.129 14343.8C-29.6069 15725.3 -943.134 13247.1 -13.6546 13197.4C447.895 13172.7 375.844 12087.4 824.631 12206.5C1273.15 12325.3 1143.94 12783.2 1277.14 13287.8C1445.44 13917.1 896.416 13979.3 703.129 14343.8Z" stroke="#EA23BF" stroke-width="3.72217" stroke-miterlimit="10"/>
<path opacity="0.9" d="M723.599 14359.8C-14.9856 15648.2 -934.893 13324.7 -33.5965 13193.9C408.81 13129.8 429.016 12079.4 856.534 12226.7C1283.79 12373.5 1192.06 12824.6 1288.31 13312.2C1408.48 13919.7 923.533 14010.9 723.599 14359.8Z" stroke="#EC31C3" stroke-width="3.72217" stroke-miterlimit="10"/>
<path opacity="0.8" d="M744.072 14375.4C2.03052 15571.1 -927.98 13403.7 -53.5361 13190.7C368.93 13087.8 481.925 12071.4 888.173 12246.9C1294.16 12421.3 1240.98 12865.8 1299.74 13336.7C1372.59 13921.9 950.918 14042.6 744.072 14375.4Z" stroke="#ED40C8" stroke-width="3.72217" stroke-miterlimit="10"/>
<path opacity="0.7" d="M764.81 14391.1C21.1733 15494.2 -922.131 13484.3 -73.4762 13187.3C328.518 13046.6 534.833 12063.4 920.077 12267.1C1304.79 12469.2 1290.17 12906.8 1310.91 13360.9C1336.69 13923.7 978.569 14074 764.81 14391.1Z" stroke="#EF4FCC" stroke-width="3.72217" stroke-miterlimit="10"/>
<path opacity="0.7" d="M785.281 14407.1C42.9741 15417.7 -917.08 13566.7 -93.4169 13183.8C288.106 13006.5 588.006 12055.7 951.715 12287.3C1315.16 12517.3 1339.62 12947.7 1322.34 13385.3C1301.07 13925.6 1007.02 14105.1 785.281 14407.1Z" stroke="#F05DD0" stroke-width="3.72217" stroke-miterlimit="10"/>
<path opacity="0.6" d="M806.018 14422.8C67.6993 15341.9 -911.763 13651.5 -113.358 13180.6C247.693 12967.4 640.914 12047.8 983.619 12307.5C1325.79 12565.1 1389.07 12988.4 1333.5 13409.5C1265.44 13927.2 1036 14136.2 806.018 14422.8Z" stroke="#F16CD4" stroke-width="3.72217" stroke-miterlimit="10"/>
<path opacity="0.6" d="M826.49 14438.5C95.3498 15267.4 -905.382 13738.2 -133.298 13177.2C207.812 12929.4 693.821 12039.8 1015.52 12327.7C1336.16 12613 1438.52 13029.1 1344.94 13434C1230.35 13928.5 1065.77 14167.3 826.49 14438.5Z" stroke="#F37BD9" stroke-width="3.72217" stroke-miterlimit="10"/>
<path opacity="0.5" d="M846.962 14454.4C125.925 15194.3 -897.938 13826.4 -153.238 13173.7C168.464 12891.9 746.996 12032.1 1047.16 12347.9C1346.8 12661.1 1488.51 13069.8 1356.1 13458.5C1195.52 13930.1 1096.08 14198.6 846.962 14454.4Z" stroke="#F48ADD" stroke-width="3.72217" stroke-miterlimit="10"/>
<path opacity="0.4" d="M867.701 14470.1C159.425 15123.1 -888.897 13916 -173.177 13170.3C129.648 12854.9 799.904 12024.1 1079.07 12368.1C1357.17 12709 1538.76 13110.4 1367.54 13482.7C1160.95 13931.7 1127.46 14230.5 867.701 14470.1Z" stroke="#F598E1" stroke-width="3.72217" stroke-miterlimit="10"/>
<path opacity="0.4" d="M888.175 14485.8C195.851 15054.2 -877.995 14006.2 -193.116 13167.1C91.6302 12818.2 852.814 12016.1 1110.71 12388.3C1367.8 12756.8 1589.27 13151.1 1378.7 13507.1C1126.66 13933.3 1159.63 14263 888.175 14485.8Z" stroke="#F7A7E5" stroke-width="3.72217" stroke-miterlimit="10"/>
<path opacity="0.3" d="M908.645 14501.5C234.933 14988.3 -865.766 14096.8 -213.057 13163.6C54.1415 12781.6 905.987 12008.1 1142.61 12408.5C1378.44 12805 1639.79 13192.3 1390.13 13531.3C1092.63 13935.4 1192.86 14296.5 908.645 14501.5Z" stroke="#F8B6EA" stroke-width="3.72217" stroke-miterlimit="10"/>
<path opacity="0.3" d="M929.383 14517.4C275.611 14925.5 -851.675 14187.2 -232.732 13160.2C17.4514 12744.9 958.894 12000.4 1174.25 12428.8C1388.81 12852.8 1690.57 13233.5 1401.3 13555.8C1058.6 13937.6 1226.89 14331.6 929.383 14517.4Z" stroke="#FAC4EE" stroke-width="3.72217" stroke-miterlimit="10"/>
<path opacity="0.2" d="M949.857 14533.1C317.62 14866.5 -836.519 14277.6 -252.67 13156.7C-18.971 12707.9 1011.8 11992.5 1206.15 12449C1399.44 12900.7 1741.08 13275 1412.74 13580C1024.57 13940.2 1261.72 14368.8 949.857 14533.1Z" stroke="#FBD3F2" stroke-width="3.72217" stroke-miterlimit="10"/>
<path opacity="0.1" d="M970.593 14548.8C359.359 14811.5 -820.303 14367.2 -272.612 13153.5C-55.1311 12671 1064.71 11984.5 1238.06 12469.2C1409.81 12948.8 1791.86 13316.8 1423.9 13604.4C990.799 13943.1 1297.35 14408.7 970.593 14548.8Z" stroke="#FCE2F7" stroke-width="3.72217" stroke-miterlimit="10"/>
<path opacity="0.1" d="M991.064 14564.7C399.771 14760.4 -803.288 14456.5 -292.553 13150.1C-90.758 12633.5 1117.88 11976.8 1269.7 12489.4C1420.44 12996.6 1842.38 13358.8 1435.33 13628.9C956.501 13946.1 1332.71 14451.8 991.064 14564.7Z" stroke="#FEF0FB" stroke-width="3.72217" stroke-miterlimit="10"/>
<path opacity="0.1" d="M-135.159 13997.9C-1646.36 13762.6 104.39 11777.9 615.922 12685.3C867.966 13132 1849.56 12700.7 1898.74 13221.8C1948.46 13742.7 1490.37 13838.7 1080.4 14151.9C569.661 14541.9 275.609 14062 -135.159 13997.9Z" stroke="#F83BFF" stroke-width="3.72217" stroke-miterlimit="10"/>
<path opacity="0.1" d="M-141.008 14026.9C-1566.07 13748 34.9973 11820.2 610.338 12662.4C890.033 13071.6 1880.13 12754.2 1893.96 13264.6C1908.58 13774.3 1473.35 13909.1 1062.85 14174.2C552.113 14504.4 258.859 14105.1 -141.008 14026.9Z" stroke="#F949FF" stroke-width="3.72217" stroke-miterlimit="10"/>
<path opacity="0.1" d="M-146.589 14055.6C-1484.71 13736.3 -36.2535 11861.9 605.023 12639.8C911.039 13011 1910.44 12807.3 1888.91 13307.4C1868.7 13806.2 1456.6 13979.3 1045.3 14196.8C534.568 14466.9 242.377 14148.4 -146.589 14055.6Z" stroke="#F957FF" stroke-width="3.72217" stroke-miterlimit="10"/>
<path opacity="0.1" d="M-152.175 14084.3C-1402.82 13727.8 -109.636 11903.7 599.438 12617C930.977 12950.7 1940.75 12860.8 1884.12 13350C1828.82 13838.1 1440.38 14049.5 1027.49 14219.4C517.55 14429.4 226.423 14192.5 -152.175 14084.3Z" stroke="#FA65FF" stroke-width="3.72217" stroke-miterlimit="10"/>
<path opacity="0.1" d="M-158.024 14113.3C-1320.94 13722.7 -184.876 11945.9 593.855 12594.1C950.12 12890.6 1971.06 12914 1879.07 13392.8C1788.94 13870 1424.16 14119.9 1009.94 14242C500.801 14391.9 211.003 14237.2 -158.024 14113.3Z" stroke="#FA73FF" stroke-width="3.72217" stroke-miterlimit="10"/>
<path opacity="0.2" d="M-163.609 14142C-1238.78 13721.1 -261.98 11989.8 588.536 12571.3C968.463 12831.3 2001.37 12967.4 1874.28 13435.6C1749.06 13901.9 1408.21 14190.7 992.125 14264.6C484.315 14355 195.581 14282.7 -163.609 14142Z" stroke="#FB81FF" stroke-width="3.72217" stroke-miterlimit="10"/>
<path opacity="0.2" d="M-169.191 14171C-1157.16 13723.5 -340.145 12035.3 582.953 12548.7C986.011 12772.8 2031.67 13020.8 1869.23 13478.4C1709.18 13933.8 1392.26 14261.7 974.579 14287.2C467.832 14318.3 180.161 14329.2 -169.191 14171Z" stroke="#FB8FFF" stroke-width="3.72217" stroke-miterlimit="10"/>
<path opacity="0.2" d="M-175.038 14199.7C-1076.6 13729.6 -419.372 12082.9 577.372 12525.8C1003.29 12715.1 2061.99 13074 1864.45 13520.9C1669.3 13965.7 1376.58 14332.9 956.768 14309.8C451.616 14281.9 164.477 14376.5 -175.038 14199.7Z" stroke="#FC9DFF" stroke-width="3.72217" stroke-miterlimit="10"/>
<path opacity="0.3" d="M-180.623 14228.4C-997.639 13739.8 -498.868 12132.6 571.787 12502.9C1020.57 12658.2 2092.29 13127.5 1859.39 13563.7C1629.42 13997.6 1360.62 14404.4 939.219 14332.4C435.13 14246 148.523 14425.4 -180.623 14228.4Z" stroke="#FCABFF" stroke-width="3.72217" stroke-miterlimit="10"/>
<path opacity="0.3" d="M-186.473 14257.4C-920.538 13753 -578.364 12184.2 566.469 12480.3C1037.86 12602.1 2122.6 13180.6 1854.61 13606.6C1589.53 14029.5 1344.67 14476.5 921.671 14355C418.646 14210.6 131.507 14475.7 -186.473 14257.4Z" stroke="#FDB9FF" stroke-width="3.72217" stroke-miterlimit="10"/>
<path opacity="0.3" d="M-192.054 14286.1C-846.358 13769.3 -657.059 12237.6 560.888 12457.5C1055.4 12546.8 2152.91 13234.1 1849.56 13649.4C1549.66 14061.5 1328.45 14548.5 903.859 14377.6C401.632 14175.2 113.164 14527.3 -192.054 14286.1Z" stroke="#FDC7FF" stroke-width="3.72217" stroke-miterlimit="10"/>
<path opacity="0.3" d="M-197.638 14315.1C-775.372 13787.3 -734.694 12292.4 555.304 12434.6C1073.48 12491.8 2183.22 13287.5 1844.77 13691.9C1510.04 14093.4 1311.97 14620.8 886.312 14400.2C384.616 14139.9 93.2233 14580.7 -197.638 14315.1Z" stroke="#FED5FF" stroke-width="3.72217" stroke-miterlimit="10"/>
<path opacity="0.3" d="M-203.489 14343.8C-708.375 13806.7 -811.532 12348.2 549.719 12411.7C1091.83 12437.3 2213.53 13340.7 1839.72 13734.7C1470.16 14125.3 1295.22 14692.9 868.496 14422.5C367.067 14104.8 70.6224 14635.2 -203.489 14343.8Z" stroke="#FEE3FF" stroke-width="3.72217" stroke-miterlimit="10"/>
<path opacity="0.4" d="M-209.068 14372.5C-645.36 13825.9 -887.567 12404.8 544.405 12389.1C1110.71 12382.8 2243.84 13394.1 1834.93 13777.5C1430.28 14157.2 1278.2 14765.2 850.953 14445.1C349.257 14069.4 45.1028 14691 -209.068 14372.5Z" stroke="#FFF1FF" stroke-width="3.72217" stroke-miterlimit="10"/>
<path opacity="0.4" d="M-214.654 14401.5C-587.137 13843.2 -962.544 12461.7 538.82 12366.3C1130.11 12328.8 2274.15 13447.3 1829.88 13820.3C1390.4 14189.1 1260.92 14837.3 833.403 14467.7C331.441 14034.1 15.8548 14747.1 -214.654 14401.5Z" stroke="white" stroke-width="3.72217" stroke-miterlimit="10"/>
</g>
<g opacity="0.75">
<path opacity="0.1" d="M1103.79 -209.432C2054.28 182.46 628.153 1286.08 425.028 582.327C325.062 235.368 -377.365 383.723 -334.294 16.5572C-291.755 -350.343 20.9072 -346.886 333.038 -500.559C722.27 -692.251 844.836 -316.311 1103.79 -209.432Z" stroke="#FCE7DF" stroke-width="3.72217" stroke-miterlimit="10"/>
<path opacity="0.1" d="M1111.5 -228.573C1999.24 180.068 679.2 1267.21 425.295 598.813C301.932 273.654 -389.328 342.515 -324.988 -12.1552C-261.179 -366.293 41.9118 -392.88 347.661 -513.585C728.386 -663.535 861.587 -343.428 1111.5 -228.573Z" stroke="#FADBCF" stroke-width="3.72217" stroke-miterlimit="10"/>
<path opacity="0.1" d="M1119.48 -247.452C1944.21 175.281 731.577 1248.86 425.828 615.294C279.334 311.937 -401.557 301.037 -315.682 -40.8712C-230.604 -382.247 62.9162 -438.878 362.551 -526.349C734.236 -635.089 878.337 -371.081 1119.48 -247.452Z" stroke="#F8D0BF" stroke-width="3.72217" stroke-miterlimit="10"/>
<path opacity="0.2" d="M1127.19 -266.591C1889.17 168.371 785.013 1231.05 426.09 632.047C257.263 350.491 -413.525 259.564 -306.38 -69.5822C-200.032 -398.197 83.65 -484.87 377.17 -539.373C740.081 -606.638 894.817 -399.26 1127.19 -266.591Z" stroke="#F7C4AF" stroke-width="3.72217" stroke-miterlimit="10"/>
<path opacity="0.2" d="M1135.17 -285.471C1834.67 159.063 840.051 1212.97 426.359 648.528C236.262 389.04 -425.752 218.086 -296.806 -98.2986C-169.454 -414.151 104.391 -531.134 392.061 -552.138C745.668 -578.193 911.304 -427.711 1135.17 -285.471Z" stroke="#F5B89F" stroke-width="3.72217" stroke-miterlimit="10"/>
<path opacity="0.3" d="M1142.88 -304.614C1780.7 147.098 896.414 1194.62 426.623 665.012C215.789 427.325 -437.718 176.61 -287.501 -127.013C-138.88 -430.104 124.862 -577.396 406.683 -565.166C750.984 -550.011 927.787 -456.957 1142.88 -304.614Z" stroke="#F3AC8F" stroke-width="3.72217" stroke-miterlimit="10"/>
<path opacity="0.3" d="M1150.85 -323.756C1727.79 132.741 953.844 1175.22 426.891 681.762C195.851 465.078 -449.946 135.4 -278.194 -155.727C-108.304 -446.056 145.335 -623.923 421.574 -577.927C756.303 -522.361 944.539 -486.734 1150.85 -323.756Z" stroke="#F2A080" stroke-width="3.72217" stroke-miterlimit="10"/>
<path opacity="0.3" d="M1158.56 -342.632C1676.48 115.992 1012.34 1154.48 427.157 698.246C176.177 502.301 -461.91 93.9251 -268.889 -184.706C-77.7285 -462.008 165.808 -670.715 436.197 -590.954C761.621 -494.71 961.288 -517.308 1158.56 -342.632Z" stroke="#F09470" stroke-width="3.72217" stroke-miterlimit="10"/>
<path opacity="0.4" d="M1166.54 -361.776C1626.49 97.1145 1071.36 1132.68 427.687 714.729C156.766 538.989 -474.142 52.4484 -259.585 -213.421C-47.1558 -477.961 186.543 -717.775 451.083 -603.717C767.202 -467.592 978.834 -548.682 1166.54 -361.776Z" stroke="#EE8860" stroke-width="3.72217" stroke-miterlimit="10"/>
<path opacity="0.4" d="M1174.25 -380.649C1578.64 76.3804 1130.65 1109.28 427.955 731.217C137.626 575.151 -486.103 10.9766 -250.277 -242.131C-16.5781 -493.909 207.284 -765.096 465.709 -616.741C772.788 -440.47 997.181 -580.849 1174.25 -380.649Z" stroke="#EC7C50" stroke-width="3.72217" stroke-miterlimit="10"/>
<path opacity="0.5" d="M1182.23 -399.795C1532.91 54.0443 1189.94 1084.55 428.22 747.963C118.217 610.775 -498.334 -30.5021 -240.707 -270.848C13.9959 -509.864 228.287 -812.424 480.596 -629.506C778.902 -413.62 1016.85 -613.819 1182.23 -399.795Z" stroke="#EB7140" stroke-width="3.72217" stroke-miterlimit="10"/>
<path opacity="0.5" d="M1189.93 -418.671C1489.83 31.1796 1248.96 1058.76 428.484 764.447C98.8065 646.135 -510.3 -71.9777 -231.403 -299.562C44.5691 -525.551 249.554 -859.748 495.218 -642.533C785.015 -386.767 1037.86 -647.319 1189.93 -418.671Z" stroke="#E96530" stroke-width="3.72217" stroke-miterlimit="10"/>
<path opacity="0.5" d="M1197.91 -437.812C1449.16 8.31642 1307.18 1032.18 428.752 780.933C78.8676 680.966 -522.529 -113.186 -222.096 -328.274C75.1455 -541.501 270.825 -906.806 510.108 -655.293C791.397 -359.647 1060.72 -681.349 1197.91 -437.812Z" stroke="#E75920" stroke-width="3.72217" stroke-miterlimit="10"/>
<path opacity="0.6" d="M1205.62 -456.954C1411.4 -13.7501 1365.14 1004.53 429.284 797.683C58.9281 715.795 -534.758 -154.661 -212.79 -356.987C105.721 -557.453 292.361 -954.13 524.997 -668.32C798.045 -332.527 1085.71 -715.645 1205.62 -456.954Z" stroke="#E64D10" stroke-width="3.72217" stroke-miterlimit="10"/>
<path opacity="0.6" d="M1213.6 -475.833C1376.04 -33.9587 1422.3 976.611 429.549 814.164C38.4554 750.09 -546.723 -196.139 -203.486 -385.97C136.295 -573.407 313.896 -1001.19 539.619 -681.085C804.691 -305.411 1112.83 -749.679 1213.6 -475.833Z" stroke="#E44100" stroke-width="3.72217" stroke-miterlimit="10"/>
<path d="M682.391 851.121C-42.6351 2325.1 -952.971 -306.474 6.285 -276.165C486.445 -261.01 322.935 -1381.92 792.992 -1290.72C1262.78 -1199.53 1093.96 -735.055 1265.71 -213.419C1480.53 437.96 869.828 470.131 682.391 851.121Z" stroke="#E914BB" stroke-width="3.72217" stroke-miterlimit="10"/>
<path opacity="0.9" d="M703.129 866.806C-29.6069 2248.26 -943.134 -229.904 -13.6546 -279.622C447.895 -304.348 375.844 -1389.63 824.631 -1270.52C1273.15 -1151.67 1143.94 -693.846 1277.14 -189.226C1445.44 440.086 896.416 502.3 703.129 866.806Z" stroke="#EA23BF" stroke-width="3.72217" stroke-miterlimit="10"/>
<path opacity="0.9" d="M723.599 882.76C-14.9856 2171.16 -934.893 -152.269 -33.5965 -283.077C408.81 -347.151 429.016 -1397.6 856.534 -1250.31C1283.79 -1103.55 1192.06 -652.369 1288.31 -164.765C1408.48 442.747 923.533 533.94 723.599 882.76Z" stroke="#EC31C3" stroke-width="3.72217" stroke-miterlimit="10"/>
<path opacity="0.8" d="M744.072 898.446C2.03052 2094.06 -927.98 -73.306 -53.5361 -286.267C368.93 -389.159 481.925 -1405.58 888.173 -1230.1C1294.16 -1055.69 1240.98 -611.16 1299.74 -140.305C1372.59 444.873 950.918 565.578 744.072 898.446Z" stroke="#ED40C8" stroke-width="3.72217" stroke-miterlimit="10"/>
<path opacity="0.7" d="M764.81 914.133C21.1733 2017.23 -922.131 7.25288 -73.4762 -289.723C328.518 -430.368 534.833 -1413.55 920.077 -1209.9C1304.79 -1007.84 1290.17 -570.215 1310.91 -116.11C1336.69 446.735 978.569 596.951 764.81 914.133Z" stroke="#EF4FCC" stroke-width="3.72217" stroke-miterlimit="10"/>
<path opacity="0.7" d="M785.281 930.085C42.9741 1940.65 -917.08 89.6719 -93.4169 -293.18C288.106 -470.515 588.006 -1421.26 951.715 -1189.69C1315.16 -959.714 1339.62 -529.272 1322.34 -91.651C1301.07 448.596 1007.02 628.057 785.281 930.085Z" stroke="#F05DD0" stroke-width="3.72217" stroke-miterlimit="10"/>
<path opacity="0.6" d="M806.018 945.771C67.6993 1864.88 -911.763 174.484 -113.358 -296.37C247.693 -509.598 640.914 -1429.24 983.619 -1169.49C1325.79 -911.858 1389.07 -488.594 1333.5 -67.457C1265.44 450.191 1036 659.164 806.018 945.771Z" stroke="#F16CD4" stroke-width="3.72217" stroke-miterlimit="10"/>
<path opacity="0.6" d="M826.49 961.456C95.3498 1790.44 -905.382 261.157 -133.298 -299.828C207.812 -547.618 693.821 -1437.22 1015.52 -1149.28C1336.16 -864.002 1438.52 -447.917 1344.94 -42.9979C1230.35 451.519 1065.77 690.27 826.49 961.456Z" stroke="#F37BD9" stroke-width="3.72217" stroke-miterlimit="10"/>
<path opacity="0.5" d="M846.962 977.408C125.925 1717.32 -897.938 349.425 -153.238 -303.284C168.464 -585.106 746.996 -1444.93 1047.16 -1129.07C1346.8 -815.88 1488.51 -407.239 1356.1 -18.5384C1195.52 453.114 1096.08 721.642 846.962 977.408Z" stroke="#F48ADD" stroke-width="3.72217" stroke-miterlimit="10"/>
<path opacity="0.4" d="M867.701 993.096C159.425 1646.07 -888.897 439.024 -173.177 -306.74C129.648 -622.061 799.904 -1452.9 1079.07 -1108.87C1357.17 -768.023 1538.76 -366.56 1367.54 5.65699C1160.95 454.71 1127.46 753.547 867.701 993.096Z" stroke="#F598E1" stroke-width="3.72217" stroke-miterlimit="10"/>
<path opacity="0.4" d="M888.175 1008.78C195.851 1577.21 -877.995 529.154 -193.116 -309.93C91.6302 -658.751 852.814 -1460.88 1110.71 -1088.66C1367.8 -720.166 1589.27 -325.882 1378.7 30.117C1126.66 456.306 1159.63 785.983 888.175 1008.78Z" stroke="#F7A7E5" stroke-width="3.72217" stroke-miterlimit="10"/>
<path opacity="0.3" d="M908.645 1024.47C234.933 1511.28 -865.766 619.815 -213.057 -313.386C54.1415 -695.44 905.987 -1468.85 1142.61 -1068.46C1378.44 -672.044 1639.79 -284.672 1390.13 54.3112C1092.63 458.433 1192.86 819.483 908.645 1024.47Z" stroke="#F8B6EA" stroke-width="3.72217" stroke-miterlimit="10"/>
<path opacity="0.3" d="M929.383 1040.42C275.611 1448.53 -851.675 710.211 -232.732 -316.843C17.4514 -732.13 958.894 -1476.56 1174.25 -1048.25C1388.81 -624.188 1690.57 -243.463 1401.3 78.7711C1058.6 460.56 1226.89 854.578 929.383 1040.42Z" stroke="#FAC4EE" stroke-width="3.72217" stroke-miterlimit="10"/>
<path opacity="0.2" d="M949.857 1056.1C317.62 1389.5 -836.519 800.603 -252.67 -320.302C-18.971 -769.089 1011.8 -1484.54 1206.15 -1028.05C1399.44 -576.334 1741.08 -201.99 1412.74 102.962C1024.57 463.215 1261.72 891.796 949.857 1056.1Z" stroke="#FBD3F2" stroke-width="3.72217" stroke-miterlimit="10"/>
<path opacity="0.1" d="M970.593 1071.79C359.359 1334.47 -820.303 890.204 -272.612 -323.49C-55.1311 -806.043 1064.71 -1492.52 1238.06 -1007.84C1409.81 -528.209 1791.86 -160.246 1423.9 127.425C990.799 466.142 1297.35 931.679 970.593 1071.79Z" stroke="#FCE2F7" stroke-width="3.72217" stroke-miterlimit="10"/>
<path opacity="0.1" d="M991.064 1087.74C399.771 1283.42 -803.288 979.536 -292.553 -326.946C-90.758 -843.53 1117.88 -1500.23 1269.7 -987.631C1420.44 -480.353 1842.38 -118.239 1435.33 151.885C956.501 469.067 1332.71 974.75 991.064 1087.74Z" stroke="#FEF0FB" stroke-width="3.72217" stroke-miterlimit="10"/>
<path opacity="0.1" d="M-135.159 520.912C-1646.36 285.618 104.39 -1699.1 615.922 -791.685C867.966 -345.024 1849.56 -776.264 1898.74 -255.16C1948.46 265.678 1490.37 361.657 1080.4 674.851C569.661 1064.88 275.609 584.987 -135.159 520.912Z" stroke="#F83BFF" stroke-width="3.72217" stroke-miterlimit="10"/>
<path opacity="0.1" d="M-141.008 549.888C-1566.07 270.991 34.9973 -1656.83 610.338 -814.554C890.033 -405.381 1880.13 -722.829 1893.96 -212.36C1908.58 297.312 1473.35 432.107 1062.85 697.179C552.113 1027.39 258.859 628.053 -141.008 549.888Z" stroke="#F949FF" stroke-width="3.72217" stroke-miterlimit="10"/>
<path opacity="0.1" d="M-146.589 578.602C-1484.71 259.293 -36.2535 -1615.09 605.023 -837.152C911.039 -465.998 1910.44 -669.654 1888.91 -169.554C1868.7 329.217 1456.6 502.298 1045.3 719.779C534.568 989.902 242.377 671.391 -146.589 578.602Z" stroke="#F957FF" stroke-width="3.72217" stroke-miterlimit="10"/>
<path opacity="0.1" d="M-152.175 607.319C-1402.82 250.788 -109.636 -1573.34 599.438 -860.014C930.977 -526.348 1940.75 -616.212 1884.12 -127.013C1828.82 361.124 1440.38 572.49 1027.49 742.38C517.55 952.417 226.423 715.527 -152.175 607.319Z" stroke="#FA65FF" stroke-width="3.72217" stroke-miterlimit="10"/>
<path opacity="0.1" d="M-158.024 636.3C-1320.94 245.738 -184.876 -1531.07 593.855 -882.877C950.12 -586.433 1971.06 -563.036 1879.07 -84.2055C1788.94 393.03 1424.16 642.947 1009.94 764.981C500.801 914.931 211.003 760.195 -158.024 636.3Z" stroke="#FA73FF" stroke-width="3.72217" stroke-miterlimit="10"/>
<path opacity="0.2" d="M-163.609 665.009C-1238.78 244.138 -261.98 -1487.2 588.536 -905.747C968.463 -645.726 2001.37 -509.601 1874.28 -41.4054C1749.06 424.929 1408.21 713.663 992.125 787.575C484.315 877.971 195.581 805.654 -163.609 665.009Z" stroke="#FB81FF" stroke-width="3.72217" stroke-miterlimit="10"/>
<path opacity="0.2" d="M-169.191 693.989C-1157.16 246.531 -340.145 -1441.74 582.953 -928.345C986.011 -704.217 2031.67 -456.161 1869.23 1.39981C1709.18 456.834 1392.26 784.651 974.579 810.174C467.832 841.281 180.161 852.182 -169.191 693.989Z" stroke="#FB8FFF" stroke-width="3.72217" stroke-miterlimit="10"/>
<path opacity="0.2" d="M-175.038 722.703C-1076.6 252.646 -419.372 -1394.15 577.372 -951.21C1003.29 -761.911 2061.99 -402.988 1864.45 43.9387C1669.3 488.738 1376.58 855.904 956.768 832.773C451.616 804.857 164.477 899.506 -175.038 722.703Z" stroke="#FC9DFF" stroke-width="3.72217" stroke-miterlimit="10"/>
<path opacity="0.3" d="M-180.623 751.42C-997.639 262.752 -498.868 -1344.43 571.787 -974.072C1020.57 -818.804 2092.29 -349.545 1859.39 86.7469C1629.42 520.646 1360.62 927.426 939.219 855.375C435.13 768.968 148.523 948.429 -180.623 751.42Z" stroke="#FCABFF" stroke-width="3.72217" stroke-miterlimit="10"/>
<path opacity="0.3" d="M-186.473 780.399C-920.538 276.045 -578.364 -1292.85 566.469 -996.671C1037.86 -874.903 2122.6 -296.371 1854.61 129.551C1589.53 552.55 1344.67 999.476 921.671 877.974C418.646 733.607 131.507 998.678 -186.473 780.399Z" stroke="#FDB9FF" stroke-width="3.72217" stroke-miterlimit="10"/>
<path opacity="0.3" d="M-192.054 809.112C-846.358 292.262 -657.059 -1239.41 560.888 -1019.54C1055.4 -930.205 2152.91 -242.933 1849.56 172.355C1549.66 584.453 1328.45 1071.53 903.859 900.571C401.632 698.245 113.164 1050.26 -192.054 809.112Z" stroke="#FDC7FF" stroke-width="3.72217" stroke-miterlimit="10"/>
<path opacity="0.3" d="M-197.638 838.091C-775.372 310.341 -734.694 -1184.64 555.304 -1042.4C1073.48 -985.241 2183.22 -189.494 1844.77 214.894C1510.04 616.356 1311.97 1143.84 886.312 923.169C384.616 662.883 93.2233 1103.69 -197.638 838.091Z" stroke="#FED5FF" stroke-width="3.72217" stroke-miterlimit="10"/>
<path opacity="0.3" d="M-203.489 866.805C-708.375 329.749 -811.532 -1128.81 549.719 -1065.27C1091.83 -1039.74 2213.53 -136.319 1839.72 257.699C1470.16 648.261 1295.22 1215.89 868.496 945.503C367.067 627.789 70.6224 1158.2 -203.489 866.805Z" stroke="#FEE3FF" stroke-width="3.72217" stroke-miterlimit="10"/>
<path opacity="0.4" d="M-209.068 895.519C-645.36 348.891 -887.567 -1072.18 544.405 -1087.87C1110.71 -1094.25 2243.84 -82.8804 1834.93 300.503C1430.28 680.164 1278.2 1288.21 850.953 968.101C349.257 592.428 45.1028 1214.03 -209.068 895.519Z" stroke="#FFF1FF" stroke-width="3.72217" stroke-miterlimit="10"/>
<path opacity="0.4" d="M-214.654 924.502C-587.137 366.176 -962.544 -1015.28 538.82 -1110.73C1130.11 -1148.22 2274.15 -29.7034 1829.88 343.311C1390.4 712.072 1260.92 1360.26 833.403 990.703C331.441 557.07 15.8548 1270.13 -214.654 924.502Z" stroke="white" stroke-width="3.72217" stroke-miterlimit="10"/>
</g>
</g>
<defs>
<clipPath id="clip0_344_3140">
<rect width="1440" height="13479" fill="white"/>
</clipPath>
</defs>
</svg>
