<svg width="1440" height="3919" viewBox="0 0 1440 3919" fill="none" xmlns="http://www.w3.org/2000/svg">
<g clip-path="url(#clip0_341_2)">
<rect width="1440" height="3919" fill="#0C121D"/>
<g opacity="0.75">
<path opacity="0.1" d="M993.703 83.5742C1944.19 475.466 518.063 1579.09 314.939 875.333C214.972 528.374 -487.455 676.729 -444.384 309.563C-401.845 -57.3366 -89.1827 -53.8803 222.948 -207.553C612.18 -399.245 734.746 -23.3053 993.703 83.5742Z" stroke="#FCE7DF" stroke-width="3.72217" stroke-miterlimit="10"/>
<path opacity="0.1" d="M1001.41 64.4332C1889.15 473.074 569.111 1560.21 315.205 891.819C191.842 566.66 -499.418 635.521 -435.078 280.851C-371.269 -73.2871 -68.1781 -99.874 237.572 -220.579C618.296 -370.529 751.497 -50.4223 1001.41 64.4332Z" stroke="#FADBCF" stroke-width="3.72217" stroke-miterlimit="10"/>
<path opacity="0.1" d="M1009.39 45.5542C1834.12 468.286 621.488 1541.87 315.738 908.3C169.244 604.943 -511.647 594.043 -425.772 252.135C-340.693 -89.2415 -47.1737 -145.872 252.461 -233.343C624.146 -342.083 768.248 -78.075 1009.39 45.5542Z" stroke="#F8D0BF" stroke-width="3.72217" stroke-miterlimit="10"/>
<path opacity="0.2" d="M1017.1 26.4144C1779.08 461.377 674.924 1524.06 316 925.053C147.173 643.497 -523.615 552.57 -416.47 223.424C-310.122 -105.191 -26.4393 -191.864 267.08 -246.367C629.992 -313.632 784.728 -106.254 1017.1 26.4144Z" stroke="#F7C4AF" stroke-width="3.72217" stroke-miterlimit="10"/>
<path opacity="0.2" d="M1025.08 7.5353C1724.58 452.069 729.962 1505.97 316.269 941.534C126.173 682.046 -535.842 511.092 -406.895 194.707C-279.544 -121.146 -5.6987 -238.128 281.972 -259.132C635.578 -285.187 801.215 -134.705 1025.08 7.5353Z" stroke="#F5B89F" stroke-width="3.72217" stroke-miterlimit="10"/>
<path opacity="0.3" d="M1032.79 -11.6079C1670.61 440.104 786.325 1487.63 316.534 958.018C105.7 720.33 -547.807 469.616 -397.591 165.993C-248.97 -137.098 14.7724 -284.39 296.594 -272.16C640.894 -257.005 817.698 -163.951 1032.79 -11.6079Z" stroke="#F3AC8F" stroke-width="3.72217" stroke-miterlimit="10"/>
<path opacity="0.3" d="M1040.76 -30.7503C1617.7 425.747 843.754 1468.22 316.801 974.767C85.7605 758.084 -560.036 428.406 -388.285 137.279C-218.394 -153.05 35.2453 -330.917 311.484 -284.921C646.213 -229.355 834.448 -193.728 1040.76 -30.7503Z" stroke="#F2A080" stroke-width="3.72217" stroke-miterlimit="10"/>
<path opacity="0.3" d="M1048.47 -49.6264C1566.39 408.998 902.245 1447.48 317.067 991.252C66.0862 795.306 -572 386.931 -378.979 108.3C-187.819 -169.002 55.7174 -377.709 326.106 -297.948C651.53 -201.704 851.198 -224.303 1048.47 -49.6264Z" stroke="#F09470" stroke-width="3.72217" stroke-miterlimit="10"/>
<path opacity="0.4" d="M1056.45 -68.77C1516.4 390.12 961.266 1425.68 317.597 1007.73C46.6761 831.995 -584.232 345.454 -369.675 79.585C-157.246 -184.955 76.4534 -424.769 340.993 -310.711C657.112 -174.586 868.744 -255.676 1056.45 -68.77Z" stroke="#EE8860" stroke-width="3.72217" stroke-miterlimit="10"/>
<path opacity="0.4" d="M1064.16 -87.6431C1468.55 369.386 1020.56 1402.29 317.865 1024.22C27.5356 868.157 -596.194 303.982 -360.368 50.8748C-126.668 -200.903 97.1934 -472.09 355.618 -323.735C662.697 -147.464 887.091 -287.843 1064.16 -87.6431Z" stroke="#EC7C50" stroke-width="3.72217" stroke-miterlimit="10"/>
<path opacity="0.5" d="M1072.14 -106.789C1422.82 347.05 1079.85 1377.56 318.13 1040.97C8.12648 903.781 -608.424 262.504 -350.797 22.1579C-96.0944 -216.859 118.196 -519.418 370.506 -336.5C668.811 -120.614 906.764 -320.814 1072.14 -106.789Z" stroke="#EB7140" stroke-width="3.72217" stroke-miterlimit="10"/>
<path opacity="0.5" d="M1079.84 -125.665C1379.74 324.185 1138.87 1351.77 318.395 1057.45C-11.2834 939.141 -620.39 221.028 -341.493 -6.55601C-65.5207 -232.545 139.464 -566.743 385.128 -349.527C674.925 -93.7612 927.767 -354.313 1079.84 -125.665Z" stroke="#E96530" stroke-width="3.72217" stroke-miterlimit="10"/>
<path opacity="0.5" d="M1087.82 -144.807C1339.07 301.322 1197.09 1325.18 318.662 1073.94C-31.2222 973.972 -632.619 179.82 -332.186 -35.2683C-34.9443 -248.496 160.736 -613.8 400.018 -362.288C681.308 -66.6409 950.633 -388.343 1087.82 -144.807Z" stroke="#E75920" stroke-width="3.72217" stroke-miterlimit="10"/>
<path opacity="0.6" d="M1095.53 -163.948C1301.32 279.256 1255.05 1297.54 319.194 1090.69C-51.1615 1008.8 -644.848 138.345 -322.88 -63.9817C-4.36853 -264.447 182.272 -661.124 414.907 -375.315C687.955 -39.5216 975.625 -422.639 1095.53 -163.948Z" stroke="#E64D10" stroke-width="3.72217" stroke-miterlimit="10"/>
<path opacity="0.6" d="M1103.51 -182.827C1265.95 259.047 1312.21 1269.62 319.459 1107.17C-71.6347 1043.1 -656.813 96.8671 -313.576 -92.9636C26.2051 -280.401 203.806 -708.185 429.529 -388.079C694.6 -12.4052 1002.74 -456.673 1103.51 -182.827Z" stroke="#E44100" stroke-width="3.72217" stroke-miterlimit="10"/>
<path d="M572.301 1144.13C-152.725 2618.11 -1063.06 -13.4677 -103.805 16.8414C376.355 31.9959 212.846 -1088.91 682.902 -997.716C1152.69 -906.523 983.867 -442.049 1155.62 79.5865C1370.44 730.966 759.739 763.137 572.301 1144.13Z" stroke="#E914BB" stroke-width="3.72217" stroke-miterlimit="10"/>
<path opacity="0.9" d="M593.039 1159.81C-139.697 2541.27 -1053.22 63.1015 -123.744 13.3839C337.805 -11.3419 265.754 -1096.62 714.541 -977.511C1163.06 -858.667 1033.85 -400.84 1167.05 103.78C1335.35 733.092 786.326 795.305 593.039 1159.81Z" stroke="#EA23BF" stroke-width="3.72217" stroke-miterlimit="10"/>
<path opacity="0.9" d="M613.51 1175.77C-125.075 2464.17 -1044.98 140.737 -143.686 9.92913C298.721 -54.1454 318.927 -1104.6 746.445 -957.304C1173.7 -810.544 1081.97 -359.363 1178.22 128.241C1298.39 735.752 813.444 826.946 613.51 1175.77Z" stroke="#EC31C3" stroke-width="3.72217" stroke-miterlimit="10"/>
<path opacity="0.8" d="M633.982 1191.45C-108.059 2387.07 -1038.07 219.7 -163.625 6.73852C258.841 -96.1529 371.835 -1112.57 778.084 -937.098C1184.07 -762.687 1130.89 -318.154 1189.65 152.701C1262.5 737.879 840.829 858.584 633.982 1191.45Z" stroke="#ED40C8" stroke-width="3.72217" stroke-miterlimit="10"/>
<path opacity="0.7" d="M654.72 1207.14C-88.9161 2310.23 -1032.22 300.259 -183.566 3.28265C218.429 -137.362 424.744 -1120.55 809.988 -916.891C1194.7 -714.831 1180.08 -277.21 1200.82 176.895C1226.61 739.741 868.479 889.957 654.72 1207.14Z" stroke="#EF4FCC" stroke-width="3.72217" stroke-miterlimit="10"/>
<path opacity="0.7" d="M675.192 1223.09C-67.1153 2233.66 -1027.17 382.678 -203.506 -0.174139C178.016 -177.509 477.917 -1128.26 841.626 -896.686C1205.07 -666.709 1229.53 -236.266 1212.25 201.355C1190.98 741.601 896.927 921.063 675.192 1223.09Z" stroke="#F05DD0" stroke-width="3.72217" stroke-miterlimit="10"/>
<path opacity="0.6" d="M695.929 1238.78C-42.3898 2157.89 -1021.85 467.49 -223.447 -3.36462C137.604 -216.592 530.824 -1136.23 873.53 -876.479C1215.7 -618.852 1278.98 -195.588 1223.41 225.549C1155.35 743.196 925.906 952.17 695.929 1238.78Z" stroke="#F16CD4" stroke-width="3.72217" stroke-miterlimit="10"/>
<path opacity="0.6" d="M716.401 1254.46C-14.7401 2083.44 -1015.47 554.162 -243.388 -6.82191C97.7226 -254.612 583.732 -1144.21 905.434 -856.274C1226.07 -570.997 1328.43 -154.911 1234.85 250.008C1120.26 744.525 955.683 983.276 716.401 1254.46Z" stroke="#F37BD9" stroke-width="3.72217" stroke-miterlimit="10"/>
<path opacity="0.5" d="M736.872 1270.41C15.8348 2010.33 -1008.03 642.431 -263.328 -10.2785C58.3739 -292.1 636.906 -1151.92 937.072 -836.069C1236.71 -522.875 1378.41 -114.233 1246.01 274.467C1085.43 746.12 985.992 1014.65 736.872 1270.41Z" stroke="#F48ADD" stroke-width="3.72217" stroke-miterlimit="10"/>
<path opacity="0.4" d="M757.611 1286.1C49.3354 1939.08 -998.987 732.03 -283.267 -13.7336C19.558 -329.055 689.815 -1159.9 968.977 -815.861C1247.08 -475.017 1428.67 -73.5543 1257.45 298.663C1050.87 747.716 1017.37 1046.55 757.611 1286.1Z" stroke="#F598E1" stroke-width="3.72217" stroke-miterlimit="10"/>
<path opacity="0.4" d="M778.085 1301.79C85.7615 1870.22 -988.085 822.16 -303.205 -16.9241C-18.4594 -365.745 742.724 -1167.87 1000.62 -795.655C1257.71 -427.161 1479.18 -32.8762 1268.61 323.123C1016.57 749.311 1049.54 1078.99 778.085 1301.79Z" stroke="#F7A7E5" stroke-width="3.72217" stroke-miterlimit="10"/>
<path opacity="0.3" d="M798.556 1317.47C124.843 1804.28 -975.856 912.821 -323.147 -20.3803C-55.9481 -402.435 795.897 -1175.85 1032.52 -775.449C1268.35 -379.038 1529.7 8.3336 1280.05 347.317C982.537 751.439 1082.77 1112.49 798.556 1317.47Z" stroke="#F8B6EA" stroke-width="3.72217" stroke-miterlimit="10"/>
<path opacity="0.3" d="M819.293 1333.43C165.521 1741.54 -961.765 1003.22 -342.821 -23.8367C-92.6384 -439.125 848.805 -1183.56 1064.16 -755.243C1278.72 -331.182 1580.48 49.5433 1291.21 371.777C948.506 753.565 1116.8 1147.58 819.293 1333.43Z" stroke="#FAC4EE" stroke-width="3.72217" stroke-miterlimit="10"/>
<path opacity="0.2" d="M839.767 1349.11C207.53 1682.51 -946.608 1093.61 -362.759 -27.2962C-129.06 -476.084 901.715 -1191.54 1096.07 -735.04C1289.35 -283.328 1630.99 91.0156 1302.65 395.968C914.477 756.221 1151.63 1184.8 839.767 1349.11Z" stroke="#FBD3F2" stroke-width="3.72217" stroke-miterlimit="10"/>
<path opacity="0.1" d="M860.503 1364.8C249.27 1627.48 -930.392 1183.21 -382.702 -30.4841C-165.22 -513.037 954.621 -1199.51 1127.97 -714.832C1299.72 -235.203 1681.77 132.76 1313.81 420.43C880.709 759.148 1187.26 1224.69 860.503 1364.8Z" stroke="#FCE2F7" stroke-width="3.72217" stroke-miterlimit="10"/>
<path opacity="0.1" d="M880.974 1380.75C289.681 1576.43 -913.377 1272.54 -402.643 -33.94C-200.848 -550.524 1007.79 -1207.22 1159.61 -694.625C1310.35 -187.347 1732.29 174.767 1325.24 444.891C846.411 762.073 1222.62 1267.76 880.974 1380.75Z" stroke="#FEF0FB" stroke-width="3.72217" stroke-miterlimit="10"/>
<path opacity="0.1" d="M-245.249 813.918C-1756.45 578.624 -5.70027 -1406.09 505.832 -498.679C757.876 -52.0184 1739.47 -483.258 1788.65 37.8456C1838.37 558.684 1380.28 654.662 970.306 967.857C459.571 1357.89 165.519 877.993 -245.249 813.918Z" stroke="#F83BFF" stroke-width="3.72217" stroke-miterlimit="10"/>
<path opacity="0.1" d="M-251.098 842.894C-1676.16 563.997 -75.092 -1363.82 500.249 -521.548C779.944 -112.375 1770.04 -429.823 1783.87 80.6461C1798.49 590.318 1363.26 725.113 952.758 990.185C442.024 1320.39 148.77 921.059 -251.098 842.894Z" stroke="#F949FF" stroke-width="3.72217" stroke-miterlimit="10"/>
<path opacity="0.1" d="M-256.679 871.608C-1594.8 552.299 -146.344 -1322.08 494.933 -544.146C800.949 -172.992 1800.35 -376.648 1778.82 123.452C1758.61 622.223 1346.51 795.304 935.213 1012.78C424.478 1282.91 132.287 964.397 -256.679 871.608Z" stroke="#F957FF" stroke-width="3.72217" stroke-miterlimit="10"/>
<path opacity="0.1" d="M-262.265 900.325C-1512.91 543.794 -219.726 -1280.34 489.348 -567.008C820.887 -233.342 1830.66 -323.206 1774.03 165.993C1718.73 654.129 1330.29 865.496 917.397 1035.39C407.46 1245.42 116.333 1008.53 -262.265 900.325Z" stroke="#FA65FF" stroke-width="3.72217" stroke-miterlimit="10"/>
<path opacity="0.1" d="M-268.114 929.306C-1431.03 538.744 -294.967 -1238.06 483.764 -589.871C840.029 -293.427 1860.97 -270.03 1768.98 208.8C1678.85 686.036 1314.07 935.953 899.85 1057.99C390.71 1207.94 100.913 1053.2 -268.114 929.306Z" stroke="#FA73FF" stroke-width="3.72217" stroke-miterlimit="10"/>
<path opacity="0.2" d="M-273.698 958.015C-1348.87 537.144 -372.07 -1194.2 478.446 -612.741C858.373 -352.721 1891.28 -216.595 1764.19 251.6C1638.97 717.935 1298.12 1006.67 882.036 1080.58C374.225 1170.98 85.4913 1098.66 -273.698 958.015Z" stroke="#FB81FF" stroke-width="3.72217" stroke-miterlimit="10"/>
<path opacity="0.2" d="M-279.282 986.995C-1267.25 539.537 -450.236 -1148.73 472.863 -635.339C875.921 -411.211 1921.58 -163.155 1759.14 294.406C1599.09 749.84 1282.17 1077.66 864.488 1103.18C357.741 1134.29 70.0707 1145.19 -279.282 986.995Z" stroke="#FB8FFF" stroke-width="3.72217" stroke-miterlimit="10"/>
<path opacity="0.2" d="M-285.128 1015.71C-1186.69 545.652 -529.462 -1101.14 467.282 -658.204C893.204 -468.905 1951.9 -109.982 1754.35 336.945C1559.21 781.744 1266.48 1148.91 846.677 1125.78C341.526 1097.86 54.3866 1192.51 -285.128 1015.71Z" stroke="#FC9DFF" stroke-width="3.72217" stroke-miterlimit="10"/>
<path opacity="0.3" d="M-290.713 1044.43C-1107.73 555.758 -608.958 -1051.42 461.698 -681.066C910.485 -525.798 1982.2 -56.5389 1749.3 379.753C1519.33 813.652 1250.53 1220.43 829.129 1148.38C325.041 1061.97 38.4336 1241.44 -290.713 1044.43Z" stroke="#FCABFF" stroke-width="3.72217" stroke-miterlimit="10"/>
<path opacity="0.3" d="M-296.562 1073.41C-1030.63 569.051 -688.454 -999.844 456.379 -703.665C927.766 -581.897 2012.51 -3.36542 1744.52 422.557C1479.44 845.555 1234.58 1292.48 811.581 1170.98C308.556 1026.61 21.4173 1291.68 -296.562 1073.41Z" stroke="#FDB9FF" stroke-width="3.72217" stroke-miterlimit="10"/>
<path opacity="0.3" d="M-302.144 1102.12C-956.448 585.268 -767.149 -946.405 450.798 -726.531C945.315 -637.199 2042.82 50.0732 1739.47 465.361C1439.57 877.459 1218.36 1364.53 793.77 1193.58C291.543 991.251 3.07438 1343.26 -302.144 1102.12Z" stroke="#FDC7FF" stroke-width="3.72217" stroke-miterlimit="10"/>
<path opacity="0.3" d="M-307.728 1131.1C-885.462 603.346 -844.784 -891.637 445.214 -749.397C963.393 -692.235 2073.13 103.512 1734.68 507.899C1399.95 909.362 1201.88 1436.85 776.221 1216.18C274.526 955.889 -16.8667 1396.7 -307.728 1131.1Z" stroke="#FED5FF" stroke-width="3.72217" stroke-miterlimit="10"/>
<path opacity="0.3" d="M-313.579 1159.81C-818.465 622.755 -921.622 -835.804 439.629 -772.261C981.736 -746.738 2103.44 156.686 1729.63 550.705C1360.07 941.267 1185.13 1508.9 758.406 1238.51C256.976 920.795 -39.468 1451.2 -313.579 1159.81Z" stroke="#FEE3FF" stroke-width="3.72217" stroke-miterlimit="10"/>
<path opacity="0.4" d="M-319.159 1188.52C-755.45 641.897 -997.657 -779.174 434.315 -794.861C1000.62 -801.241 2133.75 210.125 1724.84 593.509C1320.19 973.17 1168.11 1581.21 740.862 1261.11C239.167 885.434 -64.9876 1507.04 -319.159 1188.52Z" stroke="#FFF1FF" stroke-width="3.72217" stroke-miterlimit="10"/>
<path opacity="0.4" d="M-324.744 1217.51C-697.227 659.182 -1072.63 -722.275 428.73 -817.723C1020.02 -855.21 2164.06 263.302 1719.79 636.317C1280.31 1005.08 1150.83 1653.27 723.313 1283.71C221.352 850.076 -94.2351 1563.14 -324.744 1217.51Z" stroke="white" stroke-width="3.72217" stroke-miterlimit="10"/>
</g>
<g opacity="0.75">
<path opacity="0.1" d="M1741.79 2409.57C2692.28 2801.46 1266.15 3905.08 1063.03 3201.33C963.062 2854.37 260.635 3002.72 303.706 2635.56C346.245 2268.66 658.907 2272.11 971.038 2118.44C1360.27 1926.75 1482.84 2302.69 1741.79 2409.57Z" stroke="#FCE7DF" stroke-width="3.72217" stroke-miterlimit="10"/>
<path opacity="0.1" d="M1749.5 2390.43C2637.24 2799.07 1317.2 3886.21 1063.3 3217.81C939.932 2892.65 248.672 2961.51 313.012 2606.84C376.821 2252.71 679.912 2226.12 985.661 2105.42C1366.39 1955.47 1499.59 2275.57 1749.5 2390.43Z" stroke="#FADBCF" stroke-width="3.72217" stroke-miterlimit="10"/>
<path opacity="0.1" d="M1757.48 2371.55C2582.21 2794.28 1369.58 3867.86 1063.83 3234.29C917.334 2930.94 236.443 2920.04 322.318 2578.13C407.396 2236.75 700.916 2180.12 1000.55 2092.65C1372.24 1983.91 1516.34 2247.92 1757.48 2371.55Z" stroke="#F8D0BF" stroke-width="3.72217" stroke-miterlimit="10"/>
<path opacity="0.2" d="M1765.19 2352.41C2527.17 2787.37 1423.01 3850.05 1064.09 3251.05C895.263 2969.49 224.475 2878.56 331.62 2549.42C437.968 2220.8 721.651 2134.13 1015.17 2079.63C1378.08 2012.36 1532.82 2219.74 1765.19 2352.41Z" stroke="#F7C4AF" stroke-width="3.72217" stroke-miterlimit="10"/>
<path opacity="0.2" d="M1773.17 2333.53C2472.67 2778.06 1478.05 3831.97 1064.36 3267.53C874.262 3008.04 212.248 2837.09 341.194 2520.7C468.546 2204.85 742.391 2087.87 1030.06 2066.86C1383.67 2040.81 1549.3 2191.29 1773.17 2333.53Z" stroke="#F5B89F" stroke-width="3.72217" stroke-miterlimit="10"/>
<path opacity="0.3" d="M1780.88 2314.39C2418.7 2766.1 1534.41 3813.62 1064.62 3284.01C853.79 3046.32 200.283 2795.61 350.499 2491.99C499.12 2188.9 762.862 2041.6 1044.68 2053.83C1388.98 2068.99 1565.79 2162.04 1780.88 2314.39Z" stroke="#F3AC8F" stroke-width="3.72217" stroke-miterlimit="10"/>
<path opacity="0.3" d="M1788.85 2295.24C2365.79 2751.74 1591.84 3794.22 1064.89 3300.76C833.85 3084.08 188.054 2754.4 359.805 2463.27C529.696 2172.94 783.335 1995.08 1059.57 2041.07C1394.3 2096.64 1582.54 2132.27 1788.85 2295.24Z" stroke="#F2A080" stroke-width="3.72217" stroke-miterlimit="10"/>
<path opacity="0.3" d="M1796.56 2276.37C2314.48 2734.99 1650.33 3773.48 1065.16 3317.25C814.176 3121.3 176.09 2712.93 369.111 2434.29C560.271 2156.99 803.807 1948.28 1074.2 2028.05C1399.62 2124.29 1599.29 2101.69 1796.56 2276.37Z" stroke="#F09470" stroke-width="3.72217" stroke-miterlimit="10"/>
<path opacity="0.4" d="M1804.54 2257.22C2264.49 2716.11 1709.36 3751.68 1065.69 3333.73C794.766 3157.99 163.858 2671.45 378.415 2405.58C590.844 2141.04 824.543 1901.23 1089.08 2015.28C1405.2 2151.41 1616.83 2070.32 1804.54 2257.22Z" stroke="#EE8860" stroke-width="3.72217" stroke-miterlimit="10"/>
<path opacity="0.4" d="M1812.25 2238.35C2216.64 2695.38 1768.65 3728.28 1065.95 3350.22C775.625 3194.15 151.896 2629.98 387.722 2376.87C621.421 2125.09 845.283 1853.9 1103.71 2002.26C1410.79 2178.53 1635.18 2038.15 1812.25 2238.35Z" stroke="#EC7C50" stroke-width="3.72217" stroke-miterlimit="10"/>
<path opacity="0.5" d="M1820.22 2219.21C2170.91 2673.04 1827.94 3703.55 1066.22 3366.96C756.216 3229.77 139.665 2588.5 397.293 2348.15C651.995 2109.14 866.286 1806.58 1118.6 1989.49C1416.9 2205.38 1654.85 2005.18 1820.22 2219.21Z" stroke="#EB7140" stroke-width="3.72217" stroke-miterlimit="10"/>
<path opacity="0.5" d="M1827.93 2200.33C2127.83 2650.18 1886.96 3677.76 1066.48 3383.45C736.806 3265.14 127.7 2547.02 406.597 2319.44C682.569 2093.45 887.554 1759.25 1133.22 1976.47C1423.02 2232.23 1675.86 1971.68 1827.93 2200.33Z" stroke="#E96530" stroke-width="3.72217" stroke-miterlimit="10"/>
<path opacity="0.5" d="M1835.91 2181.19C2087.16 2627.32 1945.18 3651.18 1066.75 3399.93C716.868 3299.97 115.471 2505.81 415.904 2290.73C713.145 2077.5 908.825 1712.19 1148.11 1963.71C1429.4 2259.35 1698.72 1937.65 1835.91 2181.19Z" stroke="#E75920" stroke-width="3.72217" stroke-miterlimit="10"/>
<path opacity="0.6" d="M1843.62 2162.05C2049.41 2605.25 2003.14 3623.53 1067.28 3416.68C696.928 3334.8 103.242 2464.34 425.21 2262.01C743.721 2061.55 930.362 1664.87 1163 1950.68C1436.04 2286.47 1723.72 1903.35 1843.62 2162.05Z" stroke="#E64D10" stroke-width="3.72217" stroke-miterlimit="10"/>
<path opacity="0.6" d="M1851.6 2143.17C2014.04 2585.04 2060.3 3595.61 1067.55 3433.16C676.455 3369.09 91.2768 2422.86 434.514 2233.03C774.295 2045.59 951.896 1617.81 1177.62 1937.92C1442.69 2313.59 1750.83 1869.32 1851.6 2143.17Z" stroke="#E44100" stroke-width="3.72217" stroke-miterlimit="10"/>
<path d="M1320.39 3470.12C595.365 4944.1 -314.971 2312.53 644.285 2342.84C1124.45 2357.99 960.935 1237.08 1430.99 1328.28C1900.78 1419.47 1731.96 1883.94 1903.71 2405.58C2118.53 3056.96 1507.83 3089.13 1320.39 3470.12Z" stroke="#E914BB" stroke-width="3.72217" stroke-miterlimit="10"/>
<path opacity="0.9" d="M1341.13 3485.81C608.393 4867.26 -305.134 2389.1 624.345 2339.38C1085.89 2314.65 1013.84 1229.37 1462.63 1348.48C1911.15 1467.33 1781.94 1925.15 1915.14 2429.77C2083.44 3059.09 1534.42 3121.3 1341.13 3485.81Z" stroke="#EA23BF" stroke-width="3.72217" stroke-miterlimit="10"/>
<path opacity="0.9" d="M1361.6 3501.76C623.015 4790.16 -296.893 2466.73 604.404 2335.92C1046.81 2271.85 1067.02 1221.4 1494.53 1368.69C1921.79 1515.45 1830.06 1966.63 1926.31 2454.24C2046.48 3061.75 1561.53 3152.94 1361.6 3501.76Z" stroke="#EC31C3" stroke-width="3.72217" stroke-miterlimit="10"/>
<path opacity="0.8" d="M1382.07 3517.45C640.031 4713.06 -289.98 2545.69 584.464 2332.73C1006.93 2229.84 1119.93 1213.42 1526.17 1388.9C1932.16 1563.31 1878.98 2007.84 1937.74 2478.69C2010.59 3063.87 1588.92 3184.58 1382.07 3517.45Z" stroke="#ED40C8" stroke-width="3.72217" stroke-miterlimit="10"/>
<path opacity="0.7" d="M1402.81 3533.13C659.174 4636.23 -284.13 2626.25 564.524 2329.28C966.519 2188.63 1172.83 1205.45 1558.08 1409.1C1942.79 1611.16 1928.17 2048.78 1948.91 2502.89C1974.7 3065.74 1616.57 3215.95 1402.81 3533.13Z" stroke="#EF4FCC" stroke-width="3.72217" stroke-miterlimit="10"/>
<path opacity="0.7" d="M1423.28 3549.09C680.975 4559.65 -279.079 2708.67 544.584 2325.82C926.106 2148.49 1226.01 1197.74 1589.72 1429.31C1953.16 1659.29 1977.62 2089.73 1960.34 2527.35C1939.07 3067.6 1645.02 3247.06 1423.28 3549.09Z" stroke="#F05DD0" stroke-width="3.72217" stroke-miterlimit="10"/>
<path opacity="0.6" d="M1444.02 3564.77C705.7 4483.88 -273.762 2793.48 524.643 2322.63C885.694 2109.4 1278.91 1189.76 1621.62 1449.51C1963.79 1707.14 2027.07 2130.41 1971.5 2551.54C1903.44 3069.19 1674 3278.16 1444.02 3564.77Z" stroke="#F16CD4" stroke-width="3.72217" stroke-miterlimit="10"/>
<path opacity="0.6" d="M1464.49 3580.46C733.35 4409.44 -267.382 2880.16 504.702 2319.17C845.812 2071.38 1331.82 1181.78 1653.52 1469.72C1974.16 1755 2076.52 2171.08 1982.94 2576C1868.35 3070.52 1703.77 3309.27 1464.49 3580.46Z" stroke="#F37BD9" stroke-width="3.72217" stroke-miterlimit="10"/>
<path opacity="0.5" d="M1484.96 3596.41C763.925 4336.32 -259.938 2968.42 484.762 2315.72C806.464 2033.89 1385 1174.07 1685.16 1489.93C1984.8 1803.12 2126.5 2211.76 1994.1 2600.46C1833.52 3072.11 1734.08 3340.64 1484.96 3596.41Z" stroke="#F48ADD" stroke-width="3.72217" stroke-miterlimit="10"/>
<path opacity="0.4" d="M1505.7 3612.1C797.425 4265.07 -250.897 3058.02 464.823 2312.26C767.648 1996.94 1437.9 1166.1 1717.07 1510.13C1995.17 1850.98 2176.76 2252.44 2005.54 2624.66C1798.95 3073.71 1765.46 3372.55 1505.7 3612.1Z" stroke="#F598E1" stroke-width="3.72217" stroke-miterlimit="10"/>
<path opacity="0.4" d="M1526.17 3627.78C833.851 4196.21 -239.995 3148.15 444.884 2309.07C729.63 1960.25 1490.81 1158.12 1748.71 1530.34C2005.8 1898.83 2227.27 2293.12 2016.7 2649.12C1764.66 3075.31 1797.63 3404.98 1526.17 3627.78Z" stroke="#F7A7E5" stroke-width="3.72217" stroke-miterlimit="10"/>
<path opacity="0.3" d="M1546.65 3643.47C872.933 4130.28 -227.766 3238.82 424.943 2305.61C692.142 1923.56 1543.99 1150.15 1780.61 1550.54C2016.44 1946.96 2277.79 2334.33 2028.13 2673.31C1730.63 3077.43 1830.86 3438.48 1546.65 3643.47Z" stroke="#F8B6EA" stroke-width="3.72217" stroke-miterlimit="10"/>
<path opacity="0.3" d="M1567.38 3659.42C913.611 4067.53 -213.675 3329.21 405.268 2302.16C655.451 1886.87 1596.89 1142.44 1812.25 1570.75C2026.81 1994.81 2328.57 2375.54 2039.3 2697.77C1696.6 3079.56 1864.89 3473.58 1567.38 3659.42Z" stroke="#FAC4EE" stroke-width="3.72217" stroke-miterlimit="10"/>
<path opacity="0.2" d="M1587.86 3675.1C955.62 4008.5 -198.519 3419.6 385.33 2298.7C619.029 1849.91 1649.8 1134.46 1844.16 1590.95C2037.44 2042.67 2379.08 2417.01 2050.74 2721.96C1662.57 3082.21 1899.72 3510.8 1587.86 3675.1Z" stroke="#FBD3F2" stroke-width="3.72217" stroke-miterlimit="10"/>
<path opacity="0.1" d="M1608.59 3690.79C997.36 3953.47 -182.302 3509.2 365.388 2295.51C582.869 1812.96 1702.71 1126.48 1876.06 1611.16C2047.81 2090.79 2429.86 2458.75 2061.9 2746.42C1628.8 3085.14 1935.35 3550.68 1608.59 3690.79Z" stroke="#FCE2F7" stroke-width="3.72217" stroke-miterlimit="10"/>
<path opacity="0.1" d="M1629.06 3706.75C1037.77 3902.42 -165.288 3598.54 345.447 2292.05C547.242 1775.47 1755.88 1118.77 1907.7 1631.37C2058.44 2138.65 2480.38 2500.76 2073.33 2770.88C1594.5 3088.07 1970.71 3593.75 1629.06 3706.75Z" stroke="#FEF0FB" stroke-width="3.72217" stroke-miterlimit="10"/>
<path opacity="0.1" d="M502.841 3139.91C-1008.36 2904.62 742.389 919.903 1253.92 1827.32C1505.97 2273.98 2487.56 1842.74 2536.74 2363.84C2586.46 2884.68 2128.37 2980.66 1718.4 3293.85C1207.66 3683.88 913.609 3203.99 502.841 3139.91Z" stroke="#F83BFF" stroke-width="3.72217" stroke-miterlimit="10"/>
<path opacity="0.1" d="M496.992 3168.89C-928.067 2889.99 672.998 962.172 1248.34 1804.45C1528.03 2213.62 2518.13 1896.17 2531.96 2406.64C2546.58 2916.31 2111.35 3051.11 1700.85 3316.18C1190.11 3646.39 896.86 3247.05 496.992 3168.89Z" stroke="#F949FF" stroke-width="3.72217" stroke-miterlimit="10"/>
<path opacity="0.1" d="M491.41 3197.6C-846.71 2878.29 601.746 1003.91 1243.02 1781.85C1549.04 2153 2548.44 1949.35 2526.91 2449.45C2506.7 2948.22 2094.6 3121.3 1683.3 3338.78C1172.57 3608.9 880.377 3290.39 491.41 3197.6Z" stroke="#F957FF" stroke-width="3.72217" stroke-miterlimit="10"/>
<path opacity="0.1" d="M485.825 3226.32C-764.824 2869.79 528.364 1045.66 1237.44 1758.99C1568.98 2092.65 2578.75 2002.79 2522.12 2491.99C2466.82 2980.12 2078.38 3191.49 1665.49 3361.38C1155.55 3571.42 864.423 3334.53 485.825 3226.32Z" stroke="#FA65FF" stroke-width="3.72217" stroke-miterlimit="10"/>
<path opacity="0.1" d="M479.976 3255.3C-682.936 2864.74 453.123 1087.93 1231.85 1736.12C1588.12 2032.57 2609.06 2055.96 2517.07 2534.79C2426.94 3012.03 2062.16 3261.95 1647.94 3383.98C1138.8 3533.93 849.002 3379.2 479.976 3255.3Z" stroke="#FA73FF" stroke-width="3.72217" stroke-miterlimit="10"/>
<path opacity="0.2" d="M474.392 3284.01C-600.784 2863.14 376.02 1131.8 1226.54 1713.25C1606.46 1973.27 2639.37 2109.4 2512.28 2577.59C2387.06 3043.93 2046.21 3332.66 1630.13 3406.58C1122.32 3496.97 833.581 3424.65 474.392 3284.01Z" stroke="#FB81FF" stroke-width="3.72217" stroke-miterlimit="10"/>
<path opacity="0.2" d="M468.808 3312.99C-519.162 2865.53 297.854 1177.26 1220.95 1690.65C1624.01 1914.78 2669.67 2162.84 2507.23 2620.4C2347.18 3075.83 2030.26 3403.65 1612.58 3429.17C1105.83 3460.28 818.161 3471.18 468.808 3312.99Z" stroke="#FB8FFF" stroke-width="3.72217" stroke-miterlimit="10"/>
<path opacity="0.2" d="M462.961 3341.7C-438.601 2871.65 218.628 1224.85 1215.37 1667.79C1641.29 1857.09 2699.99 2216.01 2502.44 2662.94C2307.3 3107.74 2014.57 3474.9 1594.77 3451.77C1089.62 3423.86 802.476 3518.51 462.961 3341.7Z" stroke="#FC9DFF" stroke-width="3.72217" stroke-miterlimit="10"/>
<path opacity="0.3" d="M457.377 3370.42C-359.639 2881.75 139.132 1274.57 1209.79 1644.93C1658.57 1800.2 2730.29 2269.46 2497.39 2705.75C2267.42 3139.65 1998.62 3546.43 1577.22 3474.38C1073.13 3387.97 786.523 3567.43 457.377 3370.42Z" stroke="#FCABFF" stroke-width="3.72217" stroke-miterlimit="10"/>
<path opacity="0.3" d="M451.527 3399.4C-282.538 2895.05 59.6362 1326.15 1204.47 1622.33C1675.86 1744.1 2760.6 2322.63 2492.61 2748.55C2227.53 3171.55 1982.67 3618.48 1559.67 3496.97C1056.65 3352.61 769.507 3617.68 451.527 3399.4Z" stroke="#FDB9FF" stroke-width="3.72217" stroke-miterlimit="10"/>
<path opacity="0.3" d="M445.946 3428.11C-208.358 2911.26 -19.0591 1379.59 1198.89 1599.46C1693.4 1688.79 2790.91 2376.07 2487.56 2791.36C2187.66 3203.45 1966.45 3690.53 1541.86 3519.57C1039.63 3317.24 751.164 3669.26 445.946 3428.11Z" stroke="#FDC7FF" stroke-width="3.72217" stroke-miterlimit="10"/>
<path opacity="0.3" d="M440.362 3457.09C-137.372 2929.34 -96.6939 1434.36 1193.3 1576.6C1711.48 1633.76 2821.22 2429.51 2482.77 2833.89C2148.04 3235.36 1949.97 3762.84 1524.31 3542.17C1022.62 3281.88 731.223 3722.69 440.362 3457.09Z" stroke="#FED5FF" stroke-width="3.72217" stroke-miterlimit="10"/>
<path opacity="0.3" d="M434.511 3485.81C-70.3752 2948.75 -173.532 1490.19 1187.72 1553.73C1729.83 1579.26 2851.53 2482.68 2477.72 2876.7C2108.16 3267.26 1933.22 3834.89 1506.5 3564.5C1005.07 3246.79 708.622 3777.2 434.511 3485.81Z" stroke="#FEE3FF" stroke-width="3.72217" stroke-miterlimit="10"/>
<path opacity="0.4" d="M428.931 3514.52C-7.36032 2967.89 -249.567 1546.82 1182.4 1531.13C1748.71 1524.75 2881.84 2536.12 2472.93 2919.5C2068.28 3299.16 1916.2 3907.21 1488.95 3587.1C987.257 3211.43 683.102 3833.03 428.931 3514.52Z" stroke="#FFF1FF" stroke-width="3.72217" stroke-miterlimit="10"/>
<path opacity="0.4" d="M423.346 3543.5C50.8632 2985.18 -324.544 1603.72 1176.82 1508.27C1768.11 1470.78 2912.15 2589.3 2467.88 2962.31C2028.4 3331.07 1898.92 3979.26 1471.4 3609.7C969.441 3176.07 653.855 3889.13 423.346 3543.5Z" stroke="white" stroke-width="3.72217" stroke-miterlimit="10"/>
</g>
</g>
<defs>
<clipPath id="clip0_341_2">
<rect width="1440" height="3919" fill="white"/>
</clipPath>
</defs>
</svg>
