<svg version="1.2" xmlns="http://www.w3.org/2000/svg" viewBox="0 0 1000 1000" width="1000" height="1000">
	<title>3343971-ai</title>
	<style>
		.s0 { fill: #f5f5f5 } 
		.s1 { fill: #e6e6e6 } 
		.s2 { fill: #27debf } 
		.s3 { fill: #000000 } 
		.s4 { fill: #ffffff } 
		.s5 { fill: #37474f } 
		.s6 { fill: #455a64 } 
		.s7 { fill: #263238 } 
		.s8 { opacity: .1;fill: #000000 } 
		.s9 { fill: #ebebeb } 
		.s10 { fill: #e0e0e0 } 
		.s11 { opacity: .5;fill: #ffffff } 
		.s12 { fill: none;stroke: #27debf;stroke-linecap: round;stroke-linejoin: round;stroke-width: .7 } 
		.s13 { fill: #ffa8a7 } 
		.s14 { fill: #f28f8f } 
		.s15 { fill: #f0f0f0 } 
		.s16 { fill: #fafafa } 
		.s17 { opacity: .9;fill: #f0f0f0 } 
		.s18 { opacity: .6;fill: #f0f0f0 } 
		.s19 { opacity: .5;fill: #f0f0f0 } 
		.s20 { opacity: .4;fill: #f0f0f0 } 
		.s21 { opacity: .8;fill: #f0f0f0 } 
		.s22 { opacity: .3;fill: #000000 } 
		.s23 { opacity: .5;fill: #000000 } 
		.s24 { opacity: .9;fill: #ffffff } 
		.s25 { opacity: .7;fill: #ffffff } 
		.s26 { opacity: .6;fill: #ffffff } 
		.s27 { opacity: .8;fill: #ffffff } 
		.s28 { opacity: .2;fill: #000000 } 
		.s29 { fill: #ffbda7 } 
		.s30 { fill: #b16668 } 
		.s31 { opacity: .4;fill: #000000 } 
	</style>
	<g id="Floor">
		<path id="Floor 7 " class="s0" d="m825.7 497.8c179.8 103.9 179.8 272.3 0 376.1-179.9 103.8-471.5 103.8-651.4 0-179.8-103.8-179.8-272.2 0-376.1 179.9-103.8 471.5-103.8 651.4 0z"/>
	</g>
	<g id="Shadows">
		<path id="Shadow 16 " class="s1" d="m903 648.5l-261.7 151.1c-2.2 1.3-5.9 1.3-8.1 0l-436.4-251.9c-2.2-1.3-2.2-3.4 0-4.7l261.7-151.1c2.2-1.3 5.9-1.3 8.1 0l436.4 251.9c2.2 1.3 2.2 3.4 0 4.7z"/>
		<path id="Shadow 15 " class="s1" d="m448.7 864.6c63.6-36.7 63.6-96.2 0-132.9-63.5-36.8-166.6-36.8-230.2 0-63.6 36.7-63.6 96.2 0 132.9 63.6 36.7 166.7 36.7 230.2 0z"/>
		<path id="Shadow 14 " class="s1" d="m582.3 756.6c46-26.6 46-69.7 0-96.3-46.1-26.6-120.7-26.6-166.8 0-46 26.6-46 69.7 0 96.3 46.1 26.6 120.7 26.6 166.8 0z"/>
	</g>
	<g id="Plants">
		<g id="Plants 2 ">
			<g id="&lt;Group&gt;">
				<g id="&lt;Group&gt;">
					<path id="&lt;Path&gt;" class="s2" d="m842.8 581.9c0 0 4.1-32.7 20.7-58 16.6-25.3 39.1-40.9 60.1-42.3 20.9-1.5 37.6 18 15.1 30.9-22.6 13-62.4 26-81.2 75.2z"/>
				</g>
				<g id="&lt;Group&gt;" style="opacity: .3">
					<path id="&lt;Path&gt;" class="s3" d="m842.8 581.9c0 0 4.1-32.7 20.7-58 16.6-25.3 39.1-40.9 60.1-42.3 20.9-1.5 37.6 18 15.1 30.9-22.6 13-62.4 26-81.2 75.2z"/>
				</g>
				<g id="&lt;Group&gt;">
					<path id="&lt;Path&gt;" class="s4" d="m849.1 573.5q-0.2-0.1-0.3-0.1c-0.5-0.2-0.8-0.9-0.6-1.5 22.7-54.1 64.9-76.3 84.1-80.5 0.6-0.1 1.2 0.3 1.3 0.9 0.1 0.6-0.2 1.2-0.8 1.3-18.8 4.1-60.2 26-82.5 79.2-0.2 0.5-0.7 0.8-1.2 0.7z"/>
				</g>
			</g>
			<g id="&lt;Group&gt;">
				<g id="&lt;Group&gt;">
					<g id="&lt;Group&gt;">
						<path id="&lt;Path&gt;" class="s2" d="m964.8 557.5c-1.8 4-6.2 6.1-10.3 7.7-4.1 1.6-8.5 3.4-10.7 7.2-4.5 7.7 2.8 18.5-1.9 26-2.1 3.2-5.8 4.8-9.5 5.5-3 0.5-6.1 0.5-9.2 0.8q-2.2-0.1-4.4-0.4c-4.2-0.6-8.8-0.8-12.7 1.4-6.1 3.4-8 11.1-11.7 17.1-4.5 7.1-12.3 11.8-20.6 12.9-4.8 0.6-9.4 2.1-12.8-2.5-1.6-2.2-2.5-4.8-3.2-7.4q-4.9-16-9.7-32c-1.3-4.2-2.5-8.8-0.4-12.6 1.4-2.8 4.3-4.4 7-6.2 5.2-3.4 9.8-7.7 13.7-12.6 3.7-4.7 5.4-10.4 8.8-15.1 6.5-9 18.1-15.3 29.3-13.4 6.4 1.1 12.7 4.7 19.4 4.4 6.4-0.3 12.8-2 19.4-1.5 6.9 0.4 13.9 3.4 17.8 9.3 2.2 3.3 3.3 7.7 1.7 11.4z"/>
					</g>
				</g>
				<g id="&lt;Group&gt;" style="opacity: .1">
					<g id="&lt;Group&gt;">
						<path id="&lt;Path&gt;" class="s3" d="m964.8 557.5c-1.8 4-6.2 6.1-10.3 7.7-4.1 1.6-8.5 3.4-10.7 7.2-4.5 7.7 2.8 18.5-1.9 26-2.1 3.2-5.8 4.8-9.5 5.5-3 0.5-6.1 0.5-9.2 0.8q-2.2-0.1-4.4-0.4c-4.2-0.6-8.8-0.8-12.7 1.4-6.1 3.4-8 11.1-11.7 17.1-4.5 7.1-12.3 11.8-20.6 12.9-4.8 0.6-9.4 2.1-12.8-2.5-1.6-2.2-2.5-4.8-3.2-7.4q-4.9-16-9.7-32c-1.3-4.2-2.5-8.8-0.4-12.6 1.4-2.8 4.3-4.4 7-6.2 5.2-3.4 9.8-7.7 13.7-12.6 3.7-4.7 5.4-10.4 8.8-15.1 6.5-9 18.1-15.3 29.3-13.4 6.4 1.1 12.7 4.7 19.4 4.4 6.4-0.3 12.8-2 19.4-1.5 6.9 0.4 13.9 3.4 17.8 9.3 2.2 3.3 3.3 7.7 1.7 11.4z"/>
					</g>
				</g>
				<g id="&lt;Group&gt;">
					<path id="&lt;Path&gt;" class="s4" d="m860.4 614.8q0 0-0.1 0c-0.5-0.1-0.8-0.7-0.7-1.2 16.1-60.2 79.5-68.9 94.4-67.8 0.5 0 0.9 0.5 0.9 1 0 0.6-0.5 1-1.1 0.9-14.5-1-76.5 7.5-92.3 66.4-0.1 0.5-0.6 0.8-1.1 0.7z"/>
				</g>
				<g id="&lt;Group&gt;">
					<path id="&lt;Path&gt;" class="s4" d="m930.9 584.3q-0.3 0-0.5-0.3c-0.2-0.1-16.4-16.1-43.2-12.1-0.5 0-1-0.3-1.1-0.9-0.1-0.5 0.3-1 0.8-1.1 27.9-4.1 44.7 12.6 44.9 12.7 0.4 0.4 0.4 1.1 0 1.4-0.3 0.3-0.6 0.4-0.9 0.3z"/>
				</g>
			</g>
		</g>
	</g>
	<g id="Desk">
		<g id="Desk 2 ">
			<g id="Table 2 ">
				<g id="&lt;Group&gt;">
					<path id="&lt;Path&gt;" class="s5" d="m657.3 580.4v172.3c0 1.4-1 3.2-2.3 3.9l-4.7 2.7c-1.3 0.7-3.3 0.7-4.5 0l-4.7-2.7c-1.3-0.7-2.3-2.5-2.3-3.9v-172.3c0-1.4 1-2 2.3-1.2l4.7 2.7c1.2 0.7 3.2 0.7 4.5 0l4.7-2.7c1.3-0.8 2.3-0.2 2.3 1.2z"/>
					<path id="&lt;Path&gt;" class="s6" d="m645.8 759.3l-4.7-2.7c-1.3-0.7-2.3-2.5-2.3-3.9v-172.3c0-1.4 1-2 2.3-1.2l4.7 2.7c1.2 0.7 2.2 2.4 2.2 3.9v172.2c0 1.5-1 2-2.2 1.3z"/>
				</g>
				<g id="&lt;Group&gt;">
					<path id="&lt;Path&gt;" class="s5" d="m859.8 463.4v172.3c0 1.4-1 3.2-2.2 3.9l-4.8 2.7c-1.2 0.7-3.2 0.7-4.4 0l-4.8-2.7c-1.2-0.7-2.2-2.5-2.2-3.9v-172.3c0-1.4 1-2 2.2-1.3l4.8 2.8c1.2 0.7 3.2 0.7 4.4 0l4.8-2.8c1.2-0.7 2.2-0.1 2.2 1.3z"/>
					<path id="&lt;Path&gt;" class="s6" d="m848.4 642.3l-4.8-2.7c-1.2-0.7-2.2-2.5-2.2-3.9v-172.3c0-1.4 1-2 2.2-1.3l4.8 2.8c1.2 0.7 2.2 2.4 2.2 3.9v172.2c0 1.5-1 2-2.2 1.3z"/>
				</g>
				<g id="&lt;Group&gt;">
					<path id="&lt;Path&gt;" class="s5" d="m305.3 377.1v172.3c0 1.4-1 3.2-2.2 3.9l-4.8 2.7c-1.2 0.7-3.2 0.7-4.4 0l-4.8-2.7c-1.2-0.7-2.2-2.5-2.2-3.9v-172.3c0-1.4 1-2 2.2-1.3l4.8 2.8c1.2 0.7 3.2 0.7 4.4 0l4.8-2.8c1.2-0.7 2.2-0.1 2.2 1.3z"/>
					<path id="&lt;Path&gt;" class="s6" d="m293.9 556l-4.8-2.7c-1.2-0.7-2.2-2.5-2.2-3.9v-172.3c0-1.4 1-2 2.2-1.3l4.8 2.8c1.2 0.7 2.2 2.4 2.2 3.8v172.3c0 1.4-1 2-2.2 1.3z"/>
				</g>
				<g id="Desk 4 ">
					<g id="&lt;Group&gt;">
						<g id="&lt;Group&gt;">
							<path id="&lt;Path&gt;" class="s5" d="m903.9 479.2v-1.6c0-2.6-1.8-5.8-4.1-7.1l-436.3-251.9c-2.3-1.3-5.9-1.3-8.2 0l-219.7 126.9c-2.3 1.3-4.1 4.4-4.1 7v1.6c0 2.6 1.8 5.8 4.1 7.1l436.4 251.9c2.2 1.3 5.8 1.3 8.1 0l219.7-126.9c2.3-1.3 4.1-4.4 4.1-7z"/>
						</g>
						<g id="&lt;Group&gt;">
							<path id="&lt;Path&gt;" class="s2" d="m676 603.1v11c1.5 0 3-0.3 4.1-1l219.7-126.9c2.3-1.3 4.1-4.4 4.1-7v-1.6c0-2.3-1.4-5.1-3.3-6.6 1.4 1.3 1.2 3.1-0.8 4.2l-219.7 126.9c-1.1 0.7-2.6 1-4.1 1z"/>
						</g>
						<g id="&lt;Group&gt;">
							<path id="&lt;Path&gt;" class="s7" d="m676 603.1v11c1.5 0 3-0.3 4.1-1l219.7-126.9c2.3-1.3 4.1-4.4 4.1-7v-1.6c0-2.3-1.4-5.1-3.3-6.6 1.4 1.3 1.2 3.1-0.8 4.2l-219.7 126.9c-1.1 0.7-2.6 1-4.1 1z"/>
						</g>
						<g id="&lt;Group&gt;">
							<path id="&lt;Path&gt;" class="s6" d="m899.8 475.2l-219.7 126.9c-2.3 1.3-5.9 1.3-8.1 0l-436.4-251.9c-2.3-1.3-2.3-3.4 0-4.7l219.7-126.9c2.3-1.3 5.9-1.3 8.2 0l436.3 251.9c2.3 1.3 2.3 3.4 0 4.7z"/>
						</g>
					</g>
				</g>
			</g>
			<g id="Keyboard 1 ">
				<path id="Shadow 13 " class="s8" d="m561.8 388.3l-41.5 23.9c-1.2 0.8-3.3 0.8-4.6 0.1l-122.4-70.6c-1.2-0.7-1.2-1.9 0-2.7l41.5-24c1.2-0.7 3.3-0.7 4.6 0l122.4 70.6c1.2 0.7 1.2 1.9 0 2.7z"/>
				<g id="Keyboard 4 ">
					<g id="&lt;Group&gt;">
						<path id="&lt;Path&gt;" class="s9" d="m395.8 334.8c0-0.5 0.4-1 1-1.4l38.9-22.4c1.3-0.8 3.4-0.8 4.7 0l118.7 68.6c0.6 0.4 1 0.9 1 1.4 0 0.5 0 3.6 0 4 0 0.5-0.4 1-1 1.4l-38.9 22.4c-1.3 0.8-3.4 0.8-4.6 0l-118.8-68.5c-0.6-0.4-0.9-0.9-1-1.3 0-0.5 0-3.7 0-4.2z"/>
						<path id="&lt;Path&gt;" class="s4" d="m520.2 404.7l38.9-22.4c1.3-0.7 1.3-1.9 0-2.7l-118.7-68.6c-1.3-0.8-3.4-0.8-4.7 0l-38.9 22.4c-1.3 0.8-1.3 2 0 2.7l118.8 68.6c1.2 0.7 3.3 0.7 4.6 0z"/>
						<path id="&lt;Path&gt;" class="s10" d="m518 405.2v4.2c0.8 0 1.6-0.2 2.2-0.5l38.9-22.5c0.6-0.4 1-0.9 1-1.3v-4.1c0 0.4-0.4 0.9-1 1.3l-38.9 22.4c-0.6 0.3-1.4 0.5-2.2 0.5z"/>
					</g>
					<path id="&lt;Compound Path&gt;" fill-rule="evenodd" class="s6" d="m403.1 335.1q0-0.1 0-0.1l3.8-2.2 5.3 3-3.9 2.3-5.2-3zm6-3.5q0 0 0 0l3.9-2.3 4.1 2.4-3.9 2.3-4.1-2.4zm1.3 7.7q0 0 0 0l3.8-2.2 4.1 2.3-3.8 2.3-4.1-2.3zm4.7-11.2q0 0 0.1-0.1l3.8-2.2 6.6 3.8-3.8 2.3-6.7-3.8zm0.2 7.1q0-0.1 0-0.1l3.9-2.2 3.2 1.9-3.8 2.3-3.3-1.9zm1.3 7.7q0-0.1 0-0.1l3.8-2.2 4.1 2.4-3.8 2.3-4.1-2.4zm4-4.6q0 0 0.1 0l3.8-2.3 3.3 1.9-3.9 2.3-3.3-1.9zm0.6-13.6q0 0 0 0l3.9-2.3 5.2 3.1-3.9 2.3-5.2-3zm1.6 21.7q0 0 0 0l3.8-2.2 29.7 17.1-3.9 2.3-29.6-17.1zm1.1-13.3q0-0.1 0-0.1l3.9-2.2 3.2 1.9-3.9 2.3-3.2-1.9zm2.1 8.2q0 0 0-0.1l3.9-2.2 3.2 1.9-3.8 2.3-3.3-1.9zm1.2-20.1q0.1-0.1 0.1-0.1l3.8-2.2 3.3 1.9-3.9 2.3-3.2-1.9zm1.2 7.7q0-0.1 0.1-0.1l3.8-2.2 3.3 1.9-3.9 2.3-3.3-1.9zm0.7 7.4q0-0.1 0.1-0.1l3.8-2.2 3.3 1.9-3.9 2.3-3.3-1.9zm2.2 8.2q0-0.1 0-0.1l3.8-2.2 3.3 1.9-3.9 2.3-3.2-1.9zm1.2-20.2q0 0 0 0l3.9-2.2 3.2 1.9-3.8 2.3-3.3-1.9zm1.3 7.7q0-0.1 0-0.1l3.9-2.2 3.2 1.9-3.9 2.3-3.2-1.9zm0.7 7.4q0-0.1 0-0.1l3.9-2.2 3.2 1.9-3.8 2.3-3.3-1.9zm0-22.4q0 0 0 0l3.9-2.2 4.1 2.3-3.9 2.3-4.1-2.3zm2.1 30.5q0 0 0.1 0l3.8-2.3 3.3 1.9-3.9 2.3-3.3-1.9zm1.3-20.1q0-0.1 0-0.1l3.9-2.2 3.2 1.9-3.9 2.3-3.2-1.9zm1.2 7.7q0.1-0.1 0.1-0.1l3.8-2.2 3.3 1.9-3.9 2.3-3.2-1.9zm0.7 7.4q0-0.1 0-0.1l3.8-2.2 3.3 1.9-3.9 2.3-3.2-1.9zm2.1 8.2q0 0 0-0.1l3.9-2.2 3.2 1.9-3.9 2.3-3.2-1.9zm1-28.7q0 0 0.1-0.1l3.8-2.2 3.3 1.9-3.9 2.3-3.3-1.9zm0.2 8.6q0-0.1 0.1-0.1l3.8-2.2 3.3 1.9-3.9 2.3-3.3-1.9zm1.3 7.7q0 0 0 0l3.9-2.3 3.3 1.9-3.9 2.3-3.3-1.9zm0.7 7.4q0 0 0.1 0l3.8-2.3 3.3 1.9-3.9 2.3-3.3-1.9zm2.2 8.2q0 0 0 0l3.8-2.3 3.3 1.9-3.9 2.3-3.2-1.9zm1-28.7q0 0 0 0l3.9-2.3 3.3 1.9-3.9 2.3-3.3-1.9zm0.2 8.6q0 0 0 0l3.9-2.3 3.2 1.9-3.8 2.3-3.3-1.9zm1.3 7.7q0 0 0 0l3.9-2.2 3.2 1.8-3.8 2.3-3.3-1.8zm0.7 7.3q0 0 0 0l3.9-2.3 3.2 1.9-3.8 2.3-3.3-1.8zm2.1 8.1q0 0 0.1 0l3.8-2.2 3.3 1.8-3.9 2.3-3.3-1.8zm1.1-28.8q0 0 0 0l3.9-2.2 3.2 1.8-3.9 2.3-3.2-1.8zm0.2 8.5q0 0 0 0l3.9-2.3 3.2 1.9-3.9 2.3-3.2-1.8zm0.6 28.1q0 0 0 0l3.9-2.2 4.1 2.3-3.9 2.3-4.1-2.3zm0.7-20.5q0-0.1 0-0.1l3.8-2.2 3.3 1.9-3.9 2.3-3.2-1.9zm0.7 7.4q0-0.1 0-0.1l3.9-2.2 3.2 1.9-3.9 2.3-3.2-1.9zm2.1 8.2q0-0.1 0-0.1l3.9-2.2 3.2 1.9-3.8 2.3-3.3-1.9zm1.1-28.7q0-0.1 0-0.1l3.8-2.2 3.3 1.9-3.9 2.3-3.2-1.9zm0.2 8.6q0-0.1 0-0.1l3.8-2.2 3.3 1.9-3.9 2.3-3.2-1.9zm1.2 7.7q0 0 0.1-0.1l3.8-2.2 3.3 1.9-3.9 2.3-3.3-1.9zm0.2 21q0 0 0-0.1l3.9-2.2 4.1 2.4-3.9 2.3-4.1-2.4zm0.6-13.6q0 0 0 0l3.8-2.3 3.3 1.9-3.9 2.3-3.2-1.9zm2.1 8.2q0 0 0 0l3.9-2.2 3.2 1.8-3.9 2.3-3.2-1.8zm1.2-20.2q0-0.1 0.1-0.1l3.8-2.2 3.3 1.9-3.9 2.3-3.3-1.9zm1.3 7.7q0 0 0 0l3.9-2.3 3.2 1.9-3.8 2.3-3.3-1.9zm0.7 7.4q0 0 0.1 0l3.8-2.3 3.3 1.9-3.9 2.3-3.3-1.9zm0.2-22.2q0-0.1 0-0.1l3.9-2.2 3.2 1.9-3.9 2.3-3.2-1.9zm0.1 36.4q0-0.1 0.1-0.1l3.8-2.2 4.1 2.4-3.9 2.3-4.1-2.4zm1.9-5.9q0-0.1 0-0.1l3.8-2.2 3.3 1.9-3.9 2.3-3.2-1.9zm1.2-20.2q0 0 0 0l3.9-2.2 3.2 1.8-3.8 2.3-3.3-1.8zm1.3 7.7q0-0.1 0-0.1l3.9-2.2 3.2 1.9-3.8 2.3-3.3-1.9zm0.7 7.4q0-0.1 0-0.1l3.9-2.2 3.2 1.9-3.8 2.3-3.3-1.9zm0.2-22.3q0 0 0 0l3.8-2.3 3.3 1.9-3.9 2.3-3.2-1.9zm1 36.9q0 0 0-0.1l3.8-2.2 5.3 3-3.9 2.3-5.2-3zm0.9-6.4q0 0 0.1 0l3.8-2.2 10.3 5.9-3.9 2.3-10.3-5.9zm1.3-20.2q0-0.1 0-0.1l3.9-2.2 3.2 1.9-3.9 2.3-3.2-1.9zm1.3 7.7q0 0 0 0l3.8-2.3 3.3 1.9-3.9 2.3-3.2-1.9zm0.7 7.4q0 0 0 0l3.9-2.3 3.2 1.9-3.9 2.3-3.2-1.9zm0.1-22.2q0.1-0.1 0.1-0.1l3.8-2.2 3.3 1.9-3.9 2.3-3.2-1.9zm3.2 10.3q0-0.1 0-0.1l3.8-2.2 3.3 1.9-3.9 2.3-3.2-1.9zm0.8 28.4q0-0.1 0.1-0.1l3.8-2.2 3.3 1.9-3.9 2.3-3.3-1.9zm0.4-20.7q0 0 0.1 0l3.8-2.2 3.3 1.8-3.9 2.3-3.3-1.8zm0.8 7.3q0 0 0 0l3.8-2.2 3 1.7c0.2 0.1 0.6 0.2 1 0.2 0.4 0 0.7-0.1 0.9-0.2l5.1-3 3.8 2.2-9.9 5.8-7.7-4.4zm0.1-22.3q0-0.1 0-0.1l3.9-2.2 3.3 1.9-3.9 2.3-3.3-1.9zm3.2 10.3q0 0 0.1-0.1l3.8-2.2 3.3 1.9-3.9 2.3-3.3-1.9zm0.9 28.4q0-0.1 0-0.1l3.9-2.2 3.2 1.9-3.8 2.3-3.3-1.9zm0.4-20.7q0 0 0 0l3.9-2.2 3.2 1.9-3.8 2.3-3.3-1.9zm3.2-13.6q0 0 0 0l3.9-2.3 3.2 1.9-3.8 2.3-3.3-1.9zm0.9 9q0-0.1 0-0.1l3.9-2.2 3.2 1.9-3.9 2.3-3.2-1.9zm0.9 28.4q0-0.1 0-0.1l3.8-2.2 3.3 1.9-3.9 2.3-3.2-1.9zm0.7-6.6q0 0 0 0l3.8-2.2 3.3 1.8-3.9 2.3-3.2-1.8zm2.9-27.7q0 0 0-0.1l3.8-2.2 3.3 1.9-3.9 2.3-3.2-1.9zm0.9 9q0-0.1 0-0.1l3.8-2.2 5.8 3.3-3.9 2.3-5.7-3.3zm2 29q0 0 0 0l3.8-2.3 8.6 5-3.9 2.3-8.5-5zm0.9-20.3q0 0 0 0l3.9-2.3 3.3 1.9-3.9 2.3-3.3-1.9zm1.5-14.5q0-0.1 0.1-0.1l3.8-2.2 3.3 1.9-3.9 2.3-3.3-1.9zm3.6 31.4q0 0 0 0l3.9-2.3 3.2 1.9-3.8 2.3-3.3-1.9zm0.3-13.7q0-0.1 0-0.1l3.9-2.2 3.2 1.9-3.9 2.3-3.2-1.9zm0.7-6.6q0 0 0 0l3.9-2.2 3.2 1.8-3.9 2.3-3.2-1.8zm0.8-8q0-0.1 0-0.1l3.9-2.2 3.2 1.9-3.9 2.3-3.2-1.9zm2.9 38q0-0.1 0-0.1l3.8-2.2 3.3 1.9-3.9 2.3-3.2-1.9zm0.7-6.6q0 0 0 0l3.8-2.2 3.3 1.8-3.9 2.3-3.2-1.8zm0.2-13.8q0-0.1 0.1-0.1l3.8-2.2 3.3 1.9-3.9 2.3-3.3-1.9zm0.5 7.2q0 0 0 0l3.9-2.2 3.2 1.8-3.9 2.3-3.2-1.8zm0.2-13.8q0.1-0.1 0.1-0.1l3.8-2.2 3.3 1.9-3.9 2.3-3.2-1.9zm1.9-7.3q0 0 0.1 0l3.8-2.3 3.3 1.9-3.9 2.3-3.3-1.9zm1.7 37.3q0 0 0.1 0l9.8-5.7 3.3 1.8-9.9 5.8-3.3-1.9zm0.7-6.5q0-0.1 0.1-0.1l3.8-2.2 3.3 1.9-3.9 2.3-3.3-1.9zm0.7-6.6q0 0 0.1 0l3.8-2.2 3.3 1.9-3.9 2.3-3.3-1.9zm0.3-13.8q0 0 0 0l3.9-2.3 3.2 1.9-3.8 2.3-3.3-1.9zm0.4 7.2q0 0 0.1 0l3.8-2.2 3.3 1.9-3.9 2.3-3.2-1.9zm1.5-14.5q0-0.1 0-0.1l3.9-2.2 3.2 1.9-3.8 2.3-3.3-1.9zm3.1 24.1q0 0 0 0l3.9-2.2 3.2 1.8-3.8 2.3-3.3-1.8zm0.7-6.6q0 0 0 0l3.9-2.3 3.2 1.9-3.8 2.3-3.3-1.9zm0.7-6.5q0-0.1 0-0.1l3.9-2.2 3.2 1.9-3.8 2.3-3.3-1.9zm0.9-7.9q0-0.1 0-0.1l3.8-2.2 3.3 1.9-3.9 2.3-3.2-1.9zm3.1 24.1q0 0 0 0l9.9-5.7 3.2 1.9-9.9 5.7-3.2-1.8zm0.7-6.6q0 0 0 0l3.8-2.3 3.3 1.9-3.9 2.3-3.2-1.9zm0.7-6.5q0-0.1 0-0.1l3.8-2.2 3.3 1.9-3.9 2.3-3.2-1.9zm3.5-8.2q0 0 0-0.1l1.7-0.9 3.2 1.9-1.6 1-3.3-1.9zm1.8 11.3q0 0 0 0l3.9-2.3 3.3 1.9-3.9 2.3-3.3-1.9zm3.6-8.2q0 0 0 0l1.6-1 3.3 1.9-1.7 1-3.2-1.8zm1.8 11.2q0 0 0 0l3.8-2.2 3.3 1.8-3.9 2.3-3.2-1.8zm3.5-8.2q0-0.1 0-0.1l1.7-0.9 3.2 1.8-1.6 1.1-3.3-1.9zm5.3 3.1q0.1-0.1 0.1-0.1l1.6-0.9 3.3 1.8-1.7 1.1-3.2-1.9z"/>
				</g>
			</g>
			<g id="PC 2 ">
				<path id="Shadow 12 " class="s8" d="m727.4 426.1l41.9-24.2-209.5-121-41.9 24.2z"/>
				<g id="Monitor 2 ">
					<g id="&lt;Group&gt;">
						<g id="&lt;Group&gt;">
							<path id="&lt;Path&gt;" class="s1" d="m608.7 386.7l-29.9-17.3c-3.1-1.8-4.6-4.1-4.6-6.5 0-2.3 0-4.1 0-4.1l28.1-16c1.7-1 3-3.3 3-5.2v-36.9l52.3 30.2v36.9c0 1.9-1.4 4.2-3 5.2l-23.5 13.7c-6.2 3.5-16.2 3.5-22.4 0z"/>
						</g>
						<path id="&lt;Path&gt;" class="s10" d="m645 374.3v4.2l9.6-5.5c1.6-1 3-3.3 3-5.2v-36.9l-10-5.7c-0.2 2.5-0.4 5.1-0.6 7.7l7 4v28.8c0 1.9-1.4 4.2-3 5.2z"/>
						<path id="&lt;Path&gt;" class="s0" d="m654 365.7c0 1.9-1.4 4.2-3 5.2l-19.9 11.6c-6.2 3.6-16.2 3.6-22.4 0l-29.9-17.3c-6.2-3.5-6.2-9.3 0-12.9l19.9-11.6c1.7-0.9 3-3.3 3-5.2v-28.8l52.3 30.2z"/>
						<path id="&lt;Path&gt;" class="s9" d="m592.7 344.2l6-3.5c1.7-0.9 3-3.3 3-5.2v-28.8l52.3 30.2v28.8c0 1.9-1.4 4.2-3 5.2l-6 3.4z"/>
						<path id="&lt;Path&gt;" class="s9" d="m574.2 358.8c0 0 0 1.8 0 4.1 0 2.4 1.5 4.7 4.6 6.5l29.9 17.3c3 1.7 6.8 2.5 10.7 2.6v-4.1c-3.9-0.1-7.7-1-10.7-2.7l-29.9-17.3c-3.1-1.8-4.6-4.1-4.6-6.4z"/>
					</g>
					<path id="&lt;Path&gt;" class="s6" d="m737.9 405.5c-2 1.1-5.2 1.1-7.2-0.1-25.7-14.8-176.4-101.8-202.1-116.7-2.1-1.2-3.8-4.1-3.8-6.4v-176.9c0-2.4 1.6-5.2 3.5-6.3 2-1.1 5.2-1.1 7.2 0.1l202.1 116.7c2.1 1.2 3.8 4.1 3.8 6.4v176.9c0 2.4-1.6 5.2-3.5 6.3z"/>
					<path id="&lt;Path&gt;" class="s2" d="m730.7 405.4l-202.1-116.7c-2.1-1.2-3.8-4.1-3.8-6.4v-176.9c0-2.4 1.7-3.4 3.8-2.2l202.1 116.7c2 1.2 3.7 4.1 3.7 6.5v176.8c0 2.4-1.7 3.4-3.7 2.2z"/>
					<path id="&lt;Path&gt;" class="s5" d="m730.7 405.4l-202.1-116.7c-2.1-1.2-3.8-4.1-3.8-6.4v-176.9c0-2.4 1.7-3.4 3.8-2.2l202.1 116.7c2 1.2 3.7 4.1 3.7 6.5v176.8c0 2.4-1.7 3.4-3.7 2.2z"/>
					<path id="&lt;Path&gt;" class="s10" d="m731.2 406.1c2.1 0.9 4.9 0.9 6.7-0.1 1.9-1.1 3.5-3.9 3.5-6.3v-19.9l-7 4v19.9c0 2.2-1.4 3.2-3.2 2.4z"/>
					<path id="&lt;Path&gt;" class="s4" d="m734.4 383.8v19.9c0 2.4-1.7 3.3-3.7 2.2l-202.1-116.7c-2.1-1.2-3.8-4.1-3.8-6.5v-19.9z"/>
					<path id="&lt;Path&gt;" class="s2" d="m727.4 368.7v-140c0-1.5-1-3.2-2.2-3.9l-191.1-110.3c-1.3-0.7-2.3-0.2-2.3 1.3v140c0 1.4 1 3.1 2.3 3.8l191.1 110.4c1.2 0.7 2.2 0.1 2.2-1.3z"/>
					<path id="&lt;Path&gt;" class="s11" d="m727.4 368.7v-140c0-1.5-1-3.2-2.2-3.9l-191.1-110.3c-1.3-0.7-2.3-0.2-2.3 1.3v140c0 1.4 1 3.1 2.3 3.8l191.1 110.4c1.2 0.7 2.2 0.1 2.2-1.3z"/>
					<path id="&lt;Path&gt;" class="s6" d="m716.1 227.5l-170.2-98.2c-1.2-0.7-2.2-0.2-2.2 1.3v123.9c0 1.4 1 3.1 2.2 3.8l170.2 98.3c1.2 0.7 2.2 0.1 2.2-1.3v-123.9c0-1.4-1-3.2-2.2-3.9z"/>
					<g id="&lt;Group&gt;">
						<path id="&lt;Path&gt;" class="s7" d="m563.6 159.7v77.9c0 0.4-0.4 0.6-0.8 0.4l-12.5-7.2c-0.4-0.3-0.7-0.8-0.7-1.3v-77.9c0-0.5 0.3-0.7 0.7-0.4l12.5 7.2c0.4 0.2 0.8 0.8 0.8 1.3z"/>
						<g id="&lt;Group&gt;">
							<path id="&lt;Path&gt;" class="s5" d="m561.8 161.5l-4.1-2.4c-0.3-0.2-0.6 0-0.6 0.3v4.8c0 0.4 0.3 0.8 0.6 1l4.1 2.4c0.3 0.1 0.6 0 0.6-0.4v-4.7c0-0.4-0.3-0.8-0.6-1z"/>
							<path id="&lt;Path&gt;" class="s5" d="m555.5 157.8l-4.2-2.4c-0.3-0.1-0.5 0-0.5 0.4v4.7c0 0.4 0.2 0.8 0.5 1l4.2 2.4c0.3 0.2 0.5 0 0.5-0.3v-4.8c0-0.4-0.2-0.8-0.5-1z"/>
							<path id="&lt;Path&gt;" class="s5" d="m561.8 168.7l-4.1-2.4c-0.3-0.1-0.6 0-0.6 0.4v4.7c0 0.4 0.3 0.8 0.6 1l4.1 2.4c0.3 0.1 0.6 0 0.6-0.4v-4.7c0-0.4-0.3-0.8-0.6-1z"/>
							<path id="&lt;Path&gt;" class="s5" d="m555.5 165l-4.2-2.3c-0.3-0.2-0.5-0.1-0.5 0.3v4.7c0 0.4 0.2 0.8 0.5 1l4.2 2.4c0.3 0.2 0.5 0 0.5-0.3v-4.8c0-0.3-0.2-0.8-0.5-1z"/>
							<path id="&lt;Path&gt;" class="s5" d="m561.8 175.9l-4.1-2.3c-0.3-0.2-0.6-0.1-0.6 0.3v4.7c0 0.4 0.3 0.8 0.6 1l4.1 2.4c0.3 0.2 0.6 0 0.6-0.3v-4.8c0-0.3-0.3-0.8-0.6-1z"/>
							<path id="&lt;Path&gt;" class="s5" d="m555.5 172.3l-4.2-2.4c-0.3-0.2-0.5 0-0.5 0.3v4.8c0 0.3 0.2 0.8 0.5 0.9l4.2 2.4c0.3 0.2 0.5 0 0.5-0.3v-4.8c0-0.3-0.2-0.8-0.5-0.9z"/>
							<path id="&lt;Path&gt;" class="s5" d="m561.8 183.2l-4.1-2.4c-0.3-0.2-0.6-0.1-0.6 0.3v4.8c0 0.3 0.3 0.8 0.6 0.9l4.1 2.4c0.3 0.2 0.6 0 0.6-0.3v-4.8c0-0.3-0.3-0.8-0.6-0.9z"/>
							<path id="&lt;Path&gt;" class="s5" d="m555.5 179.5l-4.2-2.4c-0.3-0.2-0.5 0-0.5 0.3v4.8c0 0.3 0.2 0.8 0.5 1l4.2 2.3c0.3 0.2 0.5 0.1 0.5-0.3v-4.8c0-0.3-0.2-0.7-0.5-0.9z"/>
							<path id="&lt;Path&gt;" class="s5" d="m561.8 190.4l-4.1-2.4c-0.3-0.2-0.6 0-0.6 0.3v4.8c0 0.3 0.3 0.8 0.6 0.9l4.1 2.4c0.3 0.2 0.6 0.1 0.6-0.3v-4.8c0-0.3-0.3-0.7-0.6-0.9z"/>
							<path id="&lt;Path&gt;" class="s5" d="m555.5 186.7l-4.2-2.4c-0.3-0.2-0.5 0-0.5 0.3v4.8c0 0.4 0.2 0.8 0.5 1l4.2 2.3c0.3 0.2 0.5 0.1 0.5-0.3v-4.7c0-0.4-0.2-0.8-0.5-1z"/>
							<path id="&lt;Path&gt;" class="s5" d="m561.8 197.6l-4.1-2.4c-0.3-0.2-0.6 0-0.6 0.3v4.8c0 0.4 0.3 0.8 0.6 1l4.1 2.3c0.3 0.2 0.6 0.1 0.6-0.3v-4.7c0-0.4-0.3-0.8-0.6-1z"/>
							<path id="&lt;Path&gt;" class="s5" d="m555.5 193.9l-4.2-2.4c-0.3-0.1-0.5 0-0.5 0.4v4.7c0 0.4 0.2 0.8 0.5 1l4.2 2.4c0.3 0.1 0.5 0 0.5-0.4v-4.7c0-0.4-0.2-0.8-0.5-1z"/>
							<path id="&lt;Path&gt;" class="s5" d="m561.8 204.8l-4.1-2.4c-0.3-0.1-0.6 0-0.6 0.4v4.7c0 0.4 0.3 0.8 0.6 1l4.1 2.4c0.3 0.1 0.6 0 0.6-0.4v-4.7c0-0.4-0.3-0.8-0.6-1z"/>
							<path id="&lt;Path&gt;" class="s5" d="m555.5 201.1l-4.2-2.3c-0.3-0.2-0.5-0.1-0.5 0.3v4.7c0 0.4 0.2 0.8 0.5 1l4.2 2.4c0.3 0.2 0.5 0 0.5-0.3v-4.8c0-0.4-0.2-0.8-0.5-1z"/>
							<path id="&lt;Path&gt;" class="s5" d="m561.8 212l-4.1-2.3c-0.3-0.2-0.6-0.1-0.6 0.3v4.7c0 0.4 0.3 0.8 0.6 1l4.1 2.4c0.3 0.2 0.6 0 0.6-0.3v-4.8c0-0.4-0.3-0.8-0.6-1z"/>
							<path id="&lt;Path&gt;" class="s5" d="m555.5 208.4l-4.2-2.4c-0.3-0.2-0.5-0.1-0.5 0.3v4.8c0 0.3 0.2 0.7 0.5 0.9l4.2 2.4c0.3 0.2 0.5 0 0.5-0.3v-4.8c0-0.3-0.2-0.8-0.5-0.9z"/>
						</g>
						<path id="&lt;Path&gt;" class="s10" d="m561.6 221.1l-6.2-3.6c-0.5-0.2-0.8 0-0.8 0.5v7.1c0 0.5 0.3 1.2 0.8 1.5l6.2 3.5c0.4 0.3 0.8 0.1 0.8-0.5v-7.1c0-0.5-0.4-1.2-0.8-1.4z"/>
						<path id="&lt;Compound Path&gt;" fill-rule="evenodd" class="s6" d="m551.5 220.5l6.1 3.6c0.5 0.3 0.9 0.9 0.9 1.4v7.1c0 0.4-0.2 0.6-0.5 0.6q-0.2 0-0.4-0.1l-6.1-3.5c-0.5-0.3-0.8-1-0.8-1.5v-7.1c0-0.4 0.2-0.6 0.4-0.6q0.2 0 0.4 0.1zm0.5 7.6c0 0.1 0.1 0.3 0.1 0.3l5.1 3v-5.9c0-0.1-0.1-0.2-0.2-0.3l-5-2.9z"/>
					</g>
					<path id="&lt;Path&gt;" class="s5" d="m692.8 240.4l-110.7-63.9c-2.3-1.4-4.2-0.3-4.2 2.4v82c0 2.7 1.9 6 4.2 7.4l110.7 63.8c2.4 1.4 4.3 0.3 4.3-2.4v-82c0-2.7-1.9-6-4.3-7.3z"/>
					<g id="&lt;Group&gt;">
						<g id="&lt;Group&gt;">
							<g id="&lt;Group&gt;">
								<path id="&lt;Path&gt;" class="s2" d="m588.3 193.1c-0.2 0-0.4-0.2-0.4-0.4v-1.2q0-0.2 0.2-0.3 0.2-0.1 0.3 0l1.1 0.6c0.2 0.1 0.2 0.3 0.1 0.5 0 0.1-0.2 0.2-0.4 0.1l-0.6-0.4v0.7c0 0.2-0.2 0.4-0.3 0.4z"/>
							</g>
							<g id="&lt;Group&gt;">
								<path id="&lt;Compound Path&gt;" class="s2" d="m626.2 213.7q-0.1 0-0.2-0.1l-2.3-1.3c-0.1-0.1-0.2-0.3-0.1-0.4 0.1-0.2 0.3-0.2 0.5-0.1l2.3 1.3c0.1 0.1 0.2 0.3 0.1 0.4q-0.1 0.2-0.3 0.2zm-4.6-2.7q-0.1 0-0.2 0l-2.3-1.3c-0.1-0.1-0.2-0.3-0.1-0.5 0.1-0.1 0.3-0.2 0.5-0.1l2.3 1.3c0.1 0.1 0.2 0.3 0.1 0.5q-0.1 0.1-0.3 0.1zm-4.6-2.6q-0.1 0-0.2-0.1l-2.3-1.3c-0.1-0.1-0.2-0.3-0.1-0.4 0.1-0.2 0.3-0.2 0.4-0.2l2.4 1.4c0.1 0.1 0.2 0.3 0.1 0.4q-0.1 0.2-0.3 0.2zm-4.6-2.7q-0.1 0-0.2 0l-2.3-1.4c-0.1 0-0.2-0.2-0.1-0.4 0.1-0.1 0.3-0.2 0.4-0.1l2.3 1.3c0.2 0.1 0.3 0.3 0.2 0.5q-0.1 0.1-0.3 0.1zm-4.6-2.6q-0.1 0-0.2-0.1l-2.3-1.3c-0.1-0.1-0.2-0.3-0.1-0.5 0.1-0.1 0.3-0.2 0.4-0.1l2.3 1.4c0.2 0 0.2 0.2 0.2 0.4q-0.1 0.2-0.3 0.2zm-4.6-2.7q-0.1 0-0.2 0l-2.3-1.4c-0.1-0.1-0.2-0.3-0.1-0.4 0.1-0.2 0.3-0.2 0.4-0.1l2.3 1.3c0.2 0.1 0.2 0.3 0.2 0.4q-0.1 0.2-0.3 0.2zm-4.6-2.7q-0.1 0-0.2 0l-2.3-1.3c-0.1-0.1-0.2-0.3-0.1-0.5 0.1-0.1 0.3-0.2 0.4-0.1l2.3 1.3c0.2 0.1 0.2 0.3 0.2 0.5q-0.1 0.1-0.3 0.1zm-4.6-2.6q-0.1 0-0.2-0.1l-2.3-1.3c-0.1-0.1-0.2-0.3-0.1-0.4 0.1-0.2 0.3-0.2 0.4-0.1l2.3 1.3c0.2 0.1 0.2 0.3 0.1 0.4q-0.1 0.2-0.2 0.2z"/>
							</g>
							<g id="&lt;Group&gt;">
								<path id="&lt;Path&gt;" class="s2" d="m629.6 216.9c-0.2 0-0.3-0.1-0.3-0.3v-1.1l-1-0.5c-0.1-0.1-0.2-0.3-0.1-0.5 0.1-0.1 0.3-0.2 0.5-0.1l1.1 0.7q0.1 0.1 0.1 0.2v1.3c0 0.2-0.1 0.3-0.3 0.3z"/>
							</g>
							<g id="&lt;Group&gt;">
								<path id="&lt;Compound Path&gt;" class="s2" d="m629.6 278.9c-0.2 0-0.3-0.2-0.3-0.3v-2.6c0-0.2 0.1-0.3 0.3-0.3 0.2 0 0.3 0.1 0.3 0.3v2.6c0 0.1-0.1 0.3-0.3 0.3zm0-5.2c-0.2 0-0.3-0.1-0.3-0.3v-2.6c0-0.2 0.1-0.3 0.3-0.3 0.2 0 0.3 0.1 0.3 0.3v2.6c0 0.2-0.1 0.3-0.3 0.3zm0-5.1c-0.2 0-0.3-0.2-0.3-0.4v-2.5c0-0.2 0.1-0.4 0.3-0.4 0.2 0 0.3 0.2 0.3 0.4v2.5c0 0.2-0.1 0.4-0.3 0.4zm0-5.2c-0.2 0-0.3-0.1-0.3-0.3v-2.6c0-0.2 0.1-0.3 0.3-0.3 0.2 0 0.3 0.1 0.3 0.3v2.6c0 0.2-0.1 0.3-0.3 0.3zm0-5.2c-0.2 0-0.3-0.1-0.3-0.3v-2.6c0-0.1 0.1-0.3 0.3-0.3 0.2 0 0.3 0.2 0.3 0.3v2.6c0 0.2-0.1 0.3-0.3 0.3zm0-5.1c-0.2 0-0.3-0.2-0.3-0.3v-2.6c0-0.2 0.1-0.3 0.3-0.3 0.2 0 0.3 0.1 0.3 0.3v2.6c0 0.1-0.1 0.3-0.3 0.3zm0-5.2c-0.2 0-0.3-0.1-0.3-0.3v-2.6c0-0.2 0.1-0.3 0.3-0.3 0.2 0 0.3 0.1 0.3 0.3v2.6c0 0.2-0.1 0.3-0.3 0.3zm0-5.1c-0.2 0-0.3-0.2-0.3-0.4v-2.5c0-0.2 0.1-0.4 0.3-0.4 0.2 0 0.3 0.2 0.3 0.4v2.5c0 0.2-0.1 0.4-0.3 0.4zm0-5.2c-0.2 0-0.3-0.1-0.3-0.3v-2.6c0-0.2 0.1-0.3 0.3-0.3 0.2 0 0.3 0.1 0.3 0.3v2.6c0 0.2-0.1 0.3-0.3 0.3zm0-5.2c-0.2 0-0.3-0.1-0.3-0.3v-2.6c0-0.1 0.1-0.3 0.3-0.3 0.2 0 0.3 0.2 0.3 0.3v2.6c0 0.2-0.1 0.3-0.3 0.3zm0-5.1c-0.2 0-0.3-0.2-0.3-0.4v-2.5c0-0.2 0.1-0.4 0.3-0.4 0.2 0 0.3 0.2 0.3 0.4v2.5c0 0.2-0.1 0.4-0.3 0.4zm0-5.2c-0.2 0-0.3-0.1-0.3-0.3v-2.6c0-0.2 0.1-0.3 0.3-0.3 0.2 0 0.3 0.1 0.3 0.3v2.6c0 0.2-0.1 0.3-0.3 0.3z"/>
							</g>
							<g id="&lt;Group&gt;">
								<path id="&lt;Path&gt;" class="s2" d="m629.6 282.8q-0.1 0-0.2-0.1l-1.1-0.6c-0.1-0.1-0.2-0.3-0.1-0.5 0.1-0.1 0.3-0.2 0.5-0.1l0.6 0.4v-0.8c0-0.1 0.1-0.3 0.3-0.3 0.2 0 0.3 0.2 0.3 0.3v1.3q0 0.2-0.1 0.3-0.1 0.1-0.2 0.1z"/>
							</g>
							<g id="&lt;Group&gt;">
								<path id="&lt;Compound Path&gt;" class="s2" d="m626.2 280.8q-0.1 0-0.2-0.1l-2.3-1.3c-0.1-0.1-0.2-0.3-0.1-0.4 0.1-0.2 0.3-0.2 0.5-0.1l2.3 1.3c0.1 0.1 0.2 0.3 0.1 0.4q-0.1 0.2-0.3 0.2zm-4.6-2.7q-0.1 0-0.2 0l-2.3-1.3c-0.1-0.1-0.2-0.3-0.1-0.5 0.1-0.1 0.3-0.2 0.5-0.1l2.3 1.3c0.1 0.1 0.2 0.3 0.1 0.5q-0.1 0.1-0.3 0.1zm-4.6-2.6q-0.1 0-0.2-0.1l-2.3-1.3c-0.1-0.1-0.2-0.3-0.1-0.4 0.1-0.2 0.3-0.2 0.4-0.2l2.3 1.4c0.2 0.1 0.3 0.3 0.2 0.4q-0.1 0.2-0.3 0.2zm-4.6-2.7q-0.1 0-0.2 0l-2.3-1.4c-0.1-0.1-0.2-0.2-0.1-0.4 0.1-0.2 0.3-0.2 0.4-0.1l2.3 1.3c0.2 0.1 0.2 0.3 0.2 0.4q-0.1 0.2-0.3 0.2zm-4.6-2.7q-0.1 0-0.2 0l-2.3-1.3c-0.1-0.1-0.2-0.3-0.1-0.5 0.1-0.1 0.3-0.2 0.4-0.1l2.3 1.3c0.2 0.1 0.2 0.3 0.2 0.5q-0.1 0.1-0.3 0.1zm-4.6-2.6q-0.1 0-0.2 0l-2.3-1.4c-0.1-0.1-0.2-0.3-0.1-0.4 0.1-0.2 0.3-0.2 0.4-0.1l2.3 1.3c0.2 0.1 0.2 0.3 0.2 0.4q-0.1 0.2-0.3 0.2zm-4.6-2.7q-0.1 0-0.2 0l-2.3-1.3c-0.1-0.1-0.2-0.3-0.1-0.5 0.1-0.1 0.3-0.2 0.4-0.1l2.3 1.3c0.2 0.1 0.2 0.3 0.2 0.5q-0.1 0.1-0.3 0.1zm-4.6-2.6q-0.1 0-0.2-0.1l-2.3-1.3c-0.1-0.1-0.2-0.3-0.1-0.4 0.1-0.2 0.3-0.2 0.4-0.2l2.3 1.4c0.2 0.1 0.2 0.3 0.1 0.4q-0.1 0.2-0.2 0.2z"/>
							</g>
							<g id="&lt;Group&gt;">
								<path id="&lt;Path&gt;" class="s2" d="m589.4 259.5q-0.1 0-0.2 0l-1.1-0.7q-0.2-0.1-0.2-0.2v-1.3c0-0.2 0.2-0.3 0.4-0.3 0.1 0 0.3 0.1 0.3 0.3v1.1l0.9 0.5c0.2 0.1 0.2 0.3 0.1 0.5q-0.1 0.1-0.2 0.1z"/>
							</g>
							<g id="&lt;Group&gt;">
								<path id="&lt;Compound Path&gt;" class="s2" d="m588.3 255c-0.2 0-0.4-0.1-0.4-0.3v-2.6c0-0.2 0.2-0.3 0.4-0.3 0.1 0 0.3 0.1 0.3 0.3v2.6c0 0.2-0.2 0.3-0.3 0.3zm0-5.2c-0.2 0-0.4-0.1-0.4-0.3v-2.6c0-0.1 0.2-0.3 0.4-0.3 0.1 0 0.3 0.2 0.3 0.3v2.6c0 0.2-0.2 0.3-0.3 0.3zm0-5.1c-0.2 0-0.4-0.2-0.4-0.3v-2.6c0-0.2 0.2-0.3 0.4-0.3 0.1 0 0.3 0.1 0.3 0.3v2.6c0 0.1-0.2 0.3-0.3 0.3zm0-5.2c-0.2 0-0.4-0.1-0.4-0.3v-2.6c0-0.2 0.2-0.3 0.4-0.3 0.1 0 0.3 0.1 0.3 0.3v2.6c0 0.2-0.2 0.3-0.3 0.3zm0-5.1c-0.2 0-0.4-0.2-0.4-0.4v-2.5c0-0.2 0.2-0.4 0.4-0.4 0.1 0 0.3 0.2 0.3 0.4v2.5c0 0.2-0.2 0.4-0.3 0.4zm0-5.2c-0.2 0-0.4-0.1-0.4-0.3v-2.6c0-0.2 0.2-0.3 0.4-0.3 0.1 0 0.3 0.1 0.3 0.3v2.6c0 0.2-0.2 0.3-0.3 0.3zm0-5.2c-0.2 0-0.4-0.1-0.4-0.3v-2.6c0-0.1 0.2-0.3 0.4-0.3 0.1 0 0.3 0.2 0.3 0.3v2.6c0 0.2-0.2 0.3-0.3 0.3zm0-5.1c-0.2 0-0.4-0.2-0.4-0.3v-2.6c0-0.2 0.2-0.3 0.4-0.3 0.1 0 0.3 0.1 0.3 0.3v2.6c0 0.1-0.2 0.3-0.3 0.3zm0-5.2c-0.2 0-0.4-0.1-0.4-0.3v-2.6c0-0.2 0.2-0.3 0.4-0.3 0.1 0 0.3 0.1 0.3 0.3v2.6c0 0.2-0.2 0.3-0.3 0.3zm0-5.1c-0.2 0-0.4-0.2-0.4-0.4v-2.5c0-0.2 0.2-0.4 0.4-0.4 0.1 0 0.3 0.2 0.3 0.4v2.5c0 0.2-0.2 0.4-0.3 0.4zm0-5.2c-0.2 0-0.4-0.1-0.4-0.3v-2.6c0-0.2 0.2-0.3 0.4-0.3 0.1 0 0.3 0.1 0.3 0.3v2.6c0 0.2-0.2 0.3-0.3 0.3zm0-5.2c-0.2 0-0.4-0.1-0.4-0.3v-2.6c0-0.1 0.2-0.3 0.4-0.3 0.1 0 0.3 0.2 0.3 0.3v2.6c0 0.2-0.2 0.3-0.3 0.3z"/>
							</g>
						</g>
						<g id="&lt;Group&gt;">
							<g id="&lt;Group&gt;">
								<path id="&lt;Path&gt;" class="s2" d="m588.8 193q-0.2-0.1-0.3-0.2l-0.5-1.2c-0.1-0.2 0-0.4 0.1-0.4 0.2-0.1 0.4 0 0.4 0.1l0.6 1.2c0.1 0.2 0 0.4-0.2 0.4q0 0.1-0.1 0.1z"/>
							</g>
							<g id="&lt;Group&gt;">
								<path id="&lt;Compound Path&gt;" class="s2" d="m628 279.2q-0.2 0-0.3-0.2l-1.1-2.4c-0.1-0.2 0-0.3 0.2-0.4 0.1-0.1 0.3 0 0.4 0.1l1.1 2.4c0.1 0.2 0 0.4-0.2 0.5q0 0-0.1 0zm-2.2-4.8q-0.2 0-0.3-0.2l-1.1-2.4c0-0.1 0-0.3 0.2-0.4 0.1-0.1 0.3 0 0.4 0.1l1.1 2.4c0.1 0.2 0 0.4-0.2 0.5q0 0-0.1 0zm-2.2-4.8q-0.2 0-0.3-0.2l-1-2.4c-0.1-0.1 0-0.3 0.1-0.4 0.2-0.1 0.4 0 0.4 0.2l1.1 2.4c0.1 0.1 0 0.3-0.1 0.4q-0.1 0-0.2 0zm-2.1-4.8q-0.2 0-0.3-0.2l-1.1-2.4c-0.1-0.1 0-0.3 0.1-0.4 0.2-0.1 0.4 0 0.5 0.2l1 2.4c0.1 0.1 0 0.3-0.1 0.4q-0.1 0-0.1 0zm-2.2-4.8q-0.2 0-0.3-0.2l-1.1-2.4c-0.1-0.1 0-0.3 0.2-0.4 0.1-0.1 0.3 0 0.4 0.2l1.1 2.4c0 0.1 0 0.3-0.2 0.4q-0.1 0-0.1 0zm-2.2-4.8q-0.2 0-0.3-0.2l-1.1-2.3c-0.1-0.2 0-0.4 0.2-0.5 0.1 0 0.3 0 0.4 0.2l1.1 2.4c0.1 0.1 0 0.3-0.2 0.4q0 0-0.1 0zm-2.2-4.8q-0.2 0-0.3-0.1l-1.1-2.4c0-0.2 0-0.4 0.2-0.5 0.2 0 0.4 0 0.4 0.2l1.1 2.4c0.1 0.2 0 0.3-0.1 0.4q-0.1 0-0.2 0zm-2.2-4.7q-0.2-0.1-0.2-0.2l-1.1-2.4c-0.1-0.2 0-0.4 0.1-0.5 0.2 0 0.4 0 0.4 0.2l1.1 2.4c0.1 0.2 0 0.4-0.1 0.4q-0.1 0.1-0.2 0.1zm-2.1-4.8q-0.2 0-0.3-0.2l-1.1-2.4c-0.1-0.2 0-0.4 0.1-0.4 0.2-0.1 0.4 0 0.5 0.1l1.1 2.4c0 0.2 0 0.4-0.2 0.4q-0.1 0.1-0.1 0.1zm-2.2-4.8q-0.2 0-0.3-0.2l-1.1-2.4c-0.1-0.2 0-0.4 0.2-0.4 0.1-0.1 0.3 0 0.4 0.1l1.1 2.4c0.1 0.2 0 0.4-0.2 0.4q0 0.1-0.1 0.1zm-2.2-4.8q-0.2 0-0.3-0.2l-1.1-2.4c0-0.2 0-0.4 0.2-0.4 0.1-0.1 0.3 0 0.4 0.1l1.1 2.4c0.1 0.2 0 0.4-0.2 0.5q0 0-0.1 0zm-2.2-4.8q-0.2 0-0.3-0.2l-1-2.4c-0.1-0.2-0.1-0.3 0.1-0.4 0.2-0.1 0.4 0 0.4 0.1l1.1 2.4c0.1 0.2 0 0.4-0.1 0.5q-0.1 0-0.2 0zm-2.1-4.8q-0.2 0-0.3-0.2l-1.1-2.4c-0.1-0.1 0-0.3 0.1-0.4 0.2-0.1 0.4 0 0.5 0.2l1 2.3c0.1 0.2 0 0.4-0.1 0.5q-0.1 0-0.1 0zm-2.2-4.8q-0.2 0-0.3-0.2l-1.1-2.4c-0.1-0.1 0-0.3 0.2-0.4 0.1-0.1 0.3 0 0.4 0.2l1.1 2.4c0 0.1 0 0.3-0.2 0.4q-0.1 0-0.1 0zm-2.2-4.8q-0.2 0-0.3-0.2l-1.1-2.4c-0.1-0.1 0-0.3 0.2-0.4 0.1-0.1 0.3 0 0.4 0.2l1.1 2.4c0.1 0.1 0 0.3-0.2 0.4q0 0-0.1 0zm-2.2-4.8q-0.2 0-0.3-0.2l-1.1-2.4c0-0.1 0-0.3 0.2-0.4 0.2-0.1 0.3 0 0.4 0.2l1.1 2.4c0.1 0.1 0 0.3-0.1 0.4q-0.1 0-0.2 0zm-2.2-4.8q-0.2 0-0.2-0.2l-1.1-2.3c-0.1-0.2 0-0.4 0.1-0.5 0.2 0 0.4 0 0.4 0.2l1.1 2.4c0.1 0.1 0 0.3-0.1 0.4q-0.1 0-0.2 0zm-2.1-4.8q-0.2 0-0.3-0.1l-1.1-2.4c-0.1-0.2 0-0.4 0.1-0.5 0.2 0 0.4 0 0.5 0.2l1.1 2.4c0 0.2 0 0.3-0.2 0.4q-0.1 0-0.1 0z"/>
							</g>
							<g id="&lt;Group&gt;">
								<path id="&lt;Path&gt;" class="s2" d="m629.6 282.8q-0.2-0.1-0.3-0.2l-0.5-1.2c-0.1-0.2 0-0.4 0.1-0.4 0.2-0.1 0.4 0 0.5 0.1l0.5 1.2c0.1 0.2 0 0.4-0.2 0.4q0 0.1-0.1 0.1z"/>
							</g>
						</g>
						<g id="&lt;Group&gt;">
							<g id="&lt;Group&gt;">
								<path id="&lt;Path&gt;" class="s2" d="m628.7 216.6q-0.1 0-0.2-0.1c-0.1-0.1-0.1-0.3 0-0.5l0.9-0.9c0.1-0.1 0.3-0.1 0.4 0 0.2 0.1 0.2 0.3 0 0.5l-0.8 0.9q-0.1 0.1-0.3 0.1z"/>
							</g>
							<g id="&lt;Group&gt;">
								<path id="&lt;Compound Path&gt;" class="s2" d="m590.9 256.1q-0.2 0.1-0.3 0c-0.1-0.2-0.1-0.4 0-0.5l1.8-1.8c0.1-0.1 0.3-0.1 0.4 0 0.1 0.1 0.1 0.3 0 0.5l-1.7 1.8q-0.1 0.1-0.2 0zm3.4-3.5q-0.1 0-0.2-0.1c-0.1-0.2-0.1-0.4 0-0.5l1.7-1.8c0.1-0.1 0.3-0.1 0.4 0 0.2 0.1 0.2 0.3 0.1 0.5l-1.8 1.8q-0.1 0.1-0.2 0.1zm3.4-3.6q-0.1 0-0.2-0.1c-0.1-0.2-0.1-0.4 0-0.5l1.7-1.8c0.2-0.1 0.4-0.1 0.5 0 0.1 0.1 0.1 0.3 0 0.5l-1.7 1.8q-0.1 0.1-0.3 0.1zm3.5-3.6q-0.1 0-0.2-0.1c-0.2-0.2-0.2-0.4 0-0.5l1.7-1.8c0.1-0.1 0.3-0.1 0.4 0 0.2 0.1 0.2 0.3 0 0.5l-1.7 1.8q-0.1 0.1-0.2 0.1zm3.4-3.6q-0.1 0-0.2-0.1c-0.1-0.1-0.1-0.4 0-0.5l1.7-1.8c0.1-0.1 0.3-0.1 0.5 0 0.1 0.1 0.1 0.3 0 0.5l-1.7 1.8q-0.1 0.1-0.3 0.1zm3.5-3.6q-0.2 0-0.3-0.1c-0.1-0.1-0.1-0.3 0-0.5l1.8-1.8c0.1-0.1 0.3-0.1 0.4 0 0.1 0.1 0.1 0.3 0 0.5l-1.7 1.8q-0.1 0.1-0.2 0.1zm3.4-3.6q-0.1 0-0.2-0.1c-0.1-0.1-0.1-0.3 0-0.5l1.7-1.8c0.1-0.1 0.3-0.1 0.5 0 0.1 0.1 0.1 0.3 0 0.5l-1.8 1.8q-0.1 0.1-0.2 0.1zm3.5-3.6q-0.2 0-0.3-0.1c-0.1-0.1-0.1-0.3 0-0.5l1.7-1.8c0.2-0.1 0.4-0.1 0.5 0 0.1 0.1 0.1 0.3 0 0.5l-1.7 1.8q-0.1 0.1-0.2 0.1zm3.4-3.6q-0.1 0-0.2-0.1c-0.2-0.1-0.2-0.3 0-0.5l1.7-1.8c0.1-0.1 0.3-0.1 0.4 0 0.2 0.2 0.2 0.4 0 0.5l-1.7 1.8q-0.1 0.1-0.2 0.1zm3.4-3.6q-0.1 0-0.2-0.1c-0.1-0.1-0.1-0.3 0-0.5l1.7-1.8c0.1-0.1 0.4-0.1 0.5 0 0.1 0.2 0.1 0.4 0 0.5l-1.7 1.8q-0.1 0.1-0.3 0.1zm3.5-3.6q-0.1 0-0.2-0.1c-0.2-0.1-0.2-0.3-0.1-0.5l1.8-1.8c0.1-0.1 0.3-0.1 0.4 0 0.2 0.2 0.2 0.4 0 0.5l-1.7 1.8q-0.1 0.1-0.2 0.1z"/>
							</g>
							<g id="&lt;Group&gt;">
								<path id="&lt;Path&gt;" class="s2" d="m588.3 258.9q-0.2 0-0.3-0.1c-0.1-0.1-0.1-0.3 0-0.5l0.9-0.9c0.1-0.1 0.3-0.1 0.5 0 0.1 0.1 0.1 0.3 0 0.4l-0.9 1q-0.1 0.1-0.2 0.1z"/>
							</g>
						</g>
						<g id="&lt;Group&gt;">
							<g id="&lt;Group&gt;">
								<path id="&lt;Path&gt;" class="s2" d="m608.9 270.8c-0.1 0-0.3-0.1-0.3-0.3v-1.3c0-0.2 0.2-0.3 0.3-0.3 0.2 0 0.4 0.1 0.4 0.3v1.3c0 0.2-0.2 0.3-0.4 0.3z"/>
							</g>
							<g id="&lt;Group&gt;">
								<path id="&lt;Compound Path&gt;" class="s2" d="m608.9 267.1c-0.1 0-0.3-0.1-0.3-0.3v-2.4c0-0.1 0.2-0.3 0.3-0.3 0.2 0 0.4 0.2 0.4 0.3v2.4c0 0.2-0.2 0.3-0.4 0.3zm0-4.7c-0.1 0-0.3-0.2-0.3-0.3v-2.4c0-0.2 0.2-0.3 0.3-0.3 0.2 0 0.4 0.1 0.4 0.3v2.4c0 0.1-0.2 0.3-0.4 0.3zm0-4.8c-0.1 0-0.3-0.1-0.3-0.3v-2.4c0-0.2 0.2-0.3 0.3-0.3 0.2 0 0.4 0.1 0.4 0.3v2.4c0 0.2-0.2 0.3-0.4 0.3zm0-4.8c-0.1 0-0.3-0.1-0.3-0.3v-2.4c0-0.1 0.2-0.3 0.3-0.3 0.2 0 0.4 0.2 0.4 0.3v2.4c0 0.2-0.2 0.3-0.4 0.3zm0-4.7c-0.1 0-0.3-0.2-0.3-0.3v-2.4c0-0.2 0.2-0.3 0.3-0.3 0.2 0 0.4 0.1 0.4 0.3v2.4c0 0.1-0.2 0.3-0.4 0.3zm0-4.8c-0.1 0-0.3-0.1-0.3-0.3v-2.4c0-0.2 0.2-0.3 0.3-0.3 0.2 0 0.4 0.1 0.4 0.3v2.4c0 0.2-0.2 0.3-0.4 0.3z"/>
							</g>
							<g id="&lt;Group&gt;">
								<path id="&lt;Path&gt;" class="s2" d="m608.9 238.6c-0.1 0-0.3-0.2-0.3-0.4v-1.3q0-0.1 0.2-0.2 0.1-0.1 0.3 0l1.1 0.6c0.2 0.1 0.2 0.3 0.1 0.5-0.1 0.1-0.3 0.2-0.4 0.1l-0.6-0.4v0.7c0 0.2-0.2 0.4-0.4 0.4z"/>
							</g>
							<g id="&lt;Group&gt;">
								<path id="&lt;Compound Path&gt;" class="s2" d="m626.4 247.4q-0.1 0-0.1-0.1l-2.1-1.2c-0.1 0-0.2-0.2-0.1-0.4 0.1-0.2 0.3-0.2 0.4-0.1l2.1 1.2c0.1 0.1 0.2 0.3 0.1 0.4q-0.1 0.2-0.3 0.2zm-4.1-2.4q-0.1 0-0.1 0l-2.1-1.2c-0.1-0.1-0.2-0.3-0.1-0.5 0.1-0.1 0.3-0.2 0.4-0.1l2.1 1.2c0.1 0.1 0.2 0.3 0.1 0.4q-0.1 0.2-0.3 0.2zm-4.1-2.4q-0.1 0-0.1 0l-2.1-1.2c-0.1-0.1-0.2-0.3-0.1-0.4 0.1-0.2 0.3-0.2 0.4-0.1l2.1 1.1c0.1 0.1 0.2 0.3 0.1 0.5q-0.1 0.1-0.3 0.1zm-4.1-2.3q0 0-0.1-0.1l-2.1-1.1c-0.1-0.1-0.2-0.3-0.1-0.5 0.1-0.1 0.3-0.2 0.5-0.1l2 1.2c0.2 0.1 0.2 0.3 0.1 0.4q-0.1 0.2-0.3 0.2z"/>
							</g>
							<g id="&lt;Group&gt;">
								<path id="&lt;Path&gt;" class="s2" d="m629.6 249.2q-0.1 0-0.2-0.1l-1.1-0.6c-0.1-0.1-0.2-0.3-0.1-0.4 0.1-0.2 0.3-0.2 0.4-0.2l1.1 0.7c0.2 0.1 0.2 0.3 0.2 0.4q-0.1 0.2-0.3 0.2z"/>
							</g>
						</g>
						<g id="&lt;Group&gt;">
							<g id="&lt;Group&gt;">
								<path id="&lt;Path&gt;" class="s2" d="m608.9 204.8c-0.1 0-0.3-0.1-0.3-0.3v-1.3c0-0.2 0.2-0.3 0.3-0.3 0.2 0 0.4 0.1 0.4 0.3v1.3c0 0.2-0.2 0.3-0.4 0.3z"/>
							</g>
							<g id="&lt;Group&gt;">
								<path id="&lt;Compound Path&gt;" class="s2" d="m608.9 233.4c-0.1 0-0.3-0.1-0.3-0.3v-2.4c0-0.2 0.2-0.3 0.3-0.3 0.2 0 0.4 0.1 0.4 0.3v2.4c0 0.2-0.2 0.3-0.4 0.3zm0-4.8c-0.1 0-0.3-0.1-0.3-0.3v-2.4c0-0.1 0.2-0.3 0.3-0.3 0.2 0 0.4 0.2 0.4 0.3v2.4c0 0.2-0.2 0.3-0.4 0.3zm0-4.7c-0.1 0-0.3-0.2-0.3-0.3v-2.4c0-0.2 0.2-0.3 0.3-0.3 0.2 0 0.4 0.1 0.4 0.3v2.4c0 0.1-0.2 0.3-0.4 0.3zm0-4.8c-0.1 0-0.3-0.1-0.3-0.3v-2.4c0-0.2 0.2-0.3 0.3-0.3 0.2 0 0.4 0.1 0.4 0.3v2.4c0 0.2-0.2 0.3-0.4 0.3zm0-4.8c-0.1 0-0.3-0.1-0.3-0.3v-2.4c0-0.1 0.2-0.3 0.3-0.3 0.2 0 0.4 0.2 0.4 0.3v2.4c0 0.2-0.2 0.3-0.4 0.3zm0-4.7c-0.1 0-0.3-0.2-0.3-0.3v-2.4c0-0.2 0.2-0.3 0.3-0.3 0.2 0 0.4 0.1 0.4 0.3v2.4c0 0.1-0.2 0.3-0.4 0.3z"/>
							</g>
							<g id="&lt;Group&gt;">
								<path id="&lt;Path&gt;" class="s2" d="m608.9 237.1q-0.1 0-0.1-0.1l-1.1-0.6c-0.2-0.1-0.2-0.3-0.2-0.5 0.1-0.1 0.3-0.2 0.5-0.1l0.6 0.4v-0.7c0-0.2 0.2-0.4 0.3-0.4 0.2 0 0.4 0.2 0.4 0.4v1.3q-0.1 0.1-0.2 0.2-0.1 0.1-0.2 0.1z"/>
							</g>
							<g id="&lt;Group&gt;">
								<path id="&lt;Compound Path&gt;" class="s2" d="m605.8 235.2q-0.1 0-0.2 0l-2-1.2c-0.2-0.1-0.2-0.3-0.2-0.4 0.1-0.2 0.3-0.2 0.5-0.1l2 1.1c0.2 0.1 0.2 0.3 0.2 0.5q-0.1 0.1-0.3 0.1zm-4.1-2.3q-0.1 0-0.2-0.1l-2-1.1c-0.2-0.1-0.2-0.3-0.1-0.5 0-0.1 0.2-0.2 0.4-0.1l2 1.2c0.2 0.1 0.2 0.3 0.2 0.4q-0.1 0.2-0.3 0.2zm-4.1-2.4q-0.1 0-0.2 0l-2-1.2c-0.2-0.1-0.2-0.3-0.1-0.4 0-0.2 0.2-0.2 0.4-0.2l2 1.2c0.2 0.1 0.3 0.3 0.2 0.5q-0.1 0.1-0.3 0.1zm-4.1-2.3q-0.1 0-0.2-0.1l-2-1.2c-0.2-0.1-0.2-0.3-0.1-0.4 0.1-0.2 0.3-0.2 0.4-0.1l2.1 1.2c0.1 0 0.2 0.2 0.1 0.4q-0.1 0.2-0.3 0.2z"/>
							</g>
							<g id="&lt;Group&gt;">
								<path id="&lt;Path&gt;" class="s2" d="m589.4 225.8q-0.1 0-0.2 0l-1.1-0.7c-0.1-0.1-0.2-0.3-0.1-0.4 0.1-0.2 0.3-0.2 0.4-0.1l1.2 0.6c0.1 0.1 0.2 0.3 0.1 0.4q-0.1 0.2-0.3 0.2z"/>
							</g>
						</g>
						<path id="&lt;Path&gt;" class="s12" d="m629.6 248.9c0 18.5-9.3 28.2-20.7 21.6-11.5-6.6-20.7-27-20.7-45.5 0-18.6 9.2-28.2 20.7-21.6 11.4 6.6 20.7 26.9 20.7 45.5z"/>
					</g>
					<path id="&lt;Path&gt;" class="s2" d="m640.2 287.3l35 20.1-35-77.1z"/>
					<path id="&lt;Path&gt;" class="s5" d="m543.7 130.5c0-1.4 1-1.9 2.2-1.2l170.2 98.2c1.2 0.7 2.2 2.5 2.2 3.9v9.5l-174.6-100.8z"/>
					<path id="&lt;Path&gt;" class="s6" d="m629.6 330.9c1.9 1.1 3.5 3.9 3.5 6.1 0 2.2-1.6 3.1-3.5 2-1.9-1.1-3.5-3.8-3.5-6.1 0-2.2 1.6-3.1 3.5-2z"/>
					<path id="&lt;Path&gt;" class="s7" d="m733.3 222.7c0.7 1.1 1.1 2.5 1.1 3.7v157.4l7-4v-157.5c0-1.2-0.5-2.5-1.1-3.7z"/>
				</g>
			</g>
			<g id="Tablet 1 ">
				<path id="Shadow 11 " class="s8" d="m646.2 484l-107.8-62.3c-1-0.5-2.6-0.5-3.6 0l-65 37.5c-1 0.6-1 1.6 0 2.2l107.8 62.2c1.1 0.6 2.7 0.6 3.7 0l64.9-37.5c1.1-0.6 1.1-1.5 0-2.1z"/>
				<g id="Tablet 4 ">
					<g id="&lt;Group&gt;">
						<path id="&lt;Path&gt;" class="s2" d="m644.5 477.3l-104.9-60.5c-1-0.6-2.6-0.6-3.5 0l-63.2 36.4c-1 0.6-1.8 2-1.8 3.1v0.7c0 1.1 0.8 2.5 1.8 3.1l104.9 60.5c0.9 0.6 2.5 0.6 3.5 0l63.2-36.4c0.9-0.6 1.7-2 1.7-3.1v-0.7c0-1.2-0.8-2.5-1.7-3.1z"/>
					</g>
					<g id="&lt;Group&gt;">
						<path id="&lt;Path&gt;" class="s2" d="m644.5 477.3l-104.9-60.5c-1-0.6-2.6-0.6-3.5 0l-63.2 36.4c-1 0.6-1 1.5 0 2.1l104.9 60.5c0.9 0.6 2.5 0.6 3.5 0l63.2-36.5c0.9-0.5 0.9-1.4 0-2z"/>
					</g>
					<g id="&lt;Group&gt;" style="opacity: .2">
						<path id="&lt;Path&gt;" class="s3" d="m644.5 477.3l-104.9-60.5c-1-0.6-2.6-0.6-3.5 0l-63.2 36.4c-1 0.6-1 1.5 0 2.1l104.9 60.5c0.9 0.6 2.5 0.6 3.5 0l63.2-36.5c0.9-0.5 0.9-1.4 0-2z"/>
					</g>
					<g id="&lt;Group&gt;">
						<path id="&lt;Path&gt;" class="s5" d="m556.6 436.3c-0.9-0.6-2.5-0.6-3.5 0-7.8 4.4-38.7 22.3-46.5 26.8-1 0.6-1 1.5 0 2 10.2 5.9 61.3 35.4 71.5 41.3 1 0.6 2.6 0.6 3.6 0l46.4-26.8c1-0.6 1-1.5 0-2.1z"/>
					</g>
					<g id="&lt;Group&gt;">
						<g id="&lt;Group&gt;">
							<path id="&lt;Path&gt;" class="s5" d="m523.7 439.4c3.2 1.8 3.2 4.7 0 6.5-3.1 1.8-8.1 1.8-11.3 0-3.1-1.8-3.1-4.7 0-6.5 3.2-1.8 8.2-1.8 11.3 0z"/>
						</g>
						<g id="&lt;Group&gt;">
							<path id="&lt;Path&gt;" class="s5" d="m506.2 446.2l5 2.9c1.5 0.9 1.8 2.1 0.6 2.8-1.1 0.6-3.3 0.5-4.7-0.4l-5.1-2.9c-1.5-0.9-1.7-2.1-0.6-2.8 1.2-0.6 3.3-0.5 4.8 0.4z"/>
							<path id="&lt;Path&gt;" class="s5" d="m500.3 449.6l5 3c1.5 0.8 1.8 2 0.6 2.7-1.1 0.7-3.3 0.5-4.7-0.3l-5.1-3c-1.5-0.8-1.8-2.1-0.6-2.7 1.1-0.7 3.3-0.5 4.8 0.3z"/>
							<path id="&lt;Path&gt;" class="s5" d="m494.3 453l5.1 3c1.5 0.8 1.7 2.1 0.6 2.7-1.2 0.7-3.3 0.6-4.8-0.3l-5-3c-1.5-0.8-1.8-2-0.6-2.7 1.1-0.7 3.3-0.5 4.7 0.3z"/>
						</g>
						<g id="&lt;Group&gt;">
							<path id="&lt;Path&gt;" class="s5" d="m540.2 426.6l5.1 3c1.5 0.8 1.7 2 0.6 2.7-1.2 0.7-3.3 0.5-4.8-0.3l-5.1-3c-1.4-0.8-1.7-2.1-0.5-2.7 1.1-0.7 3.2-0.5 4.7 0.3z"/>
							<path id="&lt;Path&gt;" class="s5" d="m534.3 430l5.1 3c1.4 0.8 1.7 2.1 0.5 2.7-1.1 0.7-3.2 0.5-4.7-0.3l-5.1-3c-1.4-0.8-1.7-2-0.6-2.7 1.2-0.7 3.3-0.5 4.8 0.3z"/>
							<path id="&lt;Path&gt;" class="s5" d="m528.4 433.5l5 2.9c1.5 0.9 1.8 2.1 0.6 2.8-1.1 0.6-3.3 0.5-4.7-0.4l-5.1-2.9c-1.5-0.9-1.7-2.1-0.6-2.8 1.2-0.6 3.3-0.5 4.8 0.4z"/>
						</g>
					</g>
					<g id="&lt;Group&gt;" style="opacity: .3">
						<path id="&lt;Path&gt;" class="s3" d="m579.5 516.2v4.8c0.7 0 1.3-0.1 1.8-0.4l63.2-36.4c1-0.6 1.8-2 1.8-3.1v-0.7c0-1-0.7-2.2-1.5-2.9 0.6 0.6 0.5 1.3-0.3 1.9l-63.2 36.4c-0.5 0.3-1.1 0.4-1.8 0.4z"/>
					</g>
					<g id="&lt;Group&gt;" style="opacity: .5">
						<path id="&lt;Path&gt;" class="s3" d="m471.1 456.3v0.7c0 1.1 0.8 2.5 1.8 3.1l104.8 60.5c0.5 0.3 1.2 0.4 1.8 0.4v-4.8c-0.6 0-1.3-0.1-1.8-0.4l-104.8-60.5c-0.8-0.5-1-1.3-0.3-1.9-0.8 0.7-1.5 1.9-1.5 2.9z"/>
					</g>
				</g>
			</g>
			<g id="Pencil 2 ">
				<path id="Shadow 4 " class="s8" d="m538.4 344c-0.8 1.4-2.3 2.2-4.5 2.6-0.5 0.1-1.1 0-1.5-0.3l-42.7-25-3.9-4.5c-0.2-0.3 0.1-0.9 0.5-0.7l8.6 2.2 43.3 25c0.2 0.2 0.3 0.5 0.2 0.7z"/>
				<g id="&lt;Group&gt;">
					<g id="&lt;Group&gt;">
						<path id="&lt;Path&gt;" class="s13" d="m496.7 315l-8.8-1.7c-0.3 0-0.5 0.3-0.3 0.5l6 6.8z"/>
						<path id="&lt;Path&gt;" class="s7" d="m487.6 313.8c-0.2-0.2 0-0.5 0.3-0.5l1.7 0.4c-0.5 0.3-0.7 0.8-0.7 1.4v0.1z"/>
						<path id="&lt;Path&gt;" class="s2" d="m526.7 339.5l-0.7-0.4-0.9-0.5-31.5-18c-0.3-1-0.1-2 0.3-3 0.6-1.4 1.8-2.5 2.8-2.5l31.5 18 1.7 0.9c-1.2-0.5-4.3 5-3.2 5.5z"/>
						<path id="&lt;Path&gt;" class="s9" d="m523.9 338l-1.6-1c-0.5-0.2-0.2-1.4 0.4-2.6 0.7-1.6 2.2-3.2 2.8-2.9l1.2 0.7 0.4 0.3c-0.6-0.4-2.1 1.2-2.8 2.8-0.6 1.2-0.8 2.3-0.4 2.6q0 0 0 0.1z"/>
						<path id="&lt;Path&gt;" class="s2" d="m523.5 337.7c-1.1-0.6 2.1-6 3.2-5.5l1.6 1c-1.1-0.6-4.3 4.9-3.1 5.5z"/>
						<path id="&lt;Path&gt;" class="s9" d="m526.7 339.5l-1.6-0.9c-1.1-0.6 1.9-5.9 3.1-5.5q0 0 0 0l1.7 0.9c-1.2-0.5-4.3 5-3.2 5.5z"/>
						<path id="&lt;Path&gt;" class="s8" d="m487.6 313.5l0.3-0.2 6.4 3.5 33.3 19.1q0.1-0.1 0.1 0c-0.9 1.5-1.6 3.3-1 3.6l-0.7-0.4-0.9-0.5-31.5-18-6-6.8q-0.1-0.2 0-0.3z"/>
						<path id="&lt;Path&gt;" class="s14" d="m533.5 343.4l-6.8-3.9c-0.5-0.2-0.2-1.4 0.3-2.6 0.8-1.6 2.2-3.2 2.9-2.9q0 0 0 0l6.8 4c1.3 0.7 0.1 3.7-1.4 5-0.6 0.5-1.2 0.7-1.8 0.4z"/>
					</g>
					<path id="&lt;Path&gt;" class="s8" d="m533.1 341.3c0.4-1.5 1.6-3 2.8-3.3q0.6-0.2 1 0.1c1 0.9-0.2 3.6-1.6 4.9-0.6 0.5-1.2 0.7-1.8 0.4-0.5-0.3-0.7-1-0.4-2.1z"/>
				</g>
			</g>
			<g id="Mouse 2 ">
				<path id="&lt;Path&gt;" class="s8" d="m627.1 443.9l13 7.5c4.1 2.4 10.6 2.1 14.4-0.7l21.5-15.7c3.9-2.8 3.6-7-0.5-9.4l-6.5-3.8c-4.1-2.4-10.9-2.6-15.1-0.4l-26.6 14.4c-4.2 2.1-4.4 5.7-0.2 8.1z"/>
				<path id="&lt;Path&gt;" class="s4" d="m676.4 428.1l-14.9 11.7-11 8.6c-1.1 0.5-2.3 0.8-3.5 0.8-1.9 0.1-3.8-0.2-5.2-1.1l-11.7-6.7q0 0 0 0 0-0.1-0.1-0.1c-4.1-2.4-5-7.9-2.3-11.8q0.1-0.2 0.3-0.5c2.2-3 5.5-5.1 9.4-5.9l5.9-1.2c9.6-1.9 17.4-2.9 18.4-2.3l14.6 8.5q0 0 0.1 0z"/>
				<path id="&lt;Path&gt;" class="s6" d="m668.1 434.7l0.8-0.7-13.1-7.6 11.4-3.5q-0.5-0.4-1.1-0.7l-11.5 3.5-7.8-4.5q-0.8 0.2-1.5 0.3z"/>
				<path id="&lt;Path&gt;" class="s1" d="m651.8 447.7q0 0 0.1-0.1 0 0 0 0l10.4-7.5 14.1-10.2v-1.6q0-0.1 0-0.2-0.1 0-0.1 0c-1.1-0.4-7.2 1.5-14.6 4.4l-4.9 2c-1.5 0.6-2.9 1.4-4.2 2.4-3.5 3-5.6 7.3-5.6 12.1v0.2c1.2 0 2.4-0.3 3.5-0.8z"/>
			</g>
			<g id="Palettes 2 ">
				<path id="Shadow 3 " class="s8" d="m694 455.5c0.3-0.5 0.8-0.8 1.5-0.9l101.7-15.7 0.4-0.1c0.8 0 1.5 0.4 1.8 1.1l4.4 9.4 5.5 5.5q0.2 0.2 0.3 0.5l3 1.8c0.6 0.3 0.9 0.8 0.9 1.3 0 0.5-0.3 1-0.9 1.3l-74.4 43c-0.5 0.3-0.9 0.3-1.2 0.3-0.3 0-0.7 0-1.2-0.3l-15.4-8.9c-0.5-0.3-0.8-0.8-0.8-1.3 0-0.6 0.3-1.1 0.8-1.3l18.1-10.5-21.2 7.1q-0.3 0.1-0.8 0.1c-0.6 0-1.1-0.2-1.5-0.6l-10.9-10.9c-0.4-0.4-0.5-0.9-0.4-1.4 0.1-0.5 0.5-1 1.1-1.2l24.1-8-27 4.2h-0.4c-0.8 0-1.6-0.4-1.9-1l-5.6-12.2c-0.2-0.4-0.2-0.9 0-1.3z"/>
				<g id="Palette 3 ">
					<g id="&lt;Group&gt;">
						<g id="&lt;Group&gt;">
							<path id="&lt;Path&gt;" class="s15" d="m720.7 488q0-0.2 0.3-0.4l74.5-43c0.3-0.1 0.8-0.1 1.1 0l15.5 8.9q0.2 0.2 0.2 0.4c0 0.1 0 2.2 0 2.3q0 0.2-0.2 0.3l-74.5 43c-0.3 0.2-0.9 0.2-1.2 0l-15.4-8.9q-0.3-0.1-0.3-0.3c0-0.1 0-2.2 0-2.3z"/>
							<path id="&lt;Path&gt;" class="s10" d="m737 497.4v2.3q0.3 0 0.6-0.2l74.5-43q0.2-0.1 0.2-0.3v-2.3q0 0.2-0.2 0.3l-74.5 43q-0.3 0.2-0.6 0.2z"/>
							<path id="&lt;Path&gt;" class="s16" d="m795.5 444.6l-74.5 43c-0.3 0.2-0.3 0.5 0 0.7l15.4 8.9c0.3 0.2 0.9 0.2 1.2 0l74.5-43c0.3-0.2 0.3-0.5 0-0.7l-15.5-8.9c-0.3-0.1-0.8-0.1-1.1 0z"/>
							<g id="&lt;Group&gt;">
								<path id="&lt;Path&gt;" class="s14" d="m796 448.6l9.3 5.3-9.3 5.3-9.2-5.3z"/>
								<path id="&lt;Path&gt;" class="s17" d="m796 448.6l9.3 5.3-9.3 5.3-9.2-5.3z"/>
								<g id="&lt;Group&gt;">
									<path id="&lt;Path&gt;" class="s14" d="m772.4 462.2l9.2 5.3-9.2 5.4-9.2-5.4z"/>
									<path id="&lt;Path&gt;" class="s18" d="m772.4 462.2l9.2 5.3-9.2 5.4-9.2-5.4z"/>
								</g>
								<g id="&lt;Group&gt;">
									<path id="&lt;Path&gt;" class="s14" d="m760.6 469l9.2 5.3-9.2 5.4-9.2-5.4z"/>
									<path id="&lt;Path&gt;" class="s19" d="m760.6 469l9.2 5.3-9.2 5.4-9.2-5.4z"/>
								</g>
								<g id="&lt;Group&gt;">
									<path id="&lt;Path&gt;" class="s14" d="m748.8 475.8l9.2 5.4-9.2 5.3-9.2-5.3z"/>
									<path id="&lt;Path&gt;" class="s20" d="m748.8 475.8l9.2 5.4-9.2 5.3-9.2-5.3z"/>
								</g>
								<g id="&lt;Group&gt;">
									<path id="&lt;Path&gt;" class="s14" d="m737 482.7l9.2 5.3-9.2 5.3-9.2-5.3z"/>
								</g>
								<g id="&lt;Group&gt;">
									<path id="&lt;Path&gt;" class="s14" d="m784.2 455.4l9.3 5.3-9.3 5.3-9.2-5.3z"/>
									<path id="&lt;Path&gt;" class="s21" d="m784.2 455.4l9.3 5.3-9.3 5.3-9.2-5.3z"/>
								</g>
							</g>
						</g>
					</g>
					<g id="&lt;Group&gt;">
						<path id="&lt;Path&gt;" class="s7" d="m795.1 447.3c0.5 0.3 1.4 0.3 1.9 0 0.5-0.3 0.5-0.8 0-1.1-0.5-0.3-1.4-0.3-1.9 0-0.5 0.3-0.5 0.8 0 1.1z"/>
					</g>
				</g>
				<g id="Palette 2 ">
					<g id="&lt;Group&gt;">
						<path id="&lt;Path&gt;" class="s15" d="m704.8 470.8c0-0.1 0.1-0.3 0.4-0.4l91.2-30.4c0.4-0.1 0.9-0.1 1.2 0.2l10.9 10.9q0.1 0.1 0.1 0.2v2.3c0 0.2-0.2 0.4-0.4 0.5l-91.2 30.4c-0.4 0.1-1 0-1.2-0.2l-10.9-10.9q-0.1-0.1-0.1-0.3c0-0.1 0-2.2 0-2.3z"/>
						<path id="&lt;Path&gt;" class="s10" d="m716.3 482.2v2.3c0.2 0 0.4 0 0.7 0l91.2-30.4c0.2-0.1 0.4-0.3 0.4-0.5v-2.3c0 0.2-0.2 0.4-0.4 0.4l-91.2 30.5c-0.3 0-0.5 0-0.7 0z"/>
						<path id="&lt;Path&gt;" class="s16" d="m796.4 440l-91.2 30.4c-0.4 0.1-0.5 0.4-0.3 0.7l10.9 10.9c0.2 0.2 0.8 0.3 1.2 0.1l91.2-30.4c0.4-0.1 0.5-0.4 0.3-0.6l-10.9-10.9c-0.3-0.3-0.8-0.3-1.2-0.2z"/>
						<g id="&lt;Group&gt;">
							<path id="&lt;Path&gt;" class="s2" d="m795.2 443.9l6.6 6.5-11.3 3.8-6.6-6.6z"/>
							<g id="&lt;Group&gt;">
								<path id="&lt;Path&gt;" class="s2" d="m766.3 453.5l6.5 6.5-11.3 3.8-6.5-6.5z"/>
								<path id="&lt;Path&gt;" class="s22" d="m766.3 453.5l6.5 6.5-11.3 3.8-6.5-6.5z"/>
							</g>
							<g id="&lt;Group&gt;">
								<path id="&lt;Path&gt;" class="s2" d="m751.8 458.3l6.6 6.6-11.3 3.7-6.6-6.5z"/>
								<path id="&lt;Path&gt;" class="s22" d="m751.8 458.3l6.6 6.6-11.3 3.7-6.6-6.5z"/>
							</g>
							<g id="&lt;Group&gt;">
								<path id="&lt;Path&gt;" class="s2" d="m737.4 463.2l6.5 6.5-11.3 3.8-6.5-6.6z"/>
								<path id="&lt;Path&gt;" class="s22" d="m737.4 463.2l6.5 6.5-11.3 3.8-6.5-6.6z"/>
							</g>
							<g id="&lt;Group&gt;">
								<path id="&lt;Path&gt;" class="s2" d="m722.9 468l6.5 6.5-11.3 3.8-6.5-6.5z"/>
								<path id="&lt;Path&gt;" class="s23" d="m722.9 468l6.5 6.5-11.3 3.8-6.5-6.5z"/>
							</g>
							<g id="&lt;Group&gt;">
								<path id="&lt;Path&gt;" class="s2" d="m780.8 448.7l6.5 6.5-11.3 3.8-6.5-6.5z"/>
								<path id="&lt;Path&gt;" class="s8" d="m780.8 448.7l6.5 6.5-11.3 3.8-6.5-6.5z"/>
							</g>
						</g>
					</g>
					<g id="&lt;Group&gt;">
						<path id="&lt;Path&gt;" class="s7" d="m794.9 442.5c0.4 0.4 1.2 0.5 1.8 0.3 0.6-0.2 0.9-0.7 0.5-1-0.4-0.4-1.2-0.5-1.8-0.3-0.6 0.2-0.9 0.7-0.5 1z"/>
					</g>
				</g>
				<g id="Palette 1 ">
					<g id="&lt;Group&gt;">
						<g id="&lt;Group&gt;">
							<path id="&lt;Path&gt;" class="s15" d="m695 451.7c0-0.2 0.3-0.4 0.6-0.5l101.8-15.7c0.4-0.1 0.9 0.1 1 0.3l5.6 12.2q0.1 0.1 0.1 0.1v2.3c0 0.2-0.3 0.4-0.6 0.5l-101.8 15.7c-0.4 0.1-0.9 0-1-0.3l-5.7-12.2q0 0 0-0.1z"/>
							<path id="&lt;Path&gt;" class="s10" d="m701.2 464.3v2.3c0.2 0 0.3 0.1 0.5 0l101.8-15.7c0.3-0.1 0.6-0.3 0.6-0.5v-2.3c0 0.2-0.3 0.4-0.6 0.5l-101.8 15.7q-0.2 0.1-0.5 0z"/>
							<path id="&lt;Path&gt;" class="s16" d="m797.4 435.5l-101.8 15.7c-0.4 0.1-0.7 0.4-0.6 0.6l5.7 12.2c0.1 0.2 0.6 0.4 1 0.3l101.8-15.7c0.4-0.1 0.7-0.3 0.5-0.6l-5.6-12.2c-0.1-0.2-0.6-0.4-1-0.3z"/>
							<g id="&lt;Group&gt;">
								<path id="&lt;Path&gt;" class="s2" d="m794.5 439.1l3.4 7.2-12.6 2-3.4-7.3z"/>
								<path id="&lt;Path&gt;" class="s24" d="m794.5 439.1l3.4 7.2-12.6 2-3.4-7.3z"/>
								<g id="&lt;Group&gt;">
									<path id="&lt;Path&gt;" class="s2" d="m762.2 444l3.4 7.3-12.6 2-3.4-7.3z"/>
									<path id="&lt;Path&gt;" class="s25" d="m762.2 444l3.4 7.3-12.6 2-3.4-7.3z"/>
								</g>
								<g id="&lt;Group&gt;">
									<path id="&lt;Path&gt;" class="s2" d="m746.1 446.5l3.4 7.3-12.6 2-3.4-7.3z"/>
									<path id="&lt;Path&gt;" class="s25" d="m746.1 446.5l3.4 7.3-12.6 2-3.4-7.3z"/>
								</g>
								<g id="&lt;Group&gt;">
									<path id="&lt;Path&gt;" class="s2" d="m730 449l3.3 7.3-12.6 2-3.3-7.3z"/>
									<path id="&lt;Path&gt;" class="s26" d="m730 449l3.3 7.3-12.6 2-3.3-7.3z"/>
								</g>
								<g id="&lt;Group&gt;">
									<path id="&lt;Path&gt;" class="s2" d="m713.8 451.5l3.4 7.3-12.6 2-3.4-7.3z"/>
								</g>
								<g id="&lt;Group&gt;">
									<path id="&lt;Path&gt;" class="s2" d="m778.4 441.6l3.3 7.2-12.6 2-3.3-7.3z"/>
									<path id="&lt;Path&gt;" class="s27" d="m778.4 441.6l3.3 7.2-12.6 2-3.3-7.3z"/>
								</g>
							</g>
						</g>
					</g>
					<g id="&lt;Group&gt;">
						<path id="&lt;Path&gt;" class="s7" d="m794.8 437.7c0.2 0.4 0.9 0.6 1.6 0.5 0.7-0.1 1.1-0.5 0.9-0.9-0.2-0.4-0.9-0.6-1.6-0.5-0.7 0.1-1.1 0.5-0.9 0.9z"/>
					</g>
				</g>
			</g>
			<g id="Coffe 2 ">
				<g id="&lt;Group&gt;" style="opacity: .1">
					<path id="&lt;Path&gt;" class="s3" d="m659.7 553c9-4 23.2-4 31.8 0 8.7 4 8.7 10.5 0 14.4-8.6 4-22.8 4-31.8 0-8.9-3.9-8.9-10.4 0-14.4z"/>
				</g>
				<g id="&lt;Group&gt;">
					<g id="&lt;Group&gt;">
						<path id="&lt;Path&gt;" class="s16" d="m653.8 506.4l43.4 0.1-3.3 51.1c-0.2 1.9-1.9 3.7-5.3 5.1-7 3.1-18.7 3.1-26 0-3.4-1.4-5.2-3.2-5.5-5.1z"/>
					</g>
					<g id="&lt;Group&gt;">
						<path id="&lt;Path&gt;" class="s10" d="m697.2 506.5l-0.6 10.3q-1.5 1.1-3.7 2c-9.3 3.9-24.8 3.9-34.6 0-0.4-0.2-0.7-0.4-1.1-0.5-1.6-0.8-2.7-1.6-2.7-1.6l-0.7-10.3z"/>
					</g>
					<g id="&lt;Group&gt;">
						<g id="&lt;Group&gt;">
							<path id="&lt;Path&gt;" class="s2" d="m653 508.1v-7.2h4.7q0.9-0.4 2-0.9c9-3.6 23.2-3.6 31.8 0q1.1 0.5 2 0.9h4.5v7.2c0 2.4-2.1 4.7-6.5 6.5-8.6 3.6-22.8 3.6-31.8 0-4.4-1.8-6.7-4.1-6.7-6.5z"/>
						</g>
						<g id="&lt;Group&gt;" style="opacity: .2">
							<path id="&lt;Path&gt;" class="s3" d="m653 508.1v-7.2h4.7q0.9-0.4 2-0.9c9-3.6 23.2-3.6 31.8 0q1.1 0.5 2 0.9h4.5v7.2c0 2.4-2.1 4.7-6.5 6.5-8.6 3.6-22.8 3.6-31.8 0-4.4-1.8-6.7-4.1-6.7-6.5z"/>
						</g>
						<g id="&lt;Group&gt;">
							<path id="&lt;Path&gt;" class="s2" d="m659.7 494.5c9-3.6 23.2-3.6 31.8 0 8.7 3.5 8.7 9.3 0 12.9-8.6 3.6-22.8 3.6-31.8 0-8.9-3.6-8.9-9.4 0-12.9z"/>
						</g>
						<g id="&lt;Group&gt;">
							<path id="&lt;Path&gt;" class="s2" d="m658.8 498.9l1.8-4.8h29.9l1.8 4.8c0.6 1.9-0.9 3.8-4.7 5.3-6.5 2.4-17.2 2.4-24 0-3.9-1.5-5.5-3.4-4.8-5.3z"/>
							<path id="&lt;Path&gt;" class="s28" d="m658.8 498.9l1.8-4.8h29.9l1.8 4.8c0.6 1.9-0.9 3.8-4.7 5.3-6.5 2.4-17.2 2.4-24 0-3.9-1.5-5.5-3.4-4.8-5.3z"/>
							<g id="&lt;Group&gt;">
								<path id="&lt;Path&gt;" class="s2" d="m665 490.8c5.9-2.2 15.5-2.2 21.2 0 5.8 2.1 5.8 5.7 0 7.8-5.7 2.2-15.3 2.2-21.2 0-6-2.1-6-5.7 0-7.8z"/>
							</g>
							<g id="&lt;Group&gt;" style="opacity: .3">
								<path id="&lt;Path&gt;" class="s4" d="m665 490.8c5.9-2.2 15.5-2.2 21.2 0 5.8 2.1 5.8 5.7 0 7.8-5.7 2.2-15.3 2.2-21.2 0-6-2.1-6-5.7 0-7.8z"/>
							</g>
							<g id="&lt;Group&gt;">
								<path id="&lt;Path&gt;" class="s2" d="m662.6 494.7c0 0.1 0.1 0.4 0.6 0.8 0.5 0.3 1.3 0.7 2.5 1.2 2.6 0.9 6.2 1.5 10 1.5 3.7 0 7.3-0.5 9.8-1.5 1.2-0.4 1.9-0.9 2.4-1.2 0.5-0.4 0.6-0.7 0.6-0.8 0-0.1-0.5-1.1-3-2-2.5-0.9-6.1-1.5-9.8-1.5-3.8 0-7.4 0.6-10 1.5-2.5 0.9-3.1 1.8-3.1 2z"/>
							</g>
							<g id="&lt;Group&gt;" style="opacity: .2">
								<path id="&lt;Path&gt;" class="s3" d="m662.6 494.7c0 0.1 0.1 0.4 0.6 0.8 0.5 0.3 1.3 0.7 2.5 1.2 2.6 0.9 6.2 1.5 10 1.5 3.7 0 7.3-0.5 9.8-1.5 1.2-0.4 1.9-0.9 2.4-1.2 0.5-0.4 0.6-0.7 0.6-0.8 0-0.1-0.5-1.1-3-2-2.5-0.9-6.1-1.5-9.8-1.5-3.8 0-7.4 0.6-10 1.5-2.5 0.9-3.1 1.8-3.1 2z"/>
							</g>
							<g id="&lt;Group&gt;">
								<path id="&lt;Path&gt;" class="s2" d="m663.2 495.5c0.5 0.3 1.3 0.7 2.5 1.2 2.6 0.9 6.2 1.5 10 1.5 3.7 0 7.3-0.5 9.8-1.5 1.2-0.4 1.9-0.9 2.4-1.2-0.5-0.4-1.2-0.9-2.4-1.3-2.5-0.9-6.1-1.5-9.8-1.5-3.8 0-7.4 0.6-10 1.5-1.2 0.5-2 0.9-2.5 1.3z"/>
							</g>
							<g id="&lt;Group&gt;">
								<path id="&lt;Path&gt;" class="s3" d="m669.2 495.6c-0.9-0.5-1.9-0.7-2.4-0.5-0.4 0.3 0 0.9 0.8 1.4 0.9 0.5 2 0.7 2.4 0.4 0.4-0.2 0.1-0.8-0.8-1.3z"/>
							</g>
						</g>
					</g>
					<g id="&lt;Group&gt;">
						<g id="&lt;Group&gt;">
							<path id="&lt;Path&gt;" class="s29" d="m695.3 546.1c0 1.9-1.9 3.8-5.7 5.2-7.6 2.9-20.1 2.9-28 0-3.9-1.4-5.9-3.3-5.9-5.2l-1.2-18.5c0 2 2.1 4 6.3 5.5 8.3 3.1 21.6 3.1 29.7 0 4-1.5 6-3.5 6-5.5z"/>
						</g>
						<g id="&lt;Group&gt;">
							<g id="&lt;Group&gt;">
								<path id="&lt;Path&gt;" class="s30" d="m668.8 547c-0.7-1-1.1-2.1-1.7-3.2-1.1-2-2.7-3.4-4.8-4.2-0.3-0.1-0.6 0-0.8 0.3-1 2.1-0.4 5.1 1.8 7.3 2.2 2.1 5.1 2.8 7.3 1.8 0.1-0.1 0.1-0.3 0-0.4q-1-0.5-1.8-1.6z"/>
							</g>
							<g id="&lt;Group&gt;">
								<path id="&lt;Path&gt;" class="s30" d="m663.4 539c1.2 0.4 2.2 1.1 3.1 1.9 0.9 0.8 1.7 1.9 2.2 3 0.8 1.7 1.6 2.8 2.8 3.7 0.2 0.2 0.6 0.1 0.8-0.1 1.4-2.2 0.9-5.5-1.5-7.8-2.2-2.3-5.3-2.9-7.4-1.8-0.5 0.3-0.4 0.9 0 1.1z"/>
							</g>
						</g>
					</g>
				</g>
			</g>
			<g id="Lamp 2 ">
				<path id="&lt;Path&gt;" class="s8" d="m447.6 255.4c-13.1 7.6-13.1 19.9 0 27.5 13.2 7.6 34.5 7.6 47.7 0 13.2-7.6 13.2-19.9 0-27.5-13.2-7.6-34.5-7.6-47.7 0z"/>
				<path id="&lt;Path&gt;" class="s2" d="m501.6 260.2c-1.4-3-4.1-5.8-8.1-8.1-12.2-7-31.9-7-44.1 0-4 2.3-6.7 5.1-8.1 8.1h-1v4.6c0 4.6 3 9.2 9.1 12.8 12.2 7 31.9 7 44.1 0 6.1-3.6 9.1-8.2 9.1-12.8v-4.6z"/>
				<path id="&lt;Path&gt;" class="s23" d="m501.6 260.2c-1.4-3-4.1-5.8-8.1-8.1-12.2-7-31.9-7-44.1 0-4 2.3-6.7 5.1-8.1 8.1h-1v4.6c0 4.6 3 9.2 9.1 12.8 12.2 7 31.9 7 44.1 0 6.1-3.6 9.1-8.2 9.1-12.8v-4.6z"/>
				<path id="&lt;Path&gt;" class="s2" d="m449.4 272.9c-12.2-7-12.2-18.4 0-25.4 12.2-7 31.9-7 44.1 0 12.2 7 12.2 18.4 0 25.4-12.2 7.1-31.9 7.1-44.1 0z"/>
				<path id="&lt;Path&gt;" class="s28" d="m449.4 272.9c-12.2-7-12.2-18.4 0-25.4 12.2-7 31.9-7 44.1 0 12.2 7 12.2 18.4 0 25.4-12.2 7.1-31.9 7.1-44.1 0z"/>
				<g id="&lt;Group&gt;">
					<path id="&lt;Path&gt;" class="s2" d="m478.2 257.4l-5.8-2c25-71.3-33.4-94.1-35.9-95l2.2-5.8c0.6 0.2 66.6 25.7 39.5 102.8z"/>
				</g>
				<g id="&lt;Group&gt;">
					<path id="&lt;Path&gt;" class="s5" d="m483.5 260.2c0-6.6-5.4-12-12-12-6.7 0-12.1 5.4-12.1 12 0 1.8 1.2 3.6 3.6 4.9 4.7 2.7 12.3 2.7 17 0 2.3-1.3 3.5-3.1 3.5-4.9z"/>
					<path id="&lt;Path&gt;" class="s7" d="m479.5 259.5c-0.9 5-11.1 7.5-15.3 6.2 4.7 2.1 11.5 1.9 15.8-0.6 2.3-1.3 3.5-3.1 3.5-4.9 0-6.6-5.4-12-12-12 2.9 0 8.8 6.3 8 11.3z"/>
				</g>
				<g id="&lt;Group&gt;">
					<path id="&lt;Path&gt;" class="s3" d="m437.9 156.2l-2.1-2.4 7.3-6.4c0.7-0.5 1.7-0.5 2.3 0.2 0.6 0.7 0.5 1.7-0.2 2.2z"/>
					<path id="&lt;Path&gt;" class="s5" d="m442.5 160.2c1.7-2.2 0.2-6.2-1.8-8.5-2-2.3-5.8-4.4-8.2-3-2.5 1.5-7.2 5-7.2 5l11.3 13c0 0 4.1-4.3 5.9-6.5z"/>
					<path id="&lt;Path&gt;" class="s7" d="m436.9 148.9c2.6 3 3.6 8.6-3.9 13.7l3.6 4.1c0 0 4.1-4.3 5.9-6.5 1.7-2.2 0.2-6.2-1.8-8.5-1-1.1-2.4-2.2-3.8-2.8z"/>
					<path id="&lt;Path&gt;" class="s2" d="m418.7 212.1c9.8-8.5 25.6-40.6 14.3-53.7-11.4-13.1-45.4-1.8-55.2 6.7"/>
					<path id="&lt;Path&gt;" class="s28" d="m418.7 212.1c9.8-8.5 25.6-40.6 14.3-53.7-11.4-13.1-45.4-1.8-55.2 6.7"/>
					<path id="&lt;Path&gt;" class="s2" d="m375.7 179c-3.5-13 3.7-19.3 16.2-14.1 12.5 5.3 25.4 20.2 28.9 33.3 3.6 13-3.7 19.4-16.1 14.1-12.5-5.3-25.5-20.2-29-33.3z"/>
					<path id="&lt;Path&gt;" class="s23" d="m375.7 179c-3.5-13 3.7-19.3 16.2-14.1 12.5 5.3 25.4 20.2 28.9 33.3 3.6 13-3.7 19.4-16.1 14.1-12.5-5.3-25.5-20.2-29-33.3z"/>
					<path id="&lt;Path&gt;" class="s2" d="m416.3 189.6q0.4-0.3 0.7-0.7c-4-7.2-10.1-14.1-16.7-19q-0.3 0.2-0.6 0.5c-5.3 4.6-5.9 12.6-1.3 17.9 4.6 5.3 12.7 5.9 17.9 1.3z"/>
					<g id="&lt;Group&gt;" style="opacity: .7">
						<path id="&lt;Path&gt;" class="s4" d="m416.3 189.6q0.4-0.3 0.7-0.7c-4-7.2-10.1-14.1-16.7-19q-0.3 0.2-0.6 0.5c-5.3 4.6-5.9 12.6-1.3 17.9 4.6 5.3 12.7 5.9 17.9 1.3z"/>
					</g>
				</g>
			</g>
			<g id="Image 2 ">
				<g id="&lt;Group&gt;">
					<path id="&lt;Path&gt;" class="s10" d="m673.5 145.7l95.5 55.2c1.3 0.7 2.3 2.4 2.3 3.8v91.1c0 1.4-1 3.1-2.3 3.8l-1.4 0.9c-1.2 0.7-3.2 0.7-4.4 0l-95.6-55.2c-1.2-0.7-2.2-2.5-2.2-3.9v-91c0-1.4 1-3.2 2.2-3.9l1.4-0.8c1.3-0.7 3.3-0.7 4.5 0z"/>
					<path id="&lt;Path&gt;" class="s4" d="m665.5 149.7c0.2-0.9 1.1-1.2 2.1-0.6l95.6 55.2c0.6 0.3 1.1 0.9 1.5 1.6l5.9-3.4c-0.4-0.7-0.9-1.3-1.6-1.6l-95.5-55.2c-1.2-0.7-3.2-0.7-4.5 0l-1.4 0.8c-1 0.6-1.9 2-2.1 3.2z"/>
					<path id="&lt;Path&gt;" class="s0" d="m667.6 149.1l95.6 55.2c1.2 0.7 2.2 2.4 2.2 3.8v91.1c0 1.4-1 2-2.2 1.3l-95.6-55.2c-1.2-0.7-2.2-2.5-2.2-3.9v-91c0-1.4 1-2 2.2-1.3z"/>
				</g>
				<g id="&lt;Group&gt;">
					<path id="&lt;Path&gt;" class="s2" d="m759.5 209l-88.2-51v81.6l88.2 50.9z"/>
					<path id="&lt;Path&gt;" class="s25" d="m759.5 209l-88.2-51v81.6l88.2 50.9z"/>
				</g>
				<path id="&lt;Path&gt;" class="s2" d="m759.5 263.3l-25.1-43.3-34.3 25.6 8.3-9.2-18.2-24.2-18.9 12.1v15.3l88.2 50.9z"/>
				<path id="&lt;Path&gt;" class="s2" d="m697.8 187.8c3.2 1.9 5.9 6.4 5.9 10.2 0 3.7-2.7 5.3-5.9 3.4-3.3-1.9-5.9-6.5-5.9-10.2 0-3.8 2.6-5.3 5.9-3.4z"/>
			</g>
		</g>
	</g>
	<g id="Pen tool">
		<g id="Pen tool 3 ">
			<g id="&lt;Group&gt;">
				<g id="&lt;Group&gt;">
					<path id="&lt;Path&gt;" class="s2" d="m847.3 315.4c2.6 1.5 4.7 5.5 4.7 8.9 0 3-1.7 4.6-3.9 3.8v64.6l23.6-49.4c0.3-0.8 0.4-2.2 0-3-5.9-13.7-10.3-29.2-11.8-45.1-0.1-0.9-0.8-2-1.6-2.5l-22-12.6c-0.7-0.5-1.5-0.1-1.6 0.8-1.4 13.7-5.6 23.9-11.3 30.8-0.6 0.7-0.9 1.9-0.6 2.8 3.3 10.7 22.3 72.7 23.7 77.2v-64.5c-2.2-1.8-3.8-5.2-3.8-8.3 0-3.4 2.1-5 4.6-3.5z"/>
				</g>
				<path id="&lt;Path&gt;" class="s2" d="m812 320.7l23.8 77.2 1.6-0.9v1.9l10.7-6.2 23.6-49.4c0.3-0.8 0.4-2.2 0-3-5.9-13.7-10.3-29.2-11.8-45.1-0.1-0.9-0.8-2-1.6-2.5l-22-12.6c-0.7-0.5-2-0.5-2.8 0l-7.9 4.5c-0.8 0.5-1.5 1.6-1.6 2.5-1.5 13.7-5.7 23.9-11.4 30.8-0.6 0.7-0.9 1.9-0.6 2.8z"/>
				<path id="&lt;Path&gt;" class="s28" d="m831.9 325.1c0 3.1 1.7 6.6 3.9 8.3v64.5l1.6-0.9v1.9-64.5c2.1 0.7 3.8-0.9 3.8-3.9 0-3.4-2.1-7.4-4.6-8.9-2.6-1.4-4.7 0.1-4.7 3.5z"/>
				<g id="&lt;Group&gt;">
					<path id="&lt;Path&gt;" class="s2" d="m812 320.7l23.8 77.2v-64.5c-2.2-1.7-3.9-5.2-3.9-8.3 0-3.4 2.1-4.9 4.7-3.5 2.5 1.5 4.6 5.5 4.6 8.9 0 3-1.7 4.6-3.8 3.9v64.5l23.5-49.4c0.4-0.8 0.4-2.1 0-3-5.9-13.7-10.3-29.2-11.8-45.1-0.1-0.9-0.8-2-1.6-2.5l-21.9-12.6c-0.8-0.5-1.5-0.1-1.6 0.8-1.5 13.7-5.7 23.9-11.4 30.8-0.6 0.7-0.9 1.9-0.6 2.8z"/>
				</g>
				<path id="&lt;Path&gt;" class="s8" d="m848.7 300.2c0.2 0.4 0.4 0.8 0.4 1.2 1.5 15.9 5.9 31.4 11.8 45.1 0.2 0.5 0.3 1.1 0.3 1.7l10.8-6.2c0-0.6-0.1-1.2-0.3-1.7-5.9-13.7-10.3-29.2-11.8-45.1-0.1-0.4-0.2-0.8-0.5-1.3z"/>
				<path id="&lt;Path&gt;" class="s22" d="m824 286.9c0.2-0.8 0.9-1 1.6-0.6l21.9 12.7c0.5 0.2 0.9 0.7 1.2 1.2l10.7-6.3c-0.3-0.5-0.7-0.9-1.1-1.2l-22-12.6c-0.7-0.5-2-0.5-2.8 0l-7.9 4.5c-0.7 0.4-1.4 1.4-1.6 2.3z"/>
				<g id="&lt;Group&gt;">
					<path id="&lt;Path&gt;" class="s2" d="m864.7 273l-34.8-20c-0.8-0.5-2-0.5-2.8 0l-7.9 4.5c-0.8 0.5-1.5 1.6-1.5 2.5v15.3c0 0.9 0.7 2.1 1.5 2.5l34.8 20.1c0.7 0.5 2 0.5 2.8 0l7.9-4.6c0.8-0.4 1.5-1.5 1.5-2.4v-15.4c0-0.9-0.7-2-1.5-2.5z"/>
					<path id="&lt;Path&gt;" class="s11" d="m817.7 259.8c0.1-0.8 0.7-1 1.5-0.6l34.8 20.1c0.4 0.2 0.7 0.6 1 1l10.7-6.2c-0.2-0.4-0.6-0.8-1-1.1l-34.8-20c-0.8-0.5-2-0.5-2.8 0l-7.9 4.5c-0.8 0.4-1.4 1.4-1.5 2.3z"/>
					<path id="&lt;Path&gt;" class="s28" d="m854.2 298q0 0 0 0 0.1 0 0.1 0 0 0.1 0.1 0.1 0.1 0 0.1 0 0.1 0 0.2 0.1 0.1 0 0.1 0 0.2 0 0.3 0c0.6 0.1 1.2 0 1.7-0.3l7.9-4.6c0.8-0.4 1.5-1.5 1.5-2.4v-15.4c0-0.4-0.2-0.9-0.5-1.4l-10.7 6.2c0.2 0.5 0.4 1 0.4 1.4v15.4c0 0.6-0.3 1-0.8 1q-0.1 0-0.2 0-0.1-0.1-0.2-0.1z"/>
				</g>
				<path id="&lt;Path&gt;" class="s28" d="m837.4 398.9l10.7-6.2 23.5-49.4c0.2-0.4 0.3-0.8 0.4-1.3l-10.8 6.2c0 0.5-0.1 1-0.3 1.3z"/>
				<path id="&lt;Path&gt;" class="s8" d="m835.8 333.4v64.5l1.6-0.9v1.9-64.5c2.1 0.7 3.8-0.9 3.8-3.9q0-0.1 0-0.2z"/>
			</g>
			<g id="&lt;Group&gt;">
				<path id="&lt;Path&gt;" class="s6" d="m786 314.9c0-1.8 1.3-2.5 2.8-1.6 1.5 0.9 2.7 3 2.7 4.7 0 1.5-0.8 2.2-1.9 1.9 1.5 32.4 24.2 70.6 51.9 86.6 13.7 7.9 26.6 9.2 36.3 3.7 9.1-5.3 14.3-16.1 14.9-30.7-1.1-1-2-2.7-2-4.1 0-1.8 1.3-2.5 2.8-1.6 1.5 0.8 2.7 3 2.7 4.7 0 1.5-0.9 2.3-2.1 1.9-0.7 14.7-6.2 25.6-15.6 31-4.2 2.4-8.9 3.6-14 3.6-7.3 0-15.4-2.4-23.7-7.2-28.3-16.4-51.5-55.6-52.7-88.7-1.2-1-2.1-2.8-2.1-4.2z"/>
				<path id="&lt;Path&gt;" class="s6" d="m788.8 373.9c1.2 0.7 2.3 2.3 2.6 3.8l99.5 57.5c0.3-1.1 1.4-1.5 2.6-0.8 1.5 0.9 2.7 3.1 2.7 4.8 0 1.8-1.2 2.5-2.7 1.6-1.3-0.8-2.4-2.4-2.7-4l-99.4-57.4c-0.3 1.2-1.4 1.5-2.6 0.8-1.5-0.9-2.8-3-2.8-4.7 0-1.8 1.3-2.5 2.8-1.6z"/>
				<path id="&lt;Path&gt;" class="s6" d="m889.7 376.9c0 2.2 1.7 3.9 3.9 3.9 2.1 0 3.9-1.7 3.9-3.9 0-2.2-1.8-3.9-3.9-3.9-2.2 0-3.9 1.7-3.9 3.9z"/>
				<path id="&lt;Path&gt;" class="s6" d="m889.8 437.5c0 2.2 1.8 4 3.9 4 2.2 0 3.9-1.8 3.9-4 0-2.1-1.7-3.9-3.9-3.9-2.1 0-3.9 1.8-3.9 3.9z"/>
				<path id="&lt;Path&gt;" class="s6" d="m784.6 377.1c0 2.2 1.8 4 4 4 2.1 0 3.9-1.8 3.9-4 0-2.1-1.8-3.9-3.9-3.9-2.2 0-4 1.8-4 3.9z"/>
				<path id="&lt;Path&gt;" class="s6" d="m785 316.4c0 2.1 1.8 3.9 3.9 3.9 2.2 0 3.9-1.8 3.9-3.9 0-2.2-1.7-3.9-3.9-3.9-2.1 0-3.9 1.7-3.9 3.9z"/>
			</g>
		</g>
	</g>
	<g id="Character">
		<g id="Character 1 ">
			<g id="Legs 1 ">
				<g id="&lt;Group&gt;">
					<g id="&lt;Group&gt;">
						<g id="&lt;Group&gt;">
							<path id="&lt;Path&gt;" class="s7" d="m415.1 656.6c-2.4 3.5-1.6 11.5-1.9 14.8-0.4 3.3-0.4 6.6-0.7 9.9-0.4 3.7-0.7 6.8 1.2 10.2 2.6 4.5 7.7 7.1 12.8 7.8 5.2 0.7 10.4-0.3 15.4-1.7 5-1.4 9.9-3.1 15-3.9 12.8-2.1 25.4 1.7 38.1-2.3 3-0.9 5.9-2.1 8.7-3.3 2.6-1.1 5.2-2.2 7.6-3.6 6.1-3.7 14.7-11.5 13.8-19.1-0.7-6.9-5-11.5-13.1-11.2-10.3 0.5-20.6 2.8-30.9 2.6-6.3-0.1-13.5-0.5-19.6-1.6-7.2-1.3-13.6-3-14.4-6.9-1.3-6.3-15.1 0.2-20.6 2.9-1.8 0.8-3.5 1.9-5.3 2.8-1.4 0.7-2.7 0.5-4.1 1-0.8 0.3-1.5 0.8-2 1.6z"/>
						</g>
						<path id="&lt;Path&gt;" class="s13" d="m409.9 634.9l35.4-11.1c0 0 0.4 18.5 2.1 23 1.7 4.5 6.9 7.1 14.1 8.4 6.1 1.1 13.3 1.5 19.6 1.6 2.8 0.1 5.6-0.1 8.3-0.3h0.1c9.2-0.9 19 6.9 5.7 13.3-12 5.7-28.9 4.8-42 5.6-13.2 0.7-34.9-5.7-38.2-15.5q0 0 0 0z"/>
					</g>
					<g id="&lt;Group&gt;">
						<path id="&lt;Path&gt;" class="s5" d="m436.3 506.8c7.9 32.6 9.7 131.4 9.7 131.4 0 0-18.1 9.6-34.6 3.8l-29.4-114.3z"/>
					</g>
				</g>
				<g id="&lt;Group&gt;">
					<g id="&lt;Group&gt;">
						<path id="&lt;Path&gt;" class="s7" d="m493.7 702.4c-2.5 3.6-1.6 11.5-2 14.9-0.4 3.3-0.3 6.6-0.7 9.9-0.3 3.7-0.7 6.8 1.3 10.2 2.6 4.5 7.7 7.1 12.8 7.8 5.1 0.7 10.3-0.4 15.3-1.7 5-1.4 9.9-3.2 15-4 12.8-2 25.5 1.7 38.2-2.2 2.9-0.9 5.8-2.1 8.7-3.3 2.6-1.1 5.2-2.2 7.6-3.7 6.1-3.6 14.6-11.4 13.8-19.1-0.8-6.8-5.1-11.4-13.1-11.1-10.4 0.5-20.6 2.8-31 2.6-6.3-0.2-13.4-0.5-19.6-1.6-7.2-1.3-13.6-3-14.4-7-1.2-6.2-15 0.2-20.6 2.9-1.8 0.9-3.4 2-5.2 2.9-1.5 0.7-2.7 0.5-4.1 1-0.9 0.3-1.5 0.8-2 1.5z"/>
					</g>
					<path id="&lt;Path&gt;" class="s13" d="m487.8 673.3l30.9-11.1 6.9 31.9c0.8 4 7.2 5.7 14.4 7 6.2 1.1 13.3 1.4 19.6 1.6 2.8 0 5.6-0.1 8.4-0.3 9.2-0.9 19 6.9 5.7 13.3-11.9 5.6-28.9 4.8-42 5.6-13.1 0.7-40.2-1.5-38.1-15.5q0 0 0 0z"/>
				</g>
				<g id="&lt;Group&gt;">
					<path id="&lt;Path&gt;" class="s6" d="m503.9 536c13.7 19.3 19.4 146.7 19.4 146.7 0 0-16.3 17-31.9 11l-39.2-111z"/>
				</g>
				<path id="&lt;Path&gt;" class="s8" d="m454.1 587.8c0 0 28.7-10.6 35.4-18.3 0 0-14.7 21.1-32.6 25.7z"/>
			</g>
			<g id="&lt;Group&gt;">
				<g id="&lt;Group&gt;">
					<path id="&lt;Path&gt;" class="s6" d="m339.9 873.3c1.8 0 3.2-1.4 3.2-3.2v-208.7c0-1.8-1.4-3.3-3.2-3.3-1.8 0-3.2 1.5-3.2 3.3v208.7c0 1.8 1.4 3.2 3.2 3.2z"/>
				</g>
				<g id="&lt;Group&gt;">
					<path id="&lt;Path&gt;" class="s6" d="m210.8 797.4c1.3 0 2.5-0.8 3-2.1l64-162c0.6-1.6-0.2-3.5-1.8-4.2-1.7-0.7-3.6 0.2-4.2 1.8l-64 162c-0.7 1.7 0.1 3.6 1.8 4.2q0.6 0.3 1.2 0.3z"/>
				</g>
				<g id="&lt;Group&gt;">
					<path id="&lt;Path&gt;" class="s6" d="m218.5 777.9c0.8 0 1.7-0.3 2.3-1l119.1-126 118.9 125.4c1.2 1.4 3.2 1.4 4.5 0.2 1.4-1.3 1.4-3.3 0.2-4.6l-121.2-128c-0.7-0.6-1.5-1-2.4-1q0 0 0 0c-0.9 0-1.7 0.4-2.4 1l-121.4 128.5c-1.2 1.3-1.2 3.4 0.1 4.6 0.7 0.6 1.5 0.9 2.3 0.9z"/>
				</g>
				<g id="&lt;Group&gt;">
					<path id="&lt;Path&gt;" class="s6" d="m469 797.4q0.6 0 1.2-0.3c1.7-0.6 2.5-2.5 1.8-4.2l-64-162c-0.6-1.6-2.5-2.5-4.2-1.8-1.6 0.7-2.5 2.6-1.8 4.2l64 162c0.5 1.3 1.7 2.1 3 2.1z"/>
				</g>
				<g id="&lt;Group&gt;">
					<path id="&lt;Path&gt;" class="s2" d="m470.6 589.8c2.3-13.1-8.4-23.3-28.4-36.8-20.1-13.6-45.7-27-58.2-32.7-16.7-7.7-33.9-7-55.4 4-29.9 15.4-119.7 69.9-119.7 69.9 0 0 134.3 75.8 160.2 72.4 25.8-3.4 90.4-45.4 95.5-60.2 5.1-14.8 6-16.6 6-16.6z"/>
				</g>
				<g id="&lt;Group&gt;" style="opacity: .4">
					<path id="&lt;Path&gt;" class="s3" d="m470.6 589.8c2.3-13.1-8.4-23.3-28.4-36.8-20.1-13.6-45.7-27-58.2-32.7-16.7-7.7-33.9-7-55.4 4-29.9 15.4-119.7 69.9-119.7 69.9 0 0 134.3 75.8 160.2 72.4 25.8-3.4 90.4-45.4 95.5-60.2 5.1-14.8 6-16.6 6-16.6z"/>
				</g>
				<g id="&lt;Group&gt;">
					<path id="&lt;Path&gt;" class="s2" d="m356.1 650.7c19.3 17.4 39.4 2.4 71.3-18.3 36.1-23.4 43.2-42.6 43.2-42.6 0 0 0 14.4-2.7 21.1-2.7 6.7-8.5 14.4-34.6 32.3-26 18-44.8 26.9-62.3 30.3l-13.8-2"/>
				</g>
				<path id="&lt;Path&gt;" class="s23" d="m427.4 632.4c36.1-23.4 43.2-42.6 43.2-42.6 0 0 0 14.4-2.7 21.1-2.7 6.7-8.5 14.4-34.6 32.3-26 18-44.8 26.9-62.3 30.3l-13.8-2-1.1-20.8c19.3 17.4 39.4 2.4 71.3-18.3z"/>
				<g id="&lt;Group&gt;">
					<path id="&lt;Path&gt;" class="s2" d="m215.2 772.9l-8.5 22.3q0 0.3 0 0.6-0.1 0.2 0 0.4c0 0.5 0.6 1 1.2 1.4 1.4 0.8 3.8 0.8 5.2 0q0.8-0.5 1-1 0-0.1 0-0.1l0.1-0.3 7.8-20.9z"/>
				</g>
				<g id="&lt;Group&gt;">
					<path id="&lt;Path&gt;" class="s2" d="m464.6 772.9l8.5 22.3q0 0.3 0 0.6 0.1 0.2 0 0.4c0 0.5-0.6 1-1.2 1.4-1.5 0.8-3.8 0.8-5.2 0q-0.8-0.5-1-1 0-0.1 0-0.1l-0.1-0.3-7.8-20.9z"/>
				</g>
				<g id="&lt;Group&gt;">
					<path id="&lt;Path&gt;" class="s2" d="m336.2 853.9v18.5c0 0.5 0.3 1.1 1 1.5 1.5 0.9 3.9 0.9 5.3 0 0.8-0.4 1.1-1 1.1-1.5v-18.5q-3.7-1.9-7.4 0z"/>
				</g>
			</g>
			<g id="Character 2 ">
				<g id="Character 6 ">
					<g id="&lt;Group&gt;">
						<g id="&lt;Group&gt;">
							<path id="&lt;Path&gt;" class="s5" d="m249.7 547.9c0 0 84-36 101.1-44.6 17.1-8.6 48.3-21.2 64.5-16.9 11 2.8 17.3 6.7 21.2 21.2 0.7 2.7 4.2 28.4 4.2 28.4 0 0-46.7 21.9-88 30.2-41.2 8.3-103-18.3-103-18.3z"/>
						</g>
						<g id="&lt;Group&gt;">
							<path id="&lt;Path&gt;" class="s6" d="m249.7 547.9c-10.4 43.7 16.8 68.2 33.2 77.7 14.3 8.2 51.8 28.2 91.8 12.1 26.6-10.7 98.6-58.2 98.6-58.2 7.8-12.6 37.7-16.8 35.5-26.9-0.6-2.5-0.8-5.2-1.5-8-3.7-13.7-16.7-32.9-45.6-26.3-17.8 4.1-51 16-80.4 25.3-6.7 2.1-16.5-7.1-22-5.1-12.9 4.7-16.2 26.8-16.2 26.8z"/>
						</g>
					</g>
				</g>
				<g id="&lt;Group&gt;">
					<g id="&lt;Group&gt;">
						<path id="&lt;Path&gt;" class="s13" d="m347.7 356l-4.9 44.7-39.2-3.1 3.8-49.5z"/>
					</g>
				</g>
				<g id="&lt;Group&gt;">
					<g id="&lt;Group&gt;">
						<path id="&lt;Path&gt;" class="s2" d="m260.1 527.3c4.3-9.3 8.2-20.5 19.6-38.5-16.1-51.1-18.4-66.6-17.7-90 0.4-12.5 18.1-33.4 33.2-30.8 4 0.6 6.9 0.8 10.6 1.5 0.4 10.3 20.5 13.3 39.7 6.8 5.4 1.3 12.4 2.4 17.2 4.2 7 2.6 37.6 35.4 39.8 58.7 1.9 19-17.5 34.7-17.5 34.7 1.1 20 0.4 47.2-0.1 83.5 0 0-6 2.2-15.4-2-9.8 15.6-36.7 40.5-66.4 37.2-51.2-5.8-49.7-43.5-49.7-43.5 0 0 3.8-15.4 6.7-21.8z"/>
					</g>
				</g>
				<g id="&lt;Group&gt;" style="opacity: .7">
					<g id="&lt;Group&gt;">
						<path id="&lt;Path&gt;" class="s3" d="m260.1 527.3c4.3-9.3 8.2-20.5 19.6-38.5-16.1-51.1-18.4-66.6-17.7-90 0.4-12.5 18.1-33.4 33.2-30.8 4 0.6 6.9 0.8 10.6 1.5 0.4 10.3 20.5 13.3 39.7 6.8 5.4 1.3 12.4 2.4 17.2 4.2 7 2.6 37.6 35.4 39.8 58.7 1.9 19-17.5 34.7-17.5 34.7 1.1 20 0.4 47.2-0.1 83.5 0 0-6 2.2-15.4-2-9.8 15.6-36.7 40.5-66.4 37.2-51.2-5.8-49.7-43.5-49.7-43.5 0 0 3.8-15.4 6.7-21.8z"/>
					</g>
				</g>
				<g id="head 2 ">
					<g id="&lt;Group&gt;">
						<path id="&lt;Path&gt;" class="s14" d="m377.9 303.2c0 0 11.1 17.9 9.5 19.7-1.5 1.8-9 3.6-9 3.6z"/>
					</g>
					<g id="&lt;Group&gt;">
						<path id="&lt;Path&gt;" class="s13" d="m351.7 261.2c8.7 4.8 23.8 13.7 26.8 46.4 3.2 33.5-4.6 45-9.3 49.2-3.1 2.9-19 3.6-27.2 0.8-10.3-3.5-32.5-15.2-42.6-32.8-11.8-20.6-13.6-47.8 0.9-58 20.6-14.4 44-9.6 51.4-5.6z"/>
					</g>
					<path id="&lt;Path&gt;" class="s14" d="m347.4 358.8c7.3 1.3 15.7 0.7 20.1-1-12.5-0.3-19.6-4.5-19.6-4.5z"/>
				</g>
				<path id="&lt;Path&gt;" class="s2" d="m386.7 257.7c-3-6.1-10-10.3-16.7-9.1 1.7-7.7-2.7-16.3-9.9-19.5-4.3-1.9-9.1-2-13.7-1.1-4.6 0.8-8.9 2.6-13.3 4.4-9.8 4.1-19.5 8.3-29.4 12.2-4.8 1.9-9.7 3.7-14.2 6.5-8.9 5.6-15.8 13.8-18.6 24.2-1.6 6-2.1 12.3-1.5 18.6 0.7 8 3 15.9 6.2 23.3 3.3 7.6 7.8 13.6 12.9 20.1 6.6 8.5 18.4 18.1 18.4 18.1 11.7 5.6 25.4 1.8 25.4 1.8 10.3-9.9 17.4-24.9 17.6-25.6-0.3 0.1-3.1 1.2-7 0.6-2.6-0.4-5.7-1.6-8.8-4.5-7.9-7.2-8.5-21 1.9-24.1 10.3-3.2 14.1 11.2 14.1 11.2 6.7-2.8 4.7-11.2 5.5-16.1 4.7-2.6 12-8.2 15.5-18.7 1.3 2.5 2.6 5.4 3.7 8.7 4-3.4 8.1-6.8 10.7-11.4 3.4-5.9 4.2-13.5 1.2-19.6z"/>
				<path id="&lt;Path&gt;" class="s31" d="m386.7 257.7c-3-6.1-10-10.3-16.7-9.1 1.7-7.7-2.7-16.3-9.9-19.5-4.3-1.9-9.1-2-13.7-1.1-4.6 0.8-8.9 2.6-13.3 4.4-9.8 4.1-19.5 8.3-29.4 12.2-4.8 1.9-9.7 3.7-14.2 6.5-8.9 5.6-15.8 13.8-18.6 24.2-1.6 6-2.1 12.3-1.5 18.6 0.7 8 3 15.9 6.2 23.3 3.3 7.6 7.8 13.6 12.9 20.1 6.6 8.5 18.4 18.1 18.4 18.1 11.7 5.6 25.4 1.8 25.4 1.8 10.3-9.9 17.4-24.9 17.6-25.6-0.3 0.1-3.1 1.2-7 0.6-2.6-0.4-5.7-1.6-8.8-4.5-7.9-7.2-8.5-21 1.9-24.1 10.3-3.2 14.1 11.2 14.1 11.2 6.7-2.8 4.7-11.2 5.5-16.1 4.7-2.6 12-8.2 15.5-18.7 1.3 2.5 2.6 5.4 3.7 8.7 4-3.4 8.1-6.8 10.7-11.4 3.4-5.9 4.2-13.5 1.2-19.6z"/>
			</g>
			<g id="&lt;Group&gt;">
				<path id="&lt;Path&gt;" class="s2" d="m357.2 671.5c-11-0.5-19.6-8.6-45.7-19.4-48.2-20.1-84.4-36.2-98.2-61.5-13.7-25.2-23.5-98.1-20-129.7 0.4-4.1 1.2-7.6 2.3-10.4l-3.4-0.5 8.8-7.5c9-7.3 23.7-0.8 34.7 5.2 31.6 17.2 56.3 33.9 75.8 94.2 14.7 45.3 24.3 86.6 44.6 108.8"/>
				<path id="&lt;Path&gt;" class="s22" d="m195.6 450.5l-3.4-0.5 8.8-7.5c9-7.3 23.7-0.8 34.7 5.2 31.6 17.2 56.3 33.9 75.8 94.2 14.7 45.3 24.3 86.6 44.6 108.8l1.1 20.8c-11-0.5-19.6-8.6-45.7-19.4-48.2-20.1-84.4-36.2-98.2-61.5-13.7-25.2-23.5-98.1-20-129.7 0.4-4.1 1.2-7.6 2.3-10.4z"/>
				<g id="&lt;Group&gt;">
					<path id="&lt;Path&gt;" class="s2" d="m226.6 455.5c31.5 17.2 56.2 33.9 75.7 94.1 19.5 60.3 30.2 113.5 68.7 123.9 0 0-17.4 6.9-70.7-15.7-17-7.1-37.5-20.2-51-27.8-26.5-14.9-42.6-27-45.1-31.6-14-25.1-23.5-98.1-20.1-129.7 3.4-31.6 26.7-21.8 42.5-13.2z"/>
				</g>
			</g>
			<g id="Arm 2 ">
				<g id="&lt;Group&gt;">
					<g id="&lt;Group&gt;">
						<g id="&lt;Group&gt;">
							<g id="&lt;Group&gt;">
								<path id="&lt;Path&gt;" class="s7" d="m543.4 475.7c0.2 0 0.4-0.1 0.5-0.2l2.4-4c0.1-0.2 0.1-0.5-0.2-0.7-0.2-0.1-0.5 0-0.6 0.2l-2.4 4c-0.2 0.2-0.1 0.5 0.1 0.6q0.1 0 0.2 0.1z"/>
							</g>
						</g>
						<g id="&lt;Group&gt;">
							<g id="&lt;Group&gt;">
								<path id="&lt;Path&gt;" class="s2" d="m554.7 466.9l-8.3 6.4c-1.2 1-2.9-0.2-2.5-1.7l2.7-10.2z"/>
							</g>
							<g id="&lt;Group&gt;" style="opacity: .2">
								<path id="&lt;Path&gt;" class="s3" d="m554.7 466.9l-8.3 6.4c-1.2 1-2.9-0.2-2.5-1.7l2.7-10.2z"/>
							</g>
							<g id="&lt;Group&gt;">
								<path id="&lt;Path&gt;" class="s2" d="m580.1 410.9c0.7-0.8 1.7-1 2.8-0.7 3 0.8 6.9 4.3 5.2 6.5l-33.4 50.2c-1.4 0.6-3.9-0.1-5.7-1.6-1.2-1-2.2-2.3-2.4-3.9z"/>
							</g>
							<g id="&lt;Group&gt;">
								<path id="&lt;Path&gt;" class="s2" d="m580.1 410.9c0.7-0.8 1.7-1 2.8-0.7 3 0.8 6.9 4.3 5.2 6.5l-33.4 50.2c-1.4 0.6-3.9-0.1-5.7-1.6-1.2-1-2.2-2.3-2.4-3.9z"/>
							</g>
							<path id="&lt;Path&gt;" class="s2" d="m582.9 410.2c-1.1-0.3-2.1-0.1-2.8 0.7-0.5 0.7 0.3 2.9 2.6 4.5 2.7 1.9 4.9 1.9 5.6 1.1 1.3-2.2-2.5-5.5-5.4-6.3z"/>
							<path id="&lt;Path&gt;" class="s28" d="m582.9 410.2c-1.1-0.3-2.1-0.1-2.8 0.7-0.5 0.7 0.3 2.9 2.6 4.5 2.7 1.9 4.9 1.9 5.6 1.1 1.3-2.2-2.5-5.5-5.4-6.3z"/>
						</g>
						<g id="&lt;Group&gt;">
							<path id="&lt;Path&gt;" class="s5" d="m585.6 407.7c0.7-0.9 2-1.2 2.9-0.6 1 0.7 1.2 1.9 0.6 2.9l-2.6 4c-0.2 0.3-0.5 0.4-1 0.4-1-0.1-2.1-0.8-2.5-1.6-0.2-0.4-0.2-0.8 0-1.1z"/>
						</g>
					</g>
				</g>
				<path id="&lt;Path&gt;" class="s13" d="m566.9 448.6c0 0-2 3.2-3.8 5.7-1.4 2.1-2.2 3-3.2 3.2-2.1 0.5-6.6-0.9-8.1-3.9l2.6-3.9c-3-0.4-6.4-0.4-8 0.2-3.7 1.4-8.1 3.5-10.9 9.9-4 9.1-3.3 10.5-14.6 11.3-11.3 0.8-71.1 1.8-71.1 1.8-7.1-8.2-33.4-38.7-43.5-50.8-11.8-14-33.9-44.7-43.6-41.6-9.7 3.1-18.6 32.4-5.6 55 11.5 20 51.4 55.5 67.7 69.8q2.6 2.4 4.8 4.2 0.1 0.2 0.3 0.3c9.9 8.1 14.3 7.1 26.3 4.8 14.2-2.7 81.7-16.4 95.2-22.4 13.4-6 25.7-22.2 25.7-30.4-0.1-8.2-10.2-13.2-10.2-13.2z"/>
			</g>
		</g>
	</g>
	<g id="Icons">
		<g id="Ai Icon 2 ">
			<g id="&lt;Group&gt;">
				<path id="&lt;Path&gt;" class="s5" d="m150.5 95.8c0-4.8-3.4-10.6-7.5-13-4.2-2.4-10.9-2.4-15 0l-57 32.6c-4.1 2.4-7.5 8.2-7.5 13v61.5c0 4.7 3.4 10.6 7.5 12.9 4.2 2.4 10.9 2.4 15 0l57.7-33.1c6.7-3.8 6.8-7.7 6.8-12.5z"/>
				<path id="&lt;Path&gt;" class="s7" d="m63.5 189.9c0 4.7 3.4 10.6 7.5 12.9 3.8 2.2 9.6 2.4 13.7 0.7-3.5 1.3-6.2-0.7-6.2-5v-61.5c0-2.4 0.9-5 2.2-7.4l-15-8.6c-1.3 2.3-2.2 5-2.2 7.4z"/>
				<path id="&lt;Path&gt;" class="s6" d="m150.2 93.6c-0.9-3.1-3.8-4.2-7.2-2.2l-57 32.6c-2.1 1.2-3.9 3.3-5.3 5.6l-15-8.6c1.4-2.4 3.3-4.4 5.3-5.6l57-32.6c4.1-2.4 10.8-2.4 15 0 3.5 2 6.5 6.6 7.2 10.8z"/>
			</g>
			<g id="&lt;Group&gt;">
				<path id="&lt;Path&gt;" class="s2" d="m135.1 111.1c0 3.3-1.6 6.8-4.1 8.3-2.4 1.4-4.1-0.3-4-3.6-0.1-3.4 1.6-6.9 4.1-8.3 2.4-1.5 4 0.2 4 3.6z"/>
				<path id="&lt;Path&gt;" class="s2" d="m134.9 121.9l-0.7 38.4-8.1 4.7 0.8-38.5z"/>
				<path id="&lt;Compound Path&gt;" fill-rule="evenodd" class="s2" d="m123.5 166.5l-8.3 4.7-2.6-11.9-9.7 5.6-2.5 14.9-8 4.6 10.5-58.5 10.1-5.8zm-12.1-15.5c0 0-3.3-16.1-3.8-19l-0.1 0.1c-0.5 3.4-3.6 23.3-3.6 23.3z"/>
			</g>
		</g>
		<g id="Ps Icon 2 ">
			<g id="&lt;Group&gt;">
				<path id="&lt;Path&gt;" class="s5" d="m347 97.1c0-4.7-3.3-10.6-7.5-12.9-4.1-2.4-10.8-2.4-15 0l-56.9 32.6c-4.2 2.4-7.5 8.2-7.5 13v61.4c0 4.8 3.3 10.6 7.5 13 4.1 2.4 10.8 2.4 15 0l57.6-33.1c6.8-3.8 6.8-7.7 6.8-12.5z"/>
				<path id="&lt;Path&gt;" class="s7" d="m260.1 191.2c0 4.8 3.3 10.6 7.5 13 3.7 2.2 9.5 2.4 13.7 0.6-3.5 1.4-6.2-0.6-6.2-4.9v-61.5c0-2.4 0.8-5 2.2-7.4l-15-8.6c-1.4 2.3-2.2 5-2.2 7.4z"/>
				<path id="&lt;Path&gt;" class="s6" d="m346.8 95c-0.9-3.2-3.8-4.2-7.3-2.2l-56.9 32.6c-2.1 1.2-4 3.2-5.3 5.6l-15-8.6c1.4-2.4 3.2-4.4 5.3-5.6l56.9-32.6c4.2-2.4 10.9-2.4 15 0 3.6 2 6.5 6.5 7.3 10.8z"/>
			</g>
			<path id="&lt;Path&gt;" class="s2" d="m334.6 149.1c0 6.8-3.6 13.9-10.4 17.8-3.1 1.8-5.8 2.3-7.6 1.9l1.3-8.9c1.3 0.4 4.1 0.3 6.3-1 2.3-1.2 3.2-3 3.2-4.9 0-1.8-0.7-2.3-3.5-2.1-4.9 0.3-6.8-2.8-6.8-7.1 0-6.9 3.8-14.2 9.7-17.6 2.8-1.6 5.3-2.1 6.7-1.8l-1.3 8.6c-1.1-0.2-3.1-0.3-5.1 0.9-1.8 1-2.8 2.7-2.8 4.6 0 1.7 0.9 2.1 3.8 2 4.5-0.2 6.4 2.2 6.5 7.6z"/>
			<path id="&lt;Compound Path&gt;" fill-rule="evenodd" class="s2" d="m315.1 136.1c0 4.9-1 9.7-3 13.7-2.5 5.1-6.3 8.9-10.6 11.4-1 0.6-1.9 1-2.6 1.3v18.1l-7.3 4.2v-49.8c2.3-1.9 5.5-4.3 10-6.9 4.6-2.6 7.8-3.2 10-1.7 2.1 1.3 3.5 4.7 3.5 9.7zm-7.3 4.5c0-4.7-2.1-6.2-5.8-4.1-1.5 0.9-2.5 1.7-3.1 2.2v14.9c0.7-0.1 1.4-0.5 2.5-1.1 3.9-2.3 6.4-6.8 6.4-11.9z"/>
		</g>
		<g id="Sketch Icon 2 ">
			<g id="&lt;Group&gt;">
				<path id="&lt;Path&gt;" class="s5" d="m227.5 204.3c0-4.8-3.3-10.6-7.5-13-4.1-2.4-10.8-2.4-15 0l-56.9 32.6c-4.1 2.4-7.5 8.2-7.5 13v61.5c0 4.8 3.4 10.6 7.5 13 4.1 2.4 10.8 2.4 15 0l57.6-33.1c6.8-3.9 6.8-7.7 6.8-12.5z"/>
				<path id="&lt;Path&gt;" class="s7" d="m140.6 298.4c0 4.8 3.4 10.6 7.5 13 3.7 2.1 9.6 2.3 13.7 0.6-3.5 1.3-6.2-0.7-6.2-5v-61.4c0-2.4 0.8-5.1 2.2-7.4l-15-8.7c-1.4 2.4-2.2 5-2.2 7.4z"/>
				<path id="&lt;Path&gt;" class="s6" d="m227.3 202.2c-0.9-3.2-3.8-4.2-7.3-2.2l-56.9 32.6c-2.1 1.2-4 3.2-5.3 5.6l-15-8.7c1.4-2.3 3.2-4.4 5.3-5.5l56.9-32.7c4.2-2.3 10.9-2.3 15 0 3.6 2.1 6.6 6.6 7.3 10.9z"/>
			</g>
			<path id="&lt;Path&gt;" class="s2" d="m177.9 241.1v11.9l9.9-20.1z"/>
			<path id="&lt;Path&gt;" class="s2" d="m204.4 225.5l-11 3.6 11 9.7z"/>
			<path id="&lt;Path&gt;" class="s2" d="m203.6 241.1l-12.1-10.6-12.1 24.6 0.9-0.6 10.3-5.9z"/>
			<path id="&lt;Path&gt;" class="s2" d="m169.9 263.1l16.9 17.1-10.5-20.7z"/>
			<path id="&lt;Path&gt;" class="s2" d="m197.9 268.8l13.8-29.8-5.2 3z"/>
			<path id="&lt;Path&gt;" class="s2" d="m190.9 283.1l12.7-39.4-25.4 14.7z"/>
			<path id="&lt;Path&gt;" class="s2" d="m175.6 246.7l-5.3 13.6 5.2-3h0.1z"/>
			<path id="&lt;Path&gt;" class="s2" d="m206.9 239.2l5.7-3.3-5.9-8.4v11.8z"/>
		</g>
	</g>
</svg>