<svg version="1.2" xmlns="http://www.w3.org/2000/svg" viewBox="0 0 1000 1000" width="1000" height="1000">
	<title>6538669-ai</title>
	<style>
		.s0 { fill: #ffffff } 
		.s1 { fill: #dfe6ee } 
		.s2 { fill: #4c5980 } 
		.s3 { fill: #7991d1 } 
		.s4 { fill: #d66ec0 } 
		.s5 { fill: #ffd075 } 
		.s6 { fill: #eba7dc } 
		.s7 { fill: #bfcad4 } 
		.s8 { fill: #a1b0ba } 
		.s9 { fill: #313b59 } 
		.s10 { fill: #b345b5 } 
		.s11 { fill: #eb9921 } 
		.s12 { fill: #ffbb39 } 
	</style>
	<g id="BACKGROUND">
		<g id="&lt;Group&gt;">
			<path id="&lt;Path&gt;" class="s0" d="m1000-51h-1000v-1000h1000z"/>
		</g>
	</g>
	<g id="OBJECTS">
		<path id="&lt;Path&gt;" class="s1" d="m925.2 547.1c-5.2-41.2-19.8-81.3-42.9-115.6-44.7-66.6-107.3-116-160.3-174.5-49-54-94.9-113.3-164.2-139-83.1-30.9-175.7-3.6-235.4 63.4-57.7 64.7-86.7 150.5-137.9 220.3-41.5 56.7-95 114.7-96.7 190.4-1.5 69.5 37.7 131.7 87.8 173.8 80.5 67.5 181.5 89.6 281.8 97.6 134.6 10.8 293.1 1.6 396.2-102.2 54.4-54.8 81.4-135.6 71.6-214.2z"/>
		<g id="&lt;Group&gt;">
			<path id="&lt;Compound Path&gt;" fill-rule="evenodd" class="s2" d="m570.7 572c-0.6 14.9-1.9 29.6-3.8 44.4-1.8 14.6-4.5 29-8.1 43.3-3.1 12.5-7.1 24.9-16.2 34.4-7.1 7.5-17.1 13.3-27.6 12.9-3.3 0.5-6.6 0-9.7-1.4-2.9-1.3-5.4-3.2-7.5-5.5-2.5-2.2-4.5-5.1-5.9-8.4-2.8-5.1-4.9-10.8-6.9-15.7-5.2-12.8-9.2-26-12.9-39.4-3.5-13.1-5.7-26.7-7.2-40.2-1.5-13.7-2.7-27.4-2.9-41.2-0.3-14.2-0.2-28.4 0-42.6 0.2-13.8 1.6-27.7 2.5-41.5 1-14 2.2-28 4.4-41.9 2.1-13.9 5.8-27.6 11.3-40.6 4.7-11.4 11.7-23 23.1-28.8 10.5-5.4 22.7-5 32 2.7 9.9 8.1 14 21 16.9 33.1 3.3 14.3 6.2 28.7 8.7 43.2q2 11.2 3.7 22.4c1.1 7.4 1.9 14.9 2.8 22.4q1.3 10.7 2.1 21.5c0.6 7.6 1.3 15.1 1.3 22.7-0.1 14.7 0.5 29.4-0.1 44.2zm-6.4-26.6c-0.2-13.7-0.8-27.5-1.8-41.2-2.1-27.9-5.3-55.8-10.3-83.3-1.2-6.8-2.5-13.6-3.8-20.4-1.2-6.3-2.4-12.7-4.5-18.8-3.8-11-12.2-22-24.8-22.5-12.9-0.5-23.4 8.5-29.7 19-3.4 5.5-5.9 11.4-8 17.5-2.2 6.3-3.5 12.6-4.8 19.1-2.5 13.1-3.9 26.3-4.8 39.6-0.9 12.9-1.8 25.9-2.4 38.8-1.3 26.2-2 52.4-0.6 78.6 1.4 25.5 4.7 51.1 11 75.9 3.1 12.4 7 24.5 11.8 36.4 2.2 5.3 4.6 10.9 8.4 15.2q1.5 1 3 1.9c9.8 5.1 21.4 3.7 30.1-2.9 9.7-7.3 15.2-18.8 18.6-30.2 3.9-12.9 5.3-26.5 7.3-39.9 2-13.7 3.3-27.7 4.2-41.6 0.9-13.6 1.3-27.4 1.1-41.2z"/>
			<path id="&lt;Compound Path&gt;" fill-rule="evenodd" class="s2" d="m579.5 507.3c12.2 8.5 24 17.4 35.6 26.9 11.3 9.3 22 19.3 32.2 29.9 8.9 9.4 17.2 19.4 20.5 32.2 2.5 9.9 2 21.5-3.9 30.2-1.3 3-3.6 5.6-6.4 7.5-2.6 1.7-5.5 2.8-8.6 3.4-3.2 0.8-6.7 1-10.2 0.4-5.9-0.4-11.8-1.6-17-2.5-13.7-2.4-27-6.1-40.2-10.2-13-4-25.6-9.4-37.8-15.3-12.4-6.1-24.7-12.4-36.5-19.5-12.1-7.4-24-15.1-35.9-22.8-11.6-7.6-22.6-16.2-33.8-24.3-11.3-8.3-22.5-16.8-33.1-26-10.6-9.3-20.2-19.7-28.3-31.3-7.1-10.1-13.2-22.1-12.1-34.9 1.1-11.8 8-21.9 19.4-25.6 12.2-4.1 25.3-0.7 37 3.4 13.9 4.8 27.6 10.1 41.3 15.6q10.5 4.3 20.8 8.9c6.9 3 13.6 6.4 20.4 9.6q9.8 4.6 19.4 9.7c6.7 3.6 13.4 6.9 19.8 11 12.5 7.9 25.2 15.3 37.4 23.7zm-25.9-8.8c-11.7-7.2-23.7-14-35.8-20.5-24.7-13.1-50-25.3-76-35.7-6.4-2.6-12.8-5.2-19.2-7.7-6-2.4-12-4.8-18.4-6.3-11.2-2.6-25.1-1.4-32.2 9-7.3 10.6-5.3 24.4 0.2 35.3 2.8 5.7 6.5 11.1 10.5 16.1 4.2 5.2 8.8 9.7 13.7 14.2 9.7 9.2 20.1 17.4 30.8 25.2 10.5 7.7 21 15.3 31.6 22.8 21.4 15.1 43.2 29.6 66.1 42.4 22.3 12.5 45.7 23.4 70.1 31.3 12.1 4 24.5 7.1 37 9.4 5.7 1 11.7 2 17.4 1q1.7-0.7 3.2-1.5c9.5-5.5 14.5-16.1 13.6-27-1-12.1-7.7-22.9-15.6-31.8-8.9-10.2-19.6-18.7-29.8-27.5-10.6-9.1-21.6-17.6-32.9-25.8-11.1-8-22.6-15.7-34.3-22.9z"/>
			<path id="&lt;Compound Path&gt;" fill-rule="evenodd" class="s2" d="m491 483.6c6.3-4.1 13.1-7.4 19.8-11q9.5-5.1 19.4-9.7c6.8-3.2 13.5-6.6 20.4-9.6q10.3-4.6 20.8-8.9c13.7-5.5 27.4-10.8 41.3-15.6 11.7-4.1 24.8-7.5 37-3.4 11.4 3.7 18.3 13.8 19.4 25.6 1.1 12.8-5 24.8-12.1 34.9-8.1 11.6-17.7 22-28.3 31.3-10.6 9.2-21.8 17.7-33.1 26-11.2 8.1-22.2 16.7-33.8 24.3-11.9 7.7-23.8 15.4-35.9 22.8-11.8 7.1-24.1 13.4-36.5 19.5-12.2 5.9-24.8 11.3-37.8 15.3-13.3 4.1-26.5 7.8-40.2 10.2-5.2 0.9-11.1 2.1-17 2.5-3.5 0.6-7 0.4-10.2-0.4-3.1-0.6-6-1.7-8.6-3.4-2.8-1.9-5.1-4.5-6.4-7.5-5.9-8.7-6.4-20.3-3.9-30.2 3.3-12.8 11.6-22.8 20.5-32.2 10.2-10.6 20.9-20.6 32.2-29.9 11.6-9.5 23.4-18.4 35.6-26.9 12.2-8.4 24.9-15.8 37.4-23.7zm-45.8 37.8c-11.3 8.2-22.3 16.7-32.9 25.8-10.2 8.8-20.9 17.3-29.8 27.5-7.9 8.9-14.6 19.7-15.6 31.8-0.9 10.9 4.1 21.5 13.6 27q1.5 0.8 3.2 1.5c5.7 1 11.7 0 17.4-1 12.5-2.3 24.9-5.4 37-9.4 24.3-7.9 47.8-18.8 70.1-31.3 22.9-12.8 44.7-27.3 66.1-42.4 10.6-7.5 21.1-15.1 31.6-22.8 10.7-7.8 21.1-16 30.8-25.2 4.9-4.5 9.5-9 13.7-14.2 4-5 7.7-10.4 10.5-16.1 5.5-10.9 7.5-24.7 0.2-35.3-7.1-10.4-21-11.6-32.3-9-6.3 1.5-12.3 3.9-18.3 6.3-6.4 2.5-12.8 5.1-19.2 7.7-26 10.4-51.3 22.6-76 35.7-12.1 6.5-24.1 13.3-35.8 20.5-11.7 7.2-23.2 14.9-34.3 22.9z"/>
			<path id="&lt;Path&gt;" class="s3" d="m663.8 575.9q0-0.5 0-0.9c0-0.2 0-0.3 0-0.4q-0.2-1.6-0.4-3.1-0.4-1.5-1.1-2.8-0.9-1.2-1.9-2.4-2.2-2.1-5.1-3-1.6-0.3-3.2-0.4-0.1 0-0.1 0c-1.1 0.1-2.2 0.2-3.3 0.4q-0.1 0-0.1 0.1c-1 0.3-2 0.8-3 1.2q0 0-0.1 0.1c-0.9 0.6-1.7 1.2-2.5 1.9q0 0 0 0-1 1.3-1.9 2.5-0.7 1.5-1.3 2.9-0.2 1.7-0.4 3.3 0.2 1.6 0.4 3.3l1.3 2.9q0.9 1.2 1.9 2.5 1.2 0.9 2.4 1.9 2.2 1.3 4.6 1.4 1.6 0.5 3.3 0 1.6 0 3-0.8 1.6-0.4 2.7-1.6 1.4-0.8 2.2-2.2 1.2-1.1 1.6-2.7 0.8-1.4 0.8-3.1c0.1-0.1 0.1-0.2 0.1-0.4q0.1-0.3 0.1-0.6z"/>
			<path id="&lt;Path&gt;" class="s3" d="m384.3 480.3q0-0.3 0-0.6c0-0.1 0-0.2 0-0.3q-0.1-1.1-0.3-2.3-0.3-1-0.8-2-0.7-0.8-1.3-1.7-1.6-1.5-3.7-2.1-1.2-0.2-2.3-0.3-0.1 0-0.1 0c-0.8 0-1.6 0.1-2.4 0.3q0 0-0.1 0c-0.7 0.2-1.4 0.6-2.1 0.9q0 0-0.1 0-0.9 0.7-1.8 1.4 0 0 0 0.1-0.7 0.8-1.4 1.7-0.4 1.1-0.9 2.1-0.1 1.2-0.3 2.4 0.2 1.2 0.3 2.3l0.9 2.1q0.7 0.9 1.4 1.8 0.9 0.7 1.8 1.4 1.5 1 3.3 1.1 1.1 0.3 2.3 0 1.2 0 2.2-0.6 1.1-0.4 2-1.2 1-0.6 1.6-1.6 0.8-0.8 1.1-1.9 0.6-1 0.6-2.2 0-0.2 0-0.3 0.1-0.2 0.1-0.5z"/>
			<path id="&lt;Path&gt;" class="s3" d="m548.7 535.1c0.1-0.8 0.2-1.6 0.1-2.3 0-0.4 0.1-0.7 0.1-1.1q-0.5-4.1-1.1-8.1-1.2-3.8-3.1-7.3-2.3-3.1-4.7-6.1-5.7-5.7-13.4-7.8c-2.8-0.5-5.6-1-8.4-1.2q-0.1 0-0.3 0c-2.9 0.2-5.7 0.7-8.5 1.2q-0.2 0-0.3 0c-2.7 0.9-5.2 2.1-7.8 3.3q-0.1 0.1-0.2 0.2c-2.3 1.5-4.4 3.2-6.5 5q-0.1 0-0.1 0.1-2.5 3.2-5 6.5-1.6 3.8-3.2 7.6-0.6 4.2-1.2 8.5 0.6 4.2 1.2 8.4l3.2 7.7q2.5 3.2 5 6.4 3.2 2.5 6.4 5 5.5 3.5 11.9 3.8 4.2 1.2 8.5 0 4.3 0 8-2.2 4.1-1.1 7.1-4.1 3.6-2.1 5.7-5.7 3-3 4.1-7 2.2-3.8 2.2-8.1c0.1-0.3 0.1-0.7 0.1-1 0.1-0.5 0.2-1.1 0.2-1.7z"/>
			<path id="&lt;Path&gt;" class="s3" d="m560.6 673.4q0-0.4 0-0.7c0-0.1 0-0.2 0-0.3q-0.1-1.1-0.3-2.3-0.3-1.1-0.9-2.1-0.6-0.8-1.3-1.7-1.6-1.6-3.8-2.2-1.2-0.2-2.4-0.3 0 0-0.1 0c-0.8 0-1.6 0.1-2.4 0.3q0 0-0.1 0c-0.7 0.2-1.5 0.6-2.2 0.9q0 0-0.1 0.1-0.9 0.6-1.8 1.4 0 0 0 0-0.7 0.9-1.4 1.9-0.5 1-1 2.1-0.1 1.2-0.3 2.4 0.2 1.2 0.3 2.4l1 2.2q0.7 0.9 1.4 1.8 0.9 0.8 1.8 1.5 1.6 1 3.4 1 1.2 0.4 2.4 0 1.2 0 2.3-0.6 1.1-0.3 2-1.1 1-0.7 1.6-1.7 0.8-0.8 1.2-2 0.6-1 0.6-2.3 0-0.1 0-0.2 0.1-0.3 0.1-0.5z"/>
			<path id="&lt;Path&gt;" class="s3" d="m496.3 388q0.1-0.5 0.1-1c0-0.2 0-0.3 0-0.5q-0.3-1.8-0.5-3.6-0.5-1.7-1.4-3.3-1-1.4-2.1-2.7-2.5-2.5-6-3.5c-1.2-0.2-2.5-0.4-3.7-0.5q-0.1 0-0.2 0c-1.2 0.1-2.5 0.3-3.8 0.5q0 0-0.1 0c-1.2 0.4-2.3 1-3.5 1.5q0 0-0.1 0.1c-1 0.7-1.9 1.4-2.9 2.2q0 0 0 0.1-1.1 1.4-2.2 2.8-0.8 1.7-1.5 3.4-0.2 1.9-0.5 3.8 0.3 1.9 0.5 3.8l1.5 3.4q1.1 1.5 2.2 2.9 1.4 1.1 2.9 2.2 2.4 1.6 5.3 1.7 1.9 0.5 3.8 0 1.9 0 3.5-0.9 1.9-0.5 3.2-1.9 1.6-0.9 2.6-2.5 1.3-1.4 1.8-3.2 1-1.6 1-3.6c0-0.1 0-0.3 0-0.4q0.1-0.4 0.1-0.8z"/>
		</g>
		<g id="&lt;Group&gt;">
			<path id="&lt;Path&gt;" class="s4" d="m293 249.8q-0.1-5.4-0.2-10.7c0-0.4-0.2-0.7-0.4-0.9-0.3-0.6-0.9-1.1-1.9-1.2-4.7-0.7-9.7-0.5-14.4-0.6q-6.8-0.1-13.6-0.3-14.4-0.2-28.8-0.4-14.2-0.2-28.3-0.3c-9.6-0.1-19.3-0.4-28.8 0.1-0.3 0.1-0.6 0.1-0.8 0.2q-0.1 0-0.1 0 0.1 35.8 0 71.7c0.3 0.3 0.8 0.6 1.4 0.6 9.2 1 18.8 0.7 28 0.7 9.7 0.1 19.3 0.1 28.9 0.1q14.2 0.1 28.4 0.1 7.1 0 14.2 0c4.8 0 9.9 0.3 14.5-0.2 0.2 0 0.3 0 0.4-0.1q0.6 0 1.1-0.3c0.2-11.1 0.3-22.2 0.2-33.2-0.1-8.5 0-16.9 0.2-25.3z"/>
			<g id="&lt;Group&gt;">
				<path id="&lt;Path&gt;" class="s0" d="m197 275.5q-0.8 0-1.7 0-0.1 0-0.2 0.1-0.1 0.1-0.2 0.4c-0.1 0.9 0 1.9-0.1 2.8q0 1.3 0 2.7 0 2.8-0.1 5.7 0 2.8 0 5.5c0 1.9-0.1 3.8 0 5.7q0 0.1 0 0.2 0 0 0 0 5.9 0 11.7 0 0.1-0.1 0.1-0.3c0.2-1.8 0.1-3.7 0.1-5.5q0-2.9 0-5.7 0.1-2.8 0.1-5.6 0-1.4 0-2.8c0-1 0-2-0.1-2.9q0 0 0 0 0-0.2 0-0.3-2.7 0-5.4 0-2.1 0-4.2 0z"/>
			</g>
			<g id="&lt;Group&gt;">
				<path id="&lt;Path&gt;" class="s0" d="m218.9 261.6q-0.8 0-1.7 0-0.1 0-0.1 0.2-0.2 0.1-0.2 0.6c-0.1 1.4-0.1 3-0.1 4.5q-0.1 2.2-0.1 4.3 0 4.5-0.1 9.1 0 4.4-0.1 8.9c0 3 0 6.1 0 9.1q0 0.1 0.1 0.3 0 0 0 0 5.8-0.1 11.7-0.1 0.1-0.1 0.1-0.4c0.1-2.9 0.1-5.9 0.1-8.9q0-4.5 0-9.1 0.1-4.5 0.1-8.9 0-2.3 0-4.5c0-1.5 0.1-3.1 0-4.6q0-0.1 0-0.1-0.1-0.2-0.1-0.3-2.7-0.1-5.4-0.1-2.1 0.1-4.2 0z"/>
			</g>
			<path id="&lt;Path&gt;" class="s5" d="m240.9 252.8q-0.9 0.1-1.8 0.1-0.1 0-0.1 0.2-0.2 0.1-0.2 0.7c-0.1 1.8-0.1 3.8-0.1 5.6q-0.1 2.7-0.1 5.3-0.1 5.6-0.1 11.3-0.1 5.5-0.1 11c0 3.7-0.1 7.5 0 11.2q0 0.2 0 0.3 0 0.1 0 0.1 5.9-0.1 11.7-0.1 0.1-0.2 0.1-0.6c0.2-3.6 0.2-7.3 0.2-10.9q0-5.6 0-11.3 0.1-5.5 0.1-11 0-2.8 0-5.6c0-1.8 0.1-3.8 0-5.6q0-0.1 0-0.2 0-0.2-0.1-0.4-2.7-0.1-5.4 0c-1.4 0-2.8 0-4.1-0.1z"/>
			<g id="&lt;Group&gt;">
				<path id="&lt;Path&gt;" class="s0" d="m262.6 266.7q-0.8 0.1-1.7 0.1-0.1 0-0.1 0.1-0.2 0.1-0.2 0.5c-0.2 1.3-0.1 2.6-0.1 3.9q-0.1 1.9-0.1 3.7 0 3.9-0.1 7.8 0 3.9 0 7.7c-0.1 2.6-0.1 5.2 0 7.8q0 0.1 0 0.2 0 0 0 0.1 5.8-0.1 11.7-0.1 0.1-0.1 0.1-0.4c0.1-2.5 0.1-5.1 0.1-7.6q0-3.9 0.1-7.8 0-3.9 0-7.7 0-1.9 0-3.9c0-1.3 0-2.6 0-3.9q0 0 0-0.1-0.1-0.2-0.1-0.3-2.7-0.1-5.4 0-2.1 0-4.2-0.1z"/>
			</g>
		</g>
		<g id="&lt;Group&gt;">
			<path id="&lt;Path&gt;" class="s5" d="m953.6 651.5q-0.1-7.6-0.2-15.1c0-0.6-0.2-1-0.4-1.4-0.3-0.8-0.9-1.5-2-1.6-4.8-0.8-10.1-0.4-15-0.5q-7.1 0-14.1 0.1-15 0-30 0.1-14.8 0.2-29.5 0.4c-10 0.1-20.1 0-30 1-0.3 0-0.6 0.1-0.9 0.2q0 0 0 0c0 34 0 68.1-0.1 102.1 0.3 0.5 0.7 0.8 1.4 0.9 9.6 1.1 19.5 0.4 29.2 0.2 10-0.2 20-0.4 30.1-0.7q14.8-0.3 29.6-0.6 7.4-0.2 14.7-0.4c5-0.1 10.3 0.2 15.1-0.6 0.2-0.1 0.3-0.1 0.4-0.2q0.7-0.1 1.1-0.5c0.3-15.8 0.4-31.6 0.3-47.3-0.1-12.1 0.1-24.1 0.3-36.1z"/>
			<g id="&lt;Group&gt;">
				<path id="&lt;Path&gt;" class="s6" d="m442.7 349.8q-0.1-5.3-0.1-10.6c0-0.4-0.2-0.7-0.4-1-0.2-0.5-0.7-1-1.6-1.2-3.9-0.6-8.1-0.4-12.1-0.5q-5.7-0.2-11.4-0.3-12.1-0.2-24.2-0.4-11.9-0.1-23.7-0.2c-8.1-0.1-16.2-0.4-24.2 0.1-0.3 0-0.5 0.1-0.7 0.1q-0.1 0-0.1 0 0.1 35.9 0 71.8c0.2 0.3 0.6 0.5 1.2 0.6 7.7 0.9 15.7 0.6 23.5 0.7 8.1 0 16.2 0 24.3 0q11.9 0 23.8 0.1 6 0 11.9 0c4 0 8.3 0.3 12.2-0.2 0.1 0 0.2-0.1 0.3-0.1q0.5-0.1 0.9-0.3c0.2-11.1 0.3-22.2 0.2-33.2-0.1-8.5 0.1-17 0.2-25.4z"/>
				<path id="&lt;Path&gt;" class="s7" d="m322.5 400.4q0-3-0.1-5.9 0-0.4-0.2-0.6c-0.1-0.3-0.4-0.6-0.9-0.6-2.1-0.4-4.5-0.3-6.7-0.4q-3.1 0-6.3-0.1-6.8-0.1-13.5-0.2-6.6-0.1-13.2-0.2c-4.5 0-9-0.2-13.4 0.1q-0.2 0-0.4 0.1 0 0-0.1 0 0.1 19.9 0 39.9c0.2 0.2 0.4 0.3 0.7 0.3 4.3 0.5 8.7 0.4 13 0.4q6.8 0 13.6 0 6.6 0.1 13.2 0.1 3.3 0 6.7 0c2.2 0 4.5 0.1 6.7-0.1q0.1-0.1 0.2-0.1 0.3 0 0.5-0.2c0.1-6.1 0.1-12.3 0.1-18.4 0-4.8 0-9.5 0.1-14.1z"/>
			</g>
		</g>
		<g id="&lt;Group&gt;">
			<g id="&lt;Group&gt;">
				<path id="&lt;Path&gt;" class="s8" d="m191.8 823.2c-1.7 0.8-18.6 5.4-19.1 7.3-0.6 2 1.3 13.2 6 20.7 4.6 7.6 8.3 9.3 12.2 13.6 3.8 4.2 7.7 9.1 9.6 12.6 2 3.4 4.5 7.3 7 6.9 2.5-0.4 9.5-6.5 8.5-9.8-0.9-3.3-4.8-10.1-6.2-15.1-1.3-5.1-3.1-12-4.6-15.9-1.6-3.9-5.2-11.8-7.4-14.7-2.1-2.9-5.2-6-6-5.6z"/>
				<path id="&lt;Path&gt;" class="s7" d="m211.7 862.8c-2.3 1.2-3.1 1.4-4.3 4.7-1.3 3.2-2 8.7-2 12.7 0 4-0.2 9 0.7 9.9 0.9 0.9 1.4 0.9 3.3 1.1 1.8 0.2 9.2 1.3 16.5 0.6 7.2-0.8 19-2 24.4-1.7 5.5 0.4 21.1 2 24.7 2.2 3.6 0.2 9.8 0.4 11.2-0.7 1.5-1.1 1.9-2.6 1.9-2.6 0 0 1.4-4.7-1.3-8.7-2.7-3.9-2.2-6.5-9.1-8.1-6.9-1.7-9.2-2.2-14.3-3.1-5.1-0.9-21.4-9.3-25-10.3-3.7-1.1-26.7 4-26.7 4z"/>
				<path id="&lt;Path&gt;" class="s9" d="m200.8 843.4c-4.8-3.9-5.9-9.1-9.1-12.7-3.2-3.6-3.6-6.3-3.6-8.3 0-2 15.5-17.9 21.1-27.1 5.5-9.1 33.4-64.7 33.4-73.1 0-8.3-15.2-123.2-13.6-124.4 1.6-1.2 13.6-1.2 17.9-1.6 4.4-0.4 20.7-3.2 21.9 0 1.2 3.2 8.7 58 10.7 67.2 2 9.1 8.8 58 8.8 60.4 0 2.4-0.4 3.2-2 7.2-1.6 3.9-6 7.9-11.2 15.1-5.1 7.1-9.1 14.3-14.7 20.2-5.5 6-11.9 16.3-20.6 27.8-8.8 11.6-33.4 45.4-33.4 45.4 0 0-4.5 4.8-5.6 3.9z"/>
				<path id="&lt;Path&gt;" class="s9" d="m210 867.3c-2.2-0.2-1.2-4.8-1.6-7.6 0 0 1.2-9.1 1.2-25.4 0-16.3-0.8-42.9-1.2-55.7-0.4-12.7 1.2-40.9-0.8-50-2-9.2-15.1-57.3-17.5-68.8-2.4-11.5-4-29.8-3.6-40.9 0.4-11.2 2.4-20.7 3.2-21.9 0.8-1.2 16.3-0.4 21.9-0.4 5.5 0 31-0.4 32.5 0.8 1.6 1.2 2.8 40.2 3.2 46.9 0.4 6.8 3.2 64.4 3.2 68.8 0 4.3-0.4 9.9-0.4 15.9 0 5.9-6.8 67.9-6.8 75.1 0 7.1-1.9 54.8-2.7 56.8-0.8 2-16.7 7.6-30.6 6.4z"/>
				<path id="&lt;Path&gt;" class="s3" d="m251.8 726.2c0.4-8.1-0.4-16.4-0.6-24.5q-0.3-12.9-0.8-25.9-0.4-12.7-1-25.4c-0.4-8.8-0.6-17.6-1.5-26.4-0.1-0.9-1.6-1-1.5 0 0.1 8.6 0.8 17.3 1.2 25.9q0.6 13 1.1 25.9 0.5 12.7 0.8 25.4c0.3 8.3 0.7 25.2 0.7 25.4-1.8 17.8-3.7 35.6-4.7 53.5 0 0.4 0.5 0.4 0.6 0.1 2.4-17.8 5.9-53.9 5.7-54z"/>
				<path id="&lt;Path&gt;" class="s3" d="m209.8 815.3q-0.1-4 0-8.1c0-2.8 0.3-5.8 0.1-8.5-0.1-0.6-1-0.8-1-0.2-0.4 2.6-0.2 5.4-0.3 8q-0.1 4.3-0.1 8.5c0 5.7 0 11.4 0.4 17 0.1 0.8 1.2 0.8 1.2 0 0-5.5-0.3-11.1-0.3-16.7z"/>
			</g>
			<g id="&lt;Group&gt;">
				<path id="&lt;Path&gt;" class="s0" d="m350.9 415.4c0 0 2.7-9.2 3.9-13.7 1.2-4.6 1.8-6.8 3.8-7.8 2-1 4.4-1.2 8.6-1.2 4.1 0 6.7 0.2 6.7 0.2 0 0 15.3-11.9 16.7-11.9 1.4 0 2.2 0.2 2.2 1.8 0 1.6-13.5 13.5-13.7 14.9-0.2 1.4 1.6 12.9 0.2 14.7-1.4 1.8-9.8 6.2-11.6 7.6-1.7 1.3-3.7 4.1-4.3 4.1-0.6 0-8.2-2.8-10.2-4.5-1.9-1.8-2.5-2.4-2.3-4.2z"/>
				<path id="&lt;Path&gt;" class="s10" d="m240.2 443.6c-1.2-2.1-0.4-3.6 0.8-5.6 1.2-2 1.9-3.9 5.9-3.5 4 0.4 5.2 0.8 10.8 3.1 5.5 2.4 54 25.9 56.4 26.3 2.4 0.4 33.8-48.1 35.4-48.9 1.6-0.8 0.8-1.6 3.5-0.4 2.8 1.2 11.2 7.5 11.2 9.9 0 2.4-9.2 20.3-12.7 26.7-3.6 6.3-23.5 41.7-30.3 42.5-6.7 0.8-50.4-8.8-56-13.1-5.6-4.4-22.6-32.6-25-37z"/>
				<path id="&lt;Path&gt;" class="s10" d="m189.7 597c-2.7-0.7-0.8-2-1.2-5.2-0.4-3.1-0.8-2.7 0-13.1 0.8-10.3 2-27 1.6-33.8-0.4-6.7-2-15.9-2.4-26.2-0.4-10.3-6.4-36.2-7.9-43.7-1.6-7.6-2-25.4-0.8-30.6 1.2-5.2 8.7-11.1 15.5-13.9 6.7-2.8 27-3.6 31.8-3.2 4.7 0.4 7.9 0.8 14.7 3.2 6.7 2.4 7.5 2.4 11.1 6.3 3.6 4 8.3 15.1 11.9 23.5 3.6 8.3 10.7 28.6 11.5 31.8 0.8 3.2 1.6 4.8 0.4 8.3-1.2 3.6-9.1 17.5-13.1 28.6-4 11.2-4.4 12-2.8 22.7 1.6 10.7 6.8 31.4 8 35.4 1.2 4 2.8 8.3 0.8 9.1-2 0.8-7.6 0.8-7.6 0.8 0 0-11.1-1.2-23 0.8-11.9 2-42.2 0.8-48.5-0.8z"/>
				<path id="&lt;Path&gt;" class="s4" d="m235.7 516.5c-4 2.3-7.7 4.9-11.8 7q-3.2 1.7-6.5 3c-2.1 0.8-4.2 1.4-6.2 2.5-0.3 0.1-0.1 0.7 0.2 0.6 2.3-0.2 4.5-1 6.6-1.8q3.3-1.3 6.4-2.9c4.2-2.1 8.4-4.6 11.6-8 0.2-0.2 0-0.5-0.3-0.4z"/>
				<path id="&lt;Path&gt;" class="s0" d="m188.5 619.9c0 0-2 15.3-1.8 17.7 0.2 2.3 0.2 2.9 1.4 5.7 1.2 2.8 7 14.7 8.9 15.9 2 1.2 5.4 1.6 8.2 1.6 2.8 0 6.2-1.4 6.5-3.6 0.4-2.2-1.3-9.3-2.1-12.9-0.8-3.6-2.8-10.5-2.2-10.5 0.6 0 3.6 5.9 3.8 6.9 0.2 1 0.7 4.6 1.5 6 0.8 1.4 1.8 1.8 2.8 1.4 1-0.4 1.4-6 1.4-8.8 0-2.7 0.6-5.3-1.4-8.1-2-2.8-9.3-16.3-10.3-17.3-1-1-10.5 2.2-12.7 3.4-2.2 1.2-4 0.6-4 2.6z"/>
				<path id="&lt;Path&gt;" class="s10" d="m186.1 437.6c-3 1.1-6.3 2-6.7 4.4-0.4 2.4-10.4 36.2-12.8 46.1-2.3 9.9-5.1 53.7-4.7 60.4 0.4 6.8 22.6 68 24.6 70.4 2 2.4 5.2 1.6 9.5 0.4 4.4-1.2 11.8-2.6 10-7.6-0.6-1.7-6.8-31.8-7.6-36.1-0.8-4.4-5.5-26.3-5.9-31-0.4-4.8 6.7-42.6 8.3-55.7 1.6-13.1 0.8-30.2-0.8-37.7-1.6-7.6-9.5-15.2-13.9-13.6z"/>
				<path id="&lt;Path&gt;" class="s4" d="m198 569.8c-1.7-8.4-2.8-17-5-25.2q0.1-0.2 0.1-0.4c1.5-8.6 2.8-17.2 4.1-25.8 1.4-8.3 3.2-16.6 3.9-25 0.1-0.9-1.3-1.1-1.5-0.2-1.9 8.2-2.8 16.9-4.1 25.3-1.4 8.4-2.8 16.8-4.1 25.3q0 0.3 0.1 0.5 0 0 0 0c1.1 8.4 3.2 16.7 4.9 24.9 1.7 8.5 2.8 17.3 5.4 25.5 0.1 0.3 0.6 0.3 0.6 0-0.7-8.4-2.8-16.7-4.4-24.9z"/>
				<path id="&lt;Path&gt;" class="s4" d="m202.4 468.2c-0.1-1.1-0.1-2.2-0.3-3.3-0.1-0.5-0.3-1.3-1-1.3-1.5 0-0.6 3.3-0.5 4.1q0.3 3.5 0.4 7.1c0.1 2.3 0 4.6-0.1 7q0 1.6-0.1 3.3c0 0.9-0.3 2 0.2 2.9 0 0.1 0.2 0.2 0.3 0 0.7-0.6 0.7-1.6 0.8-2.5q0.2-1.6 0.3-3.2c0.3-2.4 0.3-4.7 0.3-7.1q0-3.5-0.3-7z"/>
				<path id="&lt;Path&gt;" class="s4" d="m265.3 460.7q-2.1-4.8-4.4-9.5c-1.5-3.2-3-6.7-5-9.5-0.4-0.6-1.5-0.3-1.2 0.5 1.2 3.1 3.1 6.1 4.6 9.1q2.2 4.5 4.2 9.1c2.9 6.6 5.5 13.2 8.1 19.9 0.2 0.6 1.1 0.3 0.9-0.3-2-6.6-4.5-13-7.2-19.3z"/>
			</g>
			<g id="&lt;Group&gt;">
				<path id="&lt;Path&gt;" class="s0" d="m227.8 421.9c0 0-1.1 4-0.9 6.4 0.2 2.4 2.3 6.6 2.5 8.9 0.2 2.4 0.4 6.2-4.7 9.2-5.2 3-17.5 3.2-23.1-2.4-5.6-5.6-0.2-22.3-0.2-22.3 0 0 8.8-9.3 15.5-8.5 6.8 0.8 10.9 8.7 10.9 8.7z"/>
				<path id="&lt;Path&gt;" class="s0" d="m247.9 367.3c0.8 2.2 2.6 7.7 2.2 10.1-0.4 2.4-2.6 7.4-1.8 9.8 0.8 2.3 5.4 8.1 5 10.9-0.4 2.8-3.2 9.9-6.6 16.9-3.4 6.9-8.9 13.3-11.9 12.9-3-0.4-12.9-4.8-12.9-4.8-4.2-1.6-10-3.9-11.5-7.7-1.6-3.8-0.6-28.8-0.6-28.8 0 0 6.3-15.7 10.7-18.9 4.4-3.2 4.4-5.6 12.1-4.8 7.8 0.8 15.3 4.4 15.3 4.4z"/>
				<path id="&lt;Path&gt;" class="s2" d="m222.1 369.1c1.4 1.1 3.2 5.3 3.8 6.4 0.5 1.1 0.5 1.3 1.8 1.3 1.3 0 10.3-2.4 13.8-3.4 3.4-1.1 10.1-0.8 10.3-2.1 0.3-1.4 0.8-1.1 0.3-3-0.5-1.8-1.1-13.2-4.8-18.8-3.7-5.5-3.4-7.1-11.9-9.8-8.5-2.6-14.6-1.6-14.6-1.6 0 0-13.2-3.1-21.2-1.5-7.9 1.5-19.6 9.5-24.6 19.6-5 10-7.7 19.8-7.7 24.6 0 4.8-1.9 9.8-1.9 9.8 0 0-13.2 23.6-16.6 33.1-3.5 9.6-6.1 45.1-4.8 53.8 1.3 8.8 4.2 28.1 7.9 35 3.7 6.9 8.8 19.9 9.8 18.8 1.1-1.1 1.4-0.8 1.4-2.6 0-1.9 4.2-24.2 11.4-34 7.1-9.8 17.4-18 19.8-20.6 2.4-2.7 4.8-3.6 6.3-6.4 1.5-2.8 3-5 3.5-14.6 0.6-9.5 2.7-20.4 4.5-24.6 1.9-4.2 4.5-14.3 5.1-19.6 0.5-5.3 2.1-19.1 2.1-19.1 0 0 1-9 2.4-13 1.3-3.9 3.9-7.7 3.9-7.7z"/>
				<path id="&lt;Path&gt;" class="s2" d="m219.8 369.4c1 4.2-1.9 11.9-2.2 15.9-0.2 4 2.4 22.3 3.2 25.7 0.8 3.5 1.1 4.2 0 3.2-1-1.1-3.2-5.8-4.7-10.9-1.6-5-2.7-8.7-3.2-13.8-0.6-5-2.9-5.5 0.2-12.7 3.2-7.1 6.1-9.5 6.7-7.4z"/>
				<path id="&lt;Path&gt;" class="s9" d="m150.9 468.4c0-5.6 0.4-11.2 1.2-16.8q0.6-4.3 1.5-8.4c0.5-2.5 1.4-5 1.6-7.6 0-0.4-0.7-0.6-0.9-0.2-2.4 4.7-3 11-3.7 16.3q-1.2 8.3-1.2 16.7c0 11.4 1.4 23 5.1 33.8 0.2 0.5 0.8 0.3 0.7-0.1-2.5-11.1-4.3-22.3-4.3-33.7z"/>
				<path id="&lt;Path&gt;" class="s9" d="m159.4 452.6c-0.8 1.2-0.9 2.7-1.1 4.1q-0.3 2-0.5 4.2c-0.3 2.8-0.4 5.7 0.2 8.5 0.1 0.3 0.5 0.2 0.6-0.1 0.3-2.7 0.2-5.5 0.5-8.3q0.2-2.1 0.6-4.1c0.2-1.3 0.8-2.7 0.6-4 0-0.5-0.6-0.7-0.9-0.3z"/>
				<path id="&lt;Path&gt;" class="s9" d="m207 403c-1.5 4.4-2.4 9.2-3.5 13.7q-1.6 6.9-3.3 13.7-3.3 13.8-6.4 27.6c-0.1 0.5 0.7 0.7 0.8 0.2q3.5-13.7 6.8-27.4 1.7-6.9 3.3-13.7c1.1-4.6 2.5-9.2 3.2-13.8 0.1-0.6-0.7-0.8-0.9-0.3z"/>
			</g>
		</g>
		<g id="&lt;Group&gt;">
			<g id="&lt;Group&gt;">
				<g id="&lt;Group&gt;">
					<path id="&lt;Path&gt;" class="s0" d="m883.5 859.3c1-2.3-1.6-9.8-3.2-10-1.6-0.3-27.3 5.8-27.5 8.4-0.3 2.7-2.2 3 3.1 3.5 5.3 0.5 26.8 0 27.6-1.9z"/>
				</g>
				<path id="&lt;Path&gt;" class="s8" d="m851.2 858.5c-2.2 0.7 1.8 1.1-4.8 4-6.6 2.9-18 4.5-24.9 6.9-6.9 2.4-11.7 6.1-13.3 10.1-1.5 3.9-2.9 6.6-0.5 8.2 2.4 1.6 12.2 2.4 20.7 2.4 8.5 0 18.5-2.4 25.7-2.4 7.1 0 19.9-0.6 23.6-0.3 3.7 0.3 8.2 1.1 9-0.8 0.8-1.8 0.5-10.8 0-14.3-0.6-3.4-0.3-13.8-3.2-14-2.9-0.3-2.9 0.2-12.2 0.5-9.3 0.3-19.3-0.5-20.1-0.3z"/>
				<path id="&lt;Path&gt;" class="s8" d="m757.6 854.3c-2.3 2.1 0 3.4-4.5 6.4-4.5 2.9-22.8 8.2-29.1 10.6-6.4 2.3-10.1 6.8-11.9 10.3-1.9 3.4-2.4 6.3-1.1 7.4 1.3 1.1 13.3 2.9 22.8 2.7 9.5-0.3 25.2-1.9 31-2.2 5.8-0.2 19.9 0.3 22.8 0 2.9-0.2 3.4-0.5 4.5-1.6 1-1 2.6-2.3 1.6-8.2-1.1-5.8-2.4-19-4.8-21.2-2.4-2.1-22.8-3.1-25.7-3.4-2.9-0.3-5.6-0.8-5.6-0.8z"/>
				<path id="&lt;Path&gt;" class="s9" d="m756.6 553.8c-2.5 2.5-4.8 1.6-5.3 5.9-0.5 4.2 1 132.4 1 140.9 0 8.5 0.6 152.1 3.2 154.2 2.7 2.1 13.8 2.1 18 2.7 4.3 0.5 13.3 4.2 15.4 1 2.1-3.1 3-17.6 3.2-24.9 0.2-7.3 1-121.9 1.6-128.7 0.5-6.9 5.3-19.1 7.9-34.5 2.7-15.4 16.5-75.2 18-85.8 1.6-10.6-5.3-26-5.3-26 0 0-25.9-6.4-32.3-6.9-6.3-0.5-22.8-0.5-25.4 2.1z"/>
				<path id="&lt;Path&gt;" class="s9" d="m793.1 557.5c-2.1 1.1-4.7 4.8-4.7 13.3 0 8.5 14.3 130.3 15.3 138.8 1.1 8.5 39.3 147.9 45.1 149.5 5.8 1.6 33.4-4.8 33.9-9.6 0.5-4.7-10.1-42.9-11.7-51.9-1.5-9-22.7-86.4-23.3-97-0.5-10.6 1.6-91.1 2.1-102.3 0.6-11.1 7.5-32.3-2.6-38.1-10.1-5.8-26-5.8-36-5.8-10.1 0-18.1 3.1-18.1 3.1z"/>
				<path id="&lt;Path&gt;" class="s3" d="m790.4 585.6c-0.1-0.6-1.1-0.6-1 0 2.7 26.8 5 53.8 8.1 80.6 0.1 0.8 1.4 0.8 1.3 0-2.4-26.9-5.6-53.7-8.4-80.6z"/>
			</g>
			<g id="&lt;Group&gt;">
				<g id="&lt;Group&gt;">
					<path id="&lt;Path&gt;" class="s0" d="m739.4 466.1c-2.4 0-2.2-1-4.3 0.6-2.1 1.5-1.3 0.7-2.9 2.9-1.6 2.1-9.8 16.4-13.2 19-3.5 2.7-22.3 9.1-28.4 11.2-6.1 2.1-40.5 13.2-42.9 13.5-2.4 0.2-6.1-1.1-10.9-0.8-4.8 0.3-10.1 1.6-13.8 1.6-3.7 0-6.6-0.3-6.9 1.8-0.2 2.2-0.7 2.9 1.6 3.2 2.4 0.3 10.1 1.6 10.1 1.6 0 0-21.2 1.1-22.5 2.1-1.3 1.1-4 4.3-3.7 6.6 0.2 2.4 4.7 7.5 8.2 8.5 3.4 1.1 11.1 1.1 19.1-0.8 7.9-1.8 20.1-9.2 22.8-9.8 2.6-0.5 82.4-15.3 83.4-15.9 1.1-0.5 1.6-0.2 2.7-1.3 1-1.1 1.6-1.9 3.9-4 2.4-2.1 12.5-14.5 13.3-17.2 0.8-2.6-1.1-7.1-1.1-7.1 0 0-7.4-10.4-10-12-2.7-1.6-2.2-2.4-3-2.9z"/>
				</g>
				<path id="&lt;Path&gt;" class="s11" d="m771.7 402.3c-4 2.3-5.1 5.5-8.5 9.5-3.4 4-31.8 55.6-32.1 57.5-0.2 1.9 15.7 21.7 26.5 22.3 10.9 0.5 8.8-43 10.6-50.7 1.9-7.6 4.3-15.6 5.3-23 1.1-7.4 0.6-14 0.3-15.1-0.3-1.1-2.1-0.5-2.1-0.5z"/>
				<path id="&lt;Path&gt;" class="s11" d="m782.7 396.5c-6.6 2.9-10.8 3.6-15 8.9-4.2 5.3-8.5 14.4-9.5 20.2-1.1 5.8-0.3 52.4-0.3 60.4 0 7.9-9 69.4-7.1 71.3 1.8 1.8 7.4 2.9 7.4 2.9 0 0 39.2 2.4 46.6 2.1 7.4-0.3 30.2-2.1 37.6-4 7.4-1.8 10.9-1.6 12.7-7.1 1.9-5.6 1.1-18.3 0-26.5-1-8.2-5.8-32.1-5.5-39.2 0.2-7.2 1-44.8 1-52.8 0-7.9 1.1-28.8-5-32.8-6.1-4-23-8.5-35-8.8-11.9-0.2-23.2 3.3-27.9 5.4z"/>
				<path id="&lt;Path&gt;" class="s2" d="m787.4 511.6c-0.8 1.4-2.7 2.3-2.3 4.7 0.4 2.4 3.5 6.8 6.7 11.6 3.2 4.7 31.4 44.9 35 48.4 3.6 3.6 19.1 22.7 21.5 24.3 2.3 1.6 17.4-9.5 23.8-13.1 6.4-3.6 31-20.3 32.6-22.3 1.6-2 3.6 0.8 2.4-3.2-1.2-3.9-21.1-31.8-24.7-35.3-3.5-3.6-25.4-34.2-29.8-40.6-4.3-6.3-9.5-11.9-11.9-11.5-2.4 0.4-25.4 17.5-31 21.1-5.6 3.5-21.1 13.9-22.3 15.9z"/>
				<g id="&lt;Group&gt;">
					<path id="&lt;Path&gt;" class="s0" d="m849.3 464.5c0 0 8 16.5 9.8 19.6 1.9 3.2 3.2 5.9 3.5 7.5 0.2 1.5 0.5 3.4-0.6 8.2-1 4.7-10.3 37.9-12.2 41.6-1.8 3.7-5.3 10.3-7.6 12.4-2.4 2.1-17.8 8.2-19.4 8-1.6-0.3-2.1 1.8-1.6 2.9 0.6 1 1.9 1.8 4.5 1.6 2.7-0.3 8.8-0.8 8.8-0.8 0 0-3.2 2.9-5.3 4.5-2.1 1.6-4.8 2.9-5.3 4.5-0.5 1.6 0.8 5.6 1.8 7.7 1.1 2.1 3 3.7 6.9 6.1 4 2.4 6.6 3.4 7.4 3.4 0.8 0 7.7-9.3 10.9-12.4 3.2-3.2 3.7-4.3 4.8-8.5 1-4.3 1-11.4 1.3-13.8 0.3-2.4 15.9-30.5 20.1-37.4 4.3-6.8 12.2-25.4 12.2-29.4 0-3.9-11.4-36.8-14.3-41.3-2.9-4.5-15.6 2.1-19.6 4.5-4 2.4-5.6 8.7-5.6 8.7 0 0-1 1.1-0.5 2.4z"/>
				</g>
				<path id="&lt;Path&gt;" class="s11" d="m834.5 444.1c2.3 3.9 13.5 23.1 15.3 23.1 1.9 0 24.2-12.2 28.9-15.9 4.8-3.7 7.7-6.6 6.9-8.5-0.8-1.9 0.8-2.1-2.6-5.6-3.5-3.4-30.2-34.9-38.7-37.3-8.5-2.4-17.2 12.2-18.6 18.8-1.3 6.6 3.7 16.9 8.8 25.4z"/>
				<path id="&lt;Path&gt;" class="s5" d="m846.8 462.3c-10.9-12.6-17.6-27.6-21.1-43.9-0.1-0.6-1-0.3-0.9 0.3 2.4 16.4 10.3 32.1 21.1 44.5 0.5 0.7 1.4-0.2 0.9-0.9z"/>
				<path id="&lt;Path&gt;" class="s5" d="m758.3 456.2q0-7.6-0.1-15.3 0-3.8 0-7.6c0-2.4 0.3-4.9-0.3-7.3-0.1-0.4-0.7-0.4-0.8 0-0.5 2.4-0.3 4.9-0.3 7.3q0 3.5 0 7.1 0 7.9 0 15.8c0 10.4-0.1 20.7 0 31.1 0 0.9 1.4 0.9 1.4 0 0.1-10.4 0.1-20.7 0.1-31.1z"/>
				<g id="&lt;Group&gt;">
					<path id="&lt;Path&gt;" class="s0" d="m810.6 391.1c-11.9-0.2-23.2 3.3-27.9 5.4-1.9 0.8-3.6 1.5-5.2 2.2-1 3-2.2 8.6 2.2 13.5 6 6.8 16.1 7.9 28.4 2.4 10.7-4.9 19.9-16 21.5-20.7-6.3-1.5-13.2-2.6-19-2.8z"/>
				</g>
			</g>
			<g id="&lt;Group&gt;">
				<g id="&lt;Group&gt;">
					<path id="&lt;Path&gt;" class="s0" d="m782.3 401.3c0.4-2.4 0.8-2.6 0.4-6.2-0.4-3.6-1.4-6.2-1.6-8.5-0.2-2.4 4-5.8 4-5.8 0 0 11.9-11.3 14.5-12.5 2.6-1.2 2.8-2 3.7-0.6 1 1.4 1.6 0.8 2.8 4.2 1.2 3.3 6 17.4 6 17.4 0 0 2.4 4 2.2 5.6-0.2 1.6-2 2.6-8.6 6.2-6.5 3.5-17.7 5.5-17.7 5.5 0 0-7.1 2.4-5.7-5.3z"/>
				</g>
				<g id="&lt;Group&gt;">
					<path id="&lt;Path&gt;" class="s0" d="m759.4 337.7c-2.1 2.4-2.8 3-1.2 9.5 1.6 6.6 3.8 10.4 3.4 14.7-0.4 4.4-0.4 9.8 0.4 12.9 0.8 3.2 10.3 15.9 13.7 16.5 3.4 0.6 18.3-6.3 22.3-10.1 4-3.8 8.9-16.3 9.7-18.1 0.8-1.8 0.6-17.5-1.4-22.4-2-5-4.7-7.6-11.5-9.4-6.8-1.8-19.7-0.4-25.4 1.2-5.8 1.6-8.8 3.8-10 5.2z"/>
				</g>
				<path id="&lt;Path&gt;" class="s2" d="m805.3 344.2c-0.9-2.8-4.1-4.7-8.3-4.7-4.2 0-27 1.8-30.2 2.6-3.2 0.7-7.2 2.3-9.8 1.9-2.5-0.4-15.1-1.7-19.8-10.1-4.8-8.3-5.2-15.9-0.4-20.7 4.7-4.7 12.1-3.3 18.5-2 6.3 1.4 15.3 0.2 15.3 0.2 0 0 15.9-3.3 26-2.1 10.1 1.2 11.7 1.9 13.5 4.1 1.8 2.2 3.4 5.6 3.8 6.4 0.4 0.8 12.5 6.8 13.7 15.7 1.2 8.9-0.6 12.3-4.4 20.5-3.8 8.1-5.9 9.7-9.3 13.5-3.4 3.8-6.2 6.3-6.8 5.3-0.6-1-3.6-6.1-2.8-9.1 0.8-3 1.6-19.7 1-21.5z"/>
				<g id="&lt;Group&gt;">
					<path id="&lt;Path&gt;" class="s0" d="m807.8 349.2c0.6-0.4 1.3-0.8 2.1-0.7 1.3 0.2 2.4 1.8 2.5 3.4 0.2 1.7-0.2 3.3-0.8 4.8-1.8 4.5-4.7 8.4-8.3 10.8 0.5-0.3 0.5-4.4 0.6-5.1q0.3-2.8 0.4-5.7c0.1-1.5-0.1-3 0.7-4.3 0.7-1.3 1.7-2.4 2.8-3.2z"/>
				</g>
				<path id="&lt;Path&gt;" class="s2" d="m807.8 344.1c-0.7 1.7-0.6 8-2.9 12.6-2.3 4.7-3.6 6.2-4.1 4.2-0.5-2.1 0.2-3.1 0.2-7.3 0-4.1-1.3-10.8-0.7-14.4 0.5-3.7 2.5-7.5 4.9-6 2.3 1.6 3.1 4.7 3.1 6.2 0 1.6 0 3.4-0.5 4.7z"/>
				<path id="&lt;Path&gt;" class="s9" d="m802.4 315.8c-3.2-0.9-7.2-0.5-10.5-0.4q-5.8 0-11.6 0.3c-7.3 0.4-14.7 1-21.9 2.4-0.4 0.1-0.3 0.7 0.1 0.7 7.4-0.5 14.8-1.2 22.2-1.4q5.6-0.2 11.2-0.1c3.3 0 7.2 0.6 10.5-0.1 0.7-0.1 0.6-1.2 0-1.4z"/>
				<path id="&lt;Path&gt;" class="s9" d="m793.3 320.8c-1.1-0.1-2.1 0-3.2 0.1q-0.8 0-1.6 0c-0.5 0.1-1 0.2-1.6 0.3-0.3 0.1-0.3 0.7 0 0.8 0.6 0.1 1.1 0.2 1.6 0.2q0.8 0.1 1.6 0.1c1.1 0 2.1 0.1 3.2 0.1 0.3-0.1 0.6-0.3 0.7-0.6q0.1-0.2 0-0.4c-0.1-0.4-0.4-0.6-0.7-0.6z"/>
			</g>
		</g>
		<g id="&lt;Group&gt;">
			<path id="&lt;Path&gt;" class="s3" d="m346.6 792.7c-1.3-0.9 6-9.9 9.2-14.2 3.2-4.4 5.3-8.7 8-9.1 2.8-0.4 75.6 0.1 86.7 0.1 11.1 0.1 145.9-2.2 153.8-2.2 8 0.1 52.5-0.9 54.9-0.8 2.3 0 14.1 21.9 12.5 23.5-1.6 1.6-2.4 0.4-7.9 1.9-5.6 1.6-138 2.7-147.5 2.7-9.5-0.1-134.7 0.3-142.7-0.1-7.9-0.4-25.4-0.6-27-1.8z"/>
			<path id="&lt;Path&gt;" class="s2" d="m336 879.2c-7.7-0.6-8.4-2.8-9.2-5.6-0.8-2.7-0.4-15.5-0.4-27.4 0-11.9 1.6-48.5 2.8-51.7 1.2-3.1 1.2-4.7 3.6-5.1 2.4-0.4 6.7 0.4 13.1 0.4 6.3 0 132.7 1.6 147 0 14.3-1.6 137.6-2 149.9-2.8 12.3-0.8 44.9-2 46.9-1.6 2 0.4 2.4 0.8 2.8 2.4 0.4 1.6 0.4 66.8 0.4 70.7 0 4 1.9 15.1 0.4 16.7-1.6 1.6-0.4 1.2-6.4 2.4-6 1.2-114.1 4.4-123.6 4.4-9.5 0-126-0.8-150.2-0.4-24.3 0.4-71.6-2-77.1-2.4z"/>
			<path id="&lt;Compound Path&gt;" class="s9" d="m605.8 865.3c-37.1 1-74.2 1.7-111.4 1.7-37.3 0-74.6-0.3-111.9-1-10.4-0.2-20.8-0.5-31.2-0.6-8.3-0.2-16.7-0.5-25-0.5q0 1.2 0 2.4c7.2 0.4 14.3 0.6 21.4 0.9 9.2 0.4 18.4 0.6 27.6 0.8q27.9 0.7 55.7 1c37.3 0.4 74.7 0.1 112-0.5q31.4-0.4 62.8-1.4c1.8 0 1.9-2.9 0-2.8zm87.3-2.8c-2.3 0.4-4.7 0.8-7 1.1q-9.3 1.1-18.7 1.7-8.7 0.5-17.5 0.6-4.3 0.1-8.6 0.1c-2.9 0-5.9-0.3-8.7 0.4-0.5 0.1-0.5 0.9 0 1 5.3 1.6 11.7 1 17.2 0.9q9-0.1 18-0.6 8.5-0.5 16.9-1.5 4.4-0.4 8.7-1-0.1-1.4-0.3-2.7z"/>
			<path id="&lt;Path&gt;" class="s3" d="m417.6 832.9c-1.4-1.4-3-2.4-4.8-3.1-0.9-0.4-1.9-0.6-2.9-0.7q-0.7-0.1-1.5-0.1c-0.5 0-0.9 0.2-1.3 0.5-0.1 0.1-14.3 7-17.6 22.2-1.3 6-1.4 12.2-1.3 18.3 0.2 7.2 0.2 14.3 0 21.4 0 0.2 0.2 0.4 0.3 0.4 0 0.2 0 0.3 0.1 0.5 0.5 0.7 1.5 0.9 2.3 1.2q1.5 0.4 2.9 0.7 3.2 0.6 6.3 0.4c2.1-0.1 4.1-0.4 6-1.1 1.9-0.6 4-1.3 5.4-2.7q0.1-0.1 0.1-0.2c0.2-0.2 0.3-0.4 0.3-0.7-0.4-8.8-1.5-17.7 0.2-26.5 0.7-3.6 1.8-7.2 3.4-10.4 0.8-1.6 1.7-3.1 2.6-4.5 1-1.4 2.2-2.7 3.1-4 0.3-0.1 0.6-0.4 0.6-0.9 0.2-3.9-1.3-7.9-4.2-10.7z"/>
			<path id="&lt;Path&gt;" class="s3" d="m457.4 832.9c-1.4-1.4-3.1-2.4-4.9-3.1-0.9-0.4-1.9-0.6-2.8-0.7q-0.8-0.1-1.6-0.1c-0.5 0-0.8 0.2-1.2 0.5-0.2 0.1-15.8 9.4-17.6 22.2-0.9 6.1-1.5 12.2-1.3 18.3 0.1 7.2 0.1 14.3 0 21.4-0.1 0.2 0.1 0.4 0.3 0.4-0.1 0.2-0.1 0.3 0 0.5 0.6 0.7 1.5 0.9 2.4 1.2q1.4 0.4 2.9 0.7 3.1 0.6 6.3 0.4c2-0.1 4-0.4 6-1.1 1.9-0.6 3.9-1.3 5.4-2.7q0.1-0.1 0.1-0.2c0.2-0.2 0.3-0.4 0.3-0.7-0.4-8.8-1.5-17.7 0.2-26.5 0.6-3.6 1.7-7.2 3.3-10.4 0.8-1.6 1.7-3.1 2.7-4.5 0.9-1.4 2.1-2.7 3.1-4 0.3-0.1 0.6-0.4 0.6-0.9 0.1-3.9-1.4-7.9-4.2-10.7z"/>
			<path id="&lt;Path&gt;" class="s0" d="m523.9 788.1q-63.1 0.4-126.2 0.8-8.7 0.1-17.4 0.2c-5.8 0-11.8-0.2-17.6 0.6-0.4 0.1-0.2 0.7 0.1 0.7 5.3 0.7 10.7 0.5 16 0.4q7.7 0 15.3-0.1 15.7-0.1 31.3-0.2 31.3-0.2 62.6-0.4 18-0.1 35.9-0.2c1.2 0 1.2-1.8 0-1.8z"/>
			<path id="&lt;Path&gt;" class="s0" d="m595.1 786.3q-14.5 0.4-28.9 0.7l-14.2 0.4q-3.6 0.1-7.1 0.2c-2.3 0-4.7-0.2-6.8 0.6-0.5 0.2-0.6 0.9 0 1.1 2 0.6 4.2 0.3 6.3 0.2q3.5-0.1 7.1-0.2l14.7-0.4q14.4-0.4 28.9-0.8c1.1 0 1.1-1.8 0-1.8z"/>
		</g>
		<g id="&lt;Group&gt;">
			<path id="&lt;Path&gt;" class="s3" d="m672.4 285.6c1.3 0.9-6 9.9-9.2 14.2-3.2 4.4-5.3 8.8-8 9.1-2.8 0.4-75.1-0.5-86.2-0.6-11-0.1-145 1.4-152.9 1.4-7.9-0.1-52.2 0.5-54.6 0.5-2.3 0-13.9-22.2-12.3-23.7 1.6-1.6 2.4-0.4 7.9-1.9 5.6-1.6 137.2-2 146.6-1.9 9.5 0.1 134 0.4 141.9 0.9 7.9 0.5 25.3 0.7 26.8 2z"/>
			<path id="&lt;Path&gt;" class="s2" d="m683.5 198.7c7.7 0.6 8.3 2.8 9.1 5.6 0.8 2.8 0.3 15.6 0.2 27.6 0 12-1.8 48.8-3 52-1.2 3.2-1.3 4.7-3.6 5.1-2.4 0.4-6.7-0.4-13.1-0.4-6.3-0.1-131.9-2.4-146.2-0.9-14.2 1.5-136.7 1.2-148.9 1.9-12.3 0.8-44.7 1.8-46.7 1.4-2-0.5-2.3-0.9-2.7-2.5-0.4-1.6 0-67.1 0-71.1 0-4-1.9-15.2-0.3-16.8 1.6-1.6 0.4-1.2 6.3-2.4 6-1.1 113.5-3.7 122.9-3.7 9.5 0.1 125.3 1.6 149.4 1.3 24.1-0.2 71.1 2.4 76.6 2.9z"/>
			<path id="&lt;Path&gt;" class="s4" d="m659.5 240.2c0-0.8-0.1-7.7-0.2-7.2-0.1 0.3 0-9.7-0.2-10.5q0.1-0.7 0.1-1.3c-0.1-2.9-2.4-5.7-5.4-5.6-3 0.1-5.4 2.4-5.5 5.5 0 0.5-0.1 12.2-0.2 11.8-0.1-0.4-0.3 5.7-0.2 6.3 0 0.2 0 5.3 0.1 5.6q-0.1 0.4-0.1 0.9c-0.3 3 2.8 6 5.7 5.8 2.9-0.1 6.1-2.5 5.8-5.8q0-0.4 0-0.9c0-0.3 0-4.1 0.1-4.6z"/>
			<path id="&lt;Path&gt;" class="s5" d="m634.2 240.1c0-0.9-0.1-7.7-0.2-7.3-0.1 0.4 0-9.7-0.2-10.5q0.1-0.6 0.1-1.3c-0.1-2.9-2.4-5.7-5.4-5.5-3 0.1-5.4 2.4-5.5 5.4 0 0.5-0.1 12.3-0.2 11.9-0.1-0.4-0.3 5.6-0.2 6.2 0 0.3 0 5.4 0.1 5.6q-0.1 0.5-0.1 0.9c-0.2 3.1 2.8 6 5.7 5.9 3-0.1 6.1-2.5 5.8-5.8q0-0.5 0-1c0-0.2 0-4 0.1-4.5z"/>
			<path id="&lt;Path&gt;" class="s5" d="m608.9 239.9c0-0.8 0-7.7-0.1-7.2-0.1 0.3-0.1-9.7-0.3-10.5q0.1-0.7 0.1-1.3c-0.1-2.9-2.4-5.7-5.4-5.6-3 0.1-5.4 2.4-5.5 5.5 0 0.5-0.1 12.2-0.2 11.8-0.1-0.4-0.2 5.7-0.1 6.3-0.1 0.2 0 5.3 0 5.6q0 0.4-0.1 0.9c-0.2 3 2.8 6 5.8 5.8 2.9-0.1 6-2.5 5.8-5.8q-0.1-0.4-0.1-0.9c0-0.3 0-4.1 0.1-4.6z"/>
			<path id="&lt;Path&gt;" class="s9" d="m603.7 285.7c-61 0.3-122 1.1-183.1 1.8-17.3 0.2-34.6 0.4-51.8 1-0.8 0-0.8 1.1-0.1 1.1 30.6 0.3 61.1-0.3 91.6-0.6q45.8-0.5 91.6-1 25.9-0.3 51.8-0.7c1-0.1 1.1-1.6 0-1.6z"/>
			<path id="&lt;Path&gt;" class="s9" d="m651.2 286.8q-9 0.4-18 0.3-4.5-0.1-9-0.3c-2.7-0.1-5.8-0.8-8.4-0.2-0.4 0.1-0.4 0.7 0 0.8 2.4 1.1 5.7 0.8 8.3 1q4.5 0.3 9 0.4 9.1 0.2 18-0.2c1.2-0.1 1.2-1.8 0.1-1.8z"/>
			<path id="&lt;Path&gt;" class="s0" d="m328.9 234.4q-0.1-2.8-0.1-5.6 0-1.4 0-2.8c0-0.9 0.1-1.9-0.2-2.8-0.2-0.6-1.1-0.7-1.3 0-0.3 0.9-0.1 1.9-0.1 2.8q0 1.3 0 2.5 0.1 3 0.1 5.9c0.1 3.6-0.1 7.5 0.5 11.1 0.1 0.4 0.8 0.4 0.8 0 0.5-3.6 0.3-7.5 0.3-11.1z"/>
			<path id="&lt;Path&gt;" class="s0" d="m530.5 194.5c-13.1-0.6-26.4-0.3-39.6-0.3q-19.8-0.1-39.5 0.1-39.1 0.4-78.2 1.5c-14.9 0.4-29.7 0.9-44.6 1.6-0.5 0.1-0.7 0.4-0.8 0.8-0.6 0.4-0.4 1.7-0.4 2.3q0 1.9 0.1 3.7 0.1 1.7 0.1 3.4c0.1 1.1 0 2.5 0.3 3.6 0.2 0.6 1.2 0.7 1.3 0 0.3-1.2 0.1-2.5 0.1-3.6q0-1.7 0-3.4 0-1.8-0.1-3.7c0-0.3 0-0.9-0.1-1.4 52.3-1.3 104.5-2.8 156.8-2.9 14.8-0.1 29.7 0.4 44.6 0 1.1 0 1.1-1.7 0-1.7z"/>
		</g>
		<g id="&lt;Group&gt;">
			<path id="&lt;Path&gt;" class="s7" d="m417.7 678.6q-0.2-5.3-0.4-10.6c0-0.4-0.2-0.7-0.4-0.9-0.2-0.6-0.8-1.1-1.8-1.2-4.3-0.6-9-0.3-13.4-0.4q-6.4 0-12.8 0-13.5 0-27 0-13.2 0-26.5 0.1c-8.9 0.1-18-0.1-26.9 0.6-0.3 0-0.6 0.1-0.8 0.1q0 0-0.1 0 0.7 35.9 1.2 71.7c0.2 0.3 0.6 0.6 1.3 0.6 8.6 0.8 17.5 0.4 26.2 0.3 9-0.1 18.1-0.2 27.1-0.3q13.3-0.2 26.6-0.4 6.6-0.1 13.3-0.2c4.4 0 9.2 0.2 13.5-0.4 0.2 0 0.3 0 0.4-0.1q0.6-0.1 1-0.3c0-11.1-0.1-22.2-0.3-33.2-0.3-8.5-0.2-17-0.2-25.4z"/>
			<path id="&lt;Path&gt;" class="s0" d="m406.8 683c-3.4 3.1-6.9 6.2-10.4 9.2q-3.8-3.4-7.6-6.8c-0.6-0.6-1.5-0.6-2.2 0-9.3 8.6-18.5 17.4-27.8 26-3.8-4.2-7.6-8.3-11.2-12.6-0.6-0.8-1.7-0.5-2.3 0-5.2 4.2-10 9-14.9 13.6-4.9 4.6-9.8 9.2-14.3 14.2-0.5 0.6 0.2 1.6 0.9 1.1 5.3-4 10.3-8.4 15.3-12.8 4.7-4.1 9.6-8.3 14.1-12.7 3.9 4 7.6 8.1 11.4 12.2 0.5 0.6 1.4 0.4 2 0 9.3-8.7 18.7-17.2 28-25.8 2.5 2.2 5.1 4.5 7.5 6.7 0.7 0.6 1.6 0.6 2.2 0 3.9-3.4 7.7-6.7 11.7-10 1.6-1.3-0.8-3.7-2.4-2.3z"/>
		</g>
		<g id="&lt;Group&gt;">
			<path id="&lt;Compound Path&gt;" fill-rule="evenodd" class="s8" d="m139 705.5c4.6 1.3 15.7 4.7 15.7 4.7l0.3 0.7-0.5 16.6c0 0-0.1 0.8-0.5 1.6-0.4 0.8-7.1 1.8-9.2 2-1.3 0.2-5 0.9-8 1.6-1.6 4.5-3.9 8.7-7.2 12.2l3.3 13.9c0 0 0.2 1.6 0.2 2.2 0 0.6-14.3 7.2-14.3 7.2 0 0-1.5 0.7-2 1-0.4 0.2-7.5-7.7-11.1-11.8-4.9 0.8-10 0.4-15-1.1-1.9 2.1-10.4 9.5-10.9 9.9-0.6 0.5-0.7 0.2-1.3 0.3-0.5 0.2-12.6-8.3-12.6-8.3 0 0-1.6-0.6-2-1.4-0.3-0.5 3.2-10.5 5-15.7q-0.8-1.2-1.6-2.5c-1.9-3.1-3.2-6.4-4.2-9.9-5.7-1.7-16.7-5-16.7-5.7 0-0.9 0.1-2.9 0.3-4.2 0.1-1.3 0.7-11.5 0.7-12.2-0.1-0.8-0.5-1.4 0-1.8 0.5-0.4 12.5-2.8 17.5-3.8 1.3-3 2.9-5.9 5-8.5q1-1.2 2.1-2.4c-0.6-2.7-1.1-5.5-1.4-6.8-0.5-2.6-3.3-9.5-2.3-10.4 1-0.9 15.4-8.5 16.3-8.2 0.8 0.3 8.7 9.6 11.4 12.8 4.7-0.7 9.5-0.6 14.2 0.3 3.5-3.3 11.6-10.8 12.4-10.9 1.1-0.1 14.9 9.3 15.3 10 0.4 0.7-2 5.1-2.2 6-0.1 0.6-1.5 5.7-2.6 9.5 1.2 1.5 2.2 3.1 3.1 4.9 1.3 2.6 2.2 5.4 2.8 8.2zm-23.4 0.3c-5.2-6.6-14.4-9.1-22.1-5.6-7.7 3.6-12.2 11.9-10.7 20.3 0.9 4.7 3.6 9 7.5 11.7 2.9 2 7.1 3.7 10.8 3.2 5.5-0.1 11.2-2.8 14.5-7 5-6.5 5.1-16.2 0-22.6z"/>
			<path id="&lt;Compound Path&gt;" fill-rule="evenodd" class="s8" d="m150.3 619c3.3 0.8 11.2 2.8 11.2 2.8l0.3 0.5 0.1 11.7c0 0 0 0.6-0.3 1.2-0.2 0.5-4.9 1.4-6.3 1.7-1 0.1-3.5 0.8-5.6 1.3-1 3.3-2.5 6.3-4.7 8.9l2.8 9.6c0 0 0.1 1.1 0.2 1.5 0 0.4-9.8 5.5-9.8 5.5 0 0-1 0.6-1.4 0.8-0.3 0.1-5.5-5.2-8.2-7.9-3.4 0.7-7 0.6-10.5-0.3-1.3 1.5-7.1 7-7.4 7.3-0.4 0.3-0.5 0.2-0.9 0.3-0.4 0.1-9.1-5.5-9.1-5.5 0 0-1.2-0.4-1.5-0.9-0.2-0.4 1.9-7.5 3.1-11.2q-0.7-0.8-1.3-1.7c-1.4-2.1-2.5-4.4-3.2-6.8-4.1-1-12-3-12-3.5 0-0.6 0.1-2 0.1-2.9 0-1 0.2-8.2 0.1-8.7-0.1-0.5-0.4-0.9 0-1.2 0.3-0.3 8.7-2.4 12.1-3.2 0.8-2.2 1.9-4.3 3.3-6.2q0.7-0.9 1.4-1.7c-0.5-1.9-1-3.9-1.2-4.8-0.5-1.8-2.6-6.5-2-7.2 0.7-0.7 10.6-6.5 11.2-6.3 0.6 0.2 6.4 6.5 8.4 8.7 3.3-0.7 6.7-0.8 10-0.3 2.4-2.4 7.9-8 8.4-8 0.7-0.1 10.8 6 11.1 6.5 0.2 0.5-1.3 3.7-1.4 4.3 0 0.4-0.9 4-1.5 6.7q1.3 1.6 2.3 3.4c1 1.8 1.7 3.7 2.2 5.6zm-16.4 1c-3.8-4.5-10.4-5.9-15.7-3.2-5.3 2.7-8.2 8.7-6.8 14.6 0.7 3.3 2.7 6.2 5.6 8 2.1 1.3 5.1 2.3 7.7 1.8 3.8-0.1 7.7-2.2 9.9-5.3 3.4-4.8 3.1-11.5-0.7-15.9z"/>
		</g>
		<g id="&lt;Group&gt;">
			<g id="&lt;Group&gt;">
				<path id="&lt;Path&gt;" class="s8" d="m711.6 673.3q-0.1-0.9-0.2-1.8c0 0-0.2-0.1-0.4-0.1q-0.2-0.2-1.4-0.2c-3.5-0.2-7.2-0.1-10.7-0.2q-5.1 0-10.2-0.1-10.8 0-21.5-0.1-10.6-0.1-21.1-0.1c-7.2-0.1-14.5-0.2-21.6-0.1q-0.3 0-0.6 0 0 0 0 0 0.2 6.1 0.2 12.2 0.3 0.1 1 0.1c6.9 0.2 14 0.2 21 0.2q10.8 0 21.6 0.1 10.6 0 21.2 0.1 5.3 0 10.6 0c3.5 0 7.3 0.1 10.8 0q0.2 0 0.3 0 0.4 0 0.8 0c0.1-1.9 0.1-3.8 0-5.7 0-1.4 0-2.8 0.2-4.3z"/>
				<path id="&lt;Path&gt;" class="s8" d="m672.3 697q0-0.9 0-1.8-0.1-0.1-0.2-0.2-0.2-0.1-0.8-0.2c-1.9-0.1-4-0.1-6-0.1q-2.8 0-5.6-0.1-5.9 0-11.9-0.1-5.8 0-11.7 0c-3.9-0.1-7.9-0.1-11.9-0.1q-0.2 0-0.3 0.1 0 0 0 0 0.1 6 0.1 12.1 0.1 0.1 0.5 0.1c3.8 0.2 7.8 0.2 11.6 0.2q6 0 12 0 5.8 0.1 11.7 0.1 2.9 0 5.9 0c1.9 0 4 0.1 5.9 0q0.1 0 0.2 0 0.2 0 0.4-0.1 0.1-2.8 0.1-5.6c-0.1-1.5 0-2.9 0-4.3z"/>
				<path id="&lt;Path&gt;" class="s8" d="m695.7 721q-0.1-0.9-0.2-1.8c0-0.1-0.1-0.2-0.3-0.2q-0.2-0.2-1.1-0.2c-2.9-0.1-5.9-0.1-8.8-0.1q-4.2-0.1-8.3-0.1-8.9-0.1-17.7-0.2-8.6 0-17.3-0.1c-5.8 0-11.8-0.1-17.6 0q-0.3 0-0.5 0 0 0 0 0 0.1 6.1 0.1 12.2 0.3 0.1 0.9 0.1c5.6 0.2 11.4 0.1 17.1 0.2q8.9 0 17.7 0 8.7 0.1 17.4 0.1 4.3 0 8.7 0.1c2.9 0 6 0 8.8 0q0.2 0 0.3-0.1 0.3 0 0.6 0c0.1-1.9 0.1-3.8 0.1-5.6-0.1-1.5 0-2.9 0.1-4.3z"/>
			</g>
			<g id="&lt;Group&gt;">
				<path id="&lt;Path&gt;" class="s8" d="m357.8 549.5q0-0.9-0.1-1.8c0-0.1-0.1-0.2-0.3-0.2q-0.2-0.2-1.1-0.2c-2.7-0.1-5.7-0.1-8.4-0.1q-4.1-0.1-8.1-0.1-8.4-0.1-16.9-0.1-8.4-0.1-16.7-0.2c-5.6 0-11.3-0.1-16.9 0q-0.3 0-0.5 0-0.1 0-0.1 0 0.2 6.1 0.2 12.2 0.2 0.1 0.8 0.1c5.4 0.2 11 0.2 16.5 0.2q8.5 0 17 0.1 8.4 0 16.8 0 4.1 0 8.3 0.1c2.8 0 5.8 0 8.6 0q0.1 0 0.2-0.1 0.3 0 0.6 0c0.1-1.9 0.1-3.8 0-5.6 0-1.5 0.1-2.9 0.1-4.3z"/>
				<path id="&lt;Path&gt;" class="s8" d="m337.2 573.2q0-0.9-0.1-1.8 0-0.1-0.2-0.2-0.1-0.1-0.7-0.2c-2-0.1-4-0.1-6-0.1q-2.8 0-5.6 0-6-0.1-11.9-0.1-5.9-0.1-11.7-0.1c-4-0.1-8-0.1-11.9 0q-0.2 0-0.3 0-0.1 0-0.1 0 0.1 6.1 0.1 12.1 0.2 0.1 0.6 0.1c3.8 0.2 7.7 0.2 11.6 0.2q5.9 0 11.9 0 5.9 0.1 11.8 0.1 2.9 0 5.8 0c2 0 4.1 0.1 6 0q0.1 0 0.2 0 0.2 0 0.4-0.1 0.1-2.8 0-5.6c0-1.4 0.1-2.9 0.1-4.3z"/>
			</g>
		</g>
		<path id="&lt;Compound Path&gt;" fill-rule="evenodd" class="s8" d="m839.9 267.9c-13.7 10.5-32.4 14.3-49.2 10.5-0.3 0.2-10.4-3-14.4-5.7-3.1-1.8-9.2-7.4-9-7.7-11.4-12.4-17.2-30.6-14.4-47.1 0.9-4.9 2.5-9.6 4.6-14.1q0-0.3 0.2-0.5c7.8-16 23-28.4 40.9-30.8 23.4-3.1 47.2 9.1 57.2 30.6 10.3 22.3 3.5 49.9-15.9 64.8zm-10.1-84.7c1.8 4.9 3.2 9.9 4.3 15 2.9 0.5 5.9 1 8.8 1.6 1.7 0.3 3.6 0.6 5.4 1q-0.8-1.5-1.7-2.9c-4.3-6.2-10.2-11.2-16.8-14.7zm-24.8 68.4q0.4-10.8 0.3-21.6c-8.7 0-17.5 0.1-26.3 0 0.4 7.1 1.7 14 3.7 20.6 7.3 0.6 14.7 0.9 22 1q0.1 0 0.3 0zm27.9-25.7c0.3-8.1-0.3-16.2-1.8-24.2q-0.7-0.1-1.3-0.2c-6.8-0.9-13.8-1.3-20.7-1.3 0.3 8.6 0.2 17.2 0 25.8 7.9 0 15.9 0.1 23.8-0.1zm-23.9 4.1q-0.2 10.8-0.6 21.5 10.2 0 20.4-0.8c1.9-6.6 3.2-13.3 3.8-20.2q0-0.3 0-0.7c-7.8 0.1-15.7 0.3-23.6 0.2zm-0.5-52.6c0.4 2.9 0.1 6.3 0.2 8.9 0.2 3.3 0.2 6.6 0.3 9.9q10.7 0.2 21.3 1.5c-1.4-5.7-3.2-11.3-5.5-16.8-5.2-2-10.7-3.2-16.3-3.5zm-3.5 22.7q-11.3 0.1-22.5 1.5c-2.3 7.8-3.6 15.8-3.6 23.9q0 0.1 0 0.1c8.8 0.2 17.6 0.4 26.5 0.4q-0.1-12.9-0.4-25.9zm-13.1-20.8c-2.8 6-5.8 11.9-8 18.1 6.9-0.8 14-1.2 21-1.3-0.1-3.5-0.3-7-0.4-10.5-0.1-2.5-0.6-5.5-0.4-8.3-4.2 0.2-8.3 0.8-12.2 2zm-27.5 21.5c4.9-1.3 9.9-2.1 14.9-2.8 2-6.2 4.7-12 8.4-17.2-9.6 4.1-17.7 11.2-23.3 20zm-7.8 24.9c6-0.2 12.1-0.2 18.2-0.1q0-0.3 0-0.6c0.2-7.4 1.2-15.2 3.2-22.8-5.3 0.9-10.6 1.9-16 2.8-3.2 6.3-5.1 13.4-5.4 20.7zm0 3.3c0.3 7.1 2.1 13.7 5.1 19.7 2.8-0.2 5.8 0.5 8.5 0.8 2.6 0.3 5.1 0.5 7.6 0.7-1.8-6.7-2.8-13.5-3-20.3-6.1-0.1-12.2-0.4-18.2-0.9zm30.3 42.6c-3.4-5.4-6-11.4-8-17.7q-5.1-0.5-10.2-1.1c-1.6-0.3-3.4-0.4-5.2-0.8 3.9 6.6 9.3 12.3 15.5 17.1q3.9 1.4 7.9 2.5zm17.5-5.5q0.2-5.5 0.4-10.9 0 0-0.1 0c-6.9-0.1-13.9-0.4-20.8-0.9 2.2 6.3 5 12.5 8.4 18.6q0 0 0 0.1c3.9 0.7 7.8 1.2 11.7 1.2-0.1-2.7 0.3-5.6 0.4-8.1zm18 1.5q2.8-5.7 4.9-11.8c0.1-0.4 0.2-0.9 0.4-1.3-6.5 0.4-13 0.6-19.5 0.6-0.1 3.9-0.3 7.8-0.6 11.6-0.1 2.3-0.1 5-0.5 7.4 0.7 0 1.5 0 2.2-0.1 3.7-0.3 7.3-1.1 10.8-2.2 0.8-1.5 1.8-3.1 2.3-4.2zm24.8-15.2q-7.9 1.1-15.8 1.8c-0.3 0.8-0.6 1.7-0.9 2.5q-2.1 6.2-5 12.1c-0.2 0.4-0.4 0.8-0.7 1.4 6.8-2.8 12.9-6.9 18.1-12.3 1.6-1.7 3-3.6 4.3-5.5zm7.6-22.9c-2.9 0.5-6.4 0-9.1 0.1q-4.8 0.1-9.5 0.1 0 0.4-0.1 0.8c-0.6 6.7-1.7 13.4-3.6 19.9q8.5-0.7 16.9-1.7c3.2-5.9 4.9-12.5 5.4-19.2zm0.1-4c-0.1-6.9-1.6-13.8-4.3-20.1-2.9-0.4-5.9-1.5-8.7-2q-3.5-0.6-7-1.1c1.3 7.7 1.8 15.7 1.5 23.6q5-0.1 10-0.2c2.5 0 5.7-0.6 8.5-0.2z"/>
		<g id="&lt;Group&gt;">
			<path id="&lt;Path&gt;" class="s12" d="m730.5 383.3q0-5-0.1-10c0-0.4-0.2-0.7-0.4-0.9-0.2-0.6-0.6-1-1.5-1.2-3.6-0.6-7.6-0.4-11.4-0.5q-5.4-0.1-10.8-0.2-11.4-0.2-22.8-0.4-11.2-0.2-22.4-0.3c-7.6 0-15.3-0.3-22.9 0.2q-0.3 0-0.6 0.1-0.1 0-0.1 0 0.1 33.9 0 67.7c0.2 0.3 0.6 0.6 1.1 0.6 7.3 0.9 14.8 0.6 22.2 0.7 7.6 0 15.3 0 22.9 0q11.3 0 22.6 0.1 5.6 0 11.2 0c3.8 0 7.8 0.3 11.5-0.2 0.1 0 0.2-0.1 0.3-0.1q0.5-0.1 0.8-0.3c0.2-10.5 0.3-21 0.2-31.4 0-8 0.1-16 0.2-23.9z"/>
			<path id="&lt;Path&gt;" class="s0" d="m710.5 384q-0.1-0.7-0.1-1.3-0.1-0.1-0.3-0.2-0.2-0.1-1-0.1c-2.5-0.1-5.2-0.1-7.7-0.1q-3.6-0.1-7.3-0.1-7.7-0.1-15.4-0.1-7.6-0.1-15.1-0.1c-5.1 0-10.3-0.1-15.4 0q-0.3 0-0.5 0 0 0 0 0 0.1 4.6 0.2 9.1 0.2 0.1 0.7 0.1c4.9 0.2 10 0.1 15 0.2q7.7 0 15.5 0 7.6 0.1 15.2 0.1 3.8 0 7.6 0c2.5 0.1 5.2 0.1 7.7 0.1q0.1-0.1 0.2-0.1 0.3 0 0.6 0c0.1-1.4 0.1-2.8 0-4.2 0-1.1 0-2.2 0.1-3.3z"/>
			<path id="&lt;Path&gt;" class="s0" d="m719.3 401.8q-0.1-0.7-0.2-1.3c0-0.1-0.1-0.1-0.3-0.2q-0.2-0.1-1.1-0.1c-2.9-0.1-5.9-0.1-8.8-0.1q-4.1-0.1-8.3-0.1-8.8-0.1-17.6-0.1-8.6-0.1-17.2-0.1c-5.8-0.1-11.8-0.1-17.6-0.1q-0.2 0-0.5 0 0 0 0 0 0.2 4.6 0.2 9.2 0.2 0.1 0.8 0.1c5.6 0.1 11.5 0.1 17.1 0.1q8.8 0.1 17.6 0.1 8.7 0.1 17.4 0.1 4.3 0 8.6 0c2.9 0.1 6 0.1 8.9 0.1q0.1-0.1 0.2-0.1 0.4 0 0.6 0c0.1-1.4 0.2-2.8 0.1-4.2-0.1-1.1 0-2.2 0.1-3.3z"/>
			<path id="&lt;Path&gt;" class="s0" d="m702 419.5q0-0.7-0.1-1.4 0-0.1-0.2-0.1-0.2-0.1-0.9-0.2c-2.1-0.1-4.5 0-6.6-0.1q-3.2 0-6.3 0-6.7-0.1-13.4-0.1-6.5-0.1-13.1-0.1c-4.4 0-8.9-0.1-13.3 0q-0.2 0-0.4 0 0 0 0 0 0.1 4.6 0.1 9.2 0.2 0 0.7 0c4.2 0.2 8.6 0.1 12.9 0.2q6.7 0 13.4 0 6.6 0.1 13.2 0.1 3.2 0 6.5 0c2.2 0 4.6 0.1 6.7 0q0.1 0 0.2 0 0.3 0 0.5 0 0.1-2.2 0-4.3c0-1.1 0-2.1 0.1-3.2z"/>
		</g>
	</g>
</svg>